G04 Layer_Physical_Order=4*
G04 Layer_Color=16711680*
%FSLAX25Y25*%
%MOIN*%
G70*
G01*
G75*
%ADD10C,0.01000*%
%ADD52C,0.01200*%
%ADD55C,0.02000*%
%ADD56R,0.07087X0.07087*%
%ADD57C,0.07087*%
%ADD58C,0.06299*%
%ADD59R,0.06299X0.06000*%
%ADD60O,0.08661X0.05118*%
%ADD61C,0.14961*%
%ADD62R,0.06693X0.06693*%
%ADD63C,0.06693*%
%ADD64R,0.06693X0.06693*%
%ADD65C,0.02362*%
%ADD66C,0.03937*%
%ADD67C,0.15748*%
%ADD68C,0.01969*%
%ADD69C,0.02400*%
D10*
X460706Y169000D02*
X465706Y164000D01*
X417000Y61500D02*
X432362Y46138D01*
X380500Y61500D02*
X417000D01*
X416000Y68000D02*
X430500Y53500D01*
X384500Y68000D02*
X416000D01*
X191000Y169000D02*
X460706D01*
X71000Y333000D02*
X72000Y334000D01*
X27156Y333000D02*
X71000D01*
X26500Y332344D02*
X27156Y333000D01*
X74000Y330500D02*
X76148Y328352D01*
X36500Y330500D02*
X74000D01*
X28500Y322500D02*
X36500Y330500D01*
X26500Y312659D02*
X28659Y310500D01*
X50000D01*
X26500Y322500D02*
X28500D01*
X60000Y320500D02*
X71000D01*
X50000Y310500D02*
X60000Y320500D01*
X71000D02*
X74690Y324189D01*
X72000Y334000D02*
X75000D01*
X127819Y328181D02*
X130860D01*
X127221Y328779D02*
X127819Y328181D01*
X74690Y324189D02*
Y325056D01*
X74944D01*
X129750Y314500D02*
X132000D01*
X165500Y194500D02*
Y285750D01*
X129750Y321500D02*
X165500Y285750D01*
X170500Y195500D02*
Y288542D01*
X130860Y328181D02*
X170500Y288542D01*
X132000Y314500D02*
X160000Y286500D01*
Y192500D02*
Y286500D01*
X170500Y195500D02*
X193500Y172500D01*
X165500Y194500D02*
X191000Y169000D01*
X160000Y192500D02*
X187500Y165000D01*
X459500D01*
X461500Y163000D01*
X129750Y310000D02*
X153500Y286250D01*
Y190000D02*
Y286250D01*
Y190000D02*
X183319Y160181D01*
X179500Y157500D02*
X421000D01*
X129500Y210000D02*
X130000D01*
X138000Y202000D01*
Y176500D02*
Y202000D01*
X134365Y213365D02*
X140500Y207230D01*
X138000Y176500D02*
X169500Y145000D01*
X402000D01*
Y151500D02*
X406000Y147500D01*
Y140000D02*
Y147500D01*
X183319Y160181D02*
X460319D01*
X465500Y155000D01*
X458000Y263500D02*
Y266000D01*
X455000Y269000D02*
X458000Y266000D01*
X314000Y269000D02*
X455000D01*
X302500Y280500D02*
X314000Y269000D01*
X305500Y283500D02*
X317000Y272000D01*
X308750Y286750D02*
Y313750D01*
X305000Y317500D02*
X308750Y313750D01*
X305500Y283500D02*
Y310500D01*
X302500Y280500D02*
Y307500D01*
X463858Y114264D02*
Y142000D01*
X461000Y152000D02*
X464509D01*
X469764Y114264D02*
Y128764D01*
X472000Y131000D01*
X464509Y152000D02*
X472000Y144509D01*
Y131000D02*
Y144509D01*
X463731Y277731D02*
X468000Y273463D01*
Y255000D02*
Y273463D01*
X459750Y275250D02*
X465000Y270000D01*
Y258000D02*
Y270000D01*
X317000Y272000D02*
X457000D01*
X461000Y268000D01*
Y260500D02*
Y268000D01*
X419000Y89500D02*
X427500D01*
X405750Y88750D02*
X410000Y93000D01*
X402500Y88000D02*
X405000Y85500D01*
X402500Y88000D02*
Y90000D01*
X402000Y97500D02*
X423500D01*
X399500Y95000D02*
X402000Y97500D01*
X399500Y85500D02*
Y95000D01*
Y85500D02*
X401500Y83500D01*
X402500D01*
X423500Y97500D02*
X425500Y99500D01*
Y148500D01*
X432500Y155500D01*
X428000Y145000D02*
X436500Y153500D01*
X432000Y94000D02*
Y140500D01*
X437500Y146000D01*
X427500Y89500D02*
X432000Y94000D01*
X443000Y131500D02*
Y146500D01*
X441500Y130000D02*
X443000Y131500D01*
X436000Y130000D02*
X441500D01*
X434000Y128000D02*
X436000Y130000D01*
X410000Y93000D02*
X425000D01*
X428000Y96000D01*
Y145000D01*
X405000Y85500D02*
X429000D01*
X434000Y90500D01*
Y128000D01*
X513817Y140286D02*
X575285D01*
X589500Y154500D01*
X439750Y112750D02*
X445750Y106750D01*
X483750D01*
X513786Y136785D01*
X440250Y116250D02*
X446250Y110250D01*
X483781D01*
X513817Y140286D01*
X445500Y102500D02*
X483950D01*
X439500Y108500D02*
X445500Y102500D01*
X483950D02*
X513986Y132536D01*
X442500Y100500D02*
X484496D01*
X437000Y106000D02*
X442500Y100500D01*
X484496D02*
X512996Y129000D01*
X513786Y136785D02*
X576735D01*
X513986Y132536D02*
X578496D01*
X512996Y129000D02*
X579960D01*
X420500Y73500D02*
X486000D01*
X420500Y77500D02*
X486000D01*
X420500Y81484D02*
X486000D01*
Y69673D02*
X493673Y62000D01*
X486000Y73500D02*
X493673Y65827D01*
X486000Y77500D02*
X495481Y68019D01*
X486000Y81484D02*
X493503Y73981D01*
X594177Y109677D02*
Y111500D01*
X546981Y73981D02*
X588000Y115000D01*
X599295D01*
X493503Y73981D02*
X546981D01*
X548327Y65827D02*
X586000Y103500D01*
X590000D01*
X495481Y68019D02*
X546519D01*
X587000Y108500D01*
X593000D01*
X594177Y109677D01*
X493673Y65827D02*
X548327D01*
X493673Y62000D02*
X551500D01*
X586500Y97000D01*
Y98500D01*
X216027Y322527D02*
X235527D01*
X211500Y318000D02*
X216027Y322527D01*
X360027D02*
X383027D01*
X510626Y322625D02*
X529626D01*
X505000Y317000D02*
X510626Y322625D01*
X501500Y317000D02*
X505000D01*
X74000Y218000D02*
X77500Y221500D01*
X53500Y218000D02*
X74000D01*
X51500Y216000D02*
X53500Y218000D01*
X209000Y215500D02*
X213500Y220000D01*
X234500D01*
X433366Y305366D02*
Y317366D01*
X431000Y303000D02*
X433366Y305366D01*
X422000Y303000D02*
X431000D01*
X421744Y303256D02*
X422000Y303000D01*
X311750Y289750D02*
Y316750D01*
X301000Y327500D02*
X311750Y316750D01*
X296500Y327500D02*
X301000D01*
X296500Y317500D02*
X305000D01*
X297500Y312500D02*
X302500Y307500D01*
X271500Y312500D02*
X297500D01*
X301000Y315000D02*
X305500Y310500D01*
X286500Y315000D02*
X301000D01*
X579960Y129000D02*
X598000Y147040D01*
X578496Y132536D02*
X595000Y149040D01*
X598000Y147040D02*
Y310000D01*
X596500Y311500D02*
X598000Y310000D01*
X594019Y310472D02*
X595000Y309491D01*
Y149040D02*
Y309491D01*
X594019Y310472D02*
Y311481D01*
X594000Y311500D02*
X594019Y311481D01*
X594000Y311500D02*
Y315500D01*
X576735Y136785D02*
X591300Y151350D01*
Y319700D01*
X589500Y321500D02*
X591300Y319700D01*
X589500Y154500D02*
Y317000D01*
X586500Y320000D02*
X589500Y317000D01*
X586500Y320000D02*
Y327500D01*
X579464Y317464D02*
X579500Y317429D01*
Y302000D02*
Y317429D01*
X285866Y202500D02*
Y216866D01*
X372500Y221500D02*
X382000D01*
X366500Y215500D02*
X372500Y221500D01*
X356000Y215500D02*
X366500D01*
X432866Y202134D02*
Y216866D01*
X519000Y222000D02*
X528500D01*
X512000Y215000D02*
X519000Y222000D01*
X505000Y215000D02*
X512000D01*
X579425Y201500D02*
Y216925D01*
X423414Y325086D02*
X429086D01*
X430500Y326500D01*
Y354000D01*
X436000Y359500D01*
X457500D01*
X148500Y188500D02*
X179500Y157500D01*
X172000Y151500D02*
X402000D01*
X140500Y183000D02*
Y207230D01*
Y183000D02*
X172000Y151500D01*
X175500Y154500D02*
X415500D01*
X148500Y188500D02*
Y218000D01*
X145000Y185000D02*
X175500Y154500D01*
X145000Y185000D02*
Y210000D01*
X138000Y224000D02*
X149000D01*
X283914Y224586D02*
X291414D01*
X297500Y230672D01*
Y249000D01*
X304000Y255500D01*
X429000D01*
X436500Y248000D01*
X424914Y224586D02*
Y233414D01*
X437000Y245500D01*
X427500Y259000D02*
X430500D01*
X439500Y250000D01*
X437000Y245500D02*
X472000D01*
X479000Y252500D01*
Y257000D01*
X436500Y248000D02*
X470000D01*
X472500Y250500D01*
X439500Y250000D02*
X467000D01*
X470500Y253500D01*
Y261000D01*
X471000Y261500D01*
X472500D01*
Y250500D02*
Y261500D01*
X474500D02*
X479000Y257000D01*
X472500Y261500D02*
X474500D01*
X472500D02*
Y263500D01*
X474000Y265000D01*
X193500Y172500D02*
X464500D01*
X500500Y136500D01*
Y135500D02*
Y136500D01*
X490500Y153500D02*
X513000D01*
X534718Y175217D01*
Y191925D01*
X388217Y191866D02*
X394584Y185500D01*
X463500D01*
X490500Y158500D01*
Y153500D02*
Y158500D01*
X241217Y191866D02*
X257084Y176000D01*
X465500D01*
X488000Y153500D01*
X490500D01*
X474000Y265000D02*
X562500D01*
X571645Y255855D01*
Y224645D02*
Y255855D01*
X523075Y191925D02*
X534718D01*
X513500Y201500D02*
X523075Y191925D01*
X486000Y208000D02*
Y260500D01*
Y208000D02*
X492500Y201500D01*
X513500D01*
X308750Y286750D02*
X320250Y275250D01*
X311750Y289750D02*
X323768Y277731D01*
X320250Y275250D02*
X459750D01*
X323768Y277731D02*
X463731D01*
X441500Y291500D02*
X472500D01*
X485000Y279000D01*
Y272000D02*
Y279000D01*
X479500Y272000D02*
X485000D01*
X392268Y284268D02*
X467232D01*
X391000Y283000D02*
X392268Y284268D01*
X467232D02*
X479500Y272000D01*
X141500Y213500D02*
X145000Y210000D01*
X141500Y213500D02*
Y219027D01*
X190500Y254500D02*
X232000D01*
X241718Y264217D01*
Y292366D01*
X416354Y20854D02*
X417000Y21500D01*
X386353Y20854D02*
X416354D01*
X382500Y24707D02*
X386353Y20854D01*
X382500Y24707D02*
Y25500D01*
X411000Y28500D02*
Y36500D01*
X406500Y41000D02*
X411000Y36500D01*
X406500Y41000D02*
Y55500D01*
X405000Y57000D02*
X406500Y55500D01*
X380500Y76500D02*
X382500Y74500D01*
Y70000D02*
Y74500D01*
Y70000D02*
X384500Y68000D01*
X420500Y69673D02*
X486000D01*
X519445Y91445D02*
Y93445D01*
X520000Y94000D01*
Y98500D01*
D52*
X26500Y303000D02*
X47000D01*
X60900Y316900D01*
X71900D02*
X74000Y319000D01*
X60900Y316900D02*
X71900D01*
X74000Y319000D02*
X76500D01*
Y319500D01*
D55*
X127500Y92500D02*
Y106000D01*
X113000Y78000D02*
X127500Y92500D01*
X113000Y71500D02*
Y78000D01*
D56*
X316000Y63079D02*
D03*
D57*
Y72921D02*
D03*
D58*
X26500Y332343D02*
D03*
Y322500D02*
D03*
Y312658D02*
D03*
X184500Y316158D02*
D03*
Y326000D02*
D03*
Y335843D02*
D03*
X327000Y317658D02*
D03*
Y327500D02*
D03*
Y337343D02*
D03*
X465500Y313079D02*
D03*
Y322921D02*
D03*
Y332764D02*
D03*
X23000Y225158D02*
D03*
Y235000D02*
D03*
Y244843D02*
D03*
X178000Y212499D02*
D03*
Y222341D02*
D03*
Y232185D02*
D03*
X320500Y212579D02*
D03*
Y222421D02*
D03*
Y232264D02*
D03*
X472000Y213079D02*
D03*
Y222921D02*
D03*
Y232764D02*
D03*
D59*
X26500Y302815D02*
D03*
X184500Y306315D02*
D03*
X327000Y307815D02*
D03*
X465500Y303236D02*
D03*
X23000Y215315D02*
D03*
X178000Y202657D02*
D03*
X320500Y202736D02*
D03*
X472000Y203236D02*
D03*
D60*
X28189Y52425D02*
D03*
Y105575D02*
D03*
D61*
X51811Y64827D02*
D03*
Y93173D02*
D03*
D62*
X500500Y135500D02*
D03*
X596500Y93000D02*
D03*
D63*
X372500Y15500D02*
D03*
Y25500D02*
D03*
X382500Y15500D02*
D03*
Y25500D02*
D03*
X392500Y15500D02*
D03*
Y25500D02*
D03*
X402500Y15500D02*
D03*
X95500Y292000D02*
D03*
X85500D02*
D03*
X251717Y292366D02*
D03*
X241718D02*
D03*
X399218D02*
D03*
X389217D02*
D03*
X546067Y292464D02*
D03*
X536067D02*
D03*
X94718Y191366D02*
D03*
X84718D02*
D03*
X251218Y191866D02*
D03*
X241217D02*
D03*
X398218D02*
D03*
X388217D02*
D03*
X544718Y191925D02*
D03*
X534718D02*
D03*
D64*
X402500Y25500D02*
D03*
X105500Y292000D02*
D03*
X596500Y79000D02*
D03*
X261718Y292366D02*
D03*
X409218D02*
D03*
X556067Y292464D02*
D03*
X104718Y191366D02*
D03*
X261217Y191866D02*
D03*
X408217D02*
D03*
X554717Y191925D02*
D03*
D65*
X465706Y164000D02*
D03*
X303500Y115000D02*
D03*
X298500Y120500D02*
D03*
X303500D02*
D03*
X308500D02*
D03*
X117500Y242000D02*
D03*
Y236000D02*
D03*
Y232500D02*
D03*
X297000Y94000D02*
D03*
Y97500D02*
D03*
X313500Y94000D02*
D03*
X310000D02*
D03*
Y97500D02*
D03*
X79500Y116000D02*
D03*
X74500D02*
D03*
X69500D02*
D03*
X79500Y121250D02*
D03*
X74500D02*
D03*
X69500D02*
D03*
X79500Y126500D02*
D03*
X74500D02*
D03*
X69500D02*
D03*
X62500Y337000D02*
D03*
X43000D02*
D03*
X87000Y306000D02*
D03*
X83000D02*
D03*
X79000D02*
D03*
X67500Y304500D02*
D03*
Y309500D02*
D03*
X74500Y293500D02*
D03*
Y297500D02*
D03*
X76500Y319000D02*
D03*
X74690Y325056D02*
D03*
X127221Y328779D02*
D03*
X567500Y333500D02*
D03*
Y337000D02*
D03*
X275000Y242500D02*
D03*
Y233000D02*
D03*
Y236500D02*
D03*
X420000Y333500D02*
D03*
Y337000D02*
D03*
X358000Y334500D02*
D03*
X420000Y343000D02*
D03*
X211500Y328000D02*
D03*
Y332000D02*
D03*
X272500Y333500D02*
D03*
Y337000D02*
D03*
Y343000D02*
D03*
X51500Y322000D02*
D03*
Y327500D02*
D03*
X114984Y344134D02*
D03*
Y334500D02*
D03*
Y338500D02*
D03*
X501000Y330000D02*
D03*
Y325000D02*
D03*
X503500Y228500D02*
D03*
Y223000D02*
D03*
X565000Y236500D02*
D03*
Y232500D02*
D03*
Y242500D02*
D03*
X51000Y228500D02*
D03*
Y223500D02*
D03*
X355000Y228500D02*
D03*
Y223500D02*
D03*
X420000Y236500D02*
D03*
Y233000D02*
D03*
Y242500D02*
D03*
X538500Y28500D02*
D03*
X363000Y26500D02*
D03*
X241500Y27013D02*
D03*
X298500Y115000D02*
D03*
X308500D02*
D03*
X317500Y123500D02*
D03*
X324000D02*
D03*
X391500Y44000D02*
D03*
Y51500D02*
D03*
X395000Y87646D02*
D03*
X417000Y145000D02*
D03*
X486500D02*
D03*
X475500Y15000D02*
D03*
X489500D02*
D03*
X510000Y122000D02*
D03*
X516500D02*
D03*
X510000Y47500D02*
D03*
X566500Y52000D02*
D03*
Y45000D02*
D03*
Y58000D02*
D03*
X127500Y106000D02*
D03*
X218500Y70500D02*
D03*
X222500D02*
D03*
X218500Y67000D02*
D03*
Y63500D02*
D03*
X222500D02*
D03*
Y67000D02*
D03*
X292500Y83500D02*
D03*
X296500D02*
D03*
X292500Y80000D02*
D03*
X296500D02*
D03*
X293500Y65500D02*
D03*
X298500D02*
D03*
X293500Y61500D02*
D03*
X298500D02*
D03*
X324966Y32466D02*
D03*
X482500Y15000D02*
D03*
X466146Y20146D02*
D03*
X446646D02*
D03*
X505000Y105500D02*
D03*
X524000Y122000D02*
D03*
X509354Y98146D02*
D03*
X513000Y70500D02*
D03*
X513854Y56146D02*
D03*
X534584Y58084D02*
D03*
X510034Y32466D02*
D03*
X508000Y71500D02*
D03*
X411646Y134354D02*
D03*
X398646Y71354D02*
D03*
X519445Y91445D02*
D03*
X442354Y20146D02*
D03*
X461854D02*
D03*
X129750Y310000D02*
D03*
Y314500D02*
D03*
Y321500D02*
D03*
X461500Y163000D02*
D03*
X148500Y218000D02*
D03*
X422600Y144834D02*
D03*
X421000Y157500D02*
D03*
X138000Y224000D02*
D03*
X415500Y154500D02*
D03*
X129500Y210000D02*
D03*
X134365Y213365D02*
D03*
X402000Y145000D02*
D03*
X406000Y140000D02*
D03*
X469000Y144000D02*
D03*
X456146Y134354D02*
D03*
X437000Y134854D02*
D03*
X465500Y155000D02*
D03*
X461000Y145500D02*
D03*
X468000Y255000D02*
D03*
X465000Y258000D02*
D03*
X461000Y260500D02*
D03*
X458000Y263500D02*
D03*
X463858Y114264D02*
D03*
Y142000D02*
D03*
X461000Y152000D02*
D03*
X469764Y114264D02*
D03*
X443000Y146500D02*
D03*
X440500Y143500D02*
D03*
X432500Y155500D02*
D03*
X436500Y153500D02*
D03*
X437500Y146000D02*
D03*
X405750Y88750D02*
D03*
X402500Y90000D02*
D03*
Y83500D02*
D03*
X419000Y89500D02*
D03*
X439750Y112750D02*
D03*
X440250Y116250D02*
D03*
X439500Y108500D02*
D03*
X437000Y106000D02*
D03*
X420500Y81484D02*
D03*
Y77500D02*
D03*
Y73500D02*
D03*
X586500Y98500D02*
D03*
X590000Y103500D02*
D03*
X594177Y111500D02*
D03*
X599295Y115000D02*
D03*
X76148Y328352D02*
D03*
X75000Y334000D02*
D03*
X235527Y322527D02*
D03*
X211500Y318000D02*
D03*
X383027Y322527D02*
D03*
X358000Y329500D02*
D03*
X529626Y322625D02*
D03*
X77500Y221500D02*
D03*
X128000Y203500D02*
D03*
X208500Y223500D02*
D03*
X234500Y220000D02*
D03*
X208500Y229000D02*
D03*
X433366Y317366D02*
D03*
X421744Y303256D02*
D03*
X296500Y327500D02*
D03*
Y317500D02*
D03*
X271500Y312500D02*
D03*
X286500Y315000D02*
D03*
X596500Y311500D02*
D03*
X594000Y315500D02*
D03*
X589500Y321500D02*
D03*
X586500Y327500D02*
D03*
X579464Y317464D02*
D03*
X579500Y302000D02*
D03*
X285866Y216866D02*
D03*
Y202500D02*
D03*
X382000Y221500D02*
D03*
X432866Y216866D02*
D03*
Y202134D02*
D03*
X528500Y222000D02*
D03*
X579425Y216925D02*
D03*
Y201500D02*
D03*
X423414Y325086D02*
D03*
X457500Y359500D02*
D03*
X149000Y224000D02*
D03*
X283914Y224586D02*
D03*
X424914D02*
D03*
X427500Y259000D02*
D03*
X571645Y224645D02*
D03*
X472500Y261500D02*
D03*
X483500Y134354D02*
D03*
X141500Y219027D02*
D03*
X417000Y21500D02*
D03*
X405000Y57000D02*
D03*
X493854Y28146D02*
D03*
X384500Y103000D02*
D03*
Y109500D02*
D03*
X382000Y106500D02*
D03*
X387000D02*
D03*
X542000Y84500D02*
D03*
X432362Y46138D02*
D03*
X380500Y61500D02*
D03*
Y76500D02*
D03*
X430500Y53500D02*
D03*
X398500Y65000D02*
D03*
Y76000D02*
D03*
X420500Y69673D02*
D03*
X567402Y343098D02*
D03*
X520000Y98500D02*
D03*
D66*
X80500Y90000D02*
D03*
X72500D02*
D03*
X65000D02*
D03*
X80000Y98500D02*
D03*
X72500D02*
D03*
X65000D02*
D03*
X273500Y74000D02*
D03*
X208000Y53000D02*
D03*
X201250D02*
D03*
X208000Y59500D02*
D03*
X201250D02*
D03*
X194500D02*
D03*
X208000Y65500D02*
D03*
X201250D02*
D03*
X194500D02*
D03*
X190000Y17000D02*
D03*
Y28500D02*
D03*
X130000Y281000D02*
D03*
X356756Y125000D02*
D03*
X205127Y26627D02*
D03*
X118285Y18500D02*
D03*
X498500Y351500D02*
D03*
X478500Y291500D02*
D03*
X580965Y280035D02*
D03*
X231866Y198634D02*
D03*
X286115Y180115D02*
D03*
X187134Y188366D02*
D03*
X204717Y249500D02*
D03*
X353218Y355282D02*
D03*
X331134Y293866D02*
D03*
X286500Y281000D02*
D03*
X190000Y288500D02*
D03*
X205218Y354500D02*
D03*
X48500Y350000D02*
D03*
X35000Y288000D02*
D03*
X109500Y304500D02*
D03*
X478075Y185925D02*
D03*
X524925Y197575D02*
D03*
X579500Y181000D02*
D03*
X75866Y201634D02*
D03*
X129615Y180115D02*
D03*
X26134Y190366D02*
D03*
X46218Y250782D02*
D03*
X378866Y200366D02*
D03*
X433115Y180000D02*
D03*
X350717Y251782D02*
D03*
X146000Y50000D02*
D03*
X155000D02*
D03*
X146000Y43250D02*
D03*
X155000D02*
D03*
Y36500D02*
D03*
X146000D02*
D03*
X240000Y54500D02*
D03*
X246000Y61500D02*
D03*
X72500Y52500D02*
D03*
X85000D02*
D03*
X77000Y39000D02*
D03*
Y32500D02*
D03*
X78750Y52500D02*
D03*
X246000Y54500D02*
D03*
X542000Y122500D02*
D03*
X113000Y71500D02*
D03*
X47500Y37500D02*
D03*
X55000D02*
D03*
X47500Y29750D02*
D03*
X55000D02*
D03*
X47500Y22000D02*
D03*
X55000D02*
D03*
X82000Y21500D02*
D03*
X89000D02*
D03*
X96000D02*
D03*
X135000Y47500D02*
D03*
X233000Y300500D02*
D03*
X199610Y340110D02*
D03*
X379500Y301500D02*
D03*
X360000Y322500D02*
D03*
X347110Y341610D02*
D03*
X379000Y294000D02*
D03*
X231500Y278500D02*
D03*
X526965Y303000D02*
D03*
X501500Y317000D02*
D03*
X491256Y337244D02*
D03*
X73366Y190366D02*
D03*
X527000Y291464D02*
D03*
X38110Y237610D02*
D03*
X51500Y216000D02*
D03*
X209000Y215500D02*
D03*
X197890Y237110D02*
D03*
X232866Y188366D02*
D03*
X438000Y308000D02*
D03*
X289000Y306000D02*
D03*
X584500Y306500D02*
D03*
X293000Y207000D02*
D03*
X356000Y215500D02*
D03*
X426256Y202000D02*
D03*
X505000Y215000D02*
D03*
X490669Y236169D02*
D03*
X498217Y250782D02*
D03*
X583500Y207000D02*
D03*
X128500Y164000D02*
D03*
X135000D02*
D03*
X141500D02*
D03*
X135000Y156000D02*
D03*
X141500D02*
D03*
X490500Y153500D02*
D03*
X486000Y260500D02*
D03*
X434000Y281000D02*
D03*
X391000Y283000D02*
D03*
X485000Y272000D02*
D03*
X441500Y291500D02*
D03*
X190500Y254500D02*
D03*
X341610Y237110D02*
D03*
X379000Y191866D02*
D03*
X525925Y185925D02*
D03*
X411000Y28500D02*
D03*
X128500Y156000D02*
D03*
X362500Y52500D02*
D03*
X388354Y77646D02*
D03*
X336500Y59500D02*
D03*
X336553Y79947D02*
D03*
X333500Y192000D02*
D03*
D67*
X590551Y19685D02*
D03*
Y354331D02*
D03*
X19685D02*
D03*
Y19685D02*
D03*
D68*
X100724Y320413D02*
D03*
Y325138D02*
D03*
X95999Y320500D02*
D03*
Y325138D02*
D03*
X100724Y334587D02*
D03*
X95999D02*
D03*
X91276D02*
D03*
X100724Y329862D02*
D03*
X91276D02*
D03*
Y325138D02*
D03*
X95999Y329862D02*
D03*
X91276Y320413D02*
D03*
X252717Y333453D02*
D03*
X247993D02*
D03*
Y324004D02*
D03*
Y319279D02*
D03*
X252717Y324004D02*
D03*
Y319366D02*
D03*
Y328728D02*
D03*
X257442D02*
D03*
Y324004D02*
D03*
Y319279D02*
D03*
Y333453D02*
D03*
X247993Y328728D02*
D03*
X404942Y319279D02*
D03*
Y324004D02*
D03*
X400217Y319366D02*
D03*
Y324004D02*
D03*
X404942Y333453D02*
D03*
X400217D02*
D03*
X395493D02*
D03*
X404942Y328728D02*
D03*
X395493D02*
D03*
Y324004D02*
D03*
X400217Y328728D02*
D03*
X395493Y319279D02*
D03*
X551791Y319377D02*
D03*
Y324102D02*
D03*
X547066Y319464D02*
D03*
Y324102D02*
D03*
X551791Y333552D02*
D03*
X547066D02*
D03*
X542343D02*
D03*
X551791Y328826D02*
D03*
X542343D02*
D03*
Y324102D02*
D03*
X547066Y328826D02*
D03*
X542343Y319377D02*
D03*
X100442Y218279D02*
D03*
Y223004D02*
D03*
X95717Y218366D02*
D03*
Y223004D02*
D03*
X100442Y232453D02*
D03*
X95717D02*
D03*
X90993D02*
D03*
X100442Y227728D02*
D03*
X90993D02*
D03*
Y223004D02*
D03*
X95717Y227728D02*
D03*
X90993Y218279D02*
D03*
X256942Y223504D02*
D03*
X252217Y218866D02*
D03*
Y223504D02*
D03*
X256942Y232953D02*
D03*
X252217D02*
D03*
X247493D02*
D03*
X256942Y228228D02*
D03*
X247493D02*
D03*
Y223504D02*
D03*
X252217Y228228D02*
D03*
X256942Y218779D02*
D03*
X247493D02*
D03*
X403942Y218838D02*
D03*
Y223563D02*
D03*
X399217Y218925D02*
D03*
Y223563D02*
D03*
X403942Y233012D02*
D03*
X399217D02*
D03*
X394493D02*
D03*
X403942Y228287D02*
D03*
X394493D02*
D03*
Y223563D02*
D03*
X399217Y228287D02*
D03*
X394493Y218838D02*
D03*
X550442D02*
D03*
Y223563D02*
D03*
X545717Y218925D02*
D03*
Y223563D02*
D03*
X550442Y233012D02*
D03*
X545717D02*
D03*
X540993D02*
D03*
X550442Y228287D02*
D03*
X540993D02*
D03*
Y223563D02*
D03*
X545717Y228287D02*
D03*
X540993Y218838D02*
D03*
D69*
X113969Y50031D02*
D03*
X110032D02*
D03*
X113969Y53968D02*
D03*
X110032D02*
D03*
M02*
