G04 Layer_Physical_Order=1*
G04 Layer_Color=255*
%FSLAX25Y25*%
%MOIN*%
G70*
G01*
G75*
%ADD10C,0.01000*%
%ADD11R,0.03543X0.03150*%
%ADD12R,0.06697X0.04754*%
%ADD13R,0.03175X0.03402*%
%ADD14R,0.03150X0.03543*%
%ADD15R,0.03150X0.03150*%
%ADD16R,0.13780X0.04724*%
%ADD17R,0.04459X0.05421*%
%ADD18R,0.05551X0.05315*%
%ADD19R,0.05847X0.06803*%
%ADD20R,0.06803X0.05847*%
%ADD21R,0.09213X0.14173*%
%ADD22R,0.09842X0.04331*%
%ADD23R,0.11024X0.04331*%
%ADD24R,0.11512X0.13780*%
%ADD25R,0.02126X0.03111*%
%ADD26R,0.03111X0.02126*%
%ADD27O,0.03402X0.01102*%
%ADD28R,0.04754X0.06697*%
%ADD29R,0.04724X0.04724*%
%ADD30R,0.05905X0.06299*%
%ADD31R,0.03402X0.03175*%
%ADD32R,0.03402X0.03150*%
%ADD33R,0.22484X0.21844*%
%ADD34R,0.09484X0.03853*%
%ADD35R,0.17716X0.17716*%
%ADD36O,0.06299X0.02260*%
%ADD37R,0.14094X0.16535*%
%ADD38R,0.04331X0.11024*%
%ADD39R,0.12205X0.22047*%
%ADD40O,0.06817X0.01350*%
%ADD41R,0.05315X0.07874*%
%ADD42R,0.05512X0.04724*%
%ADD43R,0.06299X0.05905*%
%ADD44R,0.04724X0.04724*%
%ADD45R,0.07205X0.08091*%
%ADD46O,0.01350X0.06817*%
%ADD47O,0.01102X0.07874*%
%ADD48O,0.07874X0.01102*%
%ADD49R,0.03438X0.03572*%
%ADD50O,0.08051X0.02315*%
%ADD51C,0.03000*%
%ADD52C,0.01200*%
%ADD53C,0.01500*%
%ADD54C,0.01600*%
%ADD55C,0.02000*%
%ADD56R,0.07087X0.07087*%
%ADD57C,0.07087*%
%ADD58C,0.06299*%
%ADD59R,0.06299X0.06000*%
%ADD60O,0.08661X0.05118*%
%ADD61C,0.14961*%
%ADD62R,0.06693X0.06693*%
%ADD63C,0.06693*%
%ADD64R,0.06693X0.06693*%
%ADD65C,0.02362*%
%ADD66C,0.03937*%
%ADD67C,0.15748*%
%ADD68C,0.01969*%
%ADD69C,0.02400*%
G36*
X268566Y85348D02*
X268848Y85066D01*
X269000Y84699D01*
X269000Y84500D01*
X269000D01*
Y79000D01*
X269019Y78805D01*
X269168Y78444D01*
X269444Y78168D01*
X269805Y78019D01*
X270000Y78000D01*
X284500Y78000D01*
X284699D01*
X285067Y77848D01*
X285348Y77566D01*
X285500Y77199D01*
X285500Y77000D01*
X285500D01*
X285500Y70500D01*
X285500Y70301D01*
X285348Y69933D01*
X285067Y69652D01*
X284699Y69500D01*
X284500Y69500D01*
X266000Y69500D01*
X265801Y69500D01*
X265434Y69652D01*
X265152Y69933D01*
X265000Y70301D01*
X265000Y70500D01*
Y70500D01*
X265000Y84500D01*
X265000Y84699D01*
X265152Y85066D01*
X265434Y85348D01*
X265801Y85500D01*
X266000Y85500D01*
Y85500D01*
X268000D01*
X268199Y85500D01*
X268566Y85348D01*
D02*
G37*
G36*
X294350Y106272D02*
X294772Y105850D01*
X295000Y105298D01*
Y105000D01*
Y102500D01*
X295019Y102305D01*
X295168Y101944D01*
X295444Y101669D01*
X295805Y101519D01*
X296000Y101500D01*
X327298D01*
X327850Y101272D01*
X328272Y100850D01*
X328500Y100298D01*
Y100000D01*
Y92500D01*
Y92202D01*
X328272Y91650D01*
X327850Y91228D01*
X327298Y91000D01*
X274503D01*
X273584Y91381D01*
X272881Y92084D01*
X272500Y93003D01*
Y93500D01*
Y105000D01*
Y105298D01*
X272728Y105850D01*
X273150Y106272D01*
X273702Y106500D01*
X293798D01*
X294350Y106272D01*
D02*
G37*
G36*
X65948Y74950D02*
X66737Y74516D01*
X67299Y73813D01*
X67550Y72948D01*
X67500Y72500D01*
X67500D01*
Y44000D01*
Y43801D01*
X67348Y43433D01*
X67066Y43152D01*
X66699Y43000D01*
X66500D01*
X61500Y43000D01*
X61207Y42971D01*
X60667Y42747D01*
X60253Y42333D01*
X60029Y41793D01*
X60000Y41500D01*
Y27500D01*
X60019Y27305D01*
X60168Y26944D01*
X60444Y26669D01*
X60805Y26519D01*
X61000Y26500D01*
X103000D01*
X103195Y26519D01*
X103556Y26669D01*
X103832Y26944D01*
X103981Y27305D01*
X104000Y27500D01*
Y32500D01*
Y32699D01*
X104152Y33066D01*
X104434Y33348D01*
X104801Y33500D01*
X105000D01*
X107500Y33500D01*
X107699Y33500D01*
X108066Y33348D01*
X108348Y33066D01*
X108500Y32699D01*
X108500Y32500D01*
X108500D01*
X108500Y18500D01*
X108500Y18301D01*
X108348Y17933D01*
X108066Y17652D01*
X107699Y17500D01*
X107500Y17500D01*
X45500D01*
X45204Y17500D01*
X44625Y17615D01*
X44079Y17841D01*
X43588Y18170D01*
X43170Y18588D01*
X42841Y19079D01*
X42615Y19625D01*
X42500Y20204D01*
X42500Y20500D01*
Y20500D01*
Y72500D01*
Y72997D01*
X42881Y73916D01*
X43584Y74619D01*
X44503Y75000D01*
X45000Y75000D01*
Y75000D01*
X65500Y75000D01*
X65948Y74950D01*
D02*
G37*
G36*
X91416Y102119D02*
X92119Y101416D01*
X92500Y100497D01*
Y100000D01*
Y88000D01*
Y87704D01*
X92385Y87125D01*
X92159Y86579D01*
X91830Y86088D01*
X91412Y85670D01*
X90921Y85341D01*
X90375Y85115D01*
X89796Y85000D01*
X44503D01*
X43584Y85381D01*
X42881Y86084D01*
X42500Y87003D01*
Y87500D01*
Y99500D01*
Y99796D01*
X42615Y100375D01*
X42841Y100921D01*
X43170Y101412D01*
X43588Y101830D01*
X44079Y102159D01*
X44625Y102385D01*
X45204Y102500D01*
X90497D01*
X91416Y102119D01*
D02*
G37*
G36*
X352566Y138848D02*
X352848Y138567D01*
X353000Y138199D01*
Y138000D01*
Y112500D01*
X353019Y112305D01*
X353169Y111944D01*
X353444Y111669D01*
X353805Y111519D01*
X354000Y111500D01*
X358699D01*
X359066Y111348D01*
X359348Y111066D01*
X359500Y110699D01*
Y110500D01*
Y101500D01*
Y101301D01*
X359348Y100934D01*
X359066Y100652D01*
X358699Y100500D01*
X334301D01*
X333933Y100652D01*
X333652Y100934D01*
X333500Y101301D01*
Y101500D01*
Y105000D01*
X333481Y105195D01*
X333331Y105556D01*
X333056Y105832D01*
X332695Y105981D01*
X332500Y106000D01*
X317301D01*
X316933Y106152D01*
X316652Y106433D01*
X316500Y106801D01*
Y107000D01*
Y110500D01*
Y110699D01*
X316652Y111066D01*
X316933Y111348D01*
X317301Y111500D01*
X332500D01*
X332695Y111519D01*
X333056Y111669D01*
X333331Y111944D01*
X333481Y112305D01*
X333500Y112500D01*
Y138000D01*
Y138199D01*
X333652Y138567D01*
X333933Y138848D01*
X334301Y139000D01*
X352199D01*
X352566Y138848D01*
D02*
G37*
G36*
X388500Y111000D02*
X388699Y111000D01*
X389066Y110848D01*
X389348Y110566D01*
X389389Y110466D01*
X389500Y110000D01*
D01*
X389500Y109537D01*
X389500Y101301D01*
X389348Y100934D01*
X389066Y100652D01*
X388699Y100500D01*
X362301D01*
X361933Y100652D01*
X361652Y100934D01*
X361609Y101038D01*
X361500Y101500D01*
X361500Y101500D01*
Y109500D01*
X361500Y109798D01*
X361728Y110350D01*
X362150Y110772D01*
X362702Y111000D01*
X363000Y111000D01*
X363000Y111000D01*
X388500Y111000D01*
D02*
G37*
G36*
X111416Y129619D02*
X112119Y128916D01*
X112500Y127997D01*
Y127500D01*
X112500Y127500D01*
X112500D01*
Y110000D01*
Y109503D01*
X112119Y108584D01*
X111416Y107881D01*
X110497Y107500D01*
X68000D01*
X67704Y107500D01*
X67125Y107615D01*
X66579Y107841D01*
X66088Y108170D01*
X65670Y108588D01*
X65341Y109079D01*
X65115Y109625D01*
X65033Y110038D01*
X65000Y110500D01*
X65000Y110962D01*
Y127000D01*
X65000Y127295D01*
X65115Y127875D01*
X65341Y128421D01*
X65670Y128912D01*
X66088Y129330D01*
X66579Y129659D01*
X67125Y129885D01*
X67704Y130000D01*
X68000Y130000D01*
Y130000D01*
X72500Y130000D01*
X110000Y130000D01*
X110497D01*
X111416Y129619D01*
D02*
G37*
G36*
X328566Y138848D02*
X328848Y138567D01*
X329000Y138199D01*
Y138000D01*
Y115000D01*
Y114801D01*
X328848Y114434D01*
X328566Y114152D01*
X328199Y114000D01*
X310000D01*
X309805Y113981D01*
X309444Y113831D01*
X309169Y113556D01*
X309019Y113195D01*
X309000Y113000D01*
Y104000D01*
Y103801D01*
X308848Y103434D01*
X308566Y103152D01*
X308199Y103000D01*
X300301D01*
X299934Y103152D01*
X299652Y103434D01*
X299500Y103801D01*
Y104000D01*
Y109500D01*
X299481Y109695D01*
X299331Y110056D01*
X299056Y110331D01*
X298695Y110481D01*
X298500Y110500D01*
X277301D01*
X276934Y110652D01*
X276652Y110933D01*
X276500Y111301D01*
Y111500D01*
Y122000D01*
Y122199D01*
X276652Y122566D01*
X276934Y122848D01*
X277301Y123000D01*
X313000D01*
X313195Y123019D01*
X313556Y123169D01*
X313831Y123444D01*
X313981Y123805D01*
X314000Y124000D01*
Y138000D01*
Y138199D01*
X314152Y138567D01*
X314434Y138848D01*
X314801Y139000D01*
X328199D01*
X328566Y138848D01*
D02*
G37*
G36*
X134566Y112848D02*
X134848Y112566D01*
X135000Y112199D01*
Y112000D01*
X135000Y112000D01*
X135000D01*
Y105301D01*
X134848Y104934D01*
X134566Y104652D01*
X134199Y104500D01*
X121400D01*
X121226Y104572D01*
X121000Y105000D01*
X121000Y105462D01*
Y112600D01*
X121076Y112783D01*
X121217Y112924D01*
X121400Y113000D01*
X134199D01*
X134566Y112848D01*
D02*
G37*
G36*
X163916Y133619D02*
X164619Y132916D01*
X165000Y131997D01*
Y131500D01*
Y86500D01*
Y86003D01*
X164619Y85084D01*
X163916Y84381D01*
X162997Y84000D01*
X142000D01*
X141610Y83962D01*
X140889Y83663D01*
X140337Y83111D01*
X140038Y82390D01*
X140000Y82000D01*
X140000Y70000D01*
X140025Y69680D01*
X139948Y69042D01*
X139749Y68432D01*
X139434Y67872D01*
X139016Y67385D01*
X138511Y66988D01*
X137938Y66698D01*
X137472Y66567D01*
X137000Y66500D01*
X137000Y66500D01*
X137000Y66500D01*
X126250Y66500D01*
X125942Y66438D01*
X125314Y66438D01*
X124699Y66560D01*
X124118Y66799D01*
X123596Y67147D01*
X123152Y67591D01*
X122802Y68112D01*
X122562Y68692D01*
X122500Y69000D01*
Y79000D01*
X122452Y79488D01*
X122079Y80389D01*
X121389Y81079D01*
X120488Y81452D01*
X120000Y81500D01*
X97500D01*
X97205Y81500D01*
X96625Y81615D01*
X96079Y81841D01*
X95588Y82170D01*
X95170Y82588D01*
X94841Y83079D01*
X94615Y83625D01*
X94500Y84205D01*
X94500Y84500D01*
Y96497D01*
X94881Y97416D01*
X95584Y98119D01*
X96503Y98500D01*
X135500D01*
X135890Y98538D01*
X136611Y98837D01*
X137163Y99389D01*
X137462Y100110D01*
X137500Y100500D01*
Y121500D01*
X137452Y121988D01*
X137079Y122889D01*
X136389Y123579D01*
X135488Y123952D01*
X135000Y124000D01*
X122003D01*
X121084Y124381D01*
X120381Y125084D01*
X120000Y126003D01*
Y131997D01*
X120381Y132916D01*
X121084Y133619D01*
X122003Y134000D01*
X162997D01*
X163916Y133619D01*
D02*
G37*
G36*
X301566Y85348D02*
X301848Y85066D01*
X302000Y84699D01*
Y84500D01*
Y33500D01*
X302019Y33305D01*
X302168Y32944D01*
X302444Y32669D01*
X302805Y32519D01*
X303000Y32500D01*
X320199D01*
X320566Y32348D01*
X320848Y32066D01*
X321000Y31699D01*
Y23301D01*
X320848Y22933D01*
X320566Y22652D01*
X320199Y22500D01*
X291000D01*
X290801Y22500D01*
X290434Y22652D01*
X290152Y22933D01*
X290000Y23301D01*
X290000Y23500D01*
X290000Y78500D01*
X290025Y78749D01*
X289928Y79237D01*
X289652Y79650D01*
X289239Y79927D01*
X289000Y80000D01*
X289000D01*
X289000Y80000D01*
X289000Y80000D01*
X285301Y80000D01*
X284933Y80152D01*
X284652Y80433D01*
X284500Y80801D01*
Y84699D01*
X284652Y85066D01*
X284933Y85348D01*
X285301Y85500D01*
X301199D01*
X301566Y85348D01*
D02*
G37*
G36*
X172916Y51619D02*
X173619Y50916D01*
X174000Y49997D01*
Y49500D01*
Y44500D01*
Y44003D01*
X173619Y43084D01*
X172916Y42381D01*
X171997Y42000D01*
X164000D01*
X163512Y41952D01*
X162611Y41579D01*
X161921Y40889D01*
X161548Y39988D01*
X161500Y39500D01*
Y27000D01*
Y26503D01*
X161119Y25584D01*
X160416Y24881D01*
X159497Y24500D01*
X145106D01*
X144333Y24654D01*
X143605Y24955D01*
X142950Y25393D01*
X142393Y25950D01*
X141955Y26605D01*
X141654Y27333D01*
X141500Y28106D01*
Y28500D01*
Y47000D01*
Y47493D01*
X141692Y48458D01*
X142069Y49368D01*
X142616Y50187D01*
X143313Y50884D01*
X144132Y51431D01*
X145042Y51808D01*
X146008Y52000D01*
X171997D01*
X172916Y51619D01*
D02*
G37*
G36*
X211066Y133348D02*
X211348Y133066D01*
X211500Y132699D01*
Y132500D01*
Y49000D01*
Y48702D01*
X211272Y48150D01*
X210850Y47728D01*
X210298Y47500D01*
X196500D01*
X196207Y47471D01*
X195667Y47247D01*
X195253Y46833D01*
X195029Y46293D01*
X195000Y46000D01*
Y14000D01*
Y13702D01*
X194772Y13150D01*
X194350Y12728D01*
X193798Y12500D01*
X180801D01*
X180433Y12652D01*
X180152Y12934D01*
X180000Y13301D01*
Y13500D01*
Y67000D01*
Y67295D01*
X180115Y67875D01*
X180341Y68421D01*
X180670Y68912D01*
X181088Y69330D01*
X181579Y69659D01*
X182125Y69885D01*
X182704Y70000D01*
X190000D01*
X190390Y70038D01*
X191111Y70337D01*
X191663Y70889D01*
X191962Y71610D01*
X192000Y72000D01*
Y121500D01*
Y121997D01*
X192381Y122916D01*
X193084Y123619D01*
X194003Y124000D01*
X199000D01*
X199293Y124029D01*
X199833Y124253D01*
X200247Y124667D01*
X200471Y125207D01*
X200500Y125500D01*
Y132000D01*
Y132298D01*
X200728Y132850D01*
X201150Y133272D01*
X201702Y133500D01*
X210699D01*
X211066Y133348D01*
D02*
G37*
G36*
X177567Y32348D02*
X177848Y32066D01*
X178000Y31699D01*
Y31500D01*
Y14000D01*
Y13801D01*
X177848Y13433D01*
X177567Y13152D01*
X177199Y13000D01*
X153202D01*
X152650Y13228D01*
X152228Y13650D01*
X152000Y14202D01*
Y14500D01*
Y19000D01*
Y19199D01*
X152152Y19567D01*
X152434Y19848D01*
X152801Y20000D01*
X168000D01*
X168195Y20019D01*
X168556Y20168D01*
X168832Y20444D01*
X168981Y20805D01*
X169000Y21000D01*
Y31500D01*
Y31699D01*
X169152Y32066D01*
X169433Y32348D01*
X169801Y32500D01*
X177199D01*
X177567Y32348D01*
D02*
G37*
G36*
X87066Y57348D02*
X87348Y57066D01*
X87500Y56699D01*
Y42801D01*
X87348Y42434D01*
X87066Y42152D01*
X86699Y42000D01*
X81500D01*
X81305Y41981D01*
X80944Y41831D01*
X80668Y41556D01*
X80519Y41195D01*
X80500Y41000D01*
Y30000D01*
X80450Y29751D01*
X80168Y29330D01*
X79746Y29049D01*
X79500Y29000D01*
X79000Y29000D01*
X79000Y29000D01*
X75500D01*
X75251Y28950D01*
X74754Y29049D01*
X74332Y29330D01*
X74050Y29751D01*
X74000Y30000D01*
X74000Y30000D01*
Y31000D01*
X73981Y31195D01*
X73831Y31556D01*
X73556Y31831D01*
X73195Y31981D01*
X73000Y32000D01*
X62301D01*
X61933Y32152D01*
X61652Y32434D01*
X61500Y32801D01*
Y38699D01*
X61652Y39066D01*
X61933Y39348D01*
X62301Y39500D01*
X68500D01*
X68695Y39519D01*
X69056Y39669D01*
X69332Y39944D01*
X69481Y40305D01*
X69500Y40500D01*
Y56699D01*
X69652Y57066D01*
X69933Y57348D01*
X70301Y57500D01*
X86699D01*
X87066Y57348D01*
D02*
G37*
G36*
X251283Y68424D02*
X251424Y68283D01*
X251500Y68099D01*
Y68000D01*
Y64500D01*
Y64301D01*
X251348Y63933D01*
X251066Y63652D01*
X250699Y63500D01*
X250000D01*
X249805Y63481D01*
X249444Y63332D01*
X249168Y63056D01*
X249019Y62695D01*
X249000Y62500D01*
Y51500D01*
Y51301D01*
X248848Y50933D01*
X248566Y50652D01*
X248199Y50500D01*
X224301D01*
X223934Y50652D01*
X223652Y50933D01*
X223500Y51301D01*
Y51500D01*
Y58000D01*
Y58199D01*
X223652Y58566D01*
X223934Y58848D01*
X224301Y59000D01*
X235500D01*
X235695Y59019D01*
X236056Y59168D01*
X236332Y59444D01*
X236481Y59805D01*
X236500Y60000D01*
Y65500D01*
Y65699D01*
X236652Y66066D01*
X236933Y66348D01*
X237301Y66500D01*
X245500D01*
X245695Y66519D01*
X246056Y66668D01*
X246332Y66944D01*
X246481Y67305D01*
X246500Y67500D01*
Y68000D01*
Y68099D01*
X246576Y68283D01*
X246717Y68424D01*
X246901Y68500D01*
X251099D01*
X251283Y68424D01*
D02*
G37*
G36*
X243066Y72348D02*
X243348Y72066D01*
X243500Y71699D01*
Y71500D01*
Y68500D01*
Y68301D01*
X243348Y67933D01*
X243066Y67652D01*
X242699Y67500D01*
X235500D01*
X235305Y67481D01*
X234944Y67331D01*
X234668Y67056D01*
X234519Y66695D01*
X234500Y66500D01*
Y62500D01*
X234500Y62301D01*
X234348Y61933D01*
X234067Y61652D01*
X233699Y61500D01*
X233500Y61500D01*
X217301D01*
X216933Y61652D01*
X216652Y61934D01*
X216500Y62301D01*
X216500Y62500D01*
Y71500D01*
Y71699D01*
X216652Y72066D01*
X216933Y72348D01*
X217301Y72500D01*
X242699D01*
X243066Y72348D01*
D02*
G37*
G36*
X104000Y47500D02*
X104199Y47500D01*
X104566Y47348D01*
X104848Y47066D01*
X104890Y46966D01*
X105000Y46500D01*
D01*
X105000Y46037D01*
Y36801D01*
X104848Y36434D01*
X104567Y36152D01*
X104199Y36000D01*
X89801D01*
X89433Y36152D01*
X89152Y36434D01*
X89000Y36801D01*
Y46699D01*
X89152Y47066D01*
X89433Y47348D01*
X89801Y47500D01*
X90000D01*
X104000Y47500D01*
D02*
G37*
G36*
X568348Y60450D02*
X568953Y60092D01*
X569375Y59529D01*
X569550Y58848D01*
X569500Y58500D01*
X569500D01*
X569500Y43500D01*
X569500Y43301D01*
X569348Y42933D01*
X569067Y42652D01*
X568699Y42500D01*
X568500Y42500D01*
X556500D01*
X556301Y42500D01*
X555934Y42652D01*
X555652Y42933D01*
X555500Y43301D01*
X555500Y43500D01*
Y43500D01*
X555500Y51500D01*
Y51699D01*
X555652Y52066D01*
X555934Y52348D01*
X556301Y52500D01*
X557000D01*
X557195Y52519D01*
X557556Y52668D01*
X557831Y52944D01*
X557981Y53305D01*
X558000Y53500D01*
Y60000D01*
Y60100D01*
X558076Y60283D01*
X558217Y60424D01*
X558400Y60500D01*
X568000D01*
X568348Y60450D01*
D02*
G37*
G36*
X196875Y167385D02*
X197421Y167159D01*
X197913Y166830D01*
X198330Y166412D01*
X198659Y165921D01*
X198885Y165375D01*
X199000Y164795D01*
X199000Y164500D01*
X199000D01*
Y128801D01*
X198848Y128434D01*
X198566Y128152D01*
X198199Y128000D01*
X184000D01*
X183702Y128000D01*
X183150Y128228D01*
X182728Y128650D01*
X182500Y129202D01*
X182500Y129500D01*
X182500Y150000D01*
X182354Y150478D01*
X181801Y151305D01*
X180973Y151857D01*
X179997Y152050D01*
X179500Y152000D01*
X179500Y152000D01*
X179500Y152000D01*
X126500Y152000D01*
X126202Y152000D01*
X125650Y152228D01*
X125228Y152650D01*
X125000Y153202D01*
X125000Y153500D01*
Y165500D01*
X124950Y165848D01*
X125125Y166529D01*
X125547Y167092D01*
X126152Y167450D01*
X126500Y167500D01*
Y167500D01*
X196000Y167500D01*
X196295Y167500D01*
X196875Y167385D01*
D02*
G37*
G36*
X220066Y333848D02*
X220348Y333566D01*
X220500Y333199D01*
Y333000D01*
Y326500D01*
Y326301D01*
X220348Y325934D01*
X220066Y325652D01*
X219699Y325500D01*
X201400D01*
X201217Y325576D01*
X201076Y325717D01*
X201000Y325901D01*
Y326000D01*
Y333000D01*
Y333199D01*
X201152Y333566D01*
X201433Y333848D01*
X201801Y334000D01*
X219699D01*
X220066Y333848D01*
D02*
G37*
G36*
X367566Y335848D02*
X367848Y335566D01*
X368000Y335199D01*
Y335000D01*
Y329000D01*
Y328801D01*
X367848Y328433D01*
X367566Y328152D01*
X367199Y328000D01*
X347301D01*
X346934Y328152D01*
X346652Y328433D01*
X346500Y328801D01*
Y329000D01*
Y335000D01*
Y335199D01*
X346652Y335566D01*
X346934Y335848D01*
X347301Y336000D01*
X367199D01*
X367566Y335848D01*
D02*
G37*
G36*
X61566Y329348D02*
X61848Y329066D01*
X62000Y328699D01*
Y328500D01*
X62000Y328500D01*
X62000D01*
Y321301D01*
X61848Y320934D01*
X61566Y320652D01*
X61199Y320500D01*
X42301D01*
X41934Y320652D01*
X41652Y320934D01*
X41609Y321038D01*
X41500Y321500D01*
X41500Y321500D01*
Y328699D01*
X41652Y329066D01*
X41934Y329348D01*
X42301Y329500D01*
X61199D01*
X61566Y329348D01*
D02*
G37*
G36*
X510566Y331348D02*
X510848Y331066D01*
X511000Y330699D01*
Y330500D01*
Y325000D01*
Y324801D01*
X510848Y324433D01*
X510566Y324152D01*
X510199Y324000D01*
X489801D01*
X489433Y324152D01*
X489152Y324433D01*
X489000Y324801D01*
Y325000D01*
Y330500D01*
Y330699D01*
X489152Y331066D01*
X489433Y331348D01*
X489801Y331500D01*
X510199D01*
X510566Y331348D01*
D02*
G37*
G36*
X274566Y338348D02*
X274848Y338066D01*
X275000Y337699D01*
Y337500D01*
Y333000D01*
Y332801D01*
X274848Y332434D01*
X274566Y332152D01*
X274199Y332000D01*
X261301D01*
X260933Y332152D01*
X260652Y332434D01*
X260500Y332801D01*
Y333000D01*
Y337500D01*
Y337699D01*
X260652Y338066D01*
X260933Y338348D01*
X261301Y338500D01*
X274199D01*
X274566Y338348D01*
D02*
G37*
G36*
X71283Y338424D02*
X71424Y338283D01*
X71500Y338099D01*
Y338000D01*
Y333500D01*
Y333301D01*
X71348Y332933D01*
X71066Y332652D01*
X70699Y332500D01*
X41801D01*
X41434Y332652D01*
X41152Y332933D01*
X41000Y333301D01*
Y333500D01*
Y337500D01*
Y337699D01*
X41152Y338066D01*
X41434Y338348D01*
X41801Y338500D01*
X71100D01*
X71283Y338424D01*
D02*
G37*
G36*
X116783Y339924D02*
X116924Y339783D01*
X117000Y339599D01*
Y339500D01*
Y334000D01*
Y333801D01*
X116848Y333434D01*
X116567Y333152D01*
X116199Y333000D01*
X104801D01*
X104434Y333152D01*
X104152Y333434D01*
X104000Y333801D01*
Y334000D01*
Y339000D01*
Y339199D01*
X104152Y339566D01*
X104434Y339848D01*
X104801Y340000D01*
X116600D01*
X116783Y339924D01*
D02*
G37*
G36*
X422066Y338348D02*
X422348Y338066D01*
X422500Y337699D01*
Y337500D01*
Y333000D01*
Y332801D01*
X422348Y332434D01*
X422066Y332152D01*
X421699Y332000D01*
X408801D01*
X408433Y332152D01*
X408152Y332434D01*
X408000Y332801D01*
Y333000D01*
Y337500D01*
Y337699D01*
X408152Y338066D01*
X408433Y338348D01*
X408801Y338500D01*
X421699D01*
X422066Y338348D01*
D02*
G37*
G36*
X569566D02*
X569848Y338066D01*
X570000Y337699D01*
Y337500D01*
Y333000D01*
Y332801D01*
X569848Y332434D01*
X569566Y332152D01*
X569199Y332000D01*
X555801D01*
X555434Y332152D01*
X555152Y332434D01*
X555000Y332801D01*
Y333000D01*
Y338000D01*
Y338099D01*
X555076Y338283D01*
X555217Y338424D01*
X555401Y338500D01*
X569199D01*
X569566Y338348D01*
D02*
G37*
G36*
X88149Y311450D02*
X88387Y311244D01*
X88511Y310995D01*
X88500Y310500D01*
X88500Y305000D01*
X88500Y304801D01*
X88348Y304433D01*
X88067Y304152D01*
X87699Y304000D01*
X87500Y304000D01*
X72801Y304000D01*
X72434Y304152D01*
X72152Y304433D01*
X72000Y304801D01*
Y307199D01*
X72152Y307566D01*
X72434Y307848D01*
X72801Y308000D01*
X79500D01*
X79695Y308019D01*
X80056Y308169D01*
X80331Y308444D01*
X80481Y308805D01*
X80500Y309000D01*
Y310699D01*
X80652Y311066D01*
X80933Y311348D01*
X81301Y311500D01*
X88000D01*
X88149Y311450D01*
D02*
G37*
G36*
X61566Y229848D02*
X61848Y229566D01*
X62000Y229199D01*
Y229000D01*
Y223000D01*
Y222801D01*
X61848Y222433D01*
X61566Y222152D01*
X61199Y222000D01*
X40301D01*
X39933Y222152D01*
X39652Y222433D01*
X39500Y222801D01*
Y223000D01*
Y229000D01*
Y229199D01*
X39652Y229566D01*
X39933Y229848D01*
X40301Y230000D01*
X61199D01*
X61566Y229848D01*
D02*
G37*
G36*
X365566Y230348D02*
X365848Y230066D01*
X366000Y229699D01*
Y229500D01*
Y223000D01*
Y222801D01*
X365848Y222433D01*
X365566Y222152D01*
X365199Y222000D01*
X343301D01*
X342934Y222152D01*
X342652Y222433D01*
X342500Y222801D01*
Y223000D01*
Y229500D01*
Y229699D01*
X342652Y230066D01*
X342934Y230348D01*
X343301Y230500D01*
X365199D01*
X365566Y230348D01*
D02*
G37*
G36*
X513066Y229848D02*
X513348Y229566D01*
X513500Y229199D01*
Y229000D01*
Y222500D01*
Y222301D01*
X513348Y221934D01*
X513066Y221652D01*
X512699Y221500D01*
X492801D01*
X492434Y221652D01*
X492152Y221934D01*
X492000Y222301D01*
Y222500D01*
Y229000D01*
Y229199D01*
X492152Y229566D01*
X492434Y229848D01*
X492801Y230000D01*
X512699D01*
X513066Y229848D01*
D02*
G37*
G36*
X199000Y230500D02*
X199000Y230500D01*
X217000Y230500D01*
X217249Y230450D01*
X217670Y230168D01*
X217951Y229746D01*
X218000Y229500D01*
X218000Y229000D01*
X218000Y229000D01*
X218000Y223000D01*
X218000Y222801D01*
X217848Y222433D01*
X217566Y222152D01*
X217199Y222000D01*
X217000Y222000D01*
X197500D01*
X197301Y222000D01*
X196933Y222152D01*
X196652Y222433D01*
X196500Y222801D01*
X196500Y223000D01*
X196500Y228500D01*
X196550Y228947D01*
X196984Y229736D01*
X197687Y230299D01*
X198552Y230550D01*
X199000Y230500D01*
D02*
G37*
G36*
X120066Y237348D02*
X120348Y237066D01*
X120500Y236699D01*
Y236500D01*
Y232000D01*
Y231801D01*
X120348Y231434D01*
X120066Y231152D01*
X119699Y231000D01*
X104301D01*
X103934Y231152D01*
X103652Y231434D01*
X103500Y231801D01*
Y232000D01*
Y236500D01*
Y236699D01*
X103652Y237066D01*
X103934Y237348D01*
X104301Y237500D01*
X119699D01*
X120066Y237348D01*
D02*
G37*
G36*
X569066Y237848D02*
X569348Y237566D01*
X569500Y237199D01*
Y237000D01*
Y232500D01*
Y232301D01*
X569348Y231933D01*
X569066Y231652D01*
X568699Y231500D01*
X554301D01*
X553933Y231652D01*
X553652Y231933D01*
X553500Y232301D01*
Y232500D01*
Y237000D01*
Y237199D01*
X553652Y237566D01*
X553933Y237848D01*
X554301Y238000D01*
X568699D01*
X569066Y237848D01*
D02*
G37*
G36*
X76566Y313348D02*
X76848Y313066D01*
X77000Y312699D01*
Y312500D01*
Y310500D01*
Y310401D01*
X76924Y310217D01*
X76783Y310076D01*
X76600Y310000D01*
X70500D01*
X70402Y309990D01*
X70222Y309916D01*
X70084Y309778D01*
X70010Y309597D01*
X70000Y309500D01*
Y301000D01*
X70019Y300805D01*
X70169Y300444D01*
X70444Y300168D01*
X70805Y300019D01*
X71000Y300000D01*
X76699D01*
X77066Y299848D01*
X77348Y299566D01*
X77500Y299199D01*
Y299000D01*
X77500Y286500D01*
X77500Y286202D01*
X77272Y285650D01*
X76850Y285228D01*
X76298Y285000D01*
X76000Y285000D01*
X60801D01*
X60434Y285152D01*
X60152Y285434D01*
X60000Y285801D01*
Y286000D01*
Y290000D01*
Y290199D01*
X60152Y290566D01*
X60434Y290848D01*
X60801Y291000D01*
X61000D01*
X64000Y291000D01*
X64239Y291073D01*
X64652Y291350D01*
X64928Y291763D01*
X65025Y292251D01*
X65000Y292500D01*
X65000Y292500D01*
X65000Y311500D01*
X64950Y311848D01*
X65125Y312529D01*
X65547Y313092D01*
X66152Y313450D01*
X66500Y313500D01*
X76199D01*
X76566Y313348D01*
D02*
G37*
G36*
X278566Y237848D02*
X278848Y237566D01*
X279000Y237199D01*
Y237000D01*
Y232500D01*
Y232301D01*
X278848Y231933D01*
X278566Y231652D01*
X278199Y231500D01*
X260801D01*
X260434Y231652D01*
X260152Y231933D01*
X260000Y232301D01*
Y232500D01*
Y237000D01*
Y237199D01*
X260152Y237566D01*
X260434Y237848D01*
X260801Y238000D01*
X278199D01*
X278566Y237848D01*
D02*
G37*
G36*
X422066D02*
X422348Y237566D01*
X422500Y237199D01*
Y237000D01*
Y232500D01*
Y232301D01*
X422348Y231933D01*
X422066Y231652D01*
X421699Y231500D01*
X407801D01*
X407434Y231652D01*
X407152Y231933D01*
X407000Y232301D01*
Y232500D01*
Y237000D01*
Y237199D01*
X407152Y237566D01*
X407434Y237848D01*
X407801Y238000D01*
X421699D01*
X422066Y237848D01*
D02*
G37*
D10*
X334568Y26377D02*
G03*
X334445Y26500I-123J0D01*
G01*
X531761Y28500D02*
G03*
X531647Y28386I0J-114D01*
G01*
X286615Y288429D02*
G03*
X286500Y288314I0J-115D01*
G01*
X204206Y288366D02*
G03*
X204072Y288500I-134J0D01*
G01*
X356148Y26763D02*
G03*
X356411Y26500I263J0D01*
G01*
X399146Y93413D02*
X412362D01*
X324966Y26500D02*
X334445D01*
X382677Y234823D02*
X387935D01*
X384409Y216909D02*
X387935D01*
X557000Y242500D02*
X565000D01*
X410500D02*
X420000D01*
X379572Y209232D02*
X387935D01*
X533831Y84555D02*
X542055D01*
X531761Y28500D02*
X538500D01*
X356411Y26500D02*
X363000D01*
X112000Y52000D02*
X117118Y57118D01*
X465529Y163823D02*
X478900Y150452D01*
X25157Y244844D02*
X38236Y231764D01*
X23000Y244844D02*
X25157D01*
X38236Y231764D02*
X84435D01*
X393831Y59831D02*
X412480D01*
X385000Y51000D02*
X393831Y59831D01*
X385000Y30000D02*
Y51000D01*
X478900Y128400D02*
Y150452D01*
X320500Y232264D02*
X320559Y232323D01*
X387935D01*
X380705Y229705D02*
X387935D01*
X373322Y226866D02*
X377866D01*
X383118Y237382D02*
X387935D01*
Y242500D02*
X391500D01*
X410500Y222027D02*
X436500D01*
X384396Y214350D02*
X387935D01*
X384209Y211791D02*
X393709D01*
X381518Y224586D02*
X387935D01*
X410500Y209232D02*
X415768D01*
X381531Y227145D02*
X387935D01*
X410500Y216909D02*
X420709D01*
X410500Y224586D02*
X424914D01*
X384559Y239941D02*
X387935D01*
X410500Y227145D02*
X436500D01*
X382527Y222027D02*
X387935D01*
X410500Y211791D02*
X435611D01*
X383968Y219468D02*
X387935D01*
X377878Y242622D02*
X383118Y237382D01*
X75000Y334000D02*
X84718D01*
X76148Y328852D02*
X76500Y328500D01*
X69822Y325000D02*
Y329322D01*
X71839Y331339D02*
X84718D01*
X227993Y26627D02*
X228352Y26986D01*
X218966Y26627D02*
X227993D01*
X340859Y26736D02*
X349852D01*
X340500Y26377D02*
X340859Y26736D01*
X107282Y344134D02*
X114866D01*
X107282Y313425D02*
X113075D01*
X107282Y318543D02*
X117491D01*
X107282Y323661D02*
X125339D01*
X107282Y310866D02*
X111134D01*
X84718Y313425D02*
X89500D01*
X81075D02*
X84718D01*
X107282Y326220D02*
X132220D01*
X107282Y328779D02*
X127221D01*
X107000Y242000D02*
X117500D01*
X324966Y26500D02*
X325000Y26466D01*
X112500Y309500D02*
X114500D01*
X111134Y310866D02*
X112500Y309500D01*
X80575Y313925D02*
Y314913D01*
Y313925D02*
X81075Y313425D01*
X80575Y314913D02*
X81646Y315984D01*
X84718D01*
X263500Y242500D02*
X275000D01*
X411500Y343000D02*
X420000D01*
X264000D02*
X272500D01*
X129897Y289563D02*
X130000Y289460D01*
X557000Y242500D02*
Y242559D01*
X579500Y187873D02*
X579615Y187988D01*
X104323Y55677D02*
Y63282D01*
Y55677D02*
X108000Y52000D01*
X112000D01*
X117118Y57118D02*
Y63282D01*
X114559Y40717D02*
Y49441D01*
X112000Y52000D02*
X113969Y50031D01*
X114559Y49441D01*
X234647Y27013D02*
X241487D01*
X391500Y44000D02*
X398354D01*
X391500Y51500D02*
X398354D01*
X407890Y73610D02*
X412480D01*
X405854Y75646D02*
X407890Y73610D01*
X404500Y75646D02*
X405854D01*
X442205Y25649D02*
X442354Y25500D01*
X461854D02*
X461890Y25536D01*
X475500Y15000D02*
Y22034D01*
X489500Y15000D02*
Y23854D01*
X510000Y47500D02*
Y51854D01*
Y116146D02*
Y117146D01*
Y122000D01*
X516500Y116146D02*
Y117146D01*
Y122000D01*
X80366Y344134D02*
X84718D01*
X75756Y348744D02*
X80366Y344134D01*
X75756Y348744D02*
Y352500D01*
X70244Y349756D02*
Y352500D01*
Y349756D02*
X78425Y341575D01*
X84718D01*
X109441Y63282D02*
Y72941D01*
X111500Y75000D01*
X119244D01*
X258484Y70016D02*
X258500Y70000D01*
X260500D01*
X261500Y69000D01*
Y67146D02*
Y69000D01*
X258146Y62854D02*
X261500D01*
X254988Y70016D02*
X258484D01*
X257500Y63500D02*
X258146Y62854D01*
X257500Y63500D02*
Y67500D01*
X254988Y68047D02*
X256953D01*
X257500Y67500D01*
X254988Y71984D02*
X257984D01*
X259500Y73500D01*
X262354D01*
X324966Y26500D02*
Y32466D01*
X241370Y70016D02*
X250012D01*
X240500Y69146D02*
X241370Y70016D01*
X509748Y55894D02*
X510000Y56146D01*
X489449Y28197D02*
X489500Y28146D01*
X486000Y31500D02*
X487480Y32980D01*
X483500Y31500D02*
X486000D01*
X482500Y30500D02*
X483500Y31500D01*
X482500Y28114D02*
Y30500D01*
Y15000D02*
Y22182D01*
X466146Y20146D02*
Y25500D01*
X463858Y31642D02*
X466146Y29354D01*
Y25500D02*
Y29354D01*
X444173Y31827D02*
X446646Y29354D01*
Y25500D02*
Y29354D01*
Y20146D02*
Y25500D01*
X405500Y44000D02*
X407551Y46051D01*
X402646Y44000D02*
X405500D01*
X407551Y46051D02*
X412480D01*
X402646Y25646D02*
Y44000D01*
X402500Y25500D02*
X402646Y25646D01*
Y51500D02*
X405000D01*
X406512Y49988D01*
X412480D01*
X404788Y71642D02*
X412480D01*
X404500Y71354D02*
X404788Y71642D01*
X461000Y131500D02*
Y134354D01*
X459921Y130421D02*
X461000Y131500D01*
X459921Y123020D02*
Y130421D01*
X467795Y123020D02*
Y129295D01*
X469000Y130500D01*
Y134034D01*
X486500Y131000D02*
Y134354D01*
X485512Y130012D02*
X486500Y131000D01*
X485512Y123020D02*
Y130012D01*
X487480Y123020D02*
Y129480D01*
X489500Y131500D01*
Y137500D01*
X488354Y138646D02*
X489500Y137500D01*
X486500Y138646D02*
X488354D01*
X489449Y123020D02*
Y127949D01*
X494000Y135500D02*
X500500D01*
X489449Y127949D02*
X492000Y130500D01*
Y133500D01*
X494000Y135500D01*
X533000Y109000D02*
Y111744D01*
X510000Y112854D02*
X516500D01*
X518646D01*
X519756Y111744D01*
X524000D01*
X527245D01*
X529500Y114000D01*
Y116500D01*
X530256Y117255D01*
X533000D01*
Y111744D02*
X541999D01*
X542000Y111744D01*
X524000Y117255D02*
Y122000D01*
X505500Y101500D02*
X509354D01*
Y98146D02*
Y101500D01*
X508861Y91327D02*
X509500Y91966D01*
X502642Y89358D02*
X505966Y86034D01*
X509500D01*
X513000Y79146D02*
X513146Y79000D01*
X505953Y77547D02*
X508646Y74854D01*
X513000D01*
X520646D01*
X521534Y73966D01*
Y72000D02*
Y73966D01*
X527466Y72000D02*
X536339D01*
X536352Y71986D01*
X542648Y69147D02*
Y72013D01*
X540000Y66500D02*
X542648Y69147D01*
X513000Y70500D02*
Y74854D01*
X510000Y56146D02*
X513854D01*
X534584Y58084D02*
X540534D01*
X546466D02*
X554328D01*
X554744Y58500D01*
X503295Y93295D02*
X505500Y95500D01*
X555000Y75500D02*
Y95500D01*
X546466Y66966D02*
X555000Y75500D01*
X546466Y58084D02*
Y66966D01*
X541642Y47500D02*
Y50142D01*
X546466Y54966D01*
Y58084D01*
X510034Y28000D02*
Y32466D01*
X515966Y28000D02*
X524993D01*
X525352Y28359D01*
X475500Y27966D02*
Y29500D01*
X477638Y31638D01*
X509000Y66500D02*
X540000D01*
X501890Y73610D02*
X509000Y66500D01*
X503921Y75579D02*
X508000Y71500D01*
X411646Y134354D02*
X417000D01*
X394854Y88146D02*
X395000Y88000D01*
X398646Y71354D02*
X404500D01*
X533831Y91445D02*
X542299D01*
X542854Y92000D01*
X509500Y91966D02*
X511229D01*
X533831Y91445D02*
Y94669D01*
X511229Y91966D02*
X515263Y96000D01*
X532500D02*
X533831Y94669D01*
X516000Y86354D02*
X518146D01*
X520000Y84500D01*
X525114D01*
X525169Y84555D01*
X516000Y90646D02*
X518646D01*
X519445Y91445D01*
X525169D01*
X442354Y20146D02*
Y25500D01*
X461854Y20146D02*
Y25500D01*
X486500Y138646D02*
Y145000D01*
X113075Y313425D02*
X114500Y312000D01*
X117534Y316466D02*
X119500Y314500D01*
X117534Y316466D02*
Y318500D01*
X119500Y314500D02*
X129750D01*
X117491Y318543D02*
X117534Y318500D01*
X129750Y314500D02*
X130000D01*
X125339Y323661D02*
X127500Y321500D01*
X129750D01*
X107000Y216409D02*
X117209D01*
X117252Y216366D01*
X417000Y138646D02*
Y145000D01*
X415500Y154500D02*
X420226D01*
X422600Y139046D02*
Y144834D01*
X421000Y157500D02*
X421500D01*
X107000Y221527D02*
X107384Y221143D01*
X139384D01*
X107000Y224086D02*
X107086Y224000D01*
X138000D01*
X107000Y226645D02*
X107036Y226681D01*
X117252Y215749D02*
Y216366D01*
Y215749D02*
X119635Y213365D01*
X134365D01*
X107000Y211291D02*
X122709D01*
X124000Y210000D01*
X129500D01*
X402000Y113000D02*
Y145000D01*
Y113000D02*
X405957Y109043D01*
X412480D01*
X406000Y113000D02*
Y140000D01*
Y113000D02*
X407988Y111012D01*
X412480D01*
X469000Y139966D02*
Y144000D01*
X456146Y134354D02*
X461000D01*
X455984Y123020D02*
Y127457D01*
X442205Y123020D02*
Y127696D01*
X422600Y139046D02*
X423000Y138646D01*
X420226Y154500D02*
X426457Y148269D01*
X421500Y157500D02*
X428425Y150575D01*
X426457Y123020D02*
Y148269D01*
X428425Y123020D02*
Y150575D01*
X440236Y123020D02*
Y134590D01*
X440500Y134854D01*
X437000D02*
X440500D01*
Y139146D02*
X441854D01*
X442205Y127696D02*
X443000Y128491D01*
X448110Y123020D02*
Y127457D01*
X450079Y123020D02*
Y128034D01*
X452047Y123020D02*
Y128611D01*
X417000Y131500D02*
Y134354D01*
Y131500D02*
X420551Y127949D01*
Y123020D02*
Y127949D01*
X422520Y123020D02*
Y133874D01*
X423000Y134354D01*
X434355Y327645D02*
X451500Y310500D01*
X465500Y155000D02*
X465523Y155023D01*
X461000Y138646D02*
Y145500D01*
X456000Y149000D02*
X462500D01*
X455300Y257800D02*
X458000Y260500D01*
X461000D01*
X462500Y149000D02*
X463858Y147642D01*
Y142000D02*
Y147642D01*
X453500Y261000D02*
X456000Y263500D01*
X458000D01*
X458500Y152000D02*
X461000D01*
X457100Y153400D02*
X458500Y152000D01*
X457100Y153400D02*
Y255100D01*
X460000Y258000D01*
X465000D01*
X458900Y155600D02*
Y253000D01*
X459500Y155000D02*
X461991D01*
X458900Y155600D02*
X459500Y155000D01*
X458900Y253000D02*
X460900Y255000D01*
X468000D01*
X461991Y155000D02*
X473500Y143491D01*
X502280Y109043D02*
X506091Y112854D01*
X510000D01*
X503066Y107075D02*
X503972Y107981D01*
X506028D01*
X506609Y107400D01*
X503853Y103138D02*
X503972Y103019D01*
X503981D01*
X505500Y101500D01*
X506609Y107400D02*
X531400D01*
X533000Y109000D01*
X505500Y95500D02*
X512103D01*
X517603Y101000D02*
X549500D01*
X512103Y95500D02*
X517603Y101000D01*
X394854Y88146D02*
Y93500D01*
X412362Y93413D02*
X412480Y93295D01*
X404236Y95264D02*
X412480D01*
X394854Y93500D02*
Y95354D01*
X396000Y96500D01*
X403000D01*
X404236Y95264D01*
X399000Y112000D02*
X403925Y107075D01*
X412480D01*
X396500Y110500D02*
X403862Y103138D01*
X412480D01*
X273709Y216909D02*
X273751Y216866D01*
X263500Y216909D02*
X273709D01*
X400799Y99201D02*
X412480D01*
X387500Y173500D02*
X396500Y164500D01*
Y110500D02*
Y164500D01*
X399000Y112000D02*
Y166000D01*
X389000Y176000D02*
X399000Y166000D01*
X303000Y192500D02*
X322000Y173500D01*
X387500D01*
X299400Y188600D02*
X321000Y167000D01*
X385500D01*
X322009Y170500D02*
X385500D01*
X301200Y191309D02*
X322009Y170500D01*
X305500Y194500D02*
X324000Y176000D01*
X389000D01*
X455300Y149700D02*
X456000Y149000D01*
X455300Y149700D02*
Y257800D01*
X435541Y322527D02*
X449437Y308631D01*
X443000Y146500D02*
X443700Y147200D01*
Y219945D01*
X436500Y227145D02*
X443700Y219945D01*
X440500Y139146D02*
Y143500D01*
X433500Y156500D02*
X436597D01*
X432500Y155500D02*
X433500Y156500D01*
X436597D02*
X437902Y157805D01*
X436940Y153940D02*
X437940D01*
X436500Y153500D02*
X436940Y153940D01*
X437940D02*
X440059Y156059D01*
X436500Y222027D02*
X441900Y216627D01*
X437500Y146000D02*
X441900Y150400D01*
Y216627D01*
X405750Y88750D02*
X406250D01*
X407610Y87390D01*
X412480D01*
X402500Y90000D02*
X403827Y91327D01*
X412480D01*
X402500Y83500D02*
X412433D01*
X412480Y83453D01*
X418858Y89358D02*
X419000Y89500D01*
X445500Y130067D02*
X448110Y127457D01*
X457953Y123020D02*
Y128547D01*
X441854Y139146D02*
X443000Y138000D01*
Y128491D02*
Y138000D01*
X453500Y133000D02*
X457953Y128547D01*
X453500Y133000D02*
Y261000D01*
X451500Y131941D02*
X455984Y127457D01*
X451500Y131941D02*
Y310500D01*
X449437Y131221D02*
X452047Y128611D01*
X449437Y131221D02*
Y308631D01*
X447469Y130644D02*
X450079Y128034D01*
X447469Y130644D02*
Y307816D01*
X497520Y73610D02*
X501890D01*
X497520Y75579D02*
X503921D01*
X461890Y25536D02*
Y37980D01*
X442205Y25649D02*
Y37980D01*
X487480Y32980D02*
Y37980D01*
X497520Y77547D02*
X505953D01*
X497520Y103138D02*
X503853D01*
X497520Y55894D02*
X509748D01*
X489449Y28197D02*
Y37980D01*
X463858Y31642D02*
Y37980D01*
X444173Y31827D02*
Y37980D01*
X497520Y91327D02*
X508861D01*
X497520Y93295D02*
X503295D01*
X497520Y89358D02*
X502642D01*
X469764Y114264D02*
Y123020D01*
X412480Y89358D02*
X418858D01*
X497520Y107075D02*
X503066D01*
X497520Y109043D02*
X502280D01*
X463858Y114264D02*
Y123020D01*
X477638Y31638D02*
Y37980D01*
X436299Y116201D02*
Y123020D01*
Y116201D02*
X439750Y112750D01*
X438268Y118232D02*
Y123020D01*
Y118232D02*
X440250Y116250D01*
X434331Y113169D02*
Y123020D01*
X439000Y108500D02*
X439500D01*
X434331Y113169D02*
X439000Y108500D01*
X430394Y113606D02*
Y123020D01*
X437000Y106000D02*
Y107000D01*
X430394Y113606D02*
X437000Y107000D01*
X549500Y101000D02*
X555000Y95500D01*
X412480Y81484D02*
X420500D01*
X581500Y227204D02*
X599295Y209409D01*
X418484Y79516D02*
X420500Y77500D01*
X412480Y79516D02*
X418484D01*
X419000Y73500D02*
X420500D01*
X416921Y75579D02*
X419000Y73500D01*
X412480Y75579D02*
X416921D01*
X412480Y69673D02*
X420327D01*
X599295Y115000D02*
Y209409D01*
X590000Y103500D02*
Y208468D01*
X594177Y111500D02*
Y209409D01*
X581500Y222086D02*
X594177Y209409D01*
X78229Y326220D02*
X84718D01*
X77528Y325519D02*
X78229Y326220D01*
X75153Y325519D02*
X77528D01*
X74690Y325056D02*
X75153Y325519D01*
X76779Y328779D02*
X84718D01*
X76500Y328500D02*
X76779Y328779D01*
X69822Y329322D02*
X71839Y331339D01*
X68500Y342256D02*
X73256D01*
X76496Y339016D01*
X84718D01*
X76148Y328352D02*
Y328852D01*
X76000Y329000D02*
X76148Y328852D01*
X392000Y108000D02*
X400799Y99201D01*
X392000Y108000D02*
Y160500D01*
X385500Y167000D02*
X392000Y160500D01*
X385500Y170500D02*
X394000Y162000D01*
Y109500D02*
Y162000D01*
Y109500D02*
X402331Y101169D01*
X412480D01*
X235527Y322527D02*
X241435D01*
X220737Y314000D02*
X234382Y327645D01*
X241435D01*
X234369Y325086D02*
X241435D01*
X205000Y318178D02*
X211322D01*
X211500Y318000D01*
X229040Y329866D02*
X229379Y330205D01*
X241435D01*
X235236Y332764D02*
X241435D01*
X232500Y335500D02*
X235236Y332764D01*
X236305Y337882D02*
X241435D01*
X228565Y345622D02*
X236305Y337882D01*
X227717Y345622D02*
X228565D01*
X241435Y343000D02*
X244500D01*
X247000Y345500D01*
Y350000D01*
X245500Y351500D02*
X247000Y350000D01*
X241756Y351500D02*
X245500D01*
X236000Y351256D02*
X236244Y351500D01*
X236000Y342000D02*
Y351256D01*
Y342000D02*
X237559Y340441D01*
X241435D01*
X227507Y345832D02*
X227717Y345622D01*
X231797Y319968D02*
X241435D01*
X237791Y312291D02*
X241435D01*
X237000Y313082D02*
X237791Y312291D01*
X237000Y313082D02*
Y314500D01*
X237500Y315000D01*
X241285D01*
X241435Y314850D01*
Y312291D02*
X246791D01*
X385236Y332764D02*
X388935D01*
X380500Y337500D02*
X385236Y332764D01*
X377040Y331366D02*
X378201Y330205D01*
X388935D01*
X388351Y319384D02*
X388935Y319968D01*
X342000Y318000D02*
X371000D01*
X380645Y327645D01*
X388935D01*
X371746Y316200D02*
X380632Y325086D01*
X388935D01*
X383027Y322527D02*
X388935D01*
Y343000D02*
X393000D01*
X394500Y344500D01*
Y352000D01*
X392000Y354500D02*
X394500Y352000D01*
X389256Y354500D02*
X392000D01*
X383744Y342256D02*
Y354500D01*
Y342256D02*
X385559Y340441D01*
X388935D01*
X375717Y347122D02*
X379878D01*
X381944Y345056D01*
Y341510D02*
Y345056D01*
Y341510D02*
X385572Y337882D01*
X388935D01*
X375507Y347332D02*
X375717Y347122D01*
X384000Y313000D02*
X385000Y312000D01*
X388644D01*
X388935Y312291D01*
X384000Y313000D02*
Y314000D01*
X384850Y314850D01*
X388935D01*
Y312291D02*
X394209D01*
X395500Y311000D01*
X411500Y317409D02*
X421708D01*
X337900Y314400D02*
X372900D01*
X377884Y319384D01*
X388351D01*
X521067Y342721D02*
X525280D01*
X530020Y337981D01*
X535784D01*
Y343098D02*
X540598D01*
X542000Y344500D01*
Y349000D01*
X539000Y352000D02*
X542000Y349000D01*
X535756Y352000D02*
X539000D01*
X530244Y342256D02*
Y352000D01*
Y342256D02*
X531960Y340540D01*
X535784D01*
X465598Y332862D02*
X535784D01*
X532448Y314949D02*
X535784D01*
X531500Y314000D02*
X532448Y314949D01*
X531500Y313000D02*
Y314000D01*
Y313000D02*
X532111Y312389D01*
X535784D01*
X541610D01*
X543000Y311000D01*
X526965Y309177D02*
X527618Y309830D01*
X529626Y322625D02*
X535784D01*
X501322Y317178D02*
X501500Y317000D01*
X529783Y317508D02*
X535784D01*
X526965Y314689D02*
X529783Y317508D01*
X525804Y330304D02*
X535784D01*
X523464Y327964D02*
X525804Y330304D01*
X519389Y327964D02*
X523464D01*
X527078Y335421D02*
X535784D01*
X525291Y337209D02*
X527078Y335421D01*
X521067Y337209D02*
X525291D01*
X84435Y231764D02*
Y232014D01*
X56500Y212000D02*
X66218Y221718D01*
X39614Y212000D02*
X56500D01*
X38851Y212762D02*
X39614Y212000D01*
X38851Y212762D02*
Y215649D01*
X57246Y210200D02*
X66963Y219917D01*
X38123Y208400D02*
X57991D01*
X32491Y214032D02*
X38123Y208400D01*
X75645Y226645D02*
X84435D01*
X72499Y222613D02*
Y223499D01*
X75645Y226645D01*
X71604Y221718D02*
X72499Y222613D01*
X66218Y221718D02*
X71604D01*
X66963Y219917D02*
X72349D01*
X76517Y224086D01*
X84435D01*
X84408Y221500D02*
X84435Y221527D01*
X77500Y221500D02*
X84408D01*
X73945Y218968D02*
X84435D01*
X57991Y208400D02*
X67709Y218117D01*
X73095D01*
X73945Y218968D01*
X80409Y216409D02*
X84435D01*
X78039Y214038D02*
X80409Y216409D01*
X75866Y214038D02*
X78039D01*
X80850Y213850D02*
X84435D01*
X80000Y213000D02*
X80850Y213850D01*
X80000Y212000D02*
Y213000D01*
Y212000D02*
X80709Y211291D01*
X84435D01*
X526243Y327744D02*
X535784D01*
X523066Y324566D02*
X526243Y327744D01*
X519816Y323316D02*
X522304D01*
X523066Y324078D01*
Y324566D01*
X520562Y321516D02*
X523050D01*
X524866Y323332D01*
Y323820D01*
X526230Y325184D01*
X535784D01*
X521307Y319716D02*
X523796D01*
X524146Y320066D01*
X535784D01*
X68717Y237610D02*
X75890D01*
X79177Y234323D01*
X84435D01*
X68717Y243122D02*
X73878D01*
X80118Y236882D01*
X84435D01*
X68507Y243332D02*
X68717Y243122D01*
X83756Y251000D02*
X84256Y250500D01*
X87000D01*
X90000Y247500D01*
Y243500D02*
Y247500D01*
X88500Y242000D02*
X90000Y243500D01*
X84435Y242000D02*
X88500D01*
X78244Y241302D02*
Y251000D01*
Y241302D02*
X80105Y239441D01*
X84435D01*
X68822Y226500D02*
X72000D01*
X74705Y229205D01*
X84435D01*
X75866Y208526D02*
X76072Y208732D01*
X84435Y211291D02*
X89709D01*
X91500Y209500D01*
X123184Y216366D02*
X136634D01*
X138000Y215000D01*
Y209500D02*
Y215000D01*
X136019Y207519D02*
X138000Y209500D01*
X128472Y207519D02*
X136019D01*
X127991Y208000D02*
X128472Y207519D01*
X118500Y208000D02*
X127991D01*
X117244Y206744D02*
X118500Y208000D01*
X117244Y203500D02*
Y206744D01*
X107000Y208732D02*
X109268D01*
X114500Y203500D01*
X117244D01*
X125441Y195303D01*
X129615D01*
X188800Y209200D02*
X215746D01*
X228040Y226366D02*
X230866D01*
X240935Y242500D02*
X245000D01*
X245500Y243000D01*
Y249500D01*
X244000Y251000D02*
X245500Y249500D01*
X239756Y251000D02*
X244000D01*
X234244Y242744D02*
Y251000D01*
Y242744D02*
X237047Y239941D01*
X240935D01*
X236527Y222027D02*
X240935D01*
X230866Y226366D02*
X234205Y229705D01*
X240935D01*
X234500Y220000D02*
X236527Y222027D01*
X215746Y209200D02*
X226963Y220417D01*
X230701D01*
X234869Y224586D01*
X240935D01*
X196500Y211000D02*
X215000D01*
X226218Y222217D01*
X229955D01*
X234882Y227145D01*
X240935D01*
X236981Y218972D02*
Y218981D01*
X237468Y219468D01*
X240935D01*
X231500Y211756D02*
X232310D01*
X237463Y216909D01*
X240935D01*
X226500Y217000D02*
X235009D01*
X236981Y218972D01*
X237450Y214350D02*
X240935D01*
X236500Y213400D02*
X237450Y214350D01*
X236500Y212000D02*
Y213400D01*
Y212000D02*
X237000Y211500D01*
X240644D01*
X240935Y211791D01*
X247709D01*
X248500Y211000D01*
X411500Y327645D02*
X434355D01*
X411500Y322527D02*
X435541D01*
X411500Y312291D02*
X439791D01*
X445500Y306582D01*
Y130067D02*
Y306582D01*
X421751Y316748D02*
X424409Y314091D01*
X441194D01*
X447469Y307816D01*
X421751Y316748D02*
Y317366D01*
X427683D02*
X433366D01*
X411500Y309732D02*
X415768D01*
X417500Y308000D01*
X421744D01*
Y303256D02*
Y308000D01*
X428000Y297000D02*
X433418D01*
X434115Y296303D01*
X421744Y303256D02*
X428000Y297000D01*
X264145Y327500D02*
X296500D01*
X264000Y327645D02*
X264145Y327500D01*
X264000Y322527D02*
X289473D01*
X294500Y317500D01*
X296500D01*
X264000Y317409D02*
X274208D01*
X264000Y312291D02*
X271291D01*
X271500Y312500D01*
X280184Y315684D02*
Y317366D01*
X274744Y310244D02*
X280184Y315684D01*
X274744Y306000D02*
Y310244D01*
X264000Y309732D02*
X266268D01*
X270000Y306000D01*
X274744D01*
Y303756D02*
Y306000D01*
Y303756D02*
X282197Y296303D01*
X286615D01*
X274208Y319209D02*
X275500Y320500D01*
X274208Y317409D02*
Y319209D01*
X275500Y320500D02*
X284000D01*
X286500Y318000D01*
Y315000D02*
Y318000D01*
X595611Y312389D02*
X596500Y311500D01*
X558350Y312389D02*
X595611D01*
X558350Y327744D02*
X586257D01*
X586500Y327500D01*
X558350Y322625D02*
X588375D01*
X589500Y321500D01*
X558350Y317508D02*
X568558D01*
X568601Y317464D01*
Y316899D02*
Y317464D01*
X592000Y315500D02*
X594000D01*
X590690Y314190D02*
X592000Y315500D01*
X568601Y316899D02*
X571311Y314190D01*
X590690D01*
X574533Y317464D02*
X579464D01*
X579500Y297866D02*
Y302000D01*
Y297866D02*
X580965Y296402D01*
X569244Y300756D02*
Y306500D01*
Y300756D02*
X573598Y296402D01*
X580965D01*
X558350Y309830D02*
X562170D01*
X565500Y306500D01*
X569244D01*
X238732Y209232D02*
X240935D01*
X235744Y206244D02*
X238732Y209232D01*
X231500Y206244D02*
X231866D01*
X235744D01*
X227218Y242622D02*
X229878D01*
X235118Y237382D01*
X240935D01*
X227218Y237110D02*
X231390D01*
X233677Y234823D01*
X240935D01*
X305500Y194500D02*
Y219500D01*
X297855Y227145D02*
X305500Y219500D01*
X263500Y227145D02*
X297855D01*
X263500Y211791D02*
X295209D01*
X299400Y207600D01*
Y188600D02*
Y207600D01*
X273751Y216866D02*
X274000Y216617D01*
Y214500D02*
Y216617D01*
Y214500D02*
X274909Y213591D01*
X279683Y216866D02*
X285866D01*
X274244Y204256D02*
Y207000D01*
Y204256D02*
X276000Y202500D01*
X285866D01*
Y196052D02*
Y202500D01*
Y196052D02*
X286115Y195803D01*
X263500Y209232D02*
X267768D01*
X270000Y207000D01*
X274244D01*
X274909Y213591D02*
X296409D01*
X301200Y208800D01*
Y191309D02*
Y208800D01*
X263500Y222027D02*
X296973D01*
X303000Y216000D01*
Y192500D02*
Y216000D01*
X364028Y209700D02*
X374246Y219917D01*
X364774Y207900D02*
X374991Y218117D01*
X377866Y226866D02*
X380705Y229705D01*
X374246Y219917D02*
X376849D01*
X382000Y221500D02*
X382527Y222027D01*
X373634Y221851D02*
X376238D01*
X363282Y211500D02*
X373634Y221851D01*
X376238D02*
X381531Y227145D01*
X376849Y219917D02*
X381518Y224586D01*
X374991Y218117D02*
X382617D01*
X383968Y219468D01*
X378866Y214038D02*
X381539D01*
X384409Y216909D01*
X383500Y213454D02*
X384396Y214350D01*
X383500Y212500D02*
Y213454D01*
Y212500D02*
X384209Y211791D01*
X393709D02*
X395000Y210500D01*
X378866Y208526D02*
X379572Y209232D01*
X420709Y216909D02*
X420751Y216866D01*
X435611Y211791D02*
X437902Y209500D01*
Y157805D02*
Y209500D01*
X420751Y216866D02*
X421134D01*
X424409Y213591D01*
X437468D01*
X440059Y211000D01*
Y156059D02*
Y211000D01*
X426684Y216866D02*
X432866D01*
Y196052D02*
Y202134D01*
X415768Y209232D02*
X417500Y207500D01*
X420744D01*
Y201756D02*
Y207500D01*
Y201756D02*
X426448Y196052D01*
X432866D01*
X373218Y237110D02*
X380390D01*
X382677Y234823D01*
X373218Y242622D02*
X377878D01*
X388256Y250500D02*
X392000D01*
X393500Y249000D01*
Y244500D02*
Y249000D01*
X391500Y242500D02*
X393500Y244500D01*
X382744Y241756D02*
Y250500D01*
Y241756D02*
X384559Y239941D01*
X491852Y212263D02*
X492614Y211500D01*
X527204Y227204D02*
X534435D01*
X524000Y224000D02*
X527204Y227204D01*
X525800Y223254D02*
X527191Y224645D01*
X534435D01*
X528500Y222000D02*
X528586Y222086D01*
X534435D01*
X529528Y219519D02*
X529536Y219527D01*
X534435D01*
X529968Y216968D02*
X534435D01*
X524925Y211925D02*
X529968Y216968D01*
X524925Y209539D02*
Y211925D01*
X513386Y211500D02*
X524000Y222114D01*
X492614Y211500D02*
X513386D01*
X524000Y222114D02*
Y224000D01*
X525800Y221300D02*
Y223254D01*
X527019Y219519D02*
X529528D01*
X520322Y226000D02*
X522500D01*
X526264Y229764D01*
X534435D01*
X504822Y215178D02*
X505000Y215000D01*
X530409Y214409D02*
X534435D01*
X529500Y213500D02*
X530409Y214409D01*
X534285Y212000D02*
X534435Y211850D01*
X530000Y212000D02*
X534285D01*
X529500Y212500D02*
X530000Y212000D01*
X529500Y212500D02*
Y213500D01*
X534435Y211850D02*
X540150D01*
X541500Y210500D01*
X528526Y204027D02*
X529000Y204500D01*
X524925Y204027D02*
X528526D01*
X529000Y204500D02*
Y208000D01*
X530291Y209291D01*
X534435D01*
Y242559D02*
X539559D01*
X540500Y243500D01*
Y249500D01*
X539000Y251000D02*
X540500Y249500D01*
X535256Y251000D02*
X539000D01*
X529244Y250500D02*
X529744Y251000D01*
X527000Y250500D02*
X529244D01*
X526000Y249500D02*
X527000Y250500D01*
X526000Y241500D02*
Y249500D01*
Y241500D02*
X527500Y240000D01*
X534435D01*
X557000Y227204D02*
X581500D01*
X557000Y222086D02*
X581500D01*
X567251Y216925D02*
X570527Y213650D01*
X557000Y216968D02*
X567208D01*
X567251Y216925D01*
X573183D02*
X579425D01*
Y196052D02*
Y201500D01*
X567744Y202756D02*
Y207000D01*
Y202756D02*
X574448Y196052D01*
X579425D01*
X570527Y213650D02*
X584805D01*
X557000Y211850D02*
X584059D01*
X584805Y213650D02*
X584987Y213468D01*
X585000D01*
X590000Y208468D01*
X586500Y98500D02*
X587500Y99500D01*
Y208409D01*
X584059Y211850D02*
X587500Y208409D01*
X557000Y209291D02*
X561709D01*
X564000Y207000D01*
X567744D01*
X264000Y325086D02*
X264067Y325019D01*
X303519D01*
X307000Y328500D01*
Y350500D01*
X132220Y326220D02*
X168500Y362500D01*
X411500Y325086D02*
X423414D01*
X558350Y325184D02*
X558515Y325019D01*
X587528D01*
X588981Y326472D01*
Y336519D01*
X563000Y362500D02*
X588981Y336519D01*
X497520Y114949D02*
X501449D01*
X507000Y120500D01*
Y142000D01*
X462000Y187000D02*
X507000Y142000D01*
X462000Y187000D02*
Y241500D01*
X472500Y252000D01*
X457500Y303500D02*
X472500Y288500D01*
X307000Y350500D02*
X316000Y359500D01*
X457500D01*
Y303500D02*
Y359500D01*
X168500Y362500D02*
X456500D01*
X457500Y361500D01*
Y359500D02*
Y361500D01*
Y359500D02*
X461000D01*
X464000Y362500D01*
X563000D01*
X149000Y224000D02*
Y249500D01*
X158500Y259000D01*
X427500D01*
X263500Y224586D02*
X283914D01*
X557000Y224645D02*
X571645D01*
X472500Y252000D02*
Y261500D01*
Y288500D01*
X483500Y129500D02*
X483543Y123020D01*
X483500Y134354D02*
X486500D01*
X471732Y123020D02*
Y129232D01*
X473701Y123020D02*
Y128292D01*
X475669Y123020D02*
Y127715D01*
X477638Y123020D02*
Y127138D01*
X471732Y129232D02*
X473500Y131000D01*
Y143491D01*
X473701Y128292D02*
X475300Y129891D01*
Y145246D01*
X475669Y127715D02*
X477100Y129146D01*
Y147400D01*
X461500Y163000D02*
X477100Y147400D01*
X477638Y127138D02*
X478900Y128400D01*
X480700Y132300D02*
X483500Y129500D01*
X480700Y132300D02*
Y143700D01*
X490500Y153500D01*
X536067Y278067D02*
Y292464D01*
X528000Y270000D02*
X536067Y278067D01*
X500500Y270000D02*
X528000D01*
X491000Y260500D02*
X500500Y270000D01*
X486000Y260500D02*
X491000D01*
X389217Y284783D02*
Y292366D01*
Y284783D02*
X391000Y283000D01*
X485000Y261500D02*
Y272000D01*
Y261500D02*
X486000Y260500D01*
X85500Y282500D02*
Y292000D01*
Y282500D02*
X104000Y264000D01*
X231500D01*
X241718Y274218D01*
Y292366D01*
X268084Y266000D02*
X426500D01*
X441500Y281000D01*
Y291500D01*
X84718Y183782D02*
Y191366D01*
Y183782D02*
X91654Y176847D01*
X130969D01*
X131122Y177000D01*
X149500D01*
X107036Y226681D02*
X139819D01*
X148500Y218000D01*
X139384Y221143D02*
X141500Y219027D01*
X149500Y177000D02*
X157500Y185000D01*
Y244000D01*
X168000Y254500D01*
X190500D01*
X420551Y25051D02*
Y37980D01*
X417000Y21500D02*
X420551Y25051D01*
X408043Y51957D02*
X412480D01*
X405500Y54500D02*
X408043Y51957D01*
X390991Y54500D02*
X405500D01*
X389019Y52528D02*
X390991Y54500D01*
X389019Y52519D02*
Y52528D01*
X387000Y50500D02*
X389019Y52519D01*
X387000Y37000D02*
Y50500D01*
Y37000D02*
X392500Y31500D01*
Y25500D02*
Y31500D01*
X385000Y30000D02*
X387146Y27854D01*
Y14283D02*
Y27854D01*
Y14283D02*
X392929Y8500D01*
X398500D01*
X402500Y12500D01*
Y15500D01*
X392500D02*
X397500Y20500D01*
X407500D01*
X411000Y24000D02*
Y28500D01*
X407500Y20500D02*
X411000Y24000D01*
X405000Y57000D02*
X407000D01*
X407862Y57862D01*
X412480D01*
X489500Y28146D02*
X493854D01*
X392500Y85000D02*
X397000D01*
X399146Y87146D01*
Y93413D01*
Y93500D01*
X520717Y236169D02*
X525831D01*
X527118Y234882D01*
X534435D01*
X527513Y237441D02*
X534435D01*
X520717Y241681D02*
X523273D01*
X527513Y237441D01*
X387000Y90500D02*
X392500Y85000D01*
X387000Y90500D02*
Y106500D01*
X509500Y86034D02*
X516000D01*
X351585Y52585D02*
Y61500D01*
X351500Y52500D02*
X351585Y52585D01*
X432362Y37980D02*
Y46138D01*
X373415Y61500D02*
X380500D01*
X430181Y38193D02*
X430394Y37980D01*
X430181Y38193D02*
Y53181D01*
X430500Y53500D01*
X404146Y76000D02*
X404500Y75646D01*
X398500Y76000D02*
X404146D01*
X184844Y335500D02*
X232500D01*
X184500Y335843D02*
X184844Y335500D01*
X184685Y306500D02*
X218329D01*
X231797Y319968D01*
X197500Y311000D02*
X220283D01*
X234369Y325086D01*
X199500Y314000D02*
X220737D01*
X187500Y326000D02*
X199500Y314000D01*
X184500Y326000D02*
X187500D01*
X184500Y316159D02*
X192341D01*
X197500Y311000D01*
X184500Y306315D02*
X184685Y306500D01*
X327156Y337500D02*
X380500D01*
X327000Y337344D02*
X327156Y337500D01*
X331315Y307815D02*
X337900Y314400D01*
X327000Y307815D02*
X331315D01*
X327000Y317658D02*
X328458Y316200D01*
X371746D01*
X332500Y327500D02*
X342000Y318000D01*
X327000Y327500D02*
X332500D01*
X468080Y310500D02*
X509546D01*
X520562Y321516D01*
X509000Y312500D02*
X519816Y323316D01*
X465500Y332765D02*
X465598Y332862D01*
X465500Y322921D02*
X475579D01*
X486000Y312500D01*
X509000D01*
X465500Y313080D02*
X468080Y310500D01*
X507591Y306000D02*
X521307Y319716D01*
X465500Y303236D02*
X483236D01*
X486000Y306000D01*
X507591D01*
X31000Y223500D02*
X38851Y215649D01*
X23000Y215315D02*
X24283Y214032D01*
X32491D01*
X23000Y225159D02*
X25842D01*
X37352Y213649D01*
Y212141D02*
Y213649D01*
Y212141D02*
X39293Y210200D01*
X57246D01*
X23000Y235000D02*
X25500D01*
X31000Y229500D01*
Y223500D02*
Y229500D01*
X472441Y232323D02*
X534435D01*
X472000Y232765D02*
X472441Y232323D01*
X511000Y203500D02*
X527019Y219519D01*
X472264Y203500D02*
X511000D01*
X472000Y203236D02*
X472264Y203500D01*
X513500Y209000D02*
X525800Y221300D01*
X492568Y209000D02*
X513500D01*
X472000Y213080D02*
X472579Y212500D01*
X489069D01*
X492568Y209000D01*
X491852Y212263D02*
Y214649D01*
X484000Y222500D02*
X491852Y214649D01*
X472421Y222500D02*
X484000D01*
X472000Y222921D02*
X472421Y222500D01*
X331900Y207900D02*
X364774D01*
X326736Y202736D02*
X331900Y207900D01*
X320500Y202736D02*
X326736D01*
X338800Y209700D02*
X364028D01*
X336000Y212500D02*
X338800Y209700D01*
X320580Y212500D02*
X336000D01*
X320500Y212579D02*
X320580Y212500D01*
X340500Y211500D02*
X363282D01*
X320500Y222421D02*
X329579D01*
X340500Y211500D01*
X178079Y232264D02*
X240935D01*
X178000Y232185D02*
X178079Y232264D01*
X185159Y222341D02*
X196500Y211000D01*
X178000Y222341D02*
X185159D01*
X185500Y212500D02*
X188800Y209200D01*
X178000Y212500D02*
X185500D01*
X178843Y203500D02*
X213000D01*
X226500Y217000D01*
X178000Y202657D02*
X178843Y203500D01*
X114500Y312000D02*
X127500D01*
X129500Y310000D01*
X465523Y155023D02*
X475300Y145246D01*
X241718Y292366D02*
X268084Y266000D01*
X558350Y343098D02*
X567402D01*
X515263Y96000D02*
X532500D01*
D11*
X498500Y337244D02*
D03*
Y342756D02*
D03*
X204717Y237110D02*
D03*
Y242622D02*
D03*
X353218Y341610D02*
D03*
Y347122D02*
D03*
X205218Y340110D02*
D03*
Y345622D02*
D03*
X48500Y336744D02*
D03*
Y342256D02*
D03*
X74000Y311756D02*
D03*
Y306244D02*
D03*
X68500Y336744D02*
D03*
Y342256D02*
D03*
X542000Y111744D02*
D03*
Y117256D02*
D03*
X227717Y340110D02*
D03*
Y345622D02*
D03*
X233000Y312756D02*
D03*
Y307244D02*
D03*
X379366Y312539D02*
D03*
Y307027D02*
D03*
X375717Y341610D02*
D03*
Y347122D02*
D03*
X521067Y337209D02*
D03*
Y342721D02*
D03*
X68717Y237610D02*
D03*
Y243122D02*
D03*
X227218Y237110D02*
D03*
Y242622D02*
D03*
X373218Y237110D02*
D03*
Y242622D02*
D03*
X524925Y209539D02*
D03*
Y204027D02*
D03*
X520717Y236169D02*
D03*
Y241681D02*
D03*
X498217Y236169D02*
D03*
Y241681D02*
D03*
X46218Y237610D02*
D03*
Y243122D02*
D03*
X350717Y237110D02*
D03*
Y242622D02*
D03*
X304000Y105256D02*
D03*
Y99744D02*
D03*
X75866Y214038D02*
D03*
Y208526D02*
D03*
X526965Y314689D02*
D03*
Y309177D02*
D03*
X231500Y211756D02*
D03*
Y206244D02*
D03*
X378866Y214038D02*
D03*
Y208526D02*
D03*
D12*
X201500Y216178D02*
D03*
Y227822D02*
D03*
X45500Y314178D02*
D03*
Y325822D02*
D03*
X205000Y318178D02*
D03*
Y329822D02*
D03*
X351500Y321678D02*
D03*
Y333322D02*
D03*
X494000Y317178D02*
D03*
Y328822D02*
D03*
X43500Y215678D02*
D03*
Y227322D02*
D03*
X347500Y215678D02*
D03*
Y227322D02*
D03*
X496500Y215178D02*
D03*
Y226822D02*
D03*
D13*
X357534Y108000D02*
D03*
X363466D02*
D03*
X334568Y26377D02*
D03*
X340500D02*
D03*
X521534Y72000D02*
D03*
X527466D02*
D03*
X510034Y28000D02*
D03*
X515966D02*
D03*
X213034Y26627D02*
D03*
X218966D02*
D03*
X132966Y40500D02*
D03*
X127034D02*
D03*
X272966Y82500D02*
D03*
X267034D02*
D03*
X286966D02*
D03*
X281034D02*
D03*
X123466Y318500D02*
D03*
X117534D02*
D03*
X540534Y58084D02*
D03*
X546466D02*
D03*
X280184Y317366D02*
D03*
X274252D02*
D03*
X427683D02*
D03*
X421751D02*
D03*
X574533Y317464D02*
D03*
X568601D02*
D03*
X123184Y216366D02*
D03*
X117252D02*
D03*
X426684Y216866D02*
D03*
X420751D02*
D03*
X573183Y216925D02*
D03*
X567251D02*
D03*
X319034Y26500D02*
D03*
X324966D02*
D03*
X279683Y216866D02*
D03*
X273751D02*
D03*
X203432Y130500D02*
D03*
X197500D02*
D03*
X314966Y48500D02*
D03*
X309034D02*
D03*
X357432Y52500D02*
D03*
X351500D02*
D03*
D14*
X66244Y45000D02*
D03*
X71756D02*
D03*
X124756Y75000D02*
D03*
X119244D02*
D03*
X85244Y45230D02*
D03*
X90756D02*
D03*
X356756Y135500D02*
D03*
X351244D02*
D03*
X75756Y352500D02*
D03*
X70244D02*
D03*
X124256Y304500D02*
D03*
X118744D02*
D03*
X554744Y58500D02*
D03*
X560256D02*
D03*
X241756Y351500D02*
D03*
X236244D02*
D03*
X274744Y306000D02*
D03*
X280256D02*
D03*
X389256Y354500D02*
D03*
X383744D02*
D03*
X421744Y308000D02*
D03*
X427256D02*
D03*
X535756Y352000D02*
D03*
X530244D02*
D03*
X569244Y306500D02*
D03*
X574756D02*
D03*
X83756Y251000D02*
D03*
X78244D02*
D03*
X117244Y203500D02*
D03*
X122756D02*
D03*
X239756Y251000D02*
D03*
X234244D02*
D03*
X274244Y207000D02*
D03*
X279756D02*
D03*
X388256Y250500D02*
D03*
X382744D02*
D03*
X420744Y207500D02*
D03*
X426256D02*
D03*
X535256Y251000D02*
D03*
X529744D02*
D03*
X567744Y207000D02*
D03*
X573256D02*
D03*
D15*
X536352Y71986D02*
D03*
X542648Y72013D02*
D03*
X525352Y28359D02*
D03*
X531647Y28386D02*
D03*
X349852Y26736D02*
D03*
X356148Y26763D02*
D03*
X228352Y26986D02*
D03*
X234647Y27013D02*
D03*
D16*
X187067Y49000D02*
D03*
X166043D02*
D03*
X47989Y288000D02*
D03*
X69011D02*
D03*
X204206Y288366D02*
D03*
X225229D02*
D03*
X345706Y293866D02*
D03*
X366729D02*
D03*
X494556Y291464D02*
D03*
X515579D02*
D03*
X40706Y190366D02*
D03*
X61729D02*
D03*
X200706Y188366D02*
D03*
X221729D02*
D03*
X346206Y191866D02*
D03*
X367229D02*
D03*
X492706Y185925D02*
D03*
X513729D02*
D03*
D17*
X174743Y17389D02*
D03*
X182617D02*
D03*
D18*
X174680Y28889D02*
D03*
X182554D02*
D03*
D19*
X130825Y28000D02*
D03*
X118285D02*
D03*
X294770Y73500D02*
D03*
X282230D02*
D03*
D20*
X68000Y23230D02*
D03*
Y35770D02*
D03*
X230000Y68270D02*
D03*
Y55730D02*
D03*
D21*
X346193Y108500D02*
D03*
D22*
X322807Y99445D02*
D03*
Y108500D02*
D03*
Y117555D02*
D03*
D23*
X339268Y135500D02*
D03*
X322732D02*
D03*
D24*
X254104Y38500D02*
D03*
X294896D02*
D03*
D25*
X261500Y67146D02*
D03*
Y62854D02*
D03*
X240500Y64854D02*
D03*
Y69146D02*
D03*
X417000Y134354D02*
D03*
Y138646D02*
D03*
X461000Y134354D02*
D03*
Y138646D02*
D03*
X489500Y28146D02*
D03*
Y23854D02*
D03*
X516500Y117146D02*
D03*
Y112854D02*
D03*
X510000Y117146D02*
D03*
Y112854D02*
D03*
X513000Y74854D02*
D03*
Y79146D02*
D03*
X510000Y56146D02*
D03*
Y51854D02*
D03*
X516000Y90646D02*
D03*
Y86354D02*
D03*
X423000Y138646D02*
D03*
Y134354D02*
D03*
X486500D02*
D03*
Y138646D02*
D03*
X440500Y134854D02*
D03*
Y139146D02*
D03*
X404500Y71354D02*
D03*
Y75646D02*
D03*
D26*
X266646Y73500D02*
D03*
X262354D02*
D03*
X398354Y51500D02*
D03*
X402646D02*
D03*
Y44000D02*
D03*
X398354D02*
D03*
X446646Y25500D02*
D03*
X442354D02*
D03*
X466146D02*
D03*
X461854D02*
D03*
X509354Y101500D02*
D03*
X513646D02*
D03*
X399146Y93500D02*
D03*
X394854D02*
D03*
X547146Y92000D02*
D03*
X542854D02*
D03*
X388354Y65000D02*
D03*
X392646D02*
D03*
X388354Y71500D02*
D03*
X392646D02*
D03*
D27*
X250012Y73953D02*
D03*
Y71984D02*
D03*
Y70016D02*
D03*
Y68047D02*
D03*
X254988D02*
D03*
Y70016D02*
D03*
Y71984D02*
D03*
Y73953D02*
D03*
D28*
X68822Y325000D02*
D03*
X57178D02*
D03*
X229040Y329866D02*
D03*
X217395D02*
D03*
X377040Y332366D02*
D03*
X365395D02*
D03*
X519389Y327964D02*
D03*
X507745D02*
D03*
X68822Y226500D02*
D03*
X57178D02*
D03*
X227040Y226866D02*
D03*
X215395D02*
D03*
X373322Y226500D02*
D03*
X361678D02*
D03*
X520322Y226000D02*
D03*
X508678D02*
D03*
D29*
X129897Y297437D02*
D03*
Y289563D02*
D03*
X286615Y296303D02*
D03*
Y288429D02*
D03*
X434115Y296303D02*
D03*
Y288429D02*
D03*
X580965Y296402D02*
D03*
Y288527D02*
D03*
X129615Y195303D02*
D03*
Y187429D02*
D03*
X286115Y195803D02*
D03*
Y187929D02*
D03*
X433115Y195803D02*
D03*
Y187929D02*
D03*
X579615Y195862D02*
D03*
Y187988D02*
D03*
D30*
X117103Y293500D02*
D03*
X273820Y292366D02*
D03*
X421320D02*
D03*
X568169Y292464D02*
D03*
X116820Y191366D02*
D03*
X273320Y191866D02*
D03*
X420320D02*
D03*
X566820Y191925D02*
D03*
D31*
X469000Y139966D02*
D03*
Y134034D02*
D03*
X482500Y28114D02*
D03*
Y22182D02*
D03*
X475500Y27966D02*
D03*
Y22034D02*
D03*
X509500Y91966D02*
D03*
Y86034D02*
D03*
X131500Y67966D02*
D03*
Y62034D02*
D03*
X57105Y342466D02*
D03*
Y336534D02*
D03*
X213823Y345832D02*
D03*
Y339900D02*
D03*
X361823Y347332D02*
D03*
Y341400D02*
D03*
X507172Y342931D02*
D03*
Y336999D02*
D03*
X54823Y243332D02*
D03*
Y237400D02*
D03*
X213323Y242832D02*
D03*
Y236900D02*
D03*
X359323Y242832D02*
D03*
Y236900D02*
D03*
X506823Y241891D02*
D03*
Y235959D02*
D03*
D32*
X533000Y111744D02*
D03*
Y117255D02*
D03*
X524000Y111744D02*
D03*
Y117255D02*
D03*
D33*
X100521Y119500D02*
D03*
D34*
X127478Y128516D02*
D03*
X127480Y110485D02*
D03*
D35*
X154394Y97500D02*
D03*
X203606D02*
D03*
D36*
X89000D02*
D03*
Y92500D02*
D03*
Y87500D02*
D03*
Y82500D02*
D03*
X112386D02*
D03*
Y87500D02*
D03*
Y92500D02*
D03*
Y97500D02*
D03*
D37*
X103795Y90000D02*
D03*
D38*
X285000Y100232D02*
D03*
Y116768D02*
D03*
D39*
X95999Y327500D02*
D03*
X252717Y326366D02*
D03*
X400217D02*
D03*
X547066Y326465D02*
D03*
X95717Y225366D02*
D03*
X252217Y225866D02*
D03*
X399217Y225925D02*
D03*
X545717D02*
D03*
D40*
X107282Y310866D02*
D03*
Y313425D02*
D03*
Y315984D02*
D03*
Y318543D02*
D03*
Y321102D02*
D03*
Y323661D02*
D03*
Y326220D02*
D03*
Y328779D02*
D03*
Y331339D02*
D03*
Y333898D02*
D03*
Y336457D02*
D03*
Y339016D02*
D03*
Y341575D02*
D03*
Y344134D02*
D03*
X84718Y310866D02*
D03*
Y313425D02*
D03*
Y315984D02*
D03*
Y318543D02*
D03*
Y321102D02*
D03*
Y323661D02*
D03*
Y326220D02*
D03*
Y328779D02*
D03*
Y331339D02*
D03*
Y333898D02*
D03*
Y336457D02*
D03*
Y339016D02*
D03*
Y341575D02*
D03*
Y344134D02*
D03*
X264000Y309732D02*
D03*
Y312291D02*
D03*
Y314850D02*
D03*
Y317409D02*
D03*
Y319968D02*
D03*
Y322527D02*
D03*
Y325086D02*
D03*
Y327645D02*
D03*
Y330205D02*
D03*
Y332764D02*
D03*
Y335323D02*
D03*
Y337882D02*
D03*
Y340441D02*
D03*
Y343000D02*
D03*
X241435Y309732D02*
D03*
Y312291D02*
D03*
Y314850D02*
D03*
Y317409D02*
D03*
Y319968D02*
D03*
Y322527D02*
D03*
Y325086D02*
D03*
Y327645D02*
D03*
Y330205D02*
D03*
Y332764D02*
D03*
Y335323D02*
D03*
Y337882D02*
D03*
Y340441D02*
D03*
Y343000D02*
D03*
X411500Y309732D02*
D03*
Y312291D02*
D03*
Y314850D02*
D03*
Y317409D02*
D03*
Y319968D02*
D03*
Y322527D02*
D03*
Y325086D02*
D03*
Y327645D02*
D03*
Y330205D02*
D03*
Y332764D02*
D03*
Y335323D02*
D03*
Y337882D02*
D03*
Y340441D02*
D03*
Y343000D02*
D03*
X388935Y309732D02*
D03*
Y312291D02*
D03*
Y314850D02*
D03*
Y317409D02*
D03*
Y319968D02*
D03*
Y322527D02*
D03*
Y325086D02*
D03*
Y327645D02*
D03*
Y330205D02*
D03*
Y332764D02*
D03*
Y335323D02*
D03*
Y337882D02*
D03*
Y340441D02*
D03*
Y343000D02*
D03*
X558350Y309830D02*
D03*
Y312389D02*
D03*
Y314949D02*
D03*
Y317508D02*
D03*
Y320066D02*
D03*
Y322625D02*
D03*
Y325184D02*
D03*
Y327744D02*
D03*
Y330304D02*
D03*
Y332862D02*
D03*
Y335421D02*
D03*
Y337981D02*
D03*
Y340540D02*
D03*
Y343098D02*
D03*
X535784Y309830D02*
D03*
Y312389D02*
D03*
Y314949D02*
D03*
Y317508D02*
D03*
Y320066D02*
D03*
Y322625D02*
D03*
Y325184D02*
D03*
Y327744D02*
D03*
Y330304D02*
D03*
Y332862D02*
D03*
Y335421D02*
D03*
Y337981D02*
D03*
Y340540D02*
D03*
Y343098D02*
D03*
X107000Y208732D02*
D03*
Y211291D02*
D03*
Y213850D02*
D03*
Y216409D02*
D03*
Y218968D02*
D03*
Y221527D02*
D03*
Y224086D02*
D03*
Y226645D02*
D03*
Y229205D02*
D03*
Y231764D02*
D03*
Y234323D02*
D03*
Y236882D02*
D03*
Y239441D02*
D03*
Y242000D02*
D03*
X84435Y208732D02*
D03*
Y211291D02*
D03*
Y213850D02*
D03*
Y216409D02*
D03*
Y218968D02*
D03*
Y221527D02*
D03*
Y224086D02*
D03*
Y226645D02*
D03*
Y229205D02*
D03*
Y231764D02*
D03*
Y234323D02*
D03*
Y236882D02*
D03*
Y239441D02*
D03*
Y242000D02*
D03*
X263500Y209232D02*
D03*
Y211791D02*
D03*
Y214350D02*
D03*
Y216909D02*
D03*
Y219468D02*
D03*
Y222027D02*
D03*
Y224586D02*
D03*
Y227145D02*
D03*
Y229705D02*
D03*
Y232264D02*
D03*
Y234823D02*
D03*
Y237382D02*
D03*
Y239941D02*
D03*
Y242500D02*
D03*
X240935Y209232D02*
D03*
Y211791D02*
D03*
Y214350D02*
D03*
Y216909D02*
D03*
Y219468D02*
D03*
Y222027D02*
D03*
Y224586D02*
D03*
Y227145D02*
D03*
Y229705D02*
D03*
Y232264D02*
D03*
Y234823D02*
D03*
Y237382D02*
D03*
Y239941D02*
D03*
Y242500D02*
D03*
X410500Y209291D02*
D03*
Y211850D02*
D03*
Y214409D02*
D03*
Y216968D02*
D03*
Y219527D02*
D03*
Y222086D02*
D03*
Y224645D02*
D03*
Y227204D02*
D03*
Y229764D02*
D03*
Y232323D02*
D03*
Y234882D02*
D03*
Y237441D02*
D03*
Y240000D02*
D03*
Y242559D02*
D03*
X387935Y209291D02*
D03*
Y211850D02*
D03*
Y214409D02*
D03*
Y216968D02*
D03*
Y219527D02*
D03*
Y222086D02*
D03*
Y224645D02*
D03*
Y227204D02*
D03*
Y229764D02*
D03*
Y232323D02*
D03*
Y234882D02*
D03*
Y237441D02*
D03*
Y240000D02*
D03*
Y242559D02*
D03*
X557000Y209291D02*
D03*
Y211850D02*
D03*
Y214409D02*
D03*
Y216968D02*
D03*
Y219527D02*
D03*
Y222086D02*
D03*
Y224645D02*
D03*
Y227204D02*
D03*
Y229764D02*
D03*
Y232323D02*
D03*
Y234882D02*
D03*
Y237441D02*
D03*
Y240000D02*
D03*
Y242559D02*
D03*
X534435Y209291D02*
D03*
Y211850D02*
D03*
Y214409D02*
D03*
Y216968D02*
D03*
Y219527D02*
D03*
Y222086D02*
D03*
Y224645D02*
D03*
Y227204D02*
D03*
Y229764D02*
D03*
Y232323D02*
D03*
Y234882D02*
D03*
Y237441D02*
D03*
Y240000D02*
D03*
Y242559D02*
D03*
D41*
X559358Y47500D02*
D03*
X541642D02*
D03*
D42*
X525169Y91445D02*
D03*
X533831D02*
D03*
Y84555D02*
D03*
X525169D02*
D03*
D43*
X151000Y29800D02*
D03*
D44*
X154740Y17200D02*
D03*
X147260D02*
D03*
D45*
X112000Y52000D02*
D03*
D46*
X119677Y63282D02*
D03*
X117118D02*
D03*
X114559D02*
D03*
X112000D02*
D03*
X109441D02*
D03*
X106882D02*
D03*
X104323D02*
D03*
X119677Y40717D02*
D03*
X117118D02*
D03*
X114559D02*
D03*
X112000D02*
D03*
X109441D02*
D03*
X106882D02*
D03*
X104323D02*
D03*
D47*
X489449Y37980D02*
D03*
X487480D02*
D03*
X485512D02*
D03*
X483543D02*
D03*
X481575D02*
D03*
X479606D02*
D03*
X477638D02*
D03*
X475669D02*
D03*
X473701D02*
D03*
X471732D02*
D03*
X469764D02*
D03*
X467795D02*
D03*
X465827D02*
D03*
X463858D02*
D03*
X461890D02*
D03*
X459921D02*
D03*
X457953D02*
D03*
X455984D02*
D03*
X454016D02*
D03*
X452047D02*
D03*
X450079D02*
D03*
X448110D02*
D03*
X446142D02*
D03*
X444173D02*
D03*
X442205D02*
D03*
X440236D02*
D03*
X438268D02*
D03*
X436299D02*
D03*
X434331D02*
D03*
X432362D02*
D03*
X430394D02*
D03*
X428425D02*
D03*
X426457D02*
D03*
X424488D02*
D03*
X422520D02*
D03*
X420551D02*
D03*
Y123020D02*
D03*
X422520D02*
D03*
X424488D02*
D03*
X426457D02*
D03*
X428425D02*
D03*
X430394D02*
D03*
X432362D02*
D03*
X434331D02*
D03*
X436299D02*
D03*
X438268D02*
D03*
X440236D02*
D03*
X442205D02*
D03*
X444173D02*
D03*
X446142D02*
D03*
X448110D02*
D03*
X450079D02*
D03*
X452047D02*
D03*
X454016D02*
D03*
X455984D02*
D03*
X457953D02*
D03*
X459921D02*
D03*
X461890D02*
D03*
X463858D02*
D03*
X465827D02*
D03*
X467795D02*
D03*
X469764D02*
D03*
X471732D02*
D03*
X473701D02*
D03*
X475669D02*
D03*
X477638D02*
D03*
X479606D02*
D03*
X481575D02*
D03*
X483543D02*
D03*
X485512D02*
D03*
X487480D02*
D03*
X489449D02*
D03*
D48*
X412480Y46051D02*
D03*
Y48020D02*
D03*
Y49988D02*
D03*
Y51957D02*
D03*
Y53925D02*
D03*
Y55894D02*
D03*
Y57862D02*
D03*
Y59831D02*
D03*
Y61799D02*
D03*
Y63768D02*
D03*
Y65736D02*
D03*
Y67705D02*
D03*
Y69673D02*
D03*
Y71642D02*
D03*
Y73610D02*
D03*
Y75579D02*
D03*
Y77547D02*
D03*
Y79516D02*
D03*
Y81484D02*
D03*
Y83453D02*
D03*
Y85421D02*
D03*
Y87390D02*
D03*
Y89358D02*
D03*
Y91327D02*
D03*
Y93295D02*
D03*
Y95264D02*
D03*
Y97232D02*
D03*
Y99201D02*
D03*
Y101169D02*
D03*
Y103138D02*
D03*
Y105106D02*
D03*
Y107075D02*
D03*
Y109043D02*
D03*
Y111012D02*
D03*
Y112980D02*
D03*
Y114949D02*
D03*
X497520D02*
D03*
Y112980D02*
D03*
Y111012D02*
D03*
Y109043D02*
D03*
Y107075D02*
D03*
Y105106D02*
D03*
Y103138D02*
D03*
Y101169D02*
D03*
Y99201D02*
D03*
Y97232D02*
D03*
Y95264D02*
D03*
Y93295D02*
D03*
Y91327D02*
D03*
Y89358D02*
D03*
Y87390D02*
D03*
Y85421D02*
D03*
Y83453D02*
D03*
Y81484D02*
D03*
Y79516D02*
D03*
Y77547D02*
D03*
Y75579D02*
D03*
Y73610D02*
D03*
Y71642D02*
D03*
Y69673D02*
D03*
Y67705D02*
D03*
Y65736D02*
D03*
Y63768D02*
D03*
Y61799D02*
D03*
Y59831D02*
D03*
Y57862D02*
D03*
Y55894D02*
D03*
Y53925D02*
D03*
Y51957D02*
D03*
Y49988D02*
D03*
Y48020D02*
D03*
Y46051D02*
D03*
D49*
X336553Y65000D02*
D03*
Y74000D02*
D03*
X341447D02*
D03*
Y65000D02*
D03*
D50*
X351585Y76500D02*
D03*
Y61500D02*
D03*
X373415Y76500D02*
D03*
Y71500D02*
D03*
Y66500D02*
D03*
Y61500D02*
D03*
X351585Y71500D02*
D03*
Y66500D02*
D03*
D51*
X225000Y288366D02*
Y308000D01*
X286500Y281000D02*
Y288314D01*
X190000Y288500D02*
X204072D01*
X231866Y198634D02*
Y206244D01*
X392646Y65000D02*
Y71500D01*
X362500Y52500D02*
Y59500D01*
X392646Y65000D02*
X398500D01*
X261500Y56500D02*
Y62854D01*
X254104Y49104D02*
X261500Y56500D01*
X254104Y38500D02*
Y49104D01*
X130000Y281000D02*
Y289460D01*
X356756Y125000D02*
Y135500D01*
X329000Y15500D02*
X372500D01*
X325000Y19500D02*
X329000Y15500D01*
X325000Y19500D02*
Y26466D01*
X205127Y26627D02*
X213034D01*
X111500Y292000D02*
X113000Y293500D01*
X117103D01*
X105500Y292000D02*
X111500D01*
X35000Y288000D02*
X47989D01*
X498500Y342756D02*
Y351500D01*
X478500Y291500D02*
X494520D01*
X494556Y291464D01*
X580965Y280035D02*
Y288527D01*
X286115Y180115D02*
Y187929D01*
X204717Y242622D02*
Y249500D01*
X353218Y347122D02*
Y355282D01*
X205218Y345622D02*
Y354500D01*
X48500Y342256D02*
Y350000D01*
X109500Y304500D02*
X118744D01*
X478075Y185925D02*
X492706D01*
X579500Y181000D02*
Y187873D01*
X75866Y201634D02*
Y208526D01*
X129615Y180115D02*
Y187429D01*
X46218Y243122D02*
Y250782D01*
X378866Y200366D02*
Y208526D01*
X433115Y180000D02*
Y187929D01*
X118285Y18500D02*
Y28000D01*
X542000Y117256D02*
Y122500D01*
X132966Y40500D02*
Y45466D01*
X135000Y47500D01*
X272966Y82500D02*
X281034D01*
X257000Y75965D02*
Y84000D01*
X272966Y82500D02*
Y86534D01*
X257000Y84000D02*
X261500Y88500D01*
X271000D01*
X272966Y86534D01*
X104718Y191366D02*
X116820D01*
X233000Y300500D02*
Y307244D01*
X213823Y345832D02*
X227507D01*
X213823Y339900D02*
X227507D01*
X205218Y340110D02*
X213613D01*
X199610D02*
X205218D01*
X229756Y312756D02*
X233000D01*
X225000Y308000D02*
X229756Y312756D01*
X251717Y292366D02*
Y307365D01*
X246791Y312291D02*
X251717Y307365D01*
X379366Y307027D02*
X379500Y306892D01*
Y301500D02*
Y306892D01*
X351500Y321678D02*
X359178D01*
X360000Y322500D01*
X361823Y347332D02*
X375507D01*
X353218Y341610D02*
X361613D01*
X361823Y341400D01*
X375507D01*
X375717Y341610D01*
X347110D02*
X353218D01*
X395500Y311000D02*
X399218Y307282D01*
Y292366D02*
Y307282D01*
X331134Y293866D02*
X345706D01*
X375039Y312539D02*
X379366D01*
X366863Y304363D02*
X375039Y312539D01*
X366863Y294000D02*
Y304363D01*
Y294000D02*
X379000D01*
X225229Y284771D02*
Y288366D01*
Y284771D02*
X231500Y278500D01*
X507172Y342931D02*
X520857D01*
X521067Y342721D01*
X526965Y303000D02*
Y309177D01*
X543000Y311000D02*
X546067Y307933D01*
Y292464D02*
Y307933D01*
X494000Y317178D02*
X501322D01*
X498500Y337244D02*
X506927D01*
X507172Y336999D01*
X520857D01*
X521067Y337209D01*
X491256Y337244D02*
X498500D01*
X556067Y292464D02*
X568169D01*
X26134Y190366D02*
X40706D01*
X61729D02*
X73366D01*
X523689Y314689D02*
X526965D01*
X515579Y306578D02*
X523689Y314689D01*
X515579Y291464D02*
Y306578D01*
Y291464D02*
X527000D01*
X54823Y243332D02*
X68507D01*
X46218Y237610D02*
X54613D01*
X54823Y237400D01*
X68507D01*
X68717Y237610D01*
X38110D02*
X46218D01*
X43500Y215678D02*
X51178D01*
X51500Y216000D01*
X91500Y209500D02*
X94718Y206282D01*
Y191366D02*
Y206282D01*
X71539Y214038D02*
X75866D01*
X61729Y204229D02*
X71539Y214038D01*
X61729Y190366D02*
Y204229D01*
X187134Y188366D02*
X200706D01*
X201500Y216178D02*
X208322D01*
X209000Y215500D01*
X204717Y237110D02*
X213113D01*
X213323Y236900D01*
X227008D01*
X227218Y237110D01*
X213323Y242832D02*
X227008D01*
X227218Y242622D01*
X197890Y237110D02*
X204717D01*
X221729Y188366D02*
X232866D01*
X227256Y211756D02*
X231500D01*
X221729Y206229D02*
X227256Y211756D01*
X221729Y188366D02*
Y206229D01*
X248500Y211000D02*
X251218Y208282D01*
Y191866D02*
Y208282D01*
X261217Y191866D02*
X273320D01*
X427256Y308000D02*
X438000D01*
X574756Y306500D02*
X584500D01*
X280256Y306000D02*
X289000D01*
X279756Y207000D02*
X293000D01*
X350717Y242622D02*
Y251782D01*
X347500Y215678D02*
X355822D01*
X356000Y215500D01*
X378828Y214000D02*
X378866Y214038D01*
X374833Y214000D02*
X378828D01*
X367229Y206396D02*
X374833Y214000D01*
X367229Y191866D02*
Y206396D01*
X395000Y210500D02*
X398218Y207282D01*
Y191866D02*
Y207282D01*
X261718Y292366D02*
X273820D01*
X409218D02*
X421320D01*
X408217Y191866D02*
X420320D01*
X426256Y202000D02*
Y207500D01*
X359323Y242832D02*
X373007D01*
X373218Y242622D01*
X350717Y237110D02*
X359113D01*
X359323Y236900D01*
X373007D01*
X373218Y237110D01*
X524925Y197075D02*
Y197575D01*
Y204027D01*
X496500Y215178D02*
X504822D01*
X513729Y185925D02*
Y200729D01*
X522539Y209539D01*
X524925D01*
X541500Y210500D02*
X544718Y207282D01*
Y191925D02*
Y207282D01*
X554717Y191925D02*
X566820D01*
X506823Y241891D02*
X520507D01*
X520717Y241681D01*
X498217Y236169D02*
X506613D01*
X506823Y235959D01*
X520507D01*
X520717Y236169D01*
X490669D02*
X498217D01*
Y241681D02*
Y250782D01*
X573256Y207000D02*
X583500D01*
X434115Y281115D02*
Y288429D01*
X434000Y281000D02*
X434115Y281115D01*
X341610Y237110D02*
X350717D01*
X367229Y191866D02*
X379000D01*
X513729Y185925D02*
X525925D01*
X61729Y181271D02*
Y190366D01*
X87000Y156000D02*
X128500D01*
X61729Y181271D02*
X87000Y156000D01*
X357432Y52500D02*
X362500D01*
X373415Y71500D02*
X388354D01*
Y65500D02*
Y71500D01*
Y77646D01*
X362500Y59500D02*
X369500Y66500D01*
X373415D01*
X336500Y64947D02*
X336553Y65000D01*
X336500Y59500D02*
Y64947D01*
X336553Y74000D02*
Y79947D01*
X346072Y192000D02*
X346206Y191866D01*
X333500Y192000D02*
X346072D01*
D52*
X546854Y83854D02*
Y92000D01*
X80131Y323661D02*
X84718D01*
X79470Y323000D02*
X80131Y323661D01*
X112386Y82500D02*
X123500D01*
X68500Y336744D02*
X68787Y336457D01*
X74000Y311756D02*
Y315000D01*
X75219Y316219D01*
X78911D01*
X81235Y318543D01*
X84718D01*
X78581Y319000D02*
X80683Y321102D01*
X76500Y319000D02*
X78581D01*
X54500Y317500D02*
X71067D01*
X45500Y314178D02*
X51178D01*
X54500Y317500D01*
X80683Y321102D02*
X84718D01*
X513146Y79000D02*
X542000D01*
X546646Y92208D02*
Y95354D01*
Y92208D02*
X546854Y92000D01*
X542000Y79000D02*
X546854Y83854D01*
X114559Y63282D02*
X114843Y63566D01*
Y66958D01*
X116885Y69000D01*
X123500Y82500D02*
X130000Y76000D01*
X116885Y69000D02*
X125000D01*
X130000Y74000D01*
Y76000D01*
X119677Y59823D02*
Y63282D01*
Y59823D02*
X121500Y58000D01*
X130000D01*
X131500Y59500D01*
Y62034D01*
X105000Y75000D02*
X106882Y73118D01*
Y63282D02*
Y73118D01*
X102500Y75000D02*
X105000D01*
X112000Y16500D02*
Y40717D01*
Y16500D02*
X116500Y12000D01*
X150500D01*
X119677Y37323D02*
Y40717D01*
X127034Y38034D02*
Y40500D01*
X119677Y37323D02*
X120500Y36500D01*
X125500D01*
X127034Y38034D01*
X150500Y12000D02*
X154740Y16240D01*
Y17200D01*
X254988Y73953D02*
X257000Y75965D01*
X399480Y48020D02*
X412480D01*
X398354Y49146D02*
X399480Y48020D01*
X398354Y49146D02*
Y51500D01*
X461890Y123020D02*
Y129390D01*
X464500Y132000D01*
Y137000D01*
X462854Y138646D02*
X464500Y137000D01*
X461000Y138646D02*
X462854D01*
X504606Y105106D02*
X505000Y105500D01*
X511000D01*
X513646Y102854D01*
Y101500D02*
Y102854D01*
X543500Y98500D02*
X546646Y95354D01*
X497520Y105106D02*
X504606D01*
X71067Y317500D02*
X76567Y323000D01*
X79470D01*
X68787Y336457D02*
X84718D01*
X106882Y32382D02*
Y40717D01*
X227507Y339900D02*
X227717Y340110D01*
X213613D02*
X213823Y339900D01*
X227717Y340110D02*
X230890D01*
X235677Y335323D01*
X241435D01*
X233000Y312756D02*
Y314000D01*
X236409Y317409D01*
X241435D01*
X375717Y341610D02*
X379077D01*
X385364Y335323D01*
X388935D01*
X382409Y317409D02*
X388935D01*
X379366Y314366D02*
X382409Y317409D01*
X379366Y312539D02*
Y314366D01*
X421708Y317409D02*
X421751Y317366D01*
X384732Y309732D02*
X388935D01*
X527618Y309830D02*
X535784D01*
X379366Y307027D02*
X382027D01*
X384732Y309732D01*
X76072Y208732D02*
X84435D01*
X233000Y307244D02*
X235744D01*
X238232Y309732D01*
X241435D01*
X122756Y203500D02*
X128000D01*
X520000Y98500D02*
X543500D01*
D53*
X316000Y58500D02*
X321000Y53500D01*
Y49500D02*
Y53500D01*
X320000Y48500D02*
X321000Y49500D01*
X316000Y58500D02*
Y63079D01*
X314966Y48500D02*
X320000D01*
X332000Y51500D02*
X339000D01*
X320421Y63079D02*
X332000Y51500D01*
X339000D02*
X341447Y53947D01*
X316000Y63079D02*
X320421D01*
X341447Y53947D02*
Y65000D01*
X339000Y83500D02*
X341447Y81053D01*
X326579Y83500D02*
X339000D01*
X316000Y72921D02*
X326579Y83500D01*
X309034Y48500D02*
Y65955D01*
X316000Y72921D01*
X341447Y65000D02*
X343916D01*
X345416Y66500D01*
X351585D01*
X346416Y71500D02*
X351585D01*
X343916Y74000D02*
X346416Y71500D01*
X341447Y74000D02*
X343916D01*
X341447D02*
Y81053D01*
X373415Y76500D02*
X380500D01*
D54*
X410500Y211850D02*
Y214350D01*
Y211791D02*
Y211850D01*
X107282Y313425D02*
Y315984D01*
X112000Y63282D02*
X112084Y63366D01*
X113000Y68509D02*
Y71500D01*
X112084Y67593D02*
X113000Y68509D01*
X112084Y63366D02*
Y67593D01*
X117118Y35382D02*
Y40717D01*
X107000Y211291D02*
Y213850D01*
X411500Y312291D02*
Y314850D01*
X264000Y312291D02*
Y314850D01*
X558350Y312389D02*
Y314949D01*
X263500Y211791D02*
Y214350D01*
X557000Y211850D02*
Y214409D01*
D55*
X57105Y342466D02*
X68290D01*
X68500Y342256D01*
X129897Y297437D02*
Y301603D01*
X127500Y304000D02*
X129897Y301603D01*
X124756Y304000D02*
X127500D01*
X124256Y304500D02*
X124756Y304000D01*
X120500Y309500D02*
X124256Y305744D01*
X114500Y309500D02*
X120500D01*
X124256Y304500D02*
Y305244D01*
X95500Y292000D02*
Y310000D01*
X92075Y313425D02*
X95500Y310000D01*
X89500Y313425D02*
X92075D01*
X85500Y82500D02*
X89000D01*
X84000Y81000D02*
X85500Y82500D01*
X84000Y77000D02*
Y81000D01*
Y77000D02*
X86000Y75000D01*
X102500D01*
X117118Y35382D02*
X119000Y33500D01*
X129500D01*
X130825Y32175D01*
Y28000D02*
Y32175D01*
X123466Y318500D02*
X131000D01*
X135500Y314000D01*
Y298500D02*
Y314000D01*
X134437Y297437D02*
X135500Y298500D01*
X129897Y297437D02*
X134437D01*
D56*
X316000Y63079D02*
D03*
D57*
Y72921D02*
D03*
D58*
X26500Y332343D02*
D03*
Y322500D02*
D03*
Y312658D02*
D03*
X184500Y316158D02*
D03*
Y326000D02*
D03*
Y335843D02*
D03*
X327000Y317658D02*
D03*
Y327500D02*
D03*
Y337343D02*
D03*
X465500Y313079D02*
D03*
Y322921D02*
D03*
Y332764D02*
D03*
X23000Y225158D02*
D03*
Y235000D02*
D03*
Y244843D02*
D03*
X178000Y212499D02*
D03*
Y222341D02*
D03*
Y232185D02*
D03*
X320500Y212579D02*
D03*
Y222421D02*
D03*
Y232264D02*
D03*
X472000Y213079D02*
D03*
Y222921D02*
D03*
Y232764D02*
D03*
D59*
X26500Y302815D02*
D03*
X184500Y306315D02*
D03*
X327000Y307815D02*
D03*
X465500Y303236D02*
D03*
X23000Y215315D02*
D03*
X178000Y202657D02*
D03*
X320500Y202736D02*
D03*
X472000Y203236D02*
D03*
D60*
X28189Y52425D02*
D03*
Y105575D02*
D03*
D61*
X51811Y64827D02*
D03*
Y93173D02*
D03*
D62*
X500500Y135500D02*
D03*
X596500Y93000D02*
D03*
D63*
X372500Y15500D02*
D03*
Y25500D02*
D03*
X382500Y15500D02*
D03*
Y25500D02*
D03*
X392500Y15500D02*
D03*
Y25500D02*
D03*
X402500Y15500D02*
D03*
X95500Y292000D02*
D03*
X85500D02*
D03*
X251717Y292366D02*
D03*
X241718D02*
D03*
X399218D02*
D03*
X389217D02*
D03*
X546067Y292464D02*
D03*
X536067D02*
D03*
X94718Y191366D02*
D03*
X84718D02*
D03*
X251218Y191866D02*
D03*
X241217D02*
D03*
X398218D02*
D03*
X388217D02*
D03*
X544718Y191925D02*
D03*
X534718D02*
D03*
D64*
X402500Y25500D02*
D03*
X105500Y292000D02*
D03*
X596500Y79000D02*
D03*
X261718Y292366D02*
D03*
X409218D02*
D03*
X556067Y292464D02*
D03*
X104718Y191366D02*
D03*
X261217Y191866D02*
D03*
X408217D02*
D03*
X554717Y191925D02*
D03*
D65*
X465706Y164000D02*
D03*
X303500Y115000D02*
D03*
X298500Y120500D02*
D03*
X303500D02*
D03*
X308500D02*
D03*
X117500Y242000D02*
D03*
Y236000D02*
D03*
Y232500D02*
D03*
X297000Y94000D02*
D03*
Y97500D02*
D03*
X313500Y94000D02*
D03*
X310000D02*
D03*
Y97500D02*
D03*
X79500Y116000D02*
D03*
X74500D02*
D03*
X69500D02*
D03*
X79500Y121250D02*
D03*
X74500D02*
D03*
X69500D02*
D03*
X79500Y126500D02*
D03*
X74500D02*
D03*
X69500D02*
D03*
X62500Y337000D02*
D03*
X43000D02*
D03*
X87000Y306000D02*
D03*
X83000D02*
D03*
X79000D02*
D03*
X67500Y304500D02*
D03*
Y309500D02*
D03*
X74500Y293500D02*
D03*
Y297500D02*
D03*
X76500Y319000D02*
D03*
X74690Y325056D02*
D03*
X127221Y328779D02*
D03*
X567500Y333500D02*
D03*
Y337000D02*
D03*
X275000Y242500D02*
D03*
Y233000D02*
D03*
Y236500D02*
D03*
X420000Y333500D02*
D03*
Y337000D02*
D03*
X358000Y334500D02*
D03*
X420000Y343000D02*
D03*
X211500Y328000D02*
D03*
Y332000D02*
D03*
X272500Y333500D02*
D03*
Y337000D02*
D03*
Y343000D02*
D03*
X51500Y322000D02*
D03*
Y327500D02*
D03*
X114984Y344134D02*
D03*
Y334500D02*
D03*
Y338500D02*
D03*
X501000Y330000D02*
D03*
Y325000D02*
D03*
X503500Y228500D02*
D03*
Y223000D02*
D03*
X565000Y236500D02*
D03*
Y232500D02*
D03*
Y242500D02*
D03*
X51000Y228500D02*
D03*
Y223500D02*
D03*
X355000Y228500D02*
D03*
Y223500D02*
D03*
X420000Y236500D02*
D03*
Y233000D02*
D03*
Y242500D02*
D03*
X538500Y28500D02*
D03*
X363000Y26500D02*
D03*
X241500Y27013D02*
D03*
X298500Y115000D02*
D03*
X308500D02*
D03*
X317500Y123500D02*
D03*
X324000D02*
D03*
X391500Y44000D02*
D03*
Y51500D02*
D03*
X395000Y87646D02*
D03*
X417000Y145000D02*
D03*
X486500D02*
D03*
X475500Y15000D02*
D03*
X489500D02*
D03*
X510000Y122000D02*
D03*
X516500D02*
D03*
X510000Y47500D02*
D03*
X566500Y52000D02*
D03*
Y45000D02*
D03*
Y58000D02*
D03*
X127500Y106000D02*
D03*
X218500Y70500D02*
D03*
X222500D02*
D03*
X218500Y67000D02*
D03*
Y63500D02*
D03*
X222500D02*
D03*
Y67000D02*
D03*
X292500Y83500D02*
D03*
X296500D02*
D03*
X292500Y80000D02*
D03*
X296500D02*
D03*
X293500Y65500D02*
D03*
X298500D02*
D03*
X293500Y61500D02*
D03*
X298500D02*
D03*
X324966Y32466D02*
D03*
X482500Y15000D02*
D03*
X466146Y20146D02*
D03*
X446646D02*
D03*
X505000Y105500D02*
D03*
X524000Y122000D02*
D03*
X509354Y98146D02*
D03*
X513000Y70500D02*
D03*
X513854Y56146D02*
D03*
X534584Y58084D02*
D03*
X510034Y32466D02*
D03*
X508000Y71500D02*
D03*
X411646Y134354D02*
D03*
X398646Y71354D02*
D03*
X519445Y91445D02*
D03*
X442354Y20146D02*
D03*
X461854D02*
D03*
X129750Y310000D02*
D03*
Y314500D02*
D03*
Y321500D02*
D03*
X461500Y163000D02*
D03*
X148500Y218000D02*
D03*
X422600Y144834D02*
D03*
X421000Y157500D02*
D03*
X138000Y224000D02*
D03*
X415500Y154500D02*
D03*
X129500Y210000D02*
D03*
X134365Y213365D02*
D03*
X402000Y145000D02*
D03*
X406000Y140000D02*
D03*
X469000Y144000D02*
D03*
X456146Y134354D02*
D03*
X437000Y134854D02*
D03*
X465500Y155000D02*
D03*
X461000Y145500D02*
D03*
X468000Y255000D02*
D03*
X465000Y258000D02*
D03*
X461000Y260500D02*
D03*
X458000Y263500D02*
D03*
X463858Y114264D02*
D03*
Y142000D02*
D03*
X461000Y152000D02*
D03*
X469764Y114264D02*
D03*
X443000Y146500D02*
D03*
X440500Y143500D02*
D03*
X432500Y155500D02*
D03*
X436500Y153500D02*
D03*
X437500Y146000D02*
D03*
X405750Y88750D02*
D03*
X402500Y90000D02*
D03*
Y83500D02*
D03*
X419000Y89500D02*
D03*
X439750Y112750D02*
D03*
X440250Y116250D02*
D03*
X439500Y108500D02*
D03*
X437000Y106000D02*
D03*
X420500Y81484D02*
D03*
Y77500D02*
D03*
Y73500D02*
D03*
X586500Y98500D02*
D03*
X590000Y103500D02*
D03*
X594177Y111500D02*
D03*
X599295Y115000D02*
D03*
X76148Y328352D02*
D03*
X75000Y334000D02*
D03*
X235527Y322527D02*
D03*
X211500Y318000D02*
D03*
X383027Y322527D02*
D03*
X358000Y329500D02*
D03*
X529626Y322625D02*
D03*
X77500Y221500D02*
D03*
X128000Y203500D02*
D03*
X208500Y223500D02*
D03*
X234500Y220000D02*
D03*
X208500Y229000D02*
D03*
X433366Y317366D02*
D03*
X421744Y303256D02*
D03*
X296500Y327500D02*
D03*
Y317500D02*
D03*
X271500Y312500D02*
D03*
X286500Y315000D02*
D03*
X596500Y311500D02*
D03*
X594000Y315500D02*
D03*
X589500Y321500D02*
D03*
X586500Y327500D02*
D03*
X579464Y317464D02*
D03*
X579500Y302000D02*
D03*
X285866Y216866D02*
D03*
Y202500D02*
D03*
X382000Y221500D02*
D03*
X432866Y216866D02*
D03*
Y202134D02*
D03*
X528500Y222000D02*
D03*
X579425Y216925D02*
D03*
Y201500D02*
D03*
X423414Y325086D02*
D03*
X457500Y359500D02*
D03*
X149000Y224000D02*
D03*
X283914Y224586D02*
D03*
X424914D02*
D03*
X427500Y259000D02*
D03*
X571645Y224645D02*
D03*
X472500Y261500D02*
D03*
X483500Y134354D02*
D03*
X141500Y219027D02*
D03*
X417000Y21500D02*
D03*
X405000Y57000D02*
D03*
X493854Y28146D02*
D03*
X384500Y103000D02*
D03*
Y109500D02*
D03*
X382000Y106500D02*
D03*
X387000D02*
D03*
X542000Y84500D02*
D03*
X432362Y46138D02*
D03*
X380500Y61500D02*
D03*
Y76500D02*
D03*
X430500Y53500D02*
D03*
X398500Y65000D02*
D03*
Y76000D02*
D03*
X420500Y69673D02*
D03*
X567402Y343098D02*
D03*
X520000Y98500D02*
D03*
D66*
X80500Y90000D02*
D03*
X72500D02*
D03*
X65000D02*
D03*
X80000Y98500D02*
D03*
X72500D02*
D03*
X65000D02*
D03*
X273500Y74000D02*
D03*
X208000Y53000D02*
D03*
X201250D02*
D03*
X208000Y59500D02*
D03*
X201250D02*
D03*
X194500D02*
D03*
X208000Y65500D02*
D03*
X201250D02*
D03*
X194500D02*
D03*
X190000Y17000D02*
D03*
Y28500D02*
D03*
X130000Y281000D02*
D03*
X356756Y125000D02*
D03*
X205127Y26627D02*
D03*
X118285Y18500D02*
D03*
X498500Y351500D02*
D03*
X478500Y291500D02*
D03*
X580965Y280035D02*
D03*
X231866Y198634D02*
D03*
X286115Y180115D02*
D03*
X187134Y188366D02*
D03*
X204717Y249500D02*
D03*
X353218Y355282D02*
D03*
X331134Y293866D02*
D03*
X286500Y281000D02*
D03*
X190000Y288500D02*
D03*
X205218Y354500D02*
D03*
X48500Y350000D02*
D03*
X35000Y288000D02*
D03*
X109500Y304500D02*
D03*
X478075Y185925D02*
D03*
X524925Y197575D02*
D03*
X579500Y181000D02*
D03*
X75866Y201634D02*
D03*
X129615Y180115D02*
D03*
X26134Y190366D02*
D03*
X46218Y250782D02*
D03*
X378866Y200366D02*
D03*
X433115Y180000D02*
D03*
X350717Y251782D02*
D03*
X146000Y50000D02*
D03*
X155000D02*
D03*
X146000Y43250D02*
D03*
X155000D02*
D03*
Y36500D02*
D03*
X146000D02*
D03*
X240000Y54500D02*
D03*
X246000Y61500D02*
D03*
X72500Y52500D02*
D03*
X85000D02*
D03*
X77000Y39000D02*
D03*
Y32500D02*
D03*
X78750Y52500D02*
D03*
X246000Y54500D02*
D03*
X542000Y122500D02*
D03*
X113000Y71500D02*
D03*
X47500Y37500D02*
D03*
X55000D02*
D03*
X47500Y29750D02*
D03*
X55000D02*
D03*
X47500Y22000D02*
D03*
X55000D02*
D03*
X82000Y21500D02*
D03*
X89000D02*
D03*
X96000D02*
D03*
X135000Y47500D02*
D03*
X233000Y300500D02*
D03*
X199610Y340110D02*
D03*
X379500Y301500D02*
D03*
X360000Y322500D02*
D03*
X347110Y341610D02*
D03*
X379000Y294000D02*
D03*
X231500Y278500D02*
D03*
X526965Y303000D02*
D03*
X501500Y317000D02*
D03*
X491256Y337244D02*
D03*
X73366Y190366D02*
D03*
X527000Y291464D02*
D03*
X38110Y237610D02*
D03*
X51500Y216000D02*
D03*
X209000Y215500D02*
D03*
X197890Y237110D02*
D03*
X232866Y188366D02*
D03*
X438000Y308000D02*
D03*
X289000Y306000D02*
D03*
X584500Y306500D02*
D03*
X293000Y207000D02*
D03*
X356000Y215500D02*
D03*
X426256Y202000D02*
D03*
X505000Y215000D02*
D03*
X490669Y236169D02*
D03*
X498217Y250782D02*
D03*
X583500Y207000D02*
D03*
X128500Y164000D02*
D03*
X135000D02*
D03*
X141500D02*
D03*
X135000Y156000D02*
D03*
X141500D02*
D03*
X490500Y153500D02*
D03*
X486000Y260500D02*
D03*
X434000Y281000D02*
D03*
X391000Y283000D02*
D03*
X485000Y272000D02*
D03*
X441500Y291500D02*
D03*
X190500Y254500D02*
D03*
X341610Y237110D02*
D03*
X379000Y191866D02*
D03*
X525925Y185925D02*
D03*
X411000Y28500D02*
D03*
X128500Y156000D02*
D03*
X362500Y52500D02*
D03*
X388354Y77646D02*
D03*
X336500Y59500D02*
D03*
X336553Y79947D02*
D03*
X333500Y192000D02*
D03*
D67*
X590551Y19685D02*
D03*
Y354331D02*
D03*
X19685D02*
D03*
Y19685D02*
D03*
D68*
X100724Y320413D02*
D03*
Y325138D02*
D03*
X95999Y320500D02*
D03*
Y325138D02*
D03*
X100724Y334587D02*
D03*
X95999D02*
D03*
X91276D02*
D03*
X100724Y329862D02*
D03*
X91276D02*
D03*
Y325138D02*
D03*
X95999Y329862D02*
D03*
X91276Y320413D02*
D03*
X252717Y333453D02*
D03*
X247993D02*
D03*
Y324004D02*
D03*
Y319279D02*
D03*
X252717Y324004D02*
D03*
Y319366D02*
D03*
Y328728D02*
D03*
X257442D02*
D03*
Y324004D02*
D03*
Y319279D02*
D03*
Y333453D02*
D03*
X247993Y328728D02*
D03*
X404942Y319279D02*
D03*
Y324004D02*
D03*
X400217Y319366D02*
D03*
Y324004D02*
D03*
X404942Y333453D02*
D03*
X400217D02*
D03*
X395493D02*
D03*
X404942Y328728D02*
D03*
X395493D02*
D03*
Y324004D02*
D03*
X400217Y328728D02*
D03*
X395493Y319279D02*
D03*
X551791Y319377D02*
D03*
Y324102D02*
D03*
X547066Y319464D02*
D03*
Y324102D02*
D03*
X551791Y333552D02*
D03*
X547066D02*
D03*
X542343D02*
D03*
X551791Y328826D02*
D03*
X542343D02*
D03*
Y324102D02*
D03*
X547066Y328826D02*
D03*
X542343Y319377D02*
D03*
X100442Y218279D02*
D03*
Y223004D02*
D03*
X95717Y218366D02*
D03*
Y223004D02*
D03*
X100442Y232453D02*
D03*
X95717D02*
D03*
X90993D02*
D03*
X100442Y227728D02*
D03*
X90993D02*
D03*
Y223004D02*
D03*
X95717Y227728D02*
D03*
X90993Y218279D02*
D03*
X256942Y223504D02*
D03*
X252217Y218866D02*
D03*
Y223504D02*
D03*
X256942Y232953D02*
D03*
X252217D02*
D03*
X247493D02*
D03*
X256942Y228228D02*
D03*
X247493D02*
D03*
Y223504D02*
D03*
X252217Y228228D02*
D03*
X256942Y218779D02*
D03*
X247493D02*
D03*
X403942Y218838D02*
D03*
Y223563D02*
D03*
X399217Y218925D02*
D03*
Y223563D02*
D03*
X403942Y233012D02*
D03*
X399217D02*
D03*
X394493D02*
D03*
X403942Y228287D02*
D03*
X394493D02*
D03*
Y223563D02*
D03*
X399217Y228287D02*
D03*
X394493Y218838D02*
D03*
X550442D02*
D03*
Y223563D02*
D03*
X545717Y218925D02*
D03*
Y223563D02*
D03*
X550442Y233012D02*
D03*
X545717D02*
D03*
X540993D02*
D03*
X550442Y228287D02*
D03*
X540993D02*
D03*
Y223563D02*
D03*
X545717Y228287D02*
D03*
X540993Y218838D02*
D03*
D69*
X113969Y50031D02*
D03*
X110032D02*
D03*
X113969Y53968D02*
D03*
X110032D02*
D03*
M02*
