G04 Layer_Color=8388736*
%FSLAX25Y25*%
%MOIN*%
G70*
G01*
G75*
%ADD10C,0.01000*%
%ADD91C,0.02362*%
%ADD93C,0.00787*%
%ADD94C,0.01181*%
%ADD95C,0.01575*%
%ADD149C,0.01968*%
G36*
X536608Y72243D02*
X537418D01*
Y71731D01*
X536608D01*
Y70925D01*
X536096D01*
Y71731D01*
X535292D01*
Y72243D01*
X536096D01*
Y73052D01*
X536608D01*
Y72243D01*
D02*
G37*
G36*
X543713Y71758D02*
X541587D01*
Y72270D01*
X543713D01*
Y71758D01*
D02*
G37*
G36*
X312850Y80795D02*
X308290D01*
X308323Y80762D01*
Y78827D01*
X306556D01*
X306551Y78831D01*
Y82764D01*
X306553Y82765D01*
X312850D01*
Y80795D01*
D02*
G37*
G36*
X330567Y82764D02*
Y53236D01*
X330567Y53236D01*
X316197D01*
X316000Y55205D01*
X328470D01*
Y80795D01*
X316000D01*
Y82764D01*
X330567D01*
X330567Y82764D01*
D02*
G37*
G36*
X308520Y60520D02*
X306551D01*
Y75480D01*
X308520D01*
Y60520D01*
D02*
G37*
G36*
X540681Y70425D02*
X539894D01*
Y73575D01*
X540681D01*
Y70425D01*
D02*
G37*
G36*
X285283Y115114D02*
X284717D01*
Y117382D01*
X285283D01*
Y115114D01*
D02*
G37*
G36*
X339032Y135784D02*
X339882D01*
Y135216D01*
X339032D01*
Y133610D01*
X338465D01*
Y135216D01*
X337614D01*
Y135784D01*
X338465D01*
Y137390D01*
X339032D01*
Y135784D01*
D02*
G37*
G36*
X324386Y135216D02*
X322118D01*
Y135784D01*
X324386D01*
Y135216D01*
D02*
G37*
G36*
X523791Y84048D02*
X523224D01*
Y85749D01*
X523082D01*
Y85607D01*
X522657D01*
Y85891D01*
X522941D01*
Y86032D01*
X523082D01*
Y86174D01*
X523366D01*
Y86316D01*
X523791D01*
Y84048D01*
D02*
G37*
G36*
X525250Y91750D02*
X526750D01*
Y91250D01*
X525250D01*
Y90250D01*
X524750D01*
Y91250D01*
X523750D01*
Y91750D01*
X524750D01*
Y92750D01*
X525250D01*
Y91750D01*
D02*
G37*
G36*
X285283Y101035D02*
X286890D01*
Y100469D01*
X285283D01*
Y99618D01*
X284717D01*
Y100469D01*
X283110D01*
Y101035D01*
X284717D01*
Y101886D01*
X285283D01*
Y101035D01*
D02*
G37*
G36*
X228608Y27243D02*
X229418D01*
Y26731D01*
X228608D01*
Y25925D01*
X228096D01*
Y26731D01*
X227292D01*
Y27243D01*
X228096D01*
Y28051D01*
X228608D01*
Y27243D01*
D02*
G37*
G36*
X357213Y26508D02*
X355087D01*
Y27020D01*
X357213D01*
Y26508D01*
D02*
G37*
G36*
X235713Y26758D02*
X233587D01*
Y27270D01*
X235713D01*
Y26758D01*
D02*
G37*
G36*
X354181Y25175D02*
X353394D01*
Y28325D01*
X354181D01*
Y25175D01*
D02*
G37*
G36*
X232681Y25425D02*
X231894D01*
Y28575D01*
X232681D01*
Y25425D01*
D02*
G37*
G36*
X350108Y26993D02*
X350918D01*
Y26481D01*
X350108D01*
Y25675D01*
X349596D01*
Y26481D01*
X348792D01*
Y26993D01*
X349596D01*
Y27801D01*
X350108D01*
Y26993D01*
D02*
G37*
G36*
X187599Y49390D02*
X188768D01*
Y48610D01*
X187599D01*
Y46402D01*
X186819D01*
Y48610D01*
X185650D01*
Y49390D01*
X186819D01*
Y51599D01*
X187599D01*
Y49390D01*
D02*
G37*
G36*
X167461Y48610D02*
X164343D01*
Y49390D01*
X167461D01*
Y48610D01*
D02*
G37*
G36*
X308520Y55239D02*
X308487Y55206D01*
X313047D01*
Y53236D01*
X306749D01*
X306748Y53237D01*
Y57170D01*
X306753Y57174D01*
X308520D01*
Y55239D01*
D02*
G37*
G36*
X529681Y26798D02*
X528894D01*
Y29948D01*
X529681D01*
Y26798D01*
D02*
G37*
G36*
X525608Y28616D02*
X526418D01*
Y28104D01*
X525608D01*
Y27299D01*
X525096D01*
Y28104D01*
X524292D01*
Y28616D01*
X525096D01*
Y29425D01*
X525608D01*
Y28616D01*
D02*
G37*
G36*
X532713Y28131D02*
X530587D01*
Y28643D01*
X532713D01*
Y28131D01*
D02*
G37*
G36*
X205623Y287976D02*
X202505D01*
Y288756D01*
X205623D01*
Y287976D01*
D02*
G37*
G36*
X516111Y291855D02*
X517280D01*
Y291075D01*
X516111D01*
Y288866D01*
X515331D01*
Y291075D01*
X514162D01*
Y291855D01*
X515331D01*
Y294063D01*
X516111D01*
Y291855D01*
D02*
G37*
G36*
X495973Y291075D02*
X492855D01*
Y291855D01*
X495973D01*
Y291075D01*
D02*
G37*
G36*
X69543Y288390D02*
X70713D01*
Y287610D01*
X69543D01*
Y285402D01*
X68764D01*
Y287610D01*
X67595D01*
Y288390D01*
X68764D01*
Y290599D01*
X69543D01*
Y288390D01*
D02*
G37*
G36*
X225761Y288756D02*
X226930D01*
Y287976D01*
X225761D01*
Y285768D01*
X224981D01*
Y287976D01*
X223812D01*
Y288756D01*
X224981D01*
Y290965D01*
X225761D01*
Y288756D01*
D02*
G37*
G36*
X49406Y287610D02*
X46288D01*
Y288390D01*
X49406D01*
Y287610D01*
D02*
G37*
G36*
X475000Y334000D02*
X472000D01*
Y339000D01*
X471500Y339500D01*
X454500D01*
Y297500D01*
X471500D01*
Y301500D01*
X475000D01*
Y293500D01*
X451500D01*
Y342500D01*
X475000D01*
Y334000D01*
D02*
G37*
G36*
X194000Y337079D02*
X191000D01*
Y342079D01*
X190500Y342579D01*
X173500D01*
Y300579D01*
X190500D01*
Y304579D01*
X194000D01*
Y296579D01*
X170500D01*
Y345579D01*
X194000D01*
Y337079D01*
D02*
G37*
G36*
X336500Y338579D02*
X333500D01*
Y343579D01*
X333000Y344079D01*
X316000D01*
Y302079D01*
X333000D01*
Y306079D01*
X336500D01*
Y298079D01*
X313000D01*
Y347079D01*
X336500D01*
Y338579D01*
D02*
G37*
G36*
X367261Y294256D02*
X368430D01*
Y293476D01*
X367261D01*
Y291268D01*
X366481D01*
Y293476D01*
X365312D01*
Y294256D01*
X366481D01*
Y296465D01*
X367261D01*
Y294256D01*
D02*
G37*
G36*
X347123Y293476D02*
X344005D01*
Y294256D01*
X347123D01*
Y293476D01*
D02*
G37*
G36*
X36000Y333579D02*
X33000D01*
Y338579D01*
X32500Y339079D01*
X15500D01*
Y297079D01*
X32500D01*
Y301079D01*
X36000D01*
Y293079D01*
X12500D01*
Y342079D01*
X36000D01*
Y333579D01*
D02*
G37*
G36*
X62261Y190756D02*
X63430D01*
Y189976D01*
X62261D01*
Y187768D01*
X61481D01*
Y189976D01*
X60312D01*
Y190756D01*
X61481D01*
Y192965D01*
X62261D01*
Y190756D01*
D02*
G37*
G36*
X202123Y187976D02*
X199005D01*
Y188756D01*
X202123D01*
Y187976D01*
D02*
G37*
G36*
X367761Y192256D02*
X368930D01*
Y191476D01*
X367761D01*
Y189268D01*
X366982D01*
Y191476D01*
X365812D01*
Y192256D01*
X366982D01*
Y194465D01*
X367761D01*
Y192256D01*
D02*
G37*
G36*
X514261Y186315D02*
X515430D01*
Y185535D01*
X514261D01*
Y183327D01*
X513482D01*
Y185535D01*
X512312D01*
Y186315D01*
X513482D01*
Y188524D01*
X514261D01*
Y186315D01*
D02*
G37*
G36*
X494123Y185535D02*
X491005D01*
Y186315D01*
X494123D01*
Y185535D01*
D02*
G37*
G36*
X222261Y188756D02*
X223430D01*
Y187976D01*
X222261D01*
Y185768D01*
X221481D01*
Y187976D01*
X220312D01*
Y188756D01*
X221481D01*
Y190965D01*
X222261D01*
Y188756D01*
D02*
G37*
G36*
X330000Y233500D02*
X327000D01*
Y238500D01*
X326500Y239000D01*
X309500D01*
Y197000D01*
X326500D01*
Y201000D01*
X330000D01*
Y193000D01*
X306500D01*
Y242000D01*
X330000D01*
Y233500D01*
D02*
G37*
G36*
X481500Y234000D02*
X478500D01*
Y239000D01*
X478000Y239500D01*
X461000D01*
Y197500D01*
X478000D01*
Y201500D01*
X481500D01*
Y193500D01*
X458000D01*
Y242500D01*
X481500D01*
Y234000D01*
D02*
G37*
G36*
X32500Y246079D02*
X29500D01*
Y251079D01*
X29000Y251579D01*
X12000D01*
Y209579D01*
X29000D01*
Y213579D01*
X32500D01*
Y205579D01*
X9000D01*
Y254579D01*
X32500D01*
Y246079D01*
D02*
G37*
G36*
X42123Y189976D02*
X39005D01*
Y190756D01*
X42123D01*
Y189976D01*
D02*
G37*
G36*
X347623Y191476D02*
X344505D01*
Y192256D01*
X347623D01*
Y191476D01*
D02*
G37*
G36*
X187500Y233420D02*
X184500D01*
Y238421D01*
X184000Y238920D01*
X167000D01*
Y196921D01*
X184000D01*
Y200921D01*
X187500D01*
Y192920D01*
X164000D01*
Y241920D01*
X187500D01*
Y233420D01*
D02*
G37*
D10*
X525717Y81831D02*
G03*
X525717Y81831I-500J0D01*
G01*
X144500Y16000D02*
G03*
X144500Y16000I-500J0D01*
G01*
D91*
X133448Y110286D02*
G03*
X133448Y110286I-1181J0D01*
G01*
X501063Y46051D02*
G03*
X501063Y46051I-1181J0D01*
G01*
D93*
X249508Y73953D02*
G03*
X249508Y73953I-394J0D01*
G01*
D94*
X134169Y289366D02*
G03*
X134169Y289366I-591J0D01*
G01*
X83591Y344000D02*
G03*
X83591Y344000I-591J0D01*
G01*
X290887Y288232D02*
G03*
X290887Y288232I-591J0D01*
G01*
X438387D02*
G03*
X438387Y288232I-591J0D01*
G01*
X585237Y288331D02*
G03*
X585237Y288331I-591J0D01*
G01*
X133887Y187232D02*
G03*
X133887Y187232I-591J0D01*
G01*
X290387Y187732D02*
G03*
X290387Y187732I-591J0D01*
G01*
X437387D02*
G03*
X437387Y187732I-591J0D01*
G01*
X583887Y187791D02*
G03*
X583887Y187791I-591J0D01*
G01*
X104914Y37827D02*
G03*
X104914Y37827I-591J0D01*
G01*
X240308Y342866D02*
G03*
X240308Y342866I-591J0D01*
G01*
X387808D02*
G03*
X387808Y342866I-591J0D01*
G01*
X534657Y342965D02*
G03*
X534657Y342965I-591J0D01*
G01*
X83308Y241866D02*
G03*
X83308Y241866I-591J0D01*
G01*
X239808Y242366D02*
G03*
X239808Y242366I-591J0D01*
G01*
X386808Y242425D02*
G03*
X386808Y242425I-591J0D01*
G01*
X533308D02*
G03*
X533308Y242425I-591J0D01*
G01*
X376477Y61500D02*
G03*
X376477Y61500I-591J0D01*
G01*
D95*
X23787Y51500D02*
G03*
X23787Y51500I-787J0D01*
G01*
X87980Y97500D02*
G03*
X87980Y97500I-787J0D01*
G01*
D149*
X317564Y117113D02*
G03*
X317564Y117113I-984J0D01*
G01*
M02*
