G04 Layer_Color=32768*
%FSLAX25Y25*%
%MOIN*%
G70*
G01*
G75*
%ADD150C,0.00200*%
G36*
X415669Y110579D02*
X411693D01*
Y111445D01*
X415669D01*
Y110579D01*
D02*
G37*
G36*
X498307D02*
X494331D01*
Y111445D01*
X498307D01*
Y110579D01*
D02*
G37*
G36*
X525575Y111587D02*
X525575D01*
X525575D01*
Y111587D01*
X525671Y111584D01*
X525806Y111447D01*
X525806Y111254D01*
X525671Y111116D01*
X525574Y111114D01*
X525574Y111114D01*
X525478Y111116D01*
X525343Y111254D01*
X525343Y111351D01*
X522425D01*
Y112532D01*
X525575D01*
Y111587D01*
D02*
G37*
G36*
X111763Y108998D02*
X93351D01*
X91251Y111098D01*
Y127901D01*
X93351Y130002D01*
X111763D01*
Y108998D01*
D02*
G37*
G36*
X415669Y108610D02*
X411693D01*
Y109477D01*
X415669D01*
Y108610D01*
D02*
G37*
G36*
X498307D02*
X494331D01*
Y109477D01*
X498307D01*
Y108610D01*
D02*
G37*
G36*
X130236Y108909D02*
X125516D01*
Y108909D01*
X119650D01*
Y112058D01*
X125510D01*
Y112059D01*
X130236D01*
Y108909D01*
D02*
G37*
G36*
X498307Y112547D02*
X494331D01*
Y113414D01*
X498307D01*
Y112547D01*
D02*
G37*
G36*
X510984Y113031D02*
X509016D01*
Y114016D01*
X510984D01*
Y113031D01*
D02*
G37*
G36*
X517484D02*
X515516D01*
Y114016D01*
X517484D01*
Y113031D01*
D02*
G37*
G36*
X415669Y112547D02*
X411693D01*
Y113414D01*
X415669D01*
Y112547D01*
D02*
G37*
G36*
X534575Y111587D02*
X534575D01*
X534575D01*
Y111587D01*
X534671Y111584D01*
X534806Y111447D01*
X534806Y111254D01*
X534671Y111116D01*
X534574Y111114D01*
X534574Y111114D01*
X534478Y111116D01*
X534343Y111254D01*
X534343Y111351D01*
X531425D01*
Y112532D01*
X534575D01*
Y111587D01*
D02*
G37*
G36*
X543575Y111350D02*
X540425D01*
Y112531D01*
X543575D01*
Y111350D01*
D02*
G37*
G36*
X286260Y111846D02*
X283701D01*
Y120114D01*
X286260D01*
Y111846D01*
D02*
G37*
G36*
X305575Y104469D02*
X302425D01*
Y105650D01*
X305575D01*
Y104469D01*
D02*
G37*
G36*
X415669Y104673D02*
X411693D01*
Y105540D01*
X415669D01*
Y104673D01*
D02*
G37*
G36*
X498307D02*
X494331D01*
Y105540D01*
X498307D01*
Y104673D01*
D02*
G37*
G36*
Y102705D02*
X494331D01*
Y103571D01*
X498307D01*
Y102705D01*
D02*
G37*
G36*
X510516Y100516D02*
X509768D01*
X509768Y100418D01*
X509629Y100279D01*
X509433Y100279D01*
X509295Y100418D01*
X509295Y100516D01*
X509295Y100614D01*
X509433Y100752D01*
X509531Y100752D01*
Y102484D01*
X510516D01*
Y100516D01*
D02*
G37*
G36*
X348673Y102594D02*
X341744D01*
Y114406D01*
X348673D01*
Y102594D01*
D02*
G37*
G36*
X415669Y102705D02*
X411693D01*
Y103571D01*
X415669D01*
Y102705D01*
D02*
G37*
G36*
X498307Y106642D02*
X494331D01*
Y107508D01*
X498307D01*
Y106642D01*
D02*
G37*
G36*
X358531Y106425D02*
X357586D01*
Y106425D01*
X357586Y106327D01*
X357448Y106189D01*
X357252Y106189D01*
X357114Y106327D01*
X357114Y106425D01*
X357114Y106523D01*
X357252Y106661D01*
X357350Y106661D01*
Y109575D01*
X358531D01*
Y106425D01*
D02*
G37*
G36*
X328043Y107024D02*
X321114D01*
Y109976D01*
X328043D01*
Y107024D01*
D02*
G37*
G36*
X415669Y106642D02*
X411693D01*
Y107508D01*
X415669D01*
Y106642D01*
D02*
G37*
G36*
X30355Y104886D02*
X26024D01*
Y106264D01*
X30355D01*
Y104886D01*
D02*
G37*
G36*
X130473Y106606D02*
X130473Y106508D01*
X130473Y106410D01*
X130334Y106271D01*
X130138Y106271D01*
X130000Y106410D01*
X130000Y106508D01*
X130000Y106606D01*
X130138Y106744D01*
X130334Y106744D01*
X130473Y106606D01*
D02*
G37*
G36*
X363650Y106425D02*
X362469D01*
Y109575D01*
X363650D01*
Y106425D01*
D02*
G37*
G36*
X440669Y121445D02*
Y119831D01*
X439803D01*
Y121445D01*
Y123807D01*
X440669D01*
Y121445D01*
D02*
G37*
G36*
X442638D02*
Y119831D01*
X441772D01*
Y121445D01*
Y123807D01*
X442638D01*
Y121445D01*
D02*
G37*
G36*
X444606D02*
Y119831D01*
X443740D01*
Y121445D01*
Y123807D01*
X444606D01*
Y121445D01*
D02*
G37*
G36*
X438701D02*
Y119831D01*
X437835D01*
Y121445D01*
Y123807D01*
X438701D01*
Y121445D01*
D02*
G37*
G36*
X432795D02*
Y119831D01*
X431929D01*
Y121445D01*
Y123807D01*
X432795D01*
Y121445D01*
D02*
G37*
G36*
X434764D02*
Y119831D01*
X433898D01*
Y121445D01*
Y123807D01*
X434764D01*
Y121445D01*
D02*
G37*
G36*
X436732D02*
Y119831D01*
X435866D01*
Y121445D01*
Y123807D01*
X436732D01*
Y121445D01*
D02*
G37*
G36*
X454449D02*
Y119831D01*
X453583D01*
Y121445D01*
Y123807D01*
X454449D01*
Y121445D01*
D02*
G37*
G36*
X456417D02*
Y119831D01*
X455551D01*
Y121445D01*
Y123807D01*
X456417D01*
Y121445D01*
D02*
G37*
G36*
X458386D02*
Y119831D01*
X457520D01*
Y121445D01*
Y123807D01*
X458386D01*
Y121445D01*
D02*
G37*
G36*
X452480D02*
Y119831D01*
X451614D01*
Y121445D01*
Y123807D01*
X452480D01*
Y121445D01*
D02*
G37*
G36*
X446575D02*
Y119831D01*
X445709D01*
Y121445D01*
Y123807D01*
X446575D01*
Y121445D01*
D02*
G37*
G36*
X448543D02*
Y119831D01*
X447677D01*
Y121445D01*
Y123807D01*
X448543D01*
Y121445D01*
D02*
G37*
G36*
X450512D02*
Y119831D01*
X449646D01*
Y121445D01*
Y123807D01*
X450512D01*
Y121445D01*
D02*
G37*
G36*
X328043Y116079D02*
X321114D01*
Y119031D01*
X328043D01*
Y116079D01*
D02*
G37*
G36*
X525575Y116468D02*
X522425D01*
Y117649D01*
X525575D01*
Y116468D01*
D02*
G37*
G36*
X534575D02*
X531425D01*
Y117649D01*
X534575D01*
Y116468D01*
D02*
G37*
G36*
X515516Y117205D02*
X515614Y117205D01*
X515752Y117067D01*
X515752Y116969D01*
X517484D01*
Y115984D01*
X515516D01*
Y116732D01*
Y116732D01*
X515418Y116732D01*
X515279Y116871D01*
X515279Y117067D01*
X515418Y117205D01*
X515516Y117205D01*
D02*
G37*
G36*
X415669Y114516D02*
X411693D01*
Y115382D01*
X415669D01*
Y114516D01*
D02*
G37*
G36*
X498307D02*
X494331D01*
Y115382D01*
X498307D01*
Y114516D01*
D02*
G37*
G36*
X509016Y117205D02*
X509114Y117205D01*
X509252Y117067D01*
X509252Y116969D01*
X510984D01*
Y115984D01*
X509016D01*
Y116732D01*
Y116732D01*
X508918Y116732D01*
X508779Y116871D01*
X508779Y117067D01*
X508918Y117205D01*
X509016Y117205D01*
D02*
G37*
G36*
X426890Y121445D02*
Y119831D01*
X426024D01*
Y121445D01*
Y123807D01*
X426890D01*
Y121445D01*
D02*
G37*
G36*
X428858D02*
Y119831D01*
X427992D01*
Y121445D01*
Y123807D01*
X428858D01*
Y121445D01*
D02*
G37*
G36*
X430827D02*
Y119831D01*
X429961D01*
Y121445D01*
Y123807D01*
X430827D01*
Y121445D01*
D02*
G37*
G36*
X424921D02*
Y119831D01*
X424055D01*
Y121445D01*
Y123807D01*
X424921D01*
Y121445D01*
D02*
G37*
G36*
X540661Y117748D02*
X540661Y117650D01*
X543575D01*
Y116469D01*
X540425D01*
Y117414D01*
X540425D01*
X540327Y117414D01*
X540189Y117552D01*
X540188Y117748D01*
X540327Y117886D01*
X540425Y117886D01*
X540522Y117887D01*
X540661Y117748D01*
D02*
G37*
G36*
X420984Y121445D02*
Y119831D01*
X420118D01*
Y121445D01*
Y123807D01*
X420984D01*
Y121445D01*
D02*
G37*
G36*
X422953D02*
Y119831D01*
X422087D01*
Y121445D01*
Y123807D01*
X422953D01*
Y121445D01*
D02*
G37*
G36*
X415669Y86957D02*
X411693D01*
Y87823D01*
X415669D01*
Y86957D01*
D02*
G37*
G36*
X498307D02*
X494331D01*
Y87823D01*
X498307D01*
Y86957D01*
D02*
G37*
G36*
X601517Y88234D02*
X601652Y88096D01*
Y87904D01*
X601517Y87766D01*
X601421Y87764D01*
D01*
Y87764D01*
X601421Y87764D01*
X601421D01*
X601325Y87766D01*
X601190Y87904D01*
Y88096D01*
X601325Y88234D01*
X601421Y88236D01*
X601517Y88234D01*
D02*
G37*
G36*
X92051Y86693D02*
X88882D01*
Y88307D01*
X92051D01*
Y86693D01*
D02*
G37*
G36*
X498307Y84988D02*
X494331D01*
Y85855D01*
X498307D01*
Y84988D01*
D02*
G37*
G36*
X511075Y86086D02*
X511075D01*
X511173Y86086D01*
X511311Y85948D01*
X511311Y85752D01*
X511173Y85614D01*
X511075Y85614D01*
X510977Y85614D01*
X510839Y85752D01*
X510839Y85850D01*
X507925D01*
Y87032D01*
X511075D01*
Y86086D01*
D02*
G37*
G36*
X516984Y86532D02*
X515016D01*
Y87516D01*
X516984D01*
Y86532D01*
D02*
G37*
G36*
X535406Y89768D02*
X531862D01*
Y92918D01*
X535406D01*
Y89768D01*
D02*
G37*
G36*
X161480Y90216D02*
X151638D01*
Y104783D01*
X161480D01*
Y90216D01*
D02*
G37*
G36*
X205968D02*
X196126D01*
Y104783D01*
X205968D01*
Y90216D01*
D02*
G37*
G36*
X527138Y89768D02*
X523594D01*
Y92918D01*
X527138D01*
Y89768D01*
D02*
G37*
G36*
X415669Y88925D02*
X411693D01*
Y89792D01*
X415669D01*
Y88925D01*
D02*
G37*
G36*
X498307D02*
X494331D01*
Y89792D01*
X498307D01*
Y88925D01*
D02*
G37*
G36*
X515016Y90705D02*
X515114Y90705D01*
X515252Y90566D01*
X515252Y90469D01*
X516984D01*
Y89484D01*
X515016D01*
Y90232D01*
Y90232D01*
X514918Y90232D01*
X514779Y90371D01*
X514780Y90567D01*
X514918Y90705D01*
X515016Y90705D01*
D02*
G37*
G36*
X282031Y80925D02*
X281086D01*
Y80925D01*
X281086Y80827D01*
X280948Y80689D01*
X280752Y80689D01*
X280614Y80827D01*
X280614Y80925D01*
X280614Y81023D01*
X280752Y81161D01*
X280850Y81161D01*
Y84075D01*
X282031D01*
Y80925D01*
D02*
G37*
G36*
X92051Y81693D02*
X88882D01*
Y83307D01*
X92051D01*
Y81693D01*
D02*
G37*
G36*
X112504Y96693D02*
X110843D01*
Y93307D01*
X112504D01*
Y91693D01*
X110843D01*
Y88307D01*
X112504D01*
Y86693D01*
X110843D01*
Y83307D01*
X112504D01*
Y81693D01*
X109335D01*
Y81732D01*
X96748D01*
Y96858D01*
X98158Y98268D01*
X109335D01*
Y98307D01*
X112504D01*
Y96693D01*
D02*
G37*
G36*
X268032Y80925D02*
X267086D01*
Y80925D01*
X267086Y80827D01*
X266948Y80689D01*
X266752Y80689D01*
X266614Y80827D01*
X266614Y80925D01*
X266614Y81023D01*
X266752Y81161D01*
X266850Y81161D01*
Y84075D01*
X268032D01*
Y80925D01*
D02*
G37*
G36*
X287150D02*
X285968D01*
Y84075D01*
X287150D01*
Y80925D01*
D02*
G37*
G36*
X415669Y81051D02*
X411693D01*
Y81918D01*
X415669D01*
Y81051D01*
D02*
G37*
G36*
X498307D02*
X494331D01*
Y81918D01*
X498307D01*
Y81051D01*
D02*
G37*
G36*
X535406Y83083D02*
X531862D01*
Y86232D01*
X535406D01*
Y83083D01*
D02*
G37*
G36*
X601734Y84017D02*
X601736Y83921D01*
D01*
X601736D01*
X601736Y83921D01*
Y83921D01*
X601734Y83825D01*
X601596Y83690D01*
X601404D01*
X601266Y83825D01*
X601264Y83921D01*
X601266Y84017D01*
X601404Y84152D01*
X601596D01*
X601734Y84017D01*
D02*
G37*
G36*
X415669Y84988D02*
X411693D01*
Y85855D01*
X415669D01*
Y84988D01*
D02*
G37*
G36*
X527138Y83083D02*
X523594D01*
Y86232D01*
X527138D01*
Y83083D01*
D02*
G37*
G36*
X523298Y83310D02*
X523435Y83175D01*
X523437Y83079D01*
X523437D01*
Y83079D01*
X523435Y82983D01*
X523297Y82848D01*
X523104Y82848D01*
X522967Y82983D01*
X522965Y83079D01*
X522965Y83079D01*
X522967Y83176D01*
X523105Y83311D01*
X523298Y83310D01*
D02*
G37*
G36*
X415669Y83020D02*
X411693D01*
Y83886D01*
X415669D01*
Y83020D01*
D02*
G37*
G36*
X498307D02*
X494331D01*
Y83886D01*
X498307D01*
Y83020D01*
D02*
G37*
G36*
X328043Y97969D02*
X321114D01*
Y100921D01*
X328043D01*
Y97969D01*
D02*
G37*
G36*
X53711Y97759D02*
X54833Y97111D01*
X55749Y96195D01*
X56398Y95073D01*
X56733Y93821D01*
X56733Y92525D01*
X56398Y91273D01*
X55750Y90151D01*
X54833Y89234D01*
X53711Y88586D01*
X52459Y88251D01*
X51811D01*
X51163Y88251D01*
X49911Y88586D01*
X48789Y89234D01*
X47873Y90150D01*
X47225Y91273D01*
X46889Y92525D01*
X46889Y93821D01*
X47225Y95072D01*
X47873Y96195D01*
X48789Y97111D01*
X49911Y97759D01*
X51163Y98095D01*
X51811Y98095D01*
X51811Y98095D01*
X52459Y98095D01*
X53711Y97759D01*
D02*
G37*
G36*
X51811Y98095D02*
D01*
X51811D01*
X51811D01*
D02*
G37*
G36*
X286260Y96886D02*
X283701D01*
Y105154D01*
X286260D01*
Y96886D01*
D02*
G37*
G36*
X92051Y96693D02*
X88882D01*
Y98307D01*
X92051D01*
Y96693D01*
D02*
G37*
G36*
X415669Y96799D02*
X411693D01*
Y97666D01*
X415669D01*
Y96799D01*
D02*
G37*
G36*
X498307D02*
X494331D01*
Y97666D01*
X498307D01*
Y96799D01*
D02*
G37*
G36*
X513469Y100516D02*
X512484D01*
Y102484D01*
X513469D01*
Y100516D01*
D02*
G37*
G36*
X415669Y100736D02*
X411693D01*
Y101603D01*
X415669D01*
Y100736D01*
D02*
G37*
G36*
X498307D02*
X494331D01*
Y101603D01*
X498307D01*
Y100736D01*
D02*
G37*
G36*
X88978Y100076D02*
X89113Y99938D01*
Y99746D01*
X88978Y99608D01*
X88882Y99606D01*
D01*
Y99606D01*
X88882Y99606D01*
X88882D01*
X88786Y99608D01*
X88651Y99746D01*
Y99938D01*
X88786Y100076D01*
X88882Y100078D01*
X88978Y100076D01*
D02*
G37*
G36*
X415669Y98768D02*
X411693D01*
Y99634D01*
X415669D01*
Y98768D01*
D02*
G37*
G36*
X498307D02*
X494331D01*
Y99634D01*
X498307D01*
Y98768D01*
D02*
G37*
G36*
X305575Y99586D02*
X305575D01*
X305673Y99586D01*
X305811Y99448D01*
X305812Y99252D01*
X305673Y99114D01*
X305575Y99114D01*
X305477Y99113D01*
X305339Y99252D01*
X305339Y99350D01*
X302425D01*
Y100531D01*
X305575D01*
Y99586D01*
D02*
G37*
G36*
X92051Y91693D02*
X88882D01*
Y93307D01*
X92051D01*
Y91693D01*
D02*
G37*
G36*
X597780Y91720D02*
X595221D01*
Y94279D01*
X597780D01*
Y91720D01*
D02*
G37*
G36*
X396016Y92516D02*
X395031D01*
Y94484D01*
X396016D01*
Y92516D01*
D02*
G37*
G36*
X544016Y91016D02*
X543032D01*
Y92984D01*
X544016D01*
Y91016D01*
D02*
G37*
G36*
X415669Y90894D02*
X411693D01*
Y91760D01*
X415669D01*
Y90894D01*
D02*
G37*
G36*
X498307D02*
X494331D01*
Y91760D01*
X498307D01*
Y90894D01*
D02*
G37*
G36*
X511075Y90969D02*
X507925D01*
Y92150D01*
X511075D01*
Y90969D01*
D02*
G37*
G36*
X415669Y94831D02*
X411693D01*
Y95697D01*
X415669D01*
Y94831D01*
D02*
G37*
G36*
X498307D02*
X494331D01*
Y95697D01*
X498307D01*
Y94831D01*
D02*
G37*
G36*
X295528Y97119D02*
X295661Y96982D01*
X295661Y96791D01*
X295528Y96654D01*
X295433Y96650D01*
X295338Y96654D01*
X295205Y96791D01*
X295205Y96981D01*
X295338Y97119D01*
X295433Y97122D01*
Y97122D01*
X295433D01*
X295528Y97119D01*
D02*
G37*
G36*
X399067Y94721D02*
X399205Y94582D01*
X399205Y94484D01*
X399205Y94386D01*
X399067Y94248D01*
X398969Y94248D01*
Y92516D01*
X397984D01*
Y94484D01*
X398732D01*
X398732Y94582D01*
X398871Y94721D01*
X399067Y94721D01*
D02*
G37*
G36*
X547067Y93221D02*
X547205Y93082D01*
X547205Y92984D01*
X547205Y92886D01*
X547067Y92748D01*
X546969Y92748D01*
Y91016D01*
X545984D01*
Y92984D01*
X546732D01*
X546732Y93082D01*
X546871Y93221D01*
X547067Y93221D01*
D02*
G37*
G36*
X415669Y92862D02*
X411693D01*
Y93729D01*
X415669D01*
Y92862D01*
D02*
G37*
G36*
X498307D02*
X494331D01*
Y93729D01*
X498307D01*
Y92862D01*
D02*
G37*
G36*
X545977Y190665D02*
X543458D01*
Y193185D01*
X545977D01*
Y190665D01*
D02*
G37*
G36*
X555977D02*
X553458D01*
Y193185D01*
X555977D01*
Y190665D01*
D02*
G37*
G36*
X187685Y192912D02*
X187685Y192717D01*
X187547Y192578D01*
X187449Y192578D01*
X187351Y192578D01*
X187213Y192717D01*
X187213Y192912D01*
X187351Y193051D01*
X187449Y193051D01*
X187547Y193051D01*
X187685Y192912D01*
D02*
G37*
G36*
X535977Y190665D02*
X533458D01*
Y193185D01*
X535977D01*
Y190665D01*
D02*
G37*
G36*
X389477Y190606D02*
X386958D01*
Y193126D01*
X389477D01*
Y190606D01*
D02*
G37*
G36*
X399477D02*
X396958D01*
Y193126D01*
X399477D01*
Y190606D01*
D02*
G37*
G36*
X409477D02*
X406958D01*
Y193126D01*
X409477D01*
Y190606D01*
D02*
G37*
G36*
X434591Y193440D02*
X431442D01*
Y197181D01*
X434591D01*
Y193440D01*
D02*
G37*
G36*
X581091Y193500D02*
X577942D01*
Y197240D01*
X581091D01*
Y193500D01*
D02*
G37*
G36*
X109949Y196382D02*
X109953Y196287D01*
X109953Y196287D01*
X109949Y196193D01*
X109812Y196061D01*
X109622Y196061D01*
X109485Y196192D01*
X109481Y196287D01*
X109481Y196287D01*
X109485Y196382D01*
X109622Y196514D01*
X109812Y196514D01*
X109949Y196382D01*
D02*
G37*
G36*
X287591Y193440D02*
X284442D01*
Y197181D01*
X287591D01*
Y193440D01*
D02*
G37*
G36*
X330185Y192992D02*
X330185Y192796D01*
X330047Y192658D01*
X329949Y192658D01*
X329851Y192658D01*
X329713Y192796D01*
X329713Y192992D01*
X329851Y193130D01*
X329949Y193130D01*
X330047Y193130D01*
X330185Y192992D01*
D02*
G37*
G36*
X131091Y192940D02*
X127942D01*
Y196681D01*
X131091D01*
Y192940D01*
D02*
G37*
G36*
X481685Y193492D02*
X481685Y193296D01*
X481547Y193158D01*
X481449Y193158D01*
X481351Y193158D01*
X481213Y193296D01*
X481213Y193492D01*
X481351Y193630D01*
X481449Y193630D01*
X481547Y193630D01*
X481685Y193492D01*
D02*
G37*
G36*
X47078Y188988D02*
X36645D01*
Y191744D01*
X47078D01*
Y188988D01*
D02*
G37*
G36*
X65791D02*
X55358D01*
Y191744D01*
X65791D01*
Y188988D01*
D02*
G37*
G36*
X85977Y190106D02*
X83458D01*
Y192626D01*
X85977D01*
Y190106D01*
D02*
G37*
G36*
X569084Y188972D02*
X566131D01*
Y194878D01*
X569084D01*
Y188972D01*
D02*
G37*
G36*
X119084Y188413D02*
X116131D01*
Y194319D01*
X119084D01*
Y188413D01*
D02*
G37*
G36*
X275584Y188913D02*
X272631D01*
Y194819D01*
X275584D01*
Y188913D01*
D02*
G37*
G36*
X422584D02*
X419631D01*
Y194819D01*
X422584D01*
Y188913D01*
D02*
G37*
G36*
X242477Y190606D02*
X239958D01*
Y193126D01*
X242477D01*
Y190606D01*
D02*
G37*
G36*
X252477D02*
X249958D01*
Y193126D01*
X252477D01*
Y190606D01*
D02*
G37*
G36*
X262477D02*
X259958D01*
Y193126D01*
X262477D01*
Y190606D01*
D02*
G37*
G36*
X371291Y190488D02*
X360858D01*
Y193244D01*
X371291D01*
Y190488D01*
D02*
G37*
G36*
X95977Y190106D02*
X93458D01*
Y192626D01*
X95977D01*
Y190106D01*
D02*
G37*
G36*
X105977D02*
X103458D01*
Y192626D01*
X105977D01*
Y190106D01*
D02*
G37*
G36*
X352578Y190488D02*
X342145D01*
Y193244D01*
X352578D01*
Y190488D01*
D02*
G37*
G36*
X573886Y208673D02*
X573886Y208575D01*
X573887Y208477D01*
X573748Y208339D01*
X573650Y208339D01*
Y205425D01*
X572469D01*
Y208575D01*
X573414D01*
Y208575D01*
X573414Y208673D01*
X573552Y208811D01*
X573748Y208812D01*
X573886Y208673D01*
D02*
G37*
G36*
X233075Y206086D02*
X233075D01*
X233173Y206086D01*
X233311Y205948D01*
X233312Y205752D01*
X233173Y205614D01*
X233075Y205613D01*
X232978Y205613D01*
X232839Y205752D01*
X232839Y205850D01*
X229925D01*
Y207031D01*
X233075D01*
Y206086D01*
D02*
G37*
G36*
X421531Y205925D02*
X420350D01*
Y209075D01*
X421531D01*
Y205925D01*
D02*
G37*
G36*
X568532Y205425D02*
X567350D01*
Y208575D01*
X568532D01*
Y205425D01*
D02*
G37*
G36*
X32685Y205571D02*
X32685Y205375D01*
X32547Y205237D01*
X32449Y205237D01*
X32351Y205237D01*
X32213Y205375D01*
X32213Y205571D01*
X32351Y205709D01*
X32449Y205709D01*
X32547Y205709D01*
X32685Y205571D01*
D02*
G37*
G36*
X275031Y205425D02*
X273850D01*
Y208575D01*
X275031D01*
Y205425D01*
D02*
G37*
G36*
X280386Y208673D02*
X280386Y208575D01*
X280387Y208477D01*
X280248Y208339D01*
X280150Y208339D01*
Y205425D01*
X278969D01*
Y208575D01*
X279914D01*
Y208575D01*
X279914Y208673D01*
X280052Y208811D01*
X280248Y208812D01*
X280386Y208673D01*
D02*
G37*
G36*
X108316Y208250D02*
X104340D01*
Y209214D01*
X108316D01*
Y208250D01*
D02*
G37*
G36*
X243596Y208750D02*
X239620D01*
Y209714D01*
X243596D01*
Y208750D01*
D02*
G37*
G36*
X264816D02*
X260840D01*
Y209714D01*
X264816D01*
Y208750D01*
D02*
G37*
G36*
X87096Y208250D02*
X83120D01*
Y209214D01*
X87096D01*
Y208250D01*
D02*
G37*
G36*
X426886Y209173D02*
X426887Y209075D01*
X426887Y208978D01*
X426748Y208839D01*
X426650Y208839D01*
Y205925D01*
X425468D01*
Y209075D01*
X426414D01*
Y209075D01*
X426414Y209173D01*
X426552Y209311D01*
X426748Y209312D01*
X426886Y209173D01*
D02*
G37*
G36*
X77441Y208369D02*
X77441D01*
X77539Y208369D01*
X77677Y208230D01*
X77678Y208035D01*
X77539Y207896D01*
X77441Y207896D01*
X77343Y207896D01*
X77205Y208034D01*
X77205Y208133D01*
X74291D01*
Y209314D01*
X77441D01*
Y208369D01*
D02*
G37*
G36*
X380441D02*
X380441D01*
X380539Y208369D01*
X380677Y208230D01*
X380678Y208035D01*
X380539Y207896D01*
X380441Y207896D01*
X380344Y207896D01*
X380205Y208034D01*
X380205Y208133D01*
X377291D01*
Y209314D01*
X380441D01*
Y208369D01*
D02*
G37*
G36*
X226023Y201453D02*
X226027Y201358D01*
X226023Y201263D01*
X225886Y201131D01*
X225696Y201131D01*
X225559Y201263D01*
X225555Y201358D01*
D01*
Y201358D01*
Y201358D01*
X225555D01*
X225558Y201453D01*
X225696Y201585D01*
X225886Y201585D01*
X226023Y201453D01*
D02*
G37*
G36*
X179260Y201397D02*
X176740D01*
Y203916D01*
X179260D01*
Y201397D01*
D02*
G37*
G36*
X321760Y201476D02*
X319240D01*
Y203996D01*
X321760D01*
Y201476D01*
D02*
G37*
G36*
X518023Y199012D02*
X518027Y198917D01*
X518023Y198822D01*
X517886Y198690D01*
X517696Y198690D01*
X517559Y198822D01*
X517555Y198917D01*
D01*
Y198917D01*
Y198917D01*
X517555D01*
X517558Y199012D01*
X517696Y199144D01*
X517886Y199144D01*
X518023Y199012D01*
D02*
G37*
G36*
X266449Y196882D02*
X266453Y196787D01*
X266453Y196787D01*
X266449Y196693D01*
X266312Y196561D01*
X266122Y196561D01*
X265985Y196692D01*
X265981Y196787D01*
X265981Y196787D01*
X265985Y196882D01*
X266122Y197014D01*
X266312Y197014D01*
X266449Y196882D01*
D02*
G37*
G36*
X413449D02*
X413453Y196787D01*
X413453Y196787D01*
X413449Y196693D01*
X413312Y196561D01*
X413122Y196561D01*
X412985Y196692D01*
X412981Y196787D01*
X412981Y196787D01*
X412985Y196882D01*
X413122Y197014D01*
X413312Y197014D01*
X413449Y196882D01*
D02*
G37*
G36*
X559949Y196941D02*
X559953Y196846D01*
X559953Y196846D01*
X559949Y196751D01*
X559812Y196620D01*
X559622Y196620D01*
X559485Y196751D01*
X559481Y196846D01*
X559481Y196846D01*
X559485Y196941D01*
X559622Y197073D01*
X559812Y197073D01*
X559949Y196941D01*
D02*
G37*
G36*
X65555Y203358D02*
D01*
Y203358D01*
Y203358D01*
D02*
G37*
G36*
X526500Y203869D02*
X526500D01*
X526598Y203869D01*
X526736Y203730D01*
X526737Y203535D01*
X526598Y203396D01*
X526500Y203396D01*
X526403Y203396D01*
X526264Y203534D01*
X526264Y203633D01*
X523350D01*
Y204814D01*
X526500D01*
Y203869D01*
D02*
G37*
G36*
X371523Y204953D02*
X371527Y204858D01*
X371523Y204763D01*
X371386Y204631D01*
X371196Y204631D01*
X371059Y204763D01*
X371055Y204858D01*
D01*
Y204858D01*
Y204858D01*
X371055D01*
X371059Y204953D01*
X371196Y205085D01*
X371386Y205085D01*
X371523Y204953D01*
D02*
G37*
G36*
X66023Y203453D02*
X66027Y203358D01*
X66023Y203263D01*
X65886Y203131D01*
X65696Y203131D01*
X65559Y203263D01*
X65555Y203358D01*
X65555D01*
X65558Y203453D01*
X65696Y203585D01*
X65886Y203585D01*
X66023Y203453D01*
D02*
G37*
G36*
X118032Y201925D02*
X116850D01*
Y205075D01*
X118032D01*
Y201925D01*
D02*
G37*
G36*
X123386Y205173D02*
X123387Y205075D01*
X123387Y204977D01*
X123248Y204839D01*
X123150Y204839D01*
Y201925D01*
X121968D01*
Y205075D01*
X122914D01*
Y205075D01*
X122914Y205173D01*
X123052Y205311D01*
X123248Y205312D01*
X123386Y205173D01*
D02*
G37*
G36*
X473260Y201976D02*
X470740D01*
Y204496D01*
X473260D01*
Y201976D01*
D02*
G37*
G36*
X198497Y128925D02*
X197316D01*
Y132075D01*
X198497D01*
Y128925D01*
D02*
G37*
G36*
X505421Y130264D02*
Y130264D01*
X505421Y130264D01*
X505421D01*
D01*
D02*
G37*
G36*
X505517Y130734D02*
X505652Y130596D01*
Y130404D01*
X505517Y130266D01*
X505421Y130264D01*
X505325Y130266D01*
X505190Y130404D01*
Y130596D01*
X505325Y130734D01*
X505421Y130736D01*
X505517Y130734D01*
D02*
G37*
G36*
X130236Y126941D02*
X119649D01*
Y130091D01*
X130236D01*
Y126941D01*
D02*
G37*
G36*
X487914Y121445D02*
Y119831D01*
X487047D01*
Y121445D01*
Y123807D01*
X487914D01*
Y121445D01*
D02*
G37*
G36*
X489882D02*
Y119831D01*
X489016D01*
Y121445D01*
Y123807D01*
X489882D01*
Y121445D01*
D02*
G37*
G36*
X321350Y121393D02*
X321350Y121295D01*
X321350Y121197D01*
X321212Y121059D01*
X321016Y121059D01*
X320878Y121197D01*
X320878Y121295D01*
X320878Y121393D01*
X321016Y121531D01*
X321212Y121531D01*
X321350Y121393D01*
D02*
G37*
G36*
X327654Y134201D02*
X319386D01*
Y136760D01*
X327654D01*
Y134201D01*
D02*
G37*
G36*
X342614D02*
X334346D01*
Y136760D01*
X342614D01*
Y134201D01*
D02*
G37*
G36*
X501780Y134221D02*
X499221D01*
Y136779D01*
X501780D01*
Y134221D01*
D02*
G37*
G36*
X357150Y133925D02*
X355968D01*
Y137075D01*
X357150D01*
Y133925D01*
D02*
G37*
G36*
X203714Y132311D02*
X203852Y132173D01*
X203852Y132075D01*
X203852Y131977D01*
X203714Y131839D01*
X203616Y131839D01*
Y128925D01*
X202434D01*
Y132075D01*
X203380D01*
Y132075D01*
X203380Y132173D01*
X203518Y132311D01*
X203714Y132311D01*
D02*
G37*
G36*
X470575Y134086D02*
X470575D01*
X470673Y134086D01*
X470811Y133948D01*
X470811Y133752D01*
X470673Y133614D01*
X470575Y133614D01*
X470477Y133614D01*
X470339Y133752D01*
X470339Y133850D01*
X467425D01*
Y135031D01*
X470575D01*
Y134086D01*
D02*
G37*
G36*
X352031Y133925D02*
X351086D01*
Y133925D01*
X351086Y133827D01*
X350948Y133689D01*
X350752Y133688D01*
X350614Y133827D01*
X350613Y133925D01*
X350613Y134022D01*
X350752Y134161D01*
X350850Y134161D01*
Y137075D01*
X352031D01*
Y133925D01*
D02*
G37*
G36*
X468228Y121445D02*
Y119831D01*
X467362D01*
Y121445D01*
Y123807D01*
X468228D01*
Y121445D01*
D02*
G37*
G36*
X470197D02*
Y119831D01*
X469331D01*
Y121445D01*
Y123807D01*
X470197D01*
Y121445D01*
D02*
G37*
G36*
X472165D02*
Y119831D01*
X471299D01*
Y121445D01*
Y123807D01*
X472165D01*
Y121445D01*
D02*
G37*
G36*
X466260D02*
Y119831D01*
X465394D01*
Y121445D01*
Y123807D01*
X466260D01*
Y121445D01*
D02*
G37*
G36*
X460354D02*
Y119831D01*
X459488D01*
Y121445D01*
Y123807D01*
X460354D01*
Y121445D01*
D02*
G37*
G36*
X462323D02*
Y119831D01*
X461457D01*
Y121445D01*
Y123807D01*
X462323D01*
Y121445D01*
D02*
G37*
G36*
X464291D02*
Y119831D01*
X463425D01*
Y121445D01*
Y123807D01*
X464291D01*
Y121445D01*
D02*
G37*
G36*
X482008D02*
Y119831D01*
X481142D01*
Y121445D01*
Y123807D01*
X482008D01*
Y121445D01*
D02*
G37*
G36*
X483977D02*
Y119831D01*
X483110D01*
Y121445D01*
Y123807D01*
X483977D01*
Y121445D01*
D02*
G37*
G36*
X485945D02*
Y119831D01*
X485079D01*
Y121445D01*
Y123807D01*
X485945D01*
Y121445D01*
D02*
G37*
G36*
X480040D02*
Y119831D01*
X479173D01*
Y121445D01*
Y123807D01*
X480040D01*
Y121445D01*
D02*
G37*
G36*
X474134D02*
Y119831D01*
X473268D01*
Y121445D01*
Y123807D01*
X474134D01*
Y121445D01*
D02*
G37*
G36*
X476102D02*
Y119831D01*
X475236D01*
Y121445D01*
Y123807D01*
X476102D01*
Y121445D01*
D02*
G37*
G36*
X478071D02*
Y119831D01*
X477205D01*
Y121445D01*
Y123807D01*
X478071D01*
Y121445D01*
D02*
G37*
G36*
X581324Y186114D02*
X581328Y186019D01*
X581328D01*
X581324Y185924D01*
X581187Y185792D01*
X580997Y185792D01*
X580860Y185924D01*
X580856Y186019D01*
X580860Y186114D01*
X580997Y186246D01*
X581187Y186246D01*
X581324Y186114D01*
D02*
G37*
G36*
X287828Y185960D02*
Y185960D01*
D01*
Y185960D01*
D02*
G37*
G36*
X434828D02*
Y185960D01*
D01*
Y185960D01*
D02*
G37*
G36*
X434824Y186055D02*
X434828Y185960D01*
X434828D01*
X434825Y185865D01*
X434687Y185733D01*
X434497Y185733D01*
X434360Y185865D01*
X434356Y185960D01*
X434360Y186055D01*
X434497Y186187D01*
X434687Y186187D01*
X434824Y186055D01*
D02*
G37*
G36*
X131324Y185555D02*
X131328Y185460D01*
X131328D01*
X131325Y185365D01*
X131187Y185233D01*
X130997Y185233D01*
X130860Y185365D01*
X130856Y185460D01*
X130860Y185555D01*
X130997Y185687D01*
X131187Y185687D01*
X131324Y185555D01*
D02*
G37*
G36*
X131328Y185460D02*
Y185460D01*
D01*
Y185460D01*
D02*
G37*
G36*
X287824Y186055D02*
X287828Y185960D01*
X287828D01*
X287825Y185865D01*
X287687Y185733D01*
X287497Y185733D01*
X287360Y185865D01*
X287356Y185960D01*
X287360Y186055D01*
X287497Y186187D01*
X287687Y186187D01*
X287824Y186055D01*
D02*
G37*
G36*
X581091Y186610D02*
X577942D01*
Y190350D01*
X581091D01*
Y186610D01*
D02*
G37*
G36*
X207078Y186988D02*
X196645D01*
Y189744D01*
X207078D01*
Y186988D01*
D02*
G37*
G36*
X225791D02*
X215358D01*
Y189744D01*
X225791D01*
Y186988D01*
D02*
G37*
G36*
X434591Y186551D02*
X431442D01*
Y190291D01*
X434591D01*
Y186551D01*
D02*
G37*
G36*
X581328Y186019D02*
Y186019D01*
D01*
Y186019D01*
D02*
G37*
G36*
X131091Y186051D02*
X127942D01*
Y189791D01*
X131091D01*
Y186051D01*
D02*
G37*
G36*
X287591Y186551D02*
X284442D01*
Y190291D01*
X287591D01*
Y186551D01*
D02*
G37*
G36*
X441484Y135268D02*
Y135268D01*
X441582Y135268D01*
X441721Y135129D01*
X441720Y134933D01*
X441582Y134795D01*
X441484Y134795D01*
X441386Y134795D01*
X441248Y134933D01*
X441248Y135031D01*
X439516D01*
Y136016D01*
X441484D01*
Y135268D01*
D02*
G37*
G36*
X417984Y137484D02*
X416016D01*
Y138469D01*
X417984D01*
Y137484D01*
D02*
G37*
G36*
X422016Y138705D02*
X422114Y138705D01*
X422252Y138567D01*
X422252Y138469D01*
X423984D01*
Y137484D01*
X422016D01*
Y138232D01*
Y138232D01*
X421918Y138232D01*
X421779Y138371D01*
X421779Y138567D01*
X421918Y138705D01*
X422016Y138705D01*
D02*
G37*
G36*
X423984Y134531D02*
X422016D01*
Y135516D01*
X423984D01*
Y134531D01*
D02*
G37*
G36*
X417984Y134768D02*
Y134768D01*
X418082Y134768D01*
X418221Y134629D01*
X418221Y134433D01*
X418082Y134295D01*
X417984Y134295D01*
X417886Y134295D01*
X417748Y134433D01*
X417748Y134531D01*
X416016D01*
Y135516D01*
X417984D01*
Y134768D01*
D02*
G37*
G36*
X461984D02*
Y134768D01*
X462082Y134768D01*
X462221Y134629D01*
X462220Y134433D01*
X462082Y134295D01*
X461984Y134295D01*
X461886Y134295D01*
X461748Y134433D01*
X461748Y134531D01*
X460016D01*
Y135516D01*
X461984D01*
Y134768D01*
D02*
G37*
G36*
X487484D02*
Y134768D01*
X487582Y134768D01*
X487721Y134629D01*
X487720Y134433D01*
X487582Y134295D01*
X487484Y134295D01*
X487386Y134295D01*
X487248Y134433D01*
X487248Y134531D01*
X485516D01*
Y135516D01*
X487484D01*
Y134768D01*
D02*
G37*
G36*
X342846Y146028D02*
X342850Y145933D01*
X342846Y145838D01*
X342709Y145705D01*
X342519Y145705D01*
X342381Y145838D01*
X342378Y145933D01*
X342378D01*
Y145933D01*
X342381Y146028D01*
X342518Y146161D01*
X342709Y146161D01*
X342846Y146028D01*
D02*
G37*
G36*
X499078Y184547D02*
X488645D01*
Y187303D01*
X499078D01*
Y184547D01*
D02*
G37*
G36*
X517791D02*
X507358D01*
Y187303D01*
X517791D01*
Y184547D01*
D02*
G37*
G36*
X470575Y138969D02*
X467425D01*
Y140150D01*
X470575D01*
Y138969D01*
D02*
G37*
G36*
X461984Y137484D02*
X460016D01*
Y138469D01*
X461984D01*
Y137484D01*
D02*
G37*
G36*
X487484D02*
X485516D01*
Y138469D01*
X487484D01*
Y137484D01*
D02*
G37*
G36*
X441484Y137984D02*
X439516D01*
Y138969D01*
X441484D01*
Y137984D01*
D02*
G37*
G36*
X468228Y39516D02*
Y37193D01*
X467362D01*
Y39516D01*
Y41170D01*
X468228D01*
Y39516D01*
D02*
G37*
G36*
X470197D02*
Y37193D01*
X469331D01*
Y39516D01*
Y41170D01*
X470197D01*
Y39516D01*
D02*
G37*
G36*
X472165D02*
Y37193D01*
X471299D01*
Y39516D01*
Y41170D01*
X472165D01*
Y39516D01*
D02*
G37*
G36*
X466260D02*
Y37193D01*
X465394D01*
Y39516D01*
Y41170D01*
X466260D01*
Y39516D01*
D02*
G37*
G36*
X460354D02*
Y37193D01*
X459488D01*
Y39516D01*
Y41170D01*
X460354D01*
Y39516D01*
D02*
G37*
G36*
X462323D02*
Y37193D01*
X461457D01*
Y39516D01*
Y41170D01*
X462323D01*
Y39516D01*
D02*
G37*
G36*
X464291D02*
Y37193D01*
X463425D01*
Y39516D01*
Y41170D01*
X464291D01*
Y39516D01*
D02*
G37*
G36*
X482008D02*
Y37193D01*
X481142D01*
Y39516D01*
Y41170D01*
X482008D01*
Y39516D01*
D02*
G37*
G36*
X483977D02*
Y37193D01*
X483110D01*
Y39516D01*
Y41170D01*
X483977D01*
Y39516D01*
D02*
G37*
G36*
X485945D02*
Y37193D01*
X485079D01*
Y39516D01*
Y41170D01*
X485945D01*
Y39516D01*
D02*
G37*
G36*
X480040D02*
Y37193D01*
X479173D01*
Y39516D01*
Y41170D01*
X480040D01*
Y39516D01*
D02*
G37*
G36*
X474134D02*
Y37193D01*
X473268D01*
Y39516D01*
Y41170D01*
X474134D01*
Y39516D01*
D02*
G37*
G36*
X476102D02*
Y37193D01*
X475236D01*
Y39516D01*
Y41170D01*
X476102D01*
Y39516D01*
D02*
G37*
G36*
X478071D02*
Y37193D01*
X477205D01*
Y39516D01*
Y41170D01*
X478071D01*
Y39516D01*
D02*
G37*
G36*
X440669D02*
Y37193D01*
X439803D01*
Y39516D01*
Y41170D01*
X440669D01*
Y39516D01*
D02*
G37*
G36*
X442638D02*
Y37193D01*
X441772D01*
Y39516D01*
Y41170D01*
X442638D01*
Y39516D01*
D02*
G37*
G36*
X444606D02*
Y37193D01*
X443740D01*
Y39516D01*
Y41170D01*
X444606D01*
Y39516D01*
D02*
G37*
G36*
X438701D02*
Y37193D01*
X437835D01*
Y39516D01*
Y41170D01*
X438701D01*
Y39516D01*
D02*
G37*
G36*
X432795D02*
Y37193D01*
X431929D01*
Y39516D01*
Y41170D01*
X432795D01*
Y39516D01*
D02*
G37*
G36*
X434764D02*
Y37193D01*
X433898D01*
Y39516D01*
Y41170D01*
X434764D01*
Y39516D01*
D02*
G37*
G36*
X436732D02*
Y37193D01*
X435866D01*
Y39516D01*
Y41170D01*
X436732D01*
Y39516D01*
D02*
G37*
G36*
X454449D02*
Y37193D01*
X453583D01*
Y39516D01*
Y41170D01*
X454449D01*
Y39516D01*
D02*
G37*
G36*
X456417D02*
Y37193D01*
X455551D01*
Y39516D01*
Y41170D01*
X456417D01*
Y39516D01*
D02*
G37*
G36*
X458386D02*
Y37193D01*
X457520D01*
Y39516D01*
Y41170D01*
X458386D01*
Y39516D01*
D02*
G37*
G36*
X452480D02*
Y37193D01*
X451614D01*
Y39516D01*
Y41170D01*
X452480D01*
Y39516D01*
D02*
G37*
G36*
X446575D02*
Y37193D01*
X445709D01*
Y39516D01*
Y41170D01*
X446575D01*
Y39516D01*
D02*
G37*
G36*
X448543D02*
Y37193D01*
X447677D01*
Y39516D01*
Y41170D01*
X448543D01*
Y39516D01*
D02*
G37*
G36*
X450512D02*
Y37193D01*
X449646D01*
Y39516D01*
Y41170D01*
X450512D01*
Y39516D01*
D02*
G37*
G36*
X91386Y46903D02*
X91386Y46805D01*
X91387Y46707D01*
X91248Y46569D01*
X91150Y46569D01*
Y43655D01*
X89969D01*
Y46805D01*
X90914D01*
Y46805D01*
X90914Y46903D01*
X91052Y47041D01*
X91248Y47042D01*
X91386Y46903D01*
D02*
G37*
G36*
X402567Y45221D02*
X402705Y45082D01*
X402705Y44984D01*
X402705Y44886D01*
X402567Y44748D01*
X402468Y44748D01*
Y43016D01*
X401484D01*
Y44984D01*
X402232D01*
X402232Y45082D01*
X402371Y45221D01*
X402567Y45221D01*
D02*
G37*
G36*
X543216Y44941D02*
X540854D01*
Y50059D01*
X543216D01*
Y44941D01*
D02*
G37*
G36*
X86032Y43655D02*
X84850D01*
Y46805D01*
X86032D01*
Y43655D01*
D02*
G37*
G36*
X399516Y43016D02*
X398532D01*
Y44984D01*
X399516D01*
Y43016D01*
D02*
G37*
G36*
X67032Y43425D02*
X65850D01*
Y46575D01*
X67032D01*
Y43425D01*
D02*
G37*
G36*
X72386Y46673D02*
X72386Y46575D01*
X72387Y46477D01*
X72248Y46339D01*
X72150Y46339D01*
Y43425D01*
X70969D01*
Y46575D01*
X71914D01*
Y46575D01*
X71914Y46673D01*
X72052Y46811D01*
X72248Y46812D01*
X72386Y46673D01*
D02*
G37*
G36*
X310032Y46925D02*
X309086D01*
Y46925D01*
X309086Y46827D01*
X308948Y46689D01*
X308752Y46689D01*
X308614Y46827D01*
X308614Y46925D01*
X308614Y47023D01*
X308752Y47161D01*
X308850Y47161D01*
Y50075D01*
X310032D01*
Y46925D01*
D02*
G37*
G36*
X415669Y47587D02*
X411693D01*
Y48453D01*
X415669D01*
Y47587D01*
D02*
G37*
G36*
X498307D02*
X494331D01*
Y48453D01*
X498307D01*
Y47587D01*
D02*
G37*
G36*
X315150Y46925D02*
X313968D01*
Y50075D01*
X315150D01*
Y46925D01*
D02*
G37*
G36*
X560146Y44941D02*
X557784D01*
Y50059D01*
X560146D01*
Y44941D01*
D02*
G37*
G36*
X415669Y45618D02*
X411693D01*
Y46485D01*
X415669D01*
Y45618D01*
D02*
G37*
G36*
X498307D02*
X494331D01*
Y46485D01*
X498307D01*
Y45618D01*
D02*
G37*
G36*
X128032Y38925D02*
X127086D01*
Y38925D01*
X127086Y38827D01*
X126948Y38689D01*
X126752Y38689D01*
X126614Y38827D01*
X126614Y38925D01*
X126614Y39023D01*
X126752Y39161D01*
X126850Y39161D01*
Y42075D01*
X128032D01*
Y38925D01*
D02*
G37*
G36*
X104805Y41724D02*
Y39402D01*
X103841D01*
Y41724D01*
Y43378D01*
X104805D01*
Y41724D01*
D02*
G37*
G36*
X107364D02*
Y39402D01*
X106400D01*
Y41724D01*
Y43378D01*
X107364D01*
Y41724D01*
D02*
G37*
G36*
X133150Y38925D02*
X131968D01*
Y42075D01*
X133150D01*
Y38925D01*
D02*
G37*
G36*
X487914Y39516D02*
Y37193D01*
X487047D01*
Y39516D01*
Y41170D01*
X487914D01*
Y39516D01*
D02*
G37*
G36*
X489882D02*
Y37193D01*
X489016D01*
Y39516D01*
Y41170D01*
X489882D01*
Y39516D01*
D02*
G37*
G36*
X498307Y37429D02*
X498307D01*
D01*
Y37429D01*
X498307Y37429D01*
D02*
G37*
G36*
X120159Y41724D02*
Y39402D01*
X119195D01*
Y41724D01*
Y43378D01*
X120159D01*
Y41724D01*
D02*
G37*
G36*
X102392Y39498D02*
X102394Y39402D01*
D01*
X102394D01*
X102394Y39402D01*
Y39402D01*
X102392Y39306D01*
X102254Y39171D01*
X102062D01*
X101924Y39306D01*
X101922Y39402D01*
X101924Y39498D01*
X102062Y39633D01*
X102254D01*
X102392Y39498D01*
D02*
G37*
G36*
X541090Y41889D02*
X541090Y41791D01*
X541090Y41693D01*
X540952Y41555D01*
X540756Y41555D01*
X540618Y41693D01*
X540618Y41791D01*
X540618Y41889D01*
X540756Y42027D01*
X540952Y42027D01*
X541090Y41889D01*
D02*
G37*
G36*
X117600Y41724D02*
Y39402D01*
X116636D01*
Y41724D01*
Y43378D01*
X117600D01*
Y41724D01*
D02*
G37*
G36*
X109923D02*
Y39402D01*
X108959D01*
Y41724D01*
Y43378D01*
X109923D01*
Y41724D01*
D02*
G37*
G36*
X112482D02*
Y39402D01*
X111518D01*
Y41724D01*
Y43378D01*
X112482D01*
Y41724D01*
D02*
G37*
G36*
X115041D02*
Y39402D01*
X114077D01*
Y41724D01*
Y43378D01*
X115041D01*
Y41724D01*
D02*
G37*
G36*
X403760Y24240D02*
X401240D01*
Y26760D01*
X403760D01*
Y24240D01*
D02*
G37*
G36*
X443516Y24516D02*
X442531D01*
Y26484D01*
X443516D01*
Y24516D01*
D02*
G37*
G36*
X463016D02*
X462032D01*
Y26484D01*
X463016D01*
Y24516D01*
D02*
G37*
G36*
X393760Y24240D02*
X391240D01*
Y26760D01*
X393760D01*
Y24240D01*
D02*
G37*
G36*
X490484Y24032D02*
X488516D01*
Y25016D01*
X490484D01*
Y24032D01*
D02*
G37*
G36*
X373760Y24240D02*
X371240D01*
Y26760D01*
X373760D01*
Y24240D01*
D02*
G37*
G36*
X383760D02*
X381240D01*
Y26760D01*
X383760D01*
Y24240D01*
D02*
G37*
G36*
X120225Y24850D02*
X118492D01*
X118492Y24850D01*
X118492Y24850D01*
X118490Y24754D01*
X118352Y24621D01*
X118160Y24621D01*
X118023Y24755D01*
X118020Y24850D01*
X118020Y24850D01*
X118023Y24946D01*
X118161Y25080D01*
X118256Y25079D01*
Y31150D01*
X120225D01*
Y24850D01*
D02*
G37*
G36*
X320031Y24925D02*
X319086D01*
Y24925D01*
X319086Y24827D01*
X318948Y24689D01*
X318752Y24689D01*
X318614Y24827D01*
X318614Y24925D01*
X318614Y25023D01*
X318752Y25161D01*
X318850Y25161D01*
Y28075D01*
X320031D01*
Y24925D01*
D02*
G37*
G36*
X351030Y25161D02*
X349849D01*
Y28311D01*
X351030D01*
Y25161D01*
D02*
G37*
G36*
X214032Y25052D02*
X212850D01*
Y28202D01*
X214032D01*
Y25052D01*
D02*
G37*
G36*
X335565Y24802D02*
X334384D01*
Y27952D01*
X335565D01*
Y24802D01*
D02*
G37*
G36*
X130854Y24850D02*
X128886D01*
Y31150D01*
X130854D01*
Y24850D01*
D02*
G37*
G36*
X325150Y24925D02*
X323969D01*
Y28075D01*
X325150D01*
Y24925D01*
D02*
G37*
G36*
X182617Y14880D02*
X181043D01*
Y19899D01*
X182617D01*
Y14880D01*
D02*
G37*
G36*
X176318D02*
X174980D01*
X174980Y14879D01*
X174980D01*
Y14879D01*
X174975Y14785D01*
X174838Y14654D01*
X174649Y14654D01*
X174512Y14785D01*
X174508Y14880D01*
X174512Y14974D01*
X174649Y15105D01*
X174743Y15105D01*
Y19899D01*
X176318D01*
Y14880D01*
D02*
G37*
G36*
X145331Y16117D02*
X145331Y16019D01*
X145331Y15922D01*
X145192Y15783D01*
X144997Y15783D01*
X144858Y15921D01*
X144858Y16019D01*
X144858Y16117D01*
X144996Y16256D01*
X145192Y16256D01*
X145331Y16117D01*
D02*
G37*
G36*
X403760Y14240D02*
X401240D01*
Y16760D01*
X403760D01*
Y14240D01*
D02*
G37*
G36*
X373760D02*
X371240D01*
Y16760D01*
X373760D01*
Y14240D01*
D02*
G37*
G36*
X383760D02*
X381240D01*
Y16760D01*
X383760D01*
Y14240D01*
D02*
G37*
G36*
X393760D02*
X391240D01*
Y16760D01*
X393760D01*
Y14240D01*
D02*
G37*
G36*
X477075Y22086D02*
X477075D01*
X477173Y22086D01*
X477311Y21948D01*
X477311Y21752D01*
X477173Y21614D01*
X477075Y21614D01*
X476977Y21614D01*
X476839Y21752D01*
X476839Y21850D01*
X473925D01*
Y23031D01*
X477075D01*
Y22086D01*
D02*
G37*
G36*
X484075Y22234D02*
X484075D01*
X484173Y22234D01*
X484311Y22096D01*
X484311Y21900D01*
X484173Y21762D01*
X484075Y21762D01*
X483977Y21762D01*
X483839Y21900D01*
X483839Y21998D01*
X480925D01*
Y23180D01*
X484075D01*
Y22234D01*
D02*
G37*
G36*
X71150Y23201D02*
X64850D01*
Y25169D01*
X71150D01*
Y23201D01*
D02*
G37*
G36*
X252099Y18815D02*
Y18815D01*
D01*
Y18815D01*
D02*
G37*
G36*
X148835Y16019D02*
X145685D01*
Y19563D01*
X148835D01*
Y16019D01*
D02*
G37*
G36*
X156315Y16020D02*
X153165D01*
Y19563D01*
X156315D01*
Y16020D01*
D02*
G37*
G36*
X251958Y19044D02*
X252096Y18910D01*
X252099Y18815D01*
X252099D01*
X252096Y18719D01*
X251958Y18586D01*
X251767Y18586D01*
X251629Y18719D01*
X251627Y18815D01*
X251629Y18911D01*
X251767Y19044D01*
X251958Y19044D01*
D02*
G37*
G36*
X259736Y32594D02*
X251862D01*
Y44405D01*
X259736D01*
Y32594D01*
D02*
G37*
G36*
X297138D02*
X289264D01*
Y44405D01*
X297138D01*
Y32594D01*
D02*
G37*
G36*
X64946Y36032D02*
X65079Y35895D01*
X65079Y35799D01*
X71150D01*
Y33831D01*
X64850D01*
Y35563D01*
X64850Y35563D01*
X64850Y35563D01*
X64754Y35566D01*
X64621Y35703D01*
X64621Y35895D01*
X64755Y36032D01*
X64850Y36035D01*
X64850Y36035D01*
X64946Y36032D01*
D02*
G37*
G36*
X407736Y30441D02*
X407736Y30343D01*
X407736Y30245D01*
X407598Y30106D01*
X407402Y30106D01*
X407264Y30245D01*
X407264Y30343D01*
X407264Y30440D01*
X407402Y30579D01*
X407598Y30579D01*
X407736Y30441D01*
D02*
G37*
G36*
X234743Y28815D02*
X234880Y28683D01*
X234884Y28588D01*
X234880Y28493D01*
X234743Y28362D01*
X234648Y28362D01*
Y25439D01*
X233467D01*
Y28589D01*
X234412D01*
Y28589D01*
Y28589D01*
X234412D01*
X234416Y28683D01*
X234553Y28815D01*
X234743Y28815D01*
D02*
G37*
G36*
X516248Y29811D02*
X516386Y29673D01*
X516386Y29575D01*
X516386Y29477D01*
X516248Y29339D01*
X516150Y29339D01*
Y26425D01*
X514968D01*
Y29575D01*
X515914D01*
Y29575D01*
X515914Y29673D01*
X516052Y29811D01*
X516248Y29811D01*
D02*
G37*
G36*
X531743Y30188D02*
X531880Y30056D01*
X531884Y29961D01*
X531880Y29867D01*
X531743Y29735D01*
X531648Y29735D01*
Y26812D01*
X530467D01*
Y29962D01*
X531412D01*
Y29962D01*
Y29962D01*
X531412D01*
X531416Y30057D01*
X531553Y30188D01*
X531743Y30188D01*
D02*
G37*
G36*
X426890Y39516D02*
Y37193D01*
X426024D01*
Y39516D01*
Y41170D01*
X426890D01*
Y39516D01*
D02*
G37*
G36*
X428858D02*
Y37193D01*
X427992D01*
Y39516D01*
Y41170D01*
X428858D01*
Y39516D01*
D02*
G37*
G36*
X430827D02*
Y37193D01*
X429961D01*
Y39516D01*
Y41170D01*
X430827D01*
Y39516D01*
D02*
G37*
G36*
X424921D02*
Y37193D01*
X424055D01*
Y39516D01*
Y41170D01*
X424921D01*
Y39516D01*
D02*
G37*
G36*
X498403Y37427D02*
X498538Y37289D01*
Y37097D01*
X498403Y36959D01*
X498307Y36957D01*
X498211Y36959D01*
X498076Y37097D01*
Y37289D01*
X498211Y37427D01*
X498307Y37429D01*
X498403Y37427D01*
D02*
G37*
G36*
X420984Y39516D02*
Y37193D01*
X420118D01*
Y39516D01*
Y41170D01*
X420984D01*
Y39516D01*
D02*
G37*
G36*
X422953D02*
Y37193D01*
X422087D01*
Y39516D01*
Y41170D01*
X422953D01*
Y39516D01*
D02*
G37*
G36*
X511031Y26425D02*
X509850D01*
Y29575D01*
X511031D01*
Y26425D01*
D02*
G37*
G36*
X182554Y26429D02*
X180586D01*
Y31350D01*
X182554D01*
Y26429D01*
D02*
G37*
G36*
X526530Y26784D02*
X525349D01*
Y29934D01*
X526530D01*
Y26784D01*
D02*
G37*
G36*
X466067Y26720D02*
X466205Y26582D01*
X466205Y26484D01*
X466205Y26386D01*
X466067Y26248D01*
X465969Y26248D01*
Y24516D01*
X464984D01*
Y26484D01*
X465732D01*
X465732Y26582D01*
X465871Y26721D01*
X466067Y26720D01*
D02*
G37*
G36*
X229530Y25411D02*
X228349D01*
Y28561D01*
X229530D01*
Y25411D01*
D02*
G37*
G36*
X176649Y26429D02*
X174917D01*
X174917Y26428D01*
X174917D01*
Y26428D01*
X174913Y26333D01*
X174776Y26202D01*
X174586Y26202D01*
X174449Y26333D01*
X174445Y26428D01*
X174449Y26523D01*
X174585Y26654D01*
X174680Y26654D01*
Y31350D01*
X176649D01*
Y26429D01*
D02*
G37*
G36*
X446567Y26720D02*
X446705Y26582D01*
X446705Y26484D01*
X446705Y26386D01*
X446567Y26248D01*
X446468Y26248D01*
Y24516D01*
X445484D01*
Y26484D01*
X446232D01*
X446232Y26582D01*
X446371Y26721D01*
X446567Y26720D01*
D02*
G37*
G36*
X340782Y28188D02*
X340920Y28049D01*
X340920Y27952D01*
X340920Y27854D01*
X340782Y27716D01*
X340684Y27716D01*
Y24802D01*
X339503D01*
Y27952D01*
X340448D01*
Y27952D01*
X340448Y28050D01*
X340586Y28188D01*
X340782Y28188D01*
D02*
G37*
G36*
X219248Y28438D02*
X219386Y28299D01*
X219386Y28202D01*
X219386Y28104D01*
X219248Y27966D01*
X219150Y27966D01*
Y25052D01*
X217969D01*
Y28202D01*
X218914D01*
Y28202D01*
X218914Y28300D01*
X219052Y28438D01*
X219248Y28438D01*
D02*
G37*
G36*
X356243Y28565D02*
X356380Y28433D01*
X356384Y28338D01*
X356380Y28243D01*
X356243Y28112D01*
X356148Y28112D01*
Y25189D01*
X354967D01*
Y28339D01*
X355912D01*
Y28339D01*
Y28339D01*
X355912D01*
X355916Y28433D01*
X356053Y28565D01*
X356243Y28565D01*
D02*
G37*
G36*
X153953Y27437D02*
X148047D01*
Y30980D01*
X153953D01*
Y27437D01*
D02*
G37*
G36*
X477075Y26969D02*
X473925D01*
Y28150D01*
X477075D01*
Y26969D01*
D02*
G37*
G36*
X488516Y28205D02*
X488614Y28205D01*
X488752Y28067D01*
X488752Y27968D01*
X490484D01*
Y26984D01*
X488516D01*
Y27732D01*
Y27732D01*
X488418Y27732D01*
X488279Y27871D01*
X488279Y28067D01*
X488418Y28205D01*
X488516Y28205D01*
D02*
G37*
G36*
X484075Y27117D02*
X480925D01*
Y28298D01*
X484075D01*
Y27117D01*
D02*
G37*
G36*
X284169Y70350D02*
X282437D01*
X282437Y70350D01*
X282437Y70350D01*
X282434Y70254D01*
X282297Y70121D01*
X282105Y70121D01*
X281968Y70255D01*
X281965Y70350D01*
X281965Y70350D01*
X281968Y70446D01*
X282105Y70579D01*
X282201Y70579D01*
Y76650D01*
X284169D01*
Y70350D01*
D02*
G37*
G36*
X354862Y70673D02*
X350689D01*
Y72327D01*
X354862D01*
Y70673D01*
D02*
G37*
G36*
X374311D02*
X370138D01*
Y72327D01*
X374311D01*
Y70673D01*
D02*
G37*
G36*
X392469Y70516D02*
X391484D01*
Y72484D01*
X392469D01*
Y70516D01*
D02*
G37*
G36*
X294799Y70350D02*
X292831D01*
Y76650D01*
X294799D01*
Y70350D01*
D02*
G37*
G36*
X537530Y70411D02*
X536349D01*
Y73561D01*
X537530D01*
Y70411D01*
D02*
G37*
G36*
X522532Y70425D02*
X521350D01*
Y73575D01*
X522532D01*
Y70425D01*
D02*
G37*
G36*
X250689Y71512D02*
X249350D01*
Y72457D01*
X250689D01*
Y71512D01*
D02*
G37*
G36*
X255650D02*
X254311D01*
Y72457D01*
X255650D01*
Y71512D01*
D02*
G37*
G36*
X317260Y71661D02*
X314740D01*
Y74181D01*
X317260D01*
Y71661D01*
D02*
G37*
G36*
X405484Y71768D02*
Y71768D01*
X405582Y71768D01*
X405721Y71629D01*
X405721Y71433D01*
X405582Y71295D01*
X405484Y71295D01*
X405386Y71295D01*
X405248Y71434D01*
X405248Y71531D01*
X403516D01*
Y72516D01*
X405484D01*
Y71768D01*
D02*
G37*
G36*
X389516Y70516D02*
X388768D01*
X388768Y70418D01*
X388629Y70279D01*
X388433Y70280D01*
X388295Y70418D01*
X388295Y70516D01*
X388295Y70614D01*
X388433Y70752D01*
X388531Y70752D01*
Y72484D01*
X389516D01*
Y70516D01*
D02*
G37*
G36*
X415669Y71209D02*
X411693D01*
Y72075D01*
X415669D01*
Y71209D01*
D02*
G37*
G36*
X498307D02*
X494331D01*
Y72075D01*
X498307D01*
Y71209D01*
D02*
G37*
G36*
X133075Y66969D02*
X129925D01*
Y68150D01*
X133075D01*
Y66969D01*
D02*
G37*
G36*
X415669Y67272D02*
X411693D01*
Y68138D01*
X415669D01*
Y67272D01*
D02*
G37*
G36*
X498307D02*
X494331D01*
Y68138D01*
X498307D01*
Y67272D01*
D02*
G37*
G36*
X233150Y66331D02*
X226850D01*
Y68299D01*
X233150D01*
Y66331D01*
D02*
G37*
G36*
X354862Y65673D02*
X350689D01*
Y67327D01*
X354862D01*
Y65673D01*
D02*
G37*
G36*
X374311D02*
X370138D01*
Y67327D01*
X374311D01*
Y65673D01*
D02*
G37*
G36*
X260516Y67205D02*
X260614Y67205D01*
X260752Y67067D01*
X260752Y66969D01*
X262484D01*
Y65984D01*
X260516D01*
Y66732D01*
Y66732D01*
X260418Y66732D01*
X260279Y66871D01*
X260279Y67067D01*
X260418Y67205D01*
X260516Y67205D01*
D02*
G37*
G36*
X498307Y69240D02*
X494331D01*
Y70107D01*
X498307D01*
Y69240D01*
D02*
G37*
G36*
X250689Y69543D02*
X249350D01*
Y70488D01*
X250689D01*
Y69543D01*
D02*
G37*
G36*
X255650D02*
X254311D01*
Y70488D01*
X255650D01*
Y69543D01*
D02*
G37*
G36*
X415669Y69240D02*
X411693D01*
Y70107D01*
X415669D01*
Y69240D01*
D02*
G37*
G36*
X250689Y67575D02*
X249350D01*
Y68520D01*
X250689D01*
Y67575D01*
D02*
G37*
G36*
X255650D02*
X254311D01*
Y68520D01*
X255650D01*
Y67575D01*
D02*
G37*
G36*
X241484Y67984D02*
X239516D01*
Y68968D01*
X241484D01*
Y67984D01*
D02*
G37*
G36*
X498307Y75146D02*
X494331D01*
Y76012D01*
X498307D01*
Y75146D01*
D02*
G37*
G36*
X354862Y75673D02*
X350689D01*
Y77327D01*
X354862D01*
Y75673D01*
D02*
G37*
G36*
X374311D02*
X370138D01*
Y77327D01*
X374311D01*
Y75673D01*
D02*
G37*
G36*
X415669Y75146D02*
X411693D01*
Y76012D01*
X415669D01*
Y75146D01*
D02*
G37*
G36*
X405484Y74484D02*
X403516D01*
Y75468D01*
X405484D01*
Y74484D01*
D02*
G37*
G36*
X513984Y75268D02*
Y75268D01*
X514082Y75268D01*
X514221Y75129D01*
X514221Y74933D01*
X514082Y74795D01*
X513984Y74795D01*
X513886Y74795D01*
X513748Y74933D01*
X513748Y75032D01*
X512016D01*
Y76016D01*
X513984D01*
Y75268D01*
D02*
G37*
G36*
X249445Y75366D02*
X249577Y75229D01*
X249577Y75039D01*
X249445Y74901D01*
X249350Y74898D01*
X249350Y74898D01*
X249255Y74901D01*
X249124Y75038D01*
X249124Y75229D01*
X249255Y75366D01*
X249350Y75370D01*
X249350Y75370D01*
X249445Y75366D01*
D02*
G37*
G36*
X415669Y79083D02*
X411693D01*
Y79949D01*
X415669D01*
Y79083D01*
D02*
G37*
G36*
X498307D02*
X494331D01*
Y79949D01*
X498307D01*
Y79083D01*
D02*
G37*
G36*
X273150Y80925D02*
X271969D01*
Y84075D01*
X273150D01*
Y80925D01*
D02*
G37*
G36*
X513984Y77984D02*
X512016D01*
Y78969D01*
X513984D01*
Y77984D01*
D02*
G37*
G36*
X415669Y77114D02*
X411693D01*
Y77981D01*
X415669D01*
Y77114D01*
D02*
G37*
G36*
X498307D02*
X494331D01*
Y77981D01*
X498307D01*
Y77114D01*
D02*
G37*
G36*
X597780Y77720D02*
X595221D01*
Y80279D01*
X597780D01*
Y77720D01*
D02*
G37*
G36*
X337425Y72347D02*
X335968D01*
X335968Y72346D01*
X335968D01*
X335966Y72250D01*
X335828Y72115D01*
X335636Y72115D01*
X335498Y72250D01*
X335496Y72346D01*
X335498Y72443D01*
X335636Y72577D01*
X335732Y72577D01*
Y75653D01*
X337425D01*
Y72347D01*
D02*
G37*
G36*
X415669Y73177D02*
X411693D01*
Y74044D01*
X415669D01*
Y73177D01*
D02*
G37*
G36*
X498307D02*
X494331D01*
Y74044D01*
X498307D01*
Y73177D01*
D02*
G37*
G36*
X263516Y72516D02*
X262531D01*
Y74484D01*
X263516D01*
Y72516D01*
D02*
G37*
G36*
X335968Y72346D02*
Y72346D01*
D01*
Y72346D01*
D02*
G37*
G36*
X342268Y72347D02*
X340575D01*
Y75653D01*
X342268D01*
Y72347D01*
D02*
G37*
G36*
X151734Y72925D02*
X151871Y72792D01*
X151874Y72697D01*
X151874D01*
Y72697D01*
X151871Y72601D01*
X151734Y72468D01*
X151542Y72468D01*
X151405Y72601D01*
X151402Y72697D01*
X151405Y72792D01*
X151542Y72925D01*
X151734Y72925D01*
D02*
G37*
G36*
X255650Y73480D02*
X254311D01*
Y74425D01*
X255650D01*
Y73480D01*
D02*
G37*
G36*
X542743Y73815D02*
X542880Y73683D01*
X542884Y73588D01*
X542880Y73493D01*
X542743Y73362D01*
X542648Y73362D01*
Y70439D01*
X541467D01*
Y73589D01*
X542412D01*
Y73589D01*
Y73589D01*
X542412D01*
X542416Y73683D01*
X542553Y73815D01*
X542743Y73815D01*
D02*
G37*
G36*
X266567Y74721D02*
X266705Y74582D01*
X266705Y74484D01*
X266705Y74386D01*
X266567Y74248D01*
X266469Y74248D01*
Y72516D01*
X265484D01*
Y74484D01*
X266232D01*
X266232Y74582D01*
X266371Y74721D01*
X266567Y74721D01*
D02*
G37*
G36*
X250689Y73480D02*
X249350D01*
Y74425D01*
X250689D01*
Y73480D01*
D02*
G37*
G36*
X120031Y73425D02*
X119086D01*
Y73425D01*
X119086Y73327D01*
X118948Y73189D01*
X118752Y73188D01*
X118614Y73327D01*
X118614Y73425D01*
X118613Y73523D01*
X118752Y73661D01*
X118850Y73661D01*
Y76575D01*
X120031D01*
Y73425D01*
D02*
G37*
G36*
X527748Y73811D02*
X527886Y73673D01*
X527886Y73575D01*
X527886Y73477D01*
X527748Y73339D01*
X527650Y73339D01*
Y70425D01*
X526469D01*
Y73575D01*
X527414D01*
Y73575D01*
X527414Y73673D01*
X527552Y73811D01*
X527748Y73811D01*
D02*
G37*
G36*
X125150Y73425D02*
X123969D01*
Y76575D01*
X125150D01*
Y73425D01*
D02*
G37*
G36*
X415669Y55461D02*
X411693D01*
Y56327D01*
X415669D01*
Y55461D01*
D02*
G37*
G36*
X498307D02*
X494331D01*
Y56327D01*
X498307D01*
Y55461D01*
D02*
G37*
G36*
X233150Y55937D02*
X233150Y55937D01*
X233150Y55937D01*
X233246Y55934D01*
X233379Y55797D01*
X233379Y55605D01*
X233245Y55468D01*
X233150Y55465D01*
X233150Y55465D01*
X233054Y55468D01*
X232921Y55606D01*
X232921Y55701D01*
X226850D01*
Y57669D01*
X233150D01*
Y55937D01*
D02*
G37*
G36*
X509016Y56205D02*
X509114Y56205D01*
X509252Y56067D01*
X509252Y55968D01*
X510984D01*
Y54984D01*
X509016D01*
Y55732D01*
Y55732D01*
X508918Y55732D01*
X508779Y55871D01*
X508779Y56067D01*
X508918Y56205D01*
X509016Y56205D01*
D02*
G37*
G36*
X329780Y53472D02*
X329877Y53472D01*
X330016Y53334D01*
X330015Y53138D01*
X329877Y53000D01*
X329779Y53000D01*
X329681Y53000D01*
X329543Y53139D01*
X329543Y53334D01*
X329682Y53473D01*
X329780Y53472D01*
D02*
G37*
G36*
X415669Y53492D02*
X411693D01*
Y54359D01*
X415669D01*
Y53492D01*
D02*
G37*
G36*
X498307D02*
X494331D01*
Y54359D01*
X498307D01*
Y53492D01*
D02*
G37*
G36*
Y57429D02*
X494331D01*
Y58296D01*
X498307D01*
Y57429D01*
D02*
G37*
G36*
X374311Y59590D02*
X374407Y59588D01*
X374542Y59450D01*
X374542Y59258D01*
X374407Y59120D01*
X374311Y59118D01*
X374214Y59120D01*
X374079Y59258D01*
X374080Y59451D01*
X374215Y59588D01*
X374311Y59590D01*
X374311Y59590D01*
D02*
G37*
G36*
X415669Y59398D02*
X411693D01*
Y60264D01*
X415669D01*
Y59398D01*
D02*
G37*
G36*
Y57429D02*
X411693D01*
Y58296D01*
X415669D01*
Y57429D01*
D02*
G37*
G36*
X541532Y56509D02*
X540350D01*
Y59659D01*
X541532D01*
Y56509D01*
D02*
G37*
G36*
X555532Y56925D02*
X554350D01*
Y60075D01*
X555532D01*
Y56925D01*
D02*
G37*
G36*
X560886Y60173D02*
X560886Y60075D01*
X560887Y59978D01*
X560748Y59839D01*
X560650Y59839D01*
Y56925D01*
X559469D01*
Y60075D01*
X560414D01*
Y60075D01*
X560414Y60173D01*
X560552Y60311D01*
X560748Y60312D01*
X560886Y60173D01*
D02*
G37*
G36*
X415669Y49555D02*
X411693D01*
Y50422D01*
X415669D01*
Y49555D01*
D02*
G37*
G36*
X498307D02*
X494331D01*
Y50422D01*
X498307D01*
Y49555D01*
D02*
G37*
G36*
X402468Y50516D02*
X401484D01*
Y52484D01*
X402468D01*
Y50516D01*
D02*
G37*
G36*
X58898Y48724D02*
X58996Y48724D01*
X59134Y48586D01*
X59134Y48390D01*
X58995Y48252D01*
X58897Y48252D01*
X58799Y48252D01*
X58661Y48390D01*
X58662Y48586D01*
X58800Y48724D01*
X58898Y48724D01*
D02*
G37*
G36*
X172624Y47622D02*
X162191D01*
Y50378D01*
X172624D01*
Y47622D01*
D02*
G37*
G36*
X190932D02*
X180499D01*
Y50378D01*
X190932D01*
Y47622D01*
D02*
G37*
G36*
X115602Y47955D02*
X108398D01*
Y56045D01*
X115602D01*
Y47955D01*
D02*
G37*
G36*
X498307Y51524D02*
X494331D01*
Y52390D01*
X498307D01*
Y51524D01*
D02*
G37*
G36*
X30355Y51736D02*
X26024D01*
Y53114D01*
X30355D01*
Y51736D01*
D02*
G37*
G36*
X510984Y52031D02*
X509016D01*
Y53016D01*
X510984D01*
Y52031D01*
D02*
G37*
G36*
X415669Y51524D02*
X411693D01*
Y52390D01*
X415669D01*
Y51524D01*
D02*
G37*
G36*
X399516Y50516D02*
X398768D01*
X398768Y50418D01*
X398629Y50279D01*
X398433Y50279D01*
X398295Y50418D01*
X398295Y50516D01*
X398295Y50614D01*
X398433Y50752D01*
X398532Y50752D01*
Y52484D01*
X399516D01*
Y50516D01*
D02*
G37*
G36*
X357616Y50925D02*
X356434D01*
Y54075D01*
X357616D01*
Y50925D01*
D02*
G37*
G36*
X352498D02*
X351552D01*
Y50925D01*
X351552Y50827D01*
X351414Y50689D01*
X351218Y50689D01*
X351080Y50827D01*
X351080Y50925D01*
X351080Y51023D01*
X351218Y51161D01*
X351316Y51161D01*
Y54075D01*
X352498D01*
Y50925D01*
D02*
G37*
G36*
X415669Y63335D02*
X411693D01*
Y64201D01*
X415669D01*
Y63335D01*
D02*
G37*
G36*
X498307D02*
X494331D01*
Y64201D01*
X498307D01*
Y63335D01*
D02*
G37*
G36*
X335968Y63346D02*
Y63346D01*
D01*
Y63346D01*
D02*
G37*
G36*
X262484Y63032D02*
X260516D01*
Y64016D01*
X262484D01*
Y63032D01*
D02*
G37*
G36*
X133075Y62086D02*
X133075D01*
X133173Y62086D01*
X133311Y61948D01*
X133311Y61752D01*
X133173Y61614D01*
X133075Y61614D01*
X132977Y61614D01*
X132839Y61752D01*
X132839Y61850D01*
X129925D01*
Y63032D01*
X133075D01*
Y62086D01*
D02*
G37*
G36*
X191030Y62228D02*
X191168Y62090D01*
X191168Y61992D01*
X191168Y61894D01*
X191030Y61756D01*
X190834Y61756D01*
X190696Y61894D01*
X190696Y61992D01*
X190696Y62090D01*
X190834Y62228D01*
X191030Y62228D01*
D02*
G37*
G36*
X317260Y61819D02*
X314740D01*
Y64339D01*
X317260D01*
Y61819D01*
D02*
G37*
G36*
X241484Y65268D02*
Y65268D01*
X241582Y65268D01*
X241721Y65129D01*
X241721Y64933D01*
X241582Y64795D01*
X241484Y64795D01*
X241386Y64795D01*
X241248Y64934D01*
X241248Y65031D01*
X239516D01*
Y66016D01*
X241484D01*
Y65268D01*
D02*
G37*
G36*
X415669Y65303D02*
X411693D01*
Y66170D01*
X415669D01*
Y65303D01*
D02*
G37*
G36*
X498307D02*
X494331D01*
Y66170D01*
X498307D01*
Y65303D01*
D02*
G37*
G36*
X389516Y64016D02*
X388768D01*
X388768Y63918D01*
X388629Y63779D01*
X388433Y63779D01*
X388295Y63918D01*
X388295Y64016D01*
X388295Y64114D01*
X388433Y64252D01*
X388531Y64252D01*
Y65984D01*
X389516D01*
Y64016D01*
D02*
G37*
G36*
X342268Y63346D02*
X340575D01*
Y66654D01*
X342268D01*
Y63346D01*
D02*
G37*
G36*
X337425D02*
X335968D01*
X335968Y63346D01*
X335968D01*
X335966Y63250D01*
X335828Y63115D01*
X335636Y63115D01*
X335498Y63250D01*
X335496Y63346D01*
X335498Y63443D01*
X335636Y63577D01*
X335732Y63577D01*
Y66654D01*
X337425D01*
Y63346D01*
D02*
G37*
G36*
X392469Y64016D02*
X391484D01*
Y65984D01*
X392469D01*
Y64016D01*
D02*
G37*
G36*
X107364Y62236D02*
Y60622D01*
X106400D01*
Y62236D01*
Y64598D01*
X107364D01*
Y62236D01*
D02*
G37*
G36*
X109923D02*
Y60622D01*
X108959D01*
Y62236D01*
Y64598D01*
X109923D01*
Y62236D01*
D02*
G37*
G36*
X112482D02*
Y60622D01*
X111518D01*
Y62236D01*
Y64598D01*
X112482D01*
Y62236D01*
D02*
G37*
G36*
X104805D02*
Y60622D01*
X103841D01*
Y62236D01*
Y64598D01*
X104805D01*
Y62236D01*
D02*
G37*
G36*
X498307Y59398D02*
X494331D01*
Y60264D01*
X498307D01*
Y59398D01*
D02*
G37*
G36*
X546748Y59895D02*
X546886Y59757D01*
X546886Y59659D01*
X546886Y59561D01*
X546748Y59423D01*
X546650Y59423D01*
Y56509D01*
X545469D01*
Y59659D01*
X546414D01*
Y59659D01*
X546414Y59757D01*
X546552Y59895D01*
X546748Y59895D01*
D02*
G37*
G36*
X53711Y69413D02*
X54833Y68765D01*
X55749Y67849D01*
X56398Y66727D01*
X56733Y65475D01*
X56733Y64179D01*
X56398Y62927D01*
X55750Y61805D01*
X54833Y60888D01*
X53711Y60240D01*
X52459Y59905D01*
X51811Y59905D01*
X51163Y59905D01*
X49911Y60240D01*
X48789Y60888D01*
X47873Y61804D01*
X47225Y62927D01*
X46889Y64179D01*
X46889Y65475D01*
X47225Y66726D01*
X47873Y67849D01*
X48789Y68765D01*
X49911Y69413D01*
X51163Y69749D01*
X51811Y69749D01*
X52459Y69749D01*
X53711Y69413D01*
D02*
G37*
G36*
X374311Y60673D02*
X370138D01*
Y62327D01*
X374311D01*
Y60673D01*
D02*
G37*
G36*
X415669Y61366D02*
X411693D01*
Y62233D01*
X415669D01*
Y61366D01*
D02*
G37*
G36*
X498307D02*
X494331D01*
Y62233D01*
X498307D01*
Y61366D01*
D02*
G37*
G36*
X354862Y60673D02*
X350689D01*
Y62327D01*
X354862D01*
Y60673D01*
D02*
G37*
G36*
X115041Y62236D02*
Y60622D01*
X114077D01*
Y62236D01*
Y64598D01*
X115041D01*
Y62236D01*
D02*
G37*
G36*
X117600D02*
Y60622D01*
X116636D01*
Y62236D01*
Y64598D01*
X117600D01*
Y62236D01*
D02*
G37*
G36*
X120159D02*
Y60622D01*
X119195D01*
Y62236D01*
Y64598D01*
X120159D01*
Y62236D01*
D02*
G37*
G36*
X526500Y208751D02*
X523350D01*
Y209932D01*
X526500D01*
Y208751D01*
D02*
G37*
G36*
X102102Y316476D02*
X89897D01*
Y338524D01*
X102102D01*
Y316476D01*
D02*
G37*
G36*
X497100Y316898D02*
X490900D01*
Y318669D01*
X497100D01*
Y316898D01*
D02*
G37*
G36*
X123650Y316925D02*
X122468D01*
Y320075D01*
X123650D01*
Y316925D01*
D02*
G37*
G36*
X328260Y316398D02*
X325740D01*
Y318918D01*
X328260D01*
Y316398D01*
D02*
G37*
G36*
X275249Y315791D02*
X274304D01*
Y315791D01*
X274304Y315693D01*
X274165Y315555D01*
X273970Y315555D01*
X273831Y315693D01*
X273831Y315791D01*
X273831Y315889D01*
X273970Y316027D01*
X274068Y316027D01*
Y318941D01*
X275249D01*
Y315791D01*
D02*
G37*
G36*
X422749D02*
X421804D01*
Y315791D01*
X421804Y315693D01*
X421665Y315555D01*
X421470Y315555D01*
X421331Y315693D01*
X421331Y315791D01*
X421331Y315889D01*
X421470Y316027D01*
X421568Y316027D01*
Y318941D01*
X422749D01*
Y315791D01*
D02*
G37*
G36*
X569598Y315890D02*
X568653D01*
Y315890D01*
X568653Y315792D01*
X568515Y315653D01*
X568319Y315653D01*
X568181Y315792D01*
X568181Y315890D01*
X568181Y315987D01*
X568319Y316126D01*
X568417Y316126D01*
Y319039D01*
X569598D01*
Y315890D01*
D02*
G37*
G36*
X538446Y317025D02*
X534469D01*
Y317990D01*
X538446D01*
Y317025D01*
D02*
G37*
G36*
X559666D02*
X555689D01*
Y317990D01*
X559666D01*
Y317025D01*
D02*
G37*
G36*
X118532Y316925D02*
X117586D01*
Y316925D01*
X117586Y316827D01*
X117448Y316689D01*
X117252Y316689D01*
X117114Y316827D01*
X117114Y316925D01*
X117114Y317023D01*
X117252Y317161D01*
X117350Y317161D01*
Y320075D01*
X118532D01*
Y316925D01*
D02*
G37*
G36*
X412816Y316927D02*
X408840D01*
Y317892D01*
X412816D01*
Y316927D01*
D02*
G37*
G36*
X244096D02*
X240120D01*
Y317892D01*
X244096D01*
Y316927D01*
D02*
G37*
G36*
X265316D02*
X261340D01*
Y317892D01*
X265316D01*
Y316927D01*
D02*
G37*
G36*
X391596D02*
X387620D01*
Y317892D01*
X391596D01*
Y316927D01*
D02*
G37*
G36*
X559666Y314467D02*
X555689D01*
Y315431D01*
X559666D01*
Y314467D01*
D02*
G37*
G36*
X185760Y314898D02*
X183240D01*
Y317418D01*
X185760D01*
Y314898D01*
D02*
G37*
G36*
X258819Y315342D02*
X246615D01*
Y337390D01*
X258819D01*
Y315342D01*
D02*
G37*
G36*
X538446Y314467D02*
X534469D01*
Y315431D01*
X538446D01*
Y314467D01*
D02*
G37*
G36*
X265316Y314368D02*
X261340D01*
Y315333D01*
X265316D01*
Y314368D01*
D02*
G37*
G36*
X391596D02*
X387620D01*
Y315333D01*
X391596D01*
Y314368D01*
D02*
G37*
G36*
X412816D02*
X408840D01*
Y315333D01*
X412816D01*
Y314368D01*
D02*
G37*
G36*
X280367Y315791D02*
X279186D01*
Y318941D01*
X280367D01*
Y315791D01*
D02*
G37*
G36*
X427867D02*
X426686D01*
Y318941D01*
X427867D01*
Y315791D01*
D02*
G37*
G36*
X574717Y315890D02*
X573535D01*
Y319039D01*
X574717D01*
Y315890D01*
D02*
G37*
G36*
X108599Y315502D02*
X104622D01*
Y316466D01*
X108599D01*
Y315502D01*
D02*
G37*
G36*
X406319Y315342D02*
X394115D01*
Y337390D01*
X406319D01*
Y315342D01*
D02*
G37*
G36*
X553169Y315441D02*
X540964D01*
Y337488D01*
X553169D01*
Y315441D01*
D02*
G37*
G36*
X87379Y315502D02*
X83402D01*
Y316466D01*
X87379D01*
Y315502D01*
D02*
G37*
G36*
X391596Y322045D02*
X387620D01*
Y323010D01*
X391596D01*
Y322045D01*
D02*
G37*
G36*
X412816D02*
X408840D01*
Y323010D01*
X412816D01*
Y322045D01*
D02*
G37*
G36*
X538446Y322144D02*
X534469D01*
Y323108D01*
X538446D01*
Y322144D01*
D02*
G37*
G36*
X265316Y322045D02*
X261340D01*
Y323010D01*
X265316D01*
Y322045D01*
D02*
G37*
G36*
X58669Y321900D02*
X57134D01*
X57131Y321804D01*
X56994Y321671D01*
X56802Y321671D01*
X56665Y321804D01*
X56662Y321900D01*
X56665Y321995D01*
X56802Y322129D01*
X56898Y322129D01*
Y328100D01*
X58669D01*
Y321900D01*
D02*
G37*
G36*
X69102D02*
X67331D01*
Y328100D01*
X69102D01*
Y321900D01*
D02*
G37*
G36*
X244096Y322045D02*
X240120D01*
Y323010D01*
X244096D01*
Y322045D01*
D02*
G37*
G36*
Y324604D02*
X240120D01*
Y325569D01*
X244096D01*
Y324604D01*
D02*
G37*
G36*
X265316D02*
X261340D01*
Y325569D01*
X265316D01*
Y324604D01*
D02*
G37*
G36*
X391596D02*
X387620D01*
Y325569D01*
X391596D01*
Y324604D01*
D02*
G37*
G36*
X42495Y326335D02*
X42629Y326198D01*
X42629Y326102D01*
X48600D01*
Y324331D01*
X42400D01*
Y325866D01*
X42304Y325869D01*
X42171Y326006D01*
X42171Y326198D01*
X42304Y326335D01*
X42400Y326338D01*
X42495Y326335D01*
D02*
G37*
G36*
X559666Y322144D02*
X555689D01*
Y323108D01*
X559666D01*
Y322144D01*
D02*
G37*
G36*
X87379Y323179D02*
X83402D01*
Y324144D01*
X87379D01*
Y323179D01*
D02*
G37*
G36*
X108599D02*
X104622D01*
Y324144D01*
X108599D01*
Y323179D01*
D02*
G37*
G36*
X265316Y319486D02*
X261340D01*
Y320451D01*
X265316D01*
Y319486D01*
D02*
G37*
G36*
X391596D02*
X387620D01*
Y320451D01*
X391596D01*
Y319486D01*
D02*
G37*
G36*
X412816D02*
X408840D01*
Y320451D01*
X412816D01*
Y319486D01*
D02*
G37*
G36*
X244096D02*
X240120D01*
Y320451D01*
X244096D01*
Y319486D01*
D02*
G37*
G36*
X208100Y317898D02*
X201900D01*
Y319669D01*
X208100D01*
Y317898D01*
D02*
G37*
G36*
X87379Y318061D02*
X83402D01*
Y319026D01*
X87379D01*
Y318061D01*
D02*
G37*
G36*
X108599D02*
X104622D01*
Y319026D01*
X108599D01*
Y318061D01*
D02*
G37*
G36*
X27760Y321240D02*
X25240D01*
Y323760D01*
X27760D01*
Y321240D01*
D02*
G37*
G36*
X354600Y321398D02*
X348400D01*
Y323169D01*
X354600D01*
Y321398D01*
D02*
G37*
G36*
X466760Y321661D02*
X464240D01*
Y324181D01*
X466760D01*
Y321661D01*
D02*
G37*
G36*
X108599Y320620D02*
X104622D01*
Y321585D01*
X108599D01*
Y320620D01*
D02*
G37*
G36*
X538446Y319585D02*
X534469D01*
Y320549D01*
X538446D01*
Y319585D01*
D02*
G37*
G36*
X559666D02*
X555689D01*
Y320549D01*
X559666D01*
Y319585D01*
D02*
G37*
G36*
X87379Y320620D02*
X83402D01*
Y321585D01*
X87379D01*
Y320620D01*
D02*
G37*
G36*
X275532Y304425D02*
X274350D01*
Y307575D01*
X275532D01*
Y304425D01*
D02*
G37*
G36*
X280886Y307673D02*
X280887Y307575D01*
X280887Y307477D01*
X280748Y307339D01*
X280650Y307339D01*
Y304425D01*
X279468D01*
Y307575D01*
X280414D01*
Y307575D01*
X280414Y307673D01*
X280552Y307811D01*
X280748Y307812D01*
X280886Y307673D01*
D02*
G37*
G36*
X519873Y304552D02*
X519876Y304457D01*
X519873Y304362D01*
X519736Y304230D01*
X519545Y304230D01*
X519408Y304361D01*
X519404Y304456D01*
D01*
Y304456D01*
Y304456D01*
X519404D01*
X519408Y304552D01*
X519545Y304684D01*
X519735Y304684D01*
X519873Y304552D01*
D02*
G37*
G36*
X124650Y302925D02*
X123468D01*
Y306075D01*
X124650D01*
Y302925D01*
D02*
G37*
G36*
X27760Y301555D02*
X25240D01*
Y304075D01*
X27760D01*
Y301555D01*
D02*
G37*
G36*
X466760Y301976D02*
X464240D01*
Y304496D01*
X466760D01*
Y301976D01*
D02*
G37*
G36*
X119532Y302925D02*
X118586D01*
Y302925D01*
X118586Y302827D01*
X118448Y302689D01*
X118252Y302688D01*
X118114Y302827D01*
X118114Y302925D01*
X118113Y303023D01*
X118252Y303161D01*
X118350Y303161D01*
Y306075D01*
X119532D01*
Y302925D01*
D02*
G37*
G36*
X380941Y306869D02*
X380941D01*
X381039Y306869D01*
X381177Y306730D01*
X381178Y306535D01*
X381039Y306396D01*
X380941Y306396D01*
X380843Y306396D01*
X380705Y306534D01*
X380705Y306633D01*
X377791D01*
Y307814D01*
X380941D01*
Y306869D01*
D02*
G37*
G36*
X422532Y306425D02*
X421350D01*
Y309575D01*
X422532D01*
Y306425D01*
D02*
G37*
G36*
X427886Y309673D02*
X427886Y309575D01*
X427887Y309477D01*
X427748Y309339D01*
X427650Y309339D01*
Y306425D01*
X426469D01*
Y309575D01*
X427414D01*
Y309575D01*
X427414Y309673D01*
X427552Y309811D01*
X427748Y309812D01*
X427886Y309673D01*
D02*
G37*
G36*
X75575Y306086D02*
X75575D01*
X75673Y306086D01*
X75811Y305948D01*
X75812Y305752D01*
X75673Y305614D01*
X75575Y305613D01*
X75477Y305613D01*
X75339Y305752D01*
X75339Y305850D01*
X72425D01*
Y307031D01*
X75575D01*
Y306086D01*
D02*
G37*
G36*
X570031Y304925D02*
X568850D01*
Y308075D01*
X570031D01*
Y304925D01*
D02*
G37*
G36*
X575386Y308173D02*
X575386Y308075D01*
X575387Y307978D01*
X575248Y307839D01*
X575150Y307839D01*
Y304925D01*
X573969D01*
Y308075D01*
X574914D01*
Y308075D01*
X574914Y308173D01*
X575052Y308311D01*
X575248Y308312D01*
X575386Y308173D01*
D02*
G37*
G36*
X185760Y305055D02*
X183240D01*
Y307575D01*
X185760D01*
Y305055D01*
D02*
G37*
G36*
X582441Y294039D02*
X579291D01*
Y297779D01*
X582441D01*
Y294039D01*
D02*
G37*
G36*
X131374Y295075D02*
X128224D01*
Y298815D01*
X131374D01*
Y295075D01*
D02*
G37*
G36*
X194185Y296571D02*
X194185Y296375D01*
X194047Y296237D01*
X193949Y296237D01*
X193851Y296237D01*
X193713Y296375D01*
X193713Y296571D01*
X193851Y296709D01*
X193949Y296709D01*
X194047Y296709D01*
X194185Y296571D01*
D02*
G37*
G36*
X435591Y293940D02*
X432442D01*
Y297681D01*
X435591D01*
Y293940D01*
D02*
G37*
G36*
X36185Y293071D02*
X36185Y292875D01*
X36047Y292737D01*
X35949Y292737D01*
X35851Y292737D01*
X35713Y292875D01*
X35713Y293071D01*
X35851Y293209D01*
X35949Y293209D01*
X36047Y293209D01*
X36185Y293071D01*
D02*
G37*
G36*
X475185Y293492D02*
X475185Y293296D01*
X475047Y293158D01*
X474949Y293158D01*
X474851Y293158D01*
X474713Y293296D01*
X474713Y293492D01*
X474851Y293630D01*
X474949Y293630D01*
X475047Y293630D01*
X475185Y293492D01*
D02*
G37*
G36*
X288091Y293940D02*
X284942D01*
Y297681D01*
X288091D01*
Y293940D01*
D02*
G37*
G36*
X336685Y298071D02*
X336685Y297875D01*
X336547Y297737D01*
X336449Y297737D01*
X336351Y297737D01*
X336213Y297875D01*
X336213Y298071D01*
X336351Y298209D01*
X336449Y298209D01*
X336547Y298209D01*
X336685Y298071D01*
D02*
G37*
G36*
X73306Y301087D02*
X73309Y300992D01*
X73306Y300897D01*
X73169Y300765D01*
X72978Y300765D01*
X72841Y300897D01*
X72837Y300992D01*
D01*
Y300992D01*
Y300992D01*
X72837D01*
X72841Y301087D01*
X72978Y301219D01*
X73168Y301219D01*
X73306Y301087D01*
D02*
G37*
G36*
X229523Y301453D02*
X229527Y301358D01*
X229523Y301263D01*
X229386Y301131D01*
X229196Y301131D01*
X229059Y301263D01*
X229055Y301358D01*
D01*
Y301358D01*
Y301358D01*
X229055D01*
X229059Y301453D01*
X229196Y301585D01*
X229386Y301585D01*
X229523Y301453D01*
D02*
G37*
G36*
X561299Y297481D02*
X561303Y297386D01*
X561303Y297386D01*
X561299Y297291D01*
X561162Y297159D01*
X560972Y297159D01*
X560835Y297291D01*
X560831Y297386D01*
X560831Y297386D01*
X560835Y297481D01*
X560972Y297612D01*
X561162Y297612D01*
X561299Y297481D01*
D02*
G37*
G36*
X110732Y297016D02*
X110736Y296921D01*
X110736Y296921D01*
X110732Y296827D01*
X110595Y296695D01*
X110405Y296695D01*
X110268Y296826D01*
X110264Y296921D01*
X110264Y296921D01*
X110268Y297016D01*
X110405Y297148D01*
X110595Y297148D01*
X110732Y297016D01*
D02*
G37*
G36*
X266949Y297382D02*
X266953Y297287D01*
X266953Y297287D01*
X266949Y297193D01*
X266812Y297061D01*
X266622Y297061D01*
X266485Y297192D01*
X266481Y297287D01*
X266481Y297287D01*
X266485Y297382D01*
X266622Y297514D01*
X266812Y297514D01*
X266949Y297382D01*
D02*
G37*
G36*
X414449D02*
X414453Y297287D01*
X414453Y297287D01*
X414449Y297193D01*
X414312Y297061D01*
X414122Y297061D01*
X413985Y297192D01*
X413981Y297287D01*
X413981Y297287D01*
X413985Y297382D01*
X414122Y297514D01*
X414312Y297514D01*
X414449Y297382D01*
D02*
G37*
G36*
X412816Y311809D02*
X408840D01*
Y312773D01*
X412816D01*
Y311809D01*
D02*
G37*
G36*
X466760Y311819D02*
X464240D01*
Y314339D01*
X466760D01*
Y311819D01*
D02*
G37*
G36*
X538446Y311907D02*
X534469D01*
Y312872D01*
X538446D01*
Y311907D01*
D02*
G37*
G36*
X391596Y311809D02*
X387620D01*
Y312773D01*
X391596D01*
Y311809D01*
D02*
G37*
G36*
X380941Y311751D02*
X377791D01*
Y312932D01*
X380941D01*
Y311751D01*
D02*
G37*
G36*
X244096Y311809D02*
X240120D01*
Y312773D01*
X244096D01*
Y311809D01*
D02*
G37*
G36*
X265316D02*
X261340D01*
Y312773D01*
X265316D01*
Y311809D01*
D02*
G37*
G36*
X48600Y313898D02*
X42400D01*
Y315669D01*
X48600D01*
Y313898D01*
D02*
G37*
G36*
X528539Y313901D02*
X525390D01*
Y315083D01*
X528539D01*
Y313901D01*
D02*
G37*
G36*
X244096Y314368D02*
X240120D01*
Y315333D01*
X244096D01*
Y314368D01*
D02*
G37*
G36*
X108599Y312943D02*
X104622D01*
Y313908D01*
X108599D01*
Y312943D01*
D02*
G37*
G36*
X559666Y311907D02*
X555689D01*
Y312872D01*
X559666D01*
Y311907D01*
D02*
G37*
G36*
X234575Y311968D02*
X231425D01*
Y313150D01*
X234575D01*
Y311968D01*
D02*
G37*
G36*
X87379Y312943D02*
X83402D01*
Y313908D01*
X87379D01*
Y312943D01*
D02*
G37*
G36*
X244096Y309250D02*
X240120D01*
Y310214D01*
X244096D01*
Y309250D01*
D02*
G37*
G36*
X265316D02*
X261340D01*
Y310214D01*
X265316D01*
Y309250D01*
D02*
G37*
G36*
X391596D02*
X387620D01*
Y310214D01*
X391596D01*
Y309250D01*
D02*
G37*
G36*
X528539Y309019D02*
X528540D01*
X528637Y309019D01*
X528776Y308881D01*
X528776Y308685D01*
X528638Y308547D01*
X528540Y308546D01*
X528442Y308546D01*
X528303Y308685D01*
X528303Y308783D01*
X525390D01*
Y309964D01*
X528539D01*
Y309019D01*
D02*
G37*
G36*
X328260Y306555D02*
X325740D01*
Y309075D01*
X328260D01*
Y306555D01*
D02*
G37*
G36*
X234575Y307086D02*
X234575D01*
X234673Y307086D01*
X234811Y306948D01*
X234812Y306752D01*
X234673Y306614D01*
X234575Y306613D01*
X234477Y306613D01*
X234339Y306752D01*
X234339Y306850D01*
X231425D01*
Y308032D01*
X234575D01*
Y307086D01*
D02*
G37*
G36*
X371023Y306953D02*
X371027Y306858D01*
X371023Y306763D01*
X370886Y306631D01*
X370696Y306631D01*
X370559Y306763D01*
X370555Y306858D01*
D01*
Y306858D01*
Y306858D01*
X370555D01*
X370559Y306953D01*
X370696Y307085D01*
X370886Y307085D01*
X371023Y306953D01*
D02*
G37*
G36*
X108599Y310384D02*
X104622D01*
Y311348D01*
X108599D01*
Y310384D01*
D02*
G37*
G36*
X75575Y310968D02*
X72425D01*
Y312150D01*
X75575D01*
Y310968D01*
D02*
G37*
G36*
X27760Y311398D02*
X25240D01*
Y313918D01*
X27760D01*
Y311398D01*
D02*
G37*
G36*
X87379Y310384D02*
X83402D01*
Y311348D01*
X87379D01*
Y310384D01*
D02*
G37*
G36*
X412816Y309250D02*
X408840D01*
Y310214D01*
X412816D01*
Y309250D01*
D02*
G37*
G36*
X538446Y309348D02*
X534469D01*
Y310313D01*
X538446D01*
Y309348D01*
D02*
G37*
G36*
X559666D02*
X555689D01*
Y310313D01*
X559666D01*
Y309348D01*
D02*
G37*
G36*
Y340057D02*
X555689D01*
Y341022D01*
X559666D01*
Y340057D01*
D02*
G37*
G36*
X363398Y341452D02*
X363398D01*
X363496Y341452D01*
X363634Y341314D01*
X363634Y341118D01*
X363495Y340980D01*
X363398Y340980D01*
X363300Y340980D01*
X363162Y341118D01*
X363162Y341216D01*
X360248D01*
Y342397D01*
X363398D01*
Y341452D01*
D02*
G37*
G36*
X87379Y341092D02*
X83402D01*
Y342057D01*
X87379D01*
Y341092D01*
D02*
G37*
G36*
X538446Y340057D02*
X534469D01*
Y341022D01*
X538446D01*
Y340057D01*
D02*
G37*
G36*
X265316Y339959D02*
X261340D01*
Y340923D01*
X265316D01*
Y339959D01*
D02*
G37*
G36*
X391596D02*
X387620D01*
Y340923D01*
X391596D01*
Y339959D01*
D02*
G37*
G36*
X412816D02*
X408840D01*
Y340923D01*
X412816D01*
Y339959D01*
D02*
G37*
G36*
X58680Y341469D02*
X55531D01*
Y342650D01*
X58680D01*
Y341469D01*
D02*
G37*
G36*
X67161Y342748D02*
X67161Y342650D01*
X70075D01*
Y341469D01*
X66925D01*
Y342414D01*
X66925D01*
X66827Y342414D01*
X66689Y342552D01*
X66688Y342748D01*
X66827Y342886D01*
X66925Y342886D01*
X67023Y342887D01*
X67161Y342748D01*
D02*
G37*
G36*
X508747Y341933D02*
X505598D01*
Y343114D01*
X508747D01*
Y341933D01*
D02*
G37*
G36*
X47161Y342748D02*
X47161Y342650D01*
X50075D01*
Y341469D01*
X46925D01*
Y342414D01*
X46925D01*
X46827Y342414D01*
X46689Y342552D01*
X46688Y342748D01*
X46827Y342886D01*
X46925Y342886D01*
X47023Y342887D01*
X47161Y342748D01*
D02*
G37*
G36*
X108599Y341092D02*
X104622D01*
Y342057D01*
X108599D01*
Y341092D01*
D02*
G37*
G36*
X354792Y341216D02*
X351643D01*
Y342397D01*
X354792D01*
Y341216D01*
D02*
G37*
G36*
X377292D02*
X374143D01*
Y342397D01*
X377292D01*
Y341216D01*
D02*
G37*
G36*
X391596Y337400D02*
X387620D01*
Y338364D01*
X391596D01*
Y337400D01*
D02*
G37*
G36*
X412816D02*
X408840D01*
Y338364D01*
X412816D01*
Y337400D01*
D02*
G37*
G36*
X538446Y337498D02*
X534469D01*
Y338462D01*
X538446D01*
Y337498D01*
D02*
G37*
G36*
X265316Y337400D02*
X261340D01*
Y338364D01*
X265316D01*
Y337400D01*
D02*
G37*
G36*
X522642Y336815D02*
X519492D01*
Y337996D01*
X522642D01*
Y336815D01*
D02*
G37*
G36*
X500075Y336850D02*
X496925D01*
Y338032D01*
X500075D01*
Y336850D01*
D02*
G37*
G36*
X244096Y337400D02*
X240120D01*
Y338364D01*
X244096D01*
Y337400D01*
D02*
G37*
G36*
X206792Y339716D02*
X203643D01*
Y340897D01*
X206792D01*
Y339716D01*
D02*
G37*
G36*
X229292D02*
X226143D01*
Y340897D01*
X229292D01*
Y339716D01*
D02*
G37*
G36*
X244096Y339959D02*
X240120D01*
Y340923D01*
X244096D01*
Y339959D01*
D02*
G37*
G36*
X215398Y339952D02*
X215398D01*
X215496Y339952D01*
X215634Y339814D01*
X215634Y339618D01*
X215495Y339480D01*
X215398Y339480D01*
X215300Y339480D01*
X215162Y339618D01*
X215162Y339716D01*
X212248D01*
Y340897D01*
X215398D01*
Y339952D01*
D02*
G37*
G36*
X559666Y337498D02*
X555689D01*
Y338462D01*
X559666D01*
Y337498D01*
D02*
G37*
G36*
X87379Y338533D02*
X83402D01*
Y339498D01*
X87379D01*
Y338533D01*
D02*
G37*
G36*
X108599D02*
X104622D01*
Y339498D01*
X108599D01*
Y338533D01*
D02*
G37*
G36*
X374378Y347614D02*
X374379Y347516D01*
X377292D01*
Y346335D01*
X374143D01*
Y347280D01*
X374143D01*
X374045Y347280D01*
X373906Y347418D01*
X373906Y347614D01*
X374044Y347752D01*
X374142Y347752D01*
X374240Y347753D01*
X374378Y347614D01*
D02*
G37*
G36*
X83498Y346828D02*
X83633Y346691D01*
X83634Y346498D01*
X83499Y346360D01*
X83403Y346358D01*
X83403Y346358D01*
X83306Y346360D01*
X83171Y346497D01*
X83171Y346690D01*
X83306Y346828D01*
X83402Y346830D01*
X83402Y346830D01*
X83498Y346828D01*
D02*
G37*
G36*
X237032Y349925D02*
X236086D01*
Y349925D01*
X236086Y349827D01*
X235948Y349689D01*
X235752Y349688D01*
X235614Y349827D01*
X235613Y349925D01*
X235613Y350023D01*
X235752Y350161D01*
X235850Y350161D01*
Y353075D01*
X237032D01*
Y349925D01*
D02*
G37*
G36*
X363398Y346335D02*
X360248D01*
Y347516D01*
X363398D01*
Y346335D01*
D02*
G37*
G36*
X387716Y345694D02*
X387851Y345557D01*
X387851Y345364D01*
X387716Y345226D01*
X387620Y345224D01*
X387620Y345224D01*
X387524Y345226D01*
X387389Y345363D01*
X387388Y345556D01*
X387523Y345694D01*
X387619Y345696D01*
X387619Y345696D01*
X387716Y345694D01*
D02*
G37*
G36*
X534565Y345793D02*
X534700Y345655D01*
X534701Y345462D01*
X534566Y345324D01*
X534470Y345322D01*
X534470Y345322D01*
X534373Y345324D01*
X534238Y345462D01*
X534238Y345655D01*
X534373Y345792D01*
X534469Y345795D01*
X534469Y345795D01*
X534565Y345793D01*
D02*
G37*
G36*
X351878Y347614D02*
X351879Y347516D01*
X354792D01*
Y346335D01*
X351643D01*
Y347280D01*
X351642D01*
X351545Y347280D01*
X351406Y347418D01*
X351406Y347614D01*
X351544Y347752D01*
X351642Y347752D01*
X351740Y347753D01*
X351878Y347614D01*
D02*
G37*
G36*
X76150Y350925D02*
X74968D01*
Y354075D01*
X76150D01*
Y350925D01*
D02*
G37*
G36*
X384531Y352925D02*
X383586D01*
Y352925D01*
X383586Y352827D01*
X383448Y352689D01*
X383252Y352688D01*
X383114Y352827D01*
X383114Y352925D01*
X383113Y353023D01*
X383252Y353161D01*
X383350Y353161D01*
Y356075D01*
X384531D01*
Y352925D01*
D02*
G37*
G36*
X389650D02*
X388469D01*
Y356075D01*
X389650D01*
Y352925D01*
D02*
G37*
G36*
X71031Y350925D02*
X70086D01*
Y350925D01*
X70086Y350827D01*
X69948Y350689D01*
X69752Y350688D01*
X69614Y350827D01*
X69613Y350925D01*
X69613Y351023D01*
X69752Y351161D01*
X69850Y351161D01*
Y354075D01*
X71031D01*
Y350925D01*
D02*
G37*
G36*
X242150Y349925D02*
X240968D01*
Y353075D01*
X242150D01*
Y349925D01*
D02*
G37*
G36*
X531032Y350425D02*
X530086D01*
Y350425D01*
X530086Y350327D01*
X529948Y350189D01*
X529752Y350188D01*
X529614Y350327D01*
X529613Y350425D01*
X529613Y350522D01*
X529752Y350661D01*
X529850Y350661D01*
Y353575D01*
X531032D01*
Y350425D01*
D02*
G37*
G36*
X536150D02*
X534969D01*
Y353575D01*
X536150D01*
Y350425D01*
D02*
G37*
G36*
X391596Y342518D02*
X387620D01*
Y343482D01*
X391596D01*
Y342518D01*
D02*
G37*
G36*
X412816D02*
X408840D01*
Y343482D01*
X412816D01*
Y342518D01*
D02*
G37*
G36*
X538446Y342616D02*
X534469D01*
Y343581D01*
X538446D01*
Y342616D01*
D02*
G37*
G36*
X265316Y342518D02*
X261340D01*
Y343482D01*
X265316D01*
Y342518D01*
D02*
G37*
G36*
X519728Y343213D02*
X519728Y343114D01*
X522642D01*
Y341933D01*
X519492D01*
Y342878D01*
X519492D01*
X519394Y342878D01*
X519256Y343017D01*
X519255Y343212D01*
X519394Y343351D01*
X519492Y343351D01*
X519590Y343351D01*
X519728Y343213D01*
D02*
G37*
G36*
X497161Y343248D02*
X497161Y343150D01*
X500075D01*
Y341968D01*
X496925D01*
Y342914D01*
X496925D01*
X496827Y342914D01*
X496689Y343052D01*
X496688Y343248D01*
X496827Y343386D01*
X496925Y343387D01*
X497022Y343387D01*
X497161Y343248D01*
D02*
G37*
G36*
X244096Y342518D02*
X240120D01*
Y343482D01*
X244096D01*
Y342518D01*
D02*
G37*
G36*
X215398Y344834D02*
X212248D01*
Y346016D01*
X215398D01*
Y344834D01*
D02*
G37*
G36*
X226378Y346114D02*
X226379Y346016D01*
X229292D01*
Y344834D01*
X226143D01*
Y345780D01*
X226143D01*
X226045Y345780D01*
X225906Y345918D01*
X225906Y346114D01*
X226044Y346252D01*
X226142Y346252D01*
X226240Y346253D01*
X226378Y346114D01*
D02*
G37*
G36*
X240216Y345694D02*
X240351Y345557D01*
X240351Y345364D01*
X240216Y345226D01*
X240120Y345224D01*
X240120Y345224D01*
X240024Y345226D01*
X239889Y345363D01*
X239888Y345556D01*
X240023Y345694D01*
X240120Y345696D01*
X240120Y345696D01*
X240216Y345694D01*
D02*
G37*
G36*
X203878Y346114D02*
X203879Y346016D01*
X206792D01*
Y344834D01*
X203643D01*
Y345780D01*
X203643D01*
X203545Y345780D01*
X203406Y345918D01*
X203406Y346114D01*
X203544Y346252D01*
X203642Y346252D01*
X203740Y346253D01*
X203878Y346114D01*
D02*
G37*
G36*
X559666Y342616D02*
X555689D01*
Y343581D01*
X559666D01*
Y342616D01*
D02*
G37*
G36*
X87379Y343652D02*
X83402D01*
Y344616D01*
X87379D01*
Y343652D01*
D02*
G37*
G36*
X108599D02*
X104622D01*
Y344616D01*
X108599D01*
Y343652D01*
D02*
G37*
G36*
X87379Y328297D02*
X83402D01*
Y329262D01*
X87379D01*
Y328297D01*
D02*
G37*
G36*
X108599D02*
X104622D01*
Y329262D01*
X108599D01*
Y328297D01*
D02*
G37*
G36*
X201995Y330335D02*
X202129Y330198D01*
X202129Y330102D01*
X208100D01*
Y328331D01*
X201900D01*
Y329866D01*
X201804Y329869D01*
X201671Y330006D01*
X201671Y330198D01*
X201804Y330335D01*
X201900Y330338D01*
X201995Y330335D01*
D02*
G37*
G36*
X490995Y329335D02*
X491129Y329198D01*
X491129Y329102D01*
X497100D01*
Y327331D01*
X490900D01*
Y328866D01*
X490804Y328869D01*
X490671Y329006D01*
X490670Y329198D01*
X490804Y329335D01*
X490900Y329338D01*
X490995Y329335D01*
D02*
G37*
G36*
X412816Y327163D02*
X408840D01*
Y328128D01*
X412816D01*
Y327163D01*
D02*
G37*
G36*
X538446Y327262D02*
X534469D01*
Y328226D01*
X538446D01*
Y327262D01*
D02*
G37*
G36*
X559666D02*
X555689D01*
Y328226D01*
X559666D01*
Y327262D01*
D02*
G37*
G36*
X391596Y329722D02*
X387620D01*
Y330687D01*
X391596D01*
Y329722D01*
D02*
G37*
G36*
X412816D02*
X408840D01*
Y330687D01*
X412816D01*
Y329722D01*
D02*
G37*
G36*
X538446Y329821D02*
X534469D01*
Y330785D01*
X538446D01*
Y329821D01*
D02*
G37*
G36*
X265316Y329722D02*
X261340D01*
Y330687D01*
X265316D01*
Y329722D01*
D02*
G37*
G36*
X366887Y329266D02*
X365352D01*
X365349Y329170D01*
X365212Y329037D01*
X365020Y329036D01*
X364882Y329170D01*
X364880Y329266D01*
X364882Y329361D01*
X365020Y329495D01*
X365115Y329495D01*
Y335466D01*
X366887D01*
Y329266D01*
D02*
G37*
G36*
X377320D02*
X375548D01*
Y335466D01*
X377320D01*
Y329266D01*
D02*
G37*
G36*
X244096Y329722D02*
X240120D01*
Y330687D01*
X244096D01*
Y329722D01*
D02*
G37*
G36*
X185760Y324740D02*
X183240D01*
Y327260D01*
X185760D01*
Y324740D01*
D02*
G37*
G36*
X519669Y324864D02*
X517898D01*
Y331065D01*
X519669D01*
Y324864D01*
D02*
G37*
G36*
X87379Y325738D02*
X83402D01*
Y326703D01*
X87379D01*
Y325738D01*
D02*
G37*
G36*
X559666Y324703D02*
X555689D01*
Y325667D01*
X559666D01*
Y324703D01*
D02*
G37*
G36*
X412816Y324604D02*
X408840D01*
Y325569D01*
X412816D01*
Y324604D01*
D02*
G37*
G36*
X509236Y324864D02*
X507701D01*
X507698Y324769D01*
X507561Y324635D01*
X507370Y324635D01*
X507232Y324768D01*
X507229Y324864D01*
X507232Y324960D01*
X507369Y325093D01*
X507465Y325094D01*
Y331065D01*
X509236D01*
Y324864D01*
D02*
G37*
G36*
X538446Y324703D02*
X534469D01*
Y325667D01*
X538446D01*
Y324703D01*
D02*
G37*
G36*
X244096Y327163D02*
X240120D01*
Y328128D01*
X244096D01*
Y327163D01*
D02*
G37*
G36*
X265316D02*
X261340D01*
Y328128D01*
X265316D01*
Y327163D01*
D02*
G37*
G36*
X391596D02*
X387620D01*
Y328128D01*
X391596D01*
Y327163D01*
D02*
G37*
G36*
X229320Y326766D02*
X227548D01*
Y332966D01*
X229320D01*
Y326766D01*
D02*
G37*
G36*
X108599Y325738D02*
X104622D01*
Y326703D01*
X108599D01*
Y325738D01*
D02*
G37*
G36*
X328260Y326240D02*
X325740D01*
Y328760D01*
X328260D01*
Y326240D01*
D02*
G37*
G36*
X218887Y326766D02*
X217352D01*
X217349Y326670D01*
X217212Y326537D01*
X217020Y326536D01*
X216882Y326670D01*
X216880Y326766D01*
X216882Y326861D01*
X217020Y326995D01*
X217115Y326995D01*
Y332966D01*
X218887D01*
Y326766D01*
D02*
G37*
G36*
X412816Y334840D02*
X408840D01*
Y335805D01*
X412816D01*
Y334840D01*
D02*
G37*
G36*
X538446Y334939D02*
X534469D01*
Y335904D01*
X538446D01*
Y334939D01*
D02*
G37*
G36*
X559666D02*
X555689D01*
Y335904D01*
X559666D01*
Y334939D01*
D02*
G37*
G36*
X391596Y334840D02*
X387620D01*
Y335805D01*
X391596D01*
Y334840D01*
D02*
G37*
G36*
X185760Y334583D02*
X183240D01*
Y337103D01*
X185760D01*
Y334583D01*
D02*
G37*
G36*
X244096Y334840D02*
X240120D01*
Y335805D01*
X244096D01*
Y334840D01*
D02*
G37*
G36*
X265316D02*
X261340D01*
Y335805D01*
X265316D01*
Y334840D01*
D02*
G37*
G36*
X50075Y336350D02*
X46925D01*
Y337531D01*
X50075D01*
Y336350D01*
D02*
G37*
G36*
X70075D02*
X66925D01*
Y337531D01*
X70075D01*
Y336350D01*
D02*
G37*
G36*
X508747Y337051D02*
X508747D01*
X508845Y337051D01*
X508983Y336912D01*
X508983Y336717D01*
X508845Y336578D01*
X508747Y336578D01*
X508649Y336578D01*
X508511Y336717D01*
X508511Y336815D01*
X505598D01*
Y337996D01*
X508747D01*
Y337051D01*
D02*
G37*
G36*
X58680Y336586D02*
X58680D01*
X58778Y336586D01*
X58916Y336448D01*
X58916Y336252D01*
X58778Y336114D01*
X58680Y336114D01*
X58582Y336114D01*
X58444Y336252D01*
X58444Y336350D01*
X55531D01*
Y337531D01*
X58680D01*
Y336586D01*
D02*
G37*
G36*
X87379Y335974D02*
X83402D01*
Y336939D01*
X87379D01*
Y335974D01*
D02*
G37*
G36*
X108599D02*
X104622D01*
Y336939D01*
X108599D01*
Y335974D01*
D02*
G37*
G36*
X328260Y336083D02*
X325740D01*
Y338603D01*
X328260D01*
Y336083D01*
D02*
G37*
G36*
X466760Y331504D02*
X464240D01*
Y334024D01*
X466760D01*
Y331504D01*
D02*
G37*
G36*
X348495Y333835D02*
X348629Y333698D01*
X348629Y333602D01*
X354600D01*
Y331831D01*
X348400D01*
Y333366D01*
X348304Y333369D01*
X348171Y333506D01*
X348170Y333698D01*
X348304Y333835D01*
X348400Y333838D01*
X348495Y333835D01*
D02*
G37*
G36*
X244096Y332281D02*
X240120D01*
Y333246D01*
X244096D01*
Y332281D01*
D02*
G37*
G36*
X27760Y331083D02*
X25240D01*
Y333603D01*
X27760D01*
Y331083D01*
D02*
G37*
G36*
X559666Y329821D02*
X555689D01*
Y330785D01*
X559666D01*
Y329821D01*
D02*
G37*
G36*
X87379Y330856D02*
X83402D01*
Y331821D01*
X87379D01*
Y330856D01*
D02*
G37*
G36*
X108599D02*
X104622D01*
Y331821D01*
X108599D01*
Y330856D01*
D02*
G37*
G36*
X559666Y332380D02*
X555689D01*
Y333344D01*
X559666D01*
Y332380D01*
D02*
G37*
G36*
X87379Y333415D02*
X83402D01*
Y334380D01*
X87379D01*
Y333415D01*
D02*
G37*
G36*
X108599D02*
X104622D01*
Y334380D01*
X108599D01*
Y333415D01*
D02*
G37*
G36*
X538446Y332380D02*
X534469D01*
Y333344D01*
X538446D01*
Y332380D01*
D02*
G37*
G36*
X265316Y332281D02*
X261340D01*
Y333246D01*
X265316D01*
Y332281D01*
D02*
G37*
G36*
X391596D02*
X387620D01*
Y333246D01*
X391596D01*
Y332281D01*
D02*
G37*
G36*
X412816D02*
X408840D01*
Y333246D01*
X412816D01*
Y332281D01*
D02*
G37*
G36*
X69102Y223400D02*
X67331D01*
Y229600D01*
X69102D01*
Y223400D01*
D02*
G37*
G36*
X373602D02*
X371831D01*
Y229600D01*
X373602D01*
Y223400D01*
D02*
G37*
G36*
X216887Y223766D02*
X215352D01*
X215349Y223670D01*
X215212Y223537D01*
X215020Y223536D01*
X214882Y223670D01*
X214880Y223766D01*
X214882Y223861D01*
X215020Y223995D01*
X215115Y223995D01*
Y229966D01*
X216887D01*
Y223766D01*
D02*
G37*
G36*
X363169Y223400D02*
X361634D01*
X361631Y223304D01*
X361494Y223171D01*
X361302Y223170D01*
X361165Y223304D01*
X361162Y223400D01*
X361165Y223495D01*
X361302Y223629D01*
X361398Y223629D01*
Y229600D01*
X363169D01*
Y223400D01*
D02*
G37*
G36*
X510169Y222900D02*
X508634D01*
X508631Y222804D01*
X508494Y222671D01*
X508302Y222671D01*
X508165Y222804D01*
X508162Y222900D01*
X508165Y222995D01*
X508302Y223129D01*
X508398Y223129D01*
Y229100D01*
X510169D01*
Y222900D01*
D02*
G37*
G36*
X520602D02*
X518831D01*
Y229100D01*
X520602D01*
Y222900D01*
D02*
G37*
G36*
X58669Y223400D02*
X57134D01*
X57131Y223304D01*
X56994Y223171D01*
X56802Y223170D01*
X56665Y223304D01*
X56662Y223400D01*
X56665Y223495D01*
X56802Y223629D01*
X56898Y223629D01*
Y229600D01*
X58669D01*
Y223400D01*
D02*
G37*
G36*
X243596Y224104D02*
X239620D01*
Y225069D01*
X243596D01*
Y224104D01*
D02*
G37*
G36*
X264816D02*
X260840D01*
Y225069D01*
X264816D01*
Y224104D01*
D02*
G37*
G36*
X390596Y224163D02*
X386620D01*
Y225128D01*
X390596D01*
Y224163D01*
D02*
G37*
G36*
X24260Y223898D02*
X21740D01*
Y226418D01*
X24260D01*
Y223898D01*
D02*
G37*
G36*
X87096Y223604D02*
X83120D01*
Y224569D01*
X87096D01*
Y223604D01*
D02*
G37*
G36*
X108316D02*
X104340D01*
Y224569D01*
X108316D01*
Y223604D01*
D02*
G37*
G36*
X227320Y223766D02*
X225548D01*
Y229966D01*
X227320D01*
Y223766D01*
D02*
G37*
G36*
X108316Y221045D02*
X104340D01*
Y222010D01*
X108316D01*
Y221045D01*
D02*
G37*
G36*
X179260Y221082D02*
X176740D01*
Y223601D01*
X179260D01*
Y221082D01*
D02*
G37*
G36*
X321760Y221161D02*
X319240D01*
Y223681D01*
X321760D01*
Y221161D01*
D02*
G37*
G36*
X87096Y221045D02*
X83120D01*
Y222010D01*
X87096D01*
Y221045D01*
D02*
G37*
G36*
X411816Y219045D02*
X407840D01*
Y220010D01*
X411816D01*
Y219045D01*
D02*
G37*
G36*
X537096D02*
X533120D01*
Y220010D01*
X537096D01*
Y219045D01*
D02*
G37*
G36*
X558316D02*
X554340D01*
Y220010D01*
X558316D01*
Y219045D01*
D02*
G37*
G36*
X537096Y221604D02*
X533120D01*
Y222569D01*
X537096D01*
Y221604D01*
D02*
G37*
G36*
X558316D02*
X554340D01*
Y222569D01*
X558316D01*
Y221604D01*
D02*
G37*
G36*
X473260Y221661D02*
X470740D01*
Y224181D01*
X473260D01*
Y221661D01*
D02*
G37*
G36*
X411816Y221604D02*
X407840D01*
Y222569D01*
X411816D01*
Y221604D01*
D02*
G37*
G36*
X243596Y221545D02*
X239620D01*
Y222510D01*
X243596D01*
Y221545D01*
D02*
G37*
G36*
X264816D02*
X260840D01*
Y222510D01*
X264816D01*
Y221545D01*
D02*
G37*
G36*
X390596Y221604D02*
X386620D01*
Y222569D01*
X390596D01*
Y221604D01*
D02*
G37*
G36*
X264816Y229222D02*
X260840D01*
Y230187D01*
X264816D01*
Y229222D01*
D02*
G37*
G36*
X390596Y229281D02*
X386620D01*
Y230246D01*
X390596D01*
Y229281D01*
D02*
G37*
G36*
X411816D02*
X407840D01*
Y230246D01*
X411816D01*
Y229281D01*
D02*
G37*
G36*
X243596Y229222D02*
X239620D01*
Y230187D01*
X243596D01*
Y229222D01*
D02*
G37*
G36*
X558316Y226722D02*
X554340D01*
Y227687D01*
X558316D01*
Y226722D01*
D02*
G37*
G36*
X87096Y228722D02*
X83120D01*
Y229687D01*
X87096D01*
Y228722D01*
D02*
G37*
G36*
X108316D02*
X104340D01*
Y229687D01*
X108316D01*
Y228722D01*
D02*
G37*
G36*
X87096Y231281D02*
X83120D01*
Y232246D01*
X87096D01*
Y231281D01*
D02*
G37*
G36*
X108316D02*
X104340D01*
Y232246D01*
X108316D01*
Y231281D01*
D02*
G37*
G36*
X473260Y231504D02*
X470740D01*
Y234024D01*
X473260D01*
Y231504D01*
D02*
G37*
G36*
X321760Y231004D02*
X319240D01*
Y233524D01*
X321760D01*
Y231004D01*
D02*
G37*
G36*
X537096Y229281D02*
X533120D01*
Y230246D01*
X537096D01*
Y229281D01*
D02*
G37*
G36*
X558316D02*
X554340D01*
Y230246D01*
X558316D01*
Y229281D01*
D02*
G37*
G36*
X179260Y230925D02*
X176740D01*
Y233444D01*
X179260D01*
Y230925D01*
D02*
G37*
G36*
X40495Y227835D02*
X40629Y227698D01*
X40629Y227602D01*
X46600D01*
Y225831D01*
X40400D01*
Y227366D01*
X40304Y227369D01*
X40171Y227506D01*
X40170Y227697D01*
X40304Y227835D01*
X40400Y227838D01*
X40495Y227835D01*
D02*
G37*
G36*
X344495D02*
X344629Y227698D01*
X344629Y227602D01*
X350600D01*
Y225831D01*
X344400D01*
Y227366D01*
X344304Y227369D01*
X344171Y227506D01*
X344170Y227697D01*
X344304Y227835D01*
X344400Y227838D01*
X344495Y227835D01*
D02*
G37*
G36*
X87096Y226163D02*
X83120D01*
Y227128D01*
X87096D01*
Y226163D01*
D02*
G37*
G36*
X493495Y227335D02*
X493629Y227198D01*
X493629Y227102D01*
X499600D01*
Y225331D01*
X493400D01*
Y226866D01*
X493304Y226869D01*
X493171Y227006D01*
X493170Y227198D01*
X493304Y227335D01*
X493400Y227338D01*
X493495Y227335D01*
D02*
G37*
G36*
X411816Y224163D02*
X407840D01*
Y225128D01*
X411816D01*
Y224163D01*
D02*
G37*
G36*
X537096D02*
X533120D01*
Y225128D01*
X537096D01*
Y224163D01*
D02*
G37*
G36*
X558316D02*
X554340D01*
Y225128D01*
X558316D01*
Y224163D01*
D02*
G37*
G36*
X390596Y226722D02*
X386620D01*
Y227687D01*
X390596D01*
Y226722D01*
D02*
G37*
G36*
X411816D02*
X407840D01*
Y227687D01*
X411816D01*
Y226722D01*
D02*
G37*
G36*
X537096D02*
X533120D01*
Y227687D01*
X537096D01*
Y226722D01*
D02*
G37*
G36*
X264816Y226663D02*
X260840D01*
Y227628D01*
X264816D01*
Y226663D01*
D02*
G37*
G36*
X108316Y226163D02*
X104340D01*
Y227128D01*
X108316D01*
Y226163D01*
D02*
G37*
G36*
X198495Y228335D02*
X198629Y228198D01*
X198629Y228102D01*
X204600D01*
Y226331D01*
X198400D01*
Y227866D01*
X198304Y227869D01*
X198171Y228006D01*
X198170Y228198D01*
X198304Y228335D01*
X198400Y228338D01*
X198495Y228335D01*
D02*
G37*
G36*
X243596Y226663D02*
X239620D01*
Y227628D01*
X243596D01*
Y226663D01*
D02*
G37*
G36*
X87096Y213368D02*
X83120D01*
Y214333D01*
X87096D01*
Y213368D01*
D02*
G37*
G36*
X108316D02*
X104340D01*
Y214333D01*
X108316D01*
Y213368D01*
D02*
G37*
G36*
X243596Y213868D02*
X239620D01*
Y214832D01*
X243596D01*
Y213868D01*
D02*
G37*
G36*
X380441Y213251D02*
X377291D01*
Y214432D01*
X380441D01*
Y213251D01*
D02*
G37*
G36*
X558316Y211368D02*
X554340D01*
Y212333D01*
X558316D01*
Y211368D01*
D02*
G37*
G36*
X473260Y211819D02*
X470740D01*
Y214339D01*
X473260D01*
Y211819D01*
D02*
G37*
G36*
X77441Y213251D02*
X74291D01*
Y214432D01*
X77441D01*
Y213251D01*
D02*
G37*
G36*
X558316Y213927D02*
X554340D01*
Y214892D01*
X558316D01*
Y213927D01*
D02*
G37*
G36*
X24260Y214055D02*
X21740D01*
Y216575D01*
X24260D01*
Y214055D01*
D02*
G37*
G36*
X101819Y214342D02*
X89615D01*
Y236390D01*
X101819D01*
Y214342D01*
D02*
G37*
G36*
X537096Y213927D02*
X533120D01*
Y214892D01*
X537096D01*
Y213927D01*
D02*
G37*
G36*
X264816Y213868D02*
X260840D01*
Y214832D01*
X264816D01*
Y213868D01*
D02*
G37*
G36*
X390596Y213927D02*
X386620D01*
Y214892D01*
X390596D01*
Y213927D01*
D02*
G37*
G36*
X411816D02*
X407840D01*
Y214892D01*
X411816D01*
Y213927D01*
D02*
G37*
G36*
X87096Y210809D02*
X83120D01*
Y211773D01*
X87096D01*
Y210809D01*
D02*
G37*
G36*
X108316D02*
X104340D01*
Y211773D01*
X108316D01*
Y210809D01*
D02*
G37*
G36*
X233075Y210968D02*
X229925D01*
Y212150D01*
X233075D01*
Y210968D01*
D02*
G37*
G36*
X558316Y208809D02*
X554340D01*
Y209773D01*
X558316D01*
Y208809D01*
D02*
G37*
G36*
X390596D02*
X386620D01*
Y209773D01*
X390596D01*
Y208809D01*
D02*
G37*
G36*
X411816D02*
X407840D01*
Y209773D01*
X411816D01*
Y208809D01*
D02*
G37*
G36*
X537096D02*
X533120D01*
Y209773D01*
X537096D01*
Y208809D01*
D02*
G37*
G36*
X390596Y211368D02*
X386620D01*
Y212333D01*
X390596D01*
Y211368D01*
D02*
G37*
G36*
X411816D02*
X407840D01*
Y212333D01*
X411816D01*
Y211368D01*
D02*
G37*
G36*
X537096D02*
X533120D01*
Y212333D01*
X537096D01*
Y211368D01*
D02*
G37*
G36*
X321760Y211319D02*
X319240D01*
Y213839D01*
X321760D01*
Y211319D01*
D02*
G37*
G36*
X179260Y211240D02*
X176740D01*
Y213759D01*
X179260D01*
Y211240D01*
D02*
G37*
G36*
X243596Y211309D02*
X239620D01*
Y212274D01*
X243596D01*
Y211309D01*
D02*
G37*
G36*
X264816D02*
X260840D01*
Y212274D01*
X264816D01*
Y211309D01*
D02*
G37*
G36*
Y216427D02*
X260840D01*
Y217392D01*
X264816D01*
Y216427D01*
D02*
G37*
G36*
X390596Y216486D02*
X386620D01*
Y217451D01*
X390596D01*
Y216486D01*
D02*
G37*
G36*
X411816D02*
X407840D01*
Y217451D01*
X411816D01*
Y216486D01*
D02*
G37*
G36*
X243596Y216427D02*
X239620D01*
Y217392D01*
X243596D01*
Y216427D01*
D02*
G37*
G36*
X204600Y215898D02*
X198400D01*
Y217669D01*
X204600D01*
Y215898D01*
D02*
G37*
G36*
X87096Y215927D02*
X83120D01*
Y216892D01*
X87096D01*
Y215927D01*
D02*
G37*
G36*
X108316D02*
X104340D01*
Y216892D01*
X108316D01*
Y215927D01*
D02*
G37*
G36*
X243596Y218986D02*
X239620D01*
Y219951D01*
X243596D01*
Y218986D01*
D02*
G37*
G36*
X264816D02*
X260840D01*
Y219951D01*
X264816D01*
Y218986D01*
D02*
G37*
G36*
X390596Y219045D02*
X386620D01*
Y220010D01*
X390596D01*
Y219045D01*
D02*
G37*
G36*
X108316Y218486D02*
X104340D01*
Y219451D01*
X108316D01*
Y218486D01*
D02*
G37*
G36*
X537096Y216486D02*
X533120D01*
Y217451D01*
X537096D01*
Y216486D01*
D02*
G37*
G36*
X558316D02*
X554340D01*
Y217451D01*
X558316D01*
Y216486D01*
D02*
G37*
G36*
X87096Y218486D02*
X83120D01*
Y219451D01*
X87096D01*
Y218486D01*
D02*
G37*
G36*
X551819Y214901D02*
X539615D01*
Y236949D01*
X551819D01*
Y214901D01*
D02*
G37*
G36*
X118249Y214791D02*
X117304D01*
Y214791D01*
X117304Y214693D01*
X117165Y214555D01*
X116970Y214555D01*
X116831Y214693D01*
X116831Y214791D01*
X116831Y214889D01*
X116970Y215027D01*
X117068Y215027D01*
Y217941D01*
X118249D01*
Y214791D01*
D02*
G37*
G36*
X279867Y215291D02*
X278686D01*
Y218441D01*
X279867D01*
Y215291D01*
D02*
G37*
G36*
X405319Y214901D02*
X393115D01*
Y236949D01*
X405319D01*
Y214901D01*
D02*
G37*
G36*
X123367Y214791D02*
X122186D01*
Y217941D01*
X123367D01*
Y214791D01*
D02*
G37*
G36*
X258319Y214842D02*
X246115D01*
Y236890D01*
X258319D01*
Y214842D01*
D02*
G37*
G36*
X499600Y214898D02*
X493400D01*
Y216669D01*
X499600D01*
Y214898D01*
D02*
G37*
G36*
X274749Y215291D02*
X273804D01*
Y215291D01*
X273803Y215193D01*
X273665Y215055D01*
X273470Y215055D01*
X273331Y215193D01*
X273331Y215291D01*
X273331Y215389D01*
X273470Y215527D01*
X273568Y215527D01*
Y218441D01*
X274749D01*
Y215291D01*
D02*
G37*
G36*
X421749D02*
X420804D01*
Y215291D01*
X420803Y215193D01*
X420665Y215055D01*
X420470Y215055D01*
X420331Y215193D01*
X420331Y215291D01*
X420331Y215389D01*
X420470Y215527D01*
X420568Y215527D01*
Y218441D01*
X421749D01*
Y215291D01*
D02*
G37*
G36*
X568249Y215350D02*
X567304D01*
Y215350D01*
X567304Y215252D01*
X567165Y215114D01*
X566970Y215114D01*
X566831Y215252D01*
X566831Y215350D01*
X566831Y215448D01*
X566970Y215586D01*
X567068Y215586D01*
Y218500D01*
X568249D01*
Y215350D01*
D02*
G37*
G36*
X350600Y215398D02*
X344400D01*
Y217169D01*
X350600D01*
Y215398D01*
D02*
G37*
G36*
X426867Y215291D02*
X425686D01*
Y218441D01*
X426867D01*
Y215291D01*
D02*
G37*
G36*
X573367Y215350D02*
X572186D01*
Y218500D01*
X573367D01*
Y215350D01*
D02*
G37*
G36*
X46600Y215398D02*
X40400D01*
Y217169D01*
X46600D01*
Y215398D01*
D02*
G37*
G36*
X240150Y249425D02*
X238968D01*
Y252575D01*
X240150D01*
Y249425D01*
D02*
G37*
G36*
X535650D02*
X534469D01*
Y252575D01*
X535650D01*
Y249425D01*
D02*
G37*
G36*
X288324Y286555D02*
X288328Y286460D01*
X288328D01*
X288324Y286365D01*
X288187Y286233D01*
X287997Y286233D01*
X287860Y286365D01*
X287856Y286460D01*
X287860Y286555D01*
X287997Y286687D01*
X288187Y286687D01*
X288324Y286555D01*
D02*
G37*
G36*
X84150Y249425D02*
X82968D01*
Y252575D01*
X84150D01*
Y249425D01*
D02*
G37*
G36*
X79031D02*
X78086D01*
Y249425D01*
X78086Y249327D01*
X77948Y249189D01*
X77752Y249188D01*
X77614Y249327D01*
X77614Y249425D01*
X77613Y249522D01*
X77752Y249661D01*
X77850Y249661D01*
Y252575D01*
X79031D01*
Y249425D01*
D02*
G37*
G36*
X235032D02*
X234086D01*
Y249425D01*
X234086Y249327D01*
X233948Y249189D01*
X233752Y249188D01*
X233614Y249327D01*
X233613Y249425D01*
X233613Y249522D01*
X233752Y249661D01*
X233850Y249661D01*
Y252575D01*
X235032D01*
Y249425D01*
D02*
G37*
G36*
X530532D02*
X529586D01*
Y249425D01*
X529586Y249327D01*
X529448Y249189D01*
X529252Y249188D01*
X529114Y249327D01*
X529113Y249425D01*
X529113Y249522D01*
X529252Y249661D01*
X529350Y249661D01*
Y252575D01*
X530532D01*
Y249425D01*
D02*
G37*
G36*
X582678Y286559D02*
Y286559D01*
D01*
Y286559D01*
D02*
G37*
G36*
X54360Y286622D02*
X43927D01*
Y289378D01*
X54360D01*
Y286622D01*
D02*
G37*
G36*
X73074D02*
X62641D01*
Y289378D01*
X73074D01*
Y286622D01*
D02*
G37*
G36*
X435828Y286460D02*
Y286460D01*
D01*
Y286460D01*
D02*
G37*
G36*
X435824Y286555D02*
X435828Y286460D01*
X435828D01*
X435824Y286365D01*
X435687Y286233D01*
X435497Y286233D01*
X435360Y286365D01*
X435356Y286460D01*
X435360Y286555D01*
X435497Y286687D01*
X435687Y286687D01*
X435824Y286555D01*
D02*
G37*
G36*
X582674Y286654D02*
X582678Y286559D01*
X582678D01*
X582674Y286463D01*
X582537Y286331D01*
X582347Y286331D01*
X582209Y286463D01*
X582206Y286558D01*
X582209Y286653D01*
X582346Y286785D01*
X582537Y286785D01*
X582674Y286654D01*
D02*
G37*
G36*
X288328Y286460D02*
Y286460D01*
D01*
Y286460D01*
D02*
G37*
G36*
X44879Y243614D02*
X44879Y243516D01*
X47792D01*
Y242335D01*
X44643D01*
Y243280D01*
X44642D01*
X44545Y243280D01*
X44406Y243418D01*
X44406Y243614D01*
X44544Y243752D01*
X44642Y243753D01*
X44740Y243753D01*
X44879Y243614D01*
D02*
G37*
G36*
X56398Y242335D02*
X53248D01*
Y243516D01*
X56398D01*
Y242335D01*
D02*
G37*
G36*
X67378Y243614D02*
X67379Y243516D01*
X70292D01*
Y242335D01*
X67143D01*
Y243280D01*
X67142D01*
X67045Y243280D01*
X66906Y243418D01*
X66906Y243614D01*
X67044Y243752D01*
X67142Y243753D01*
X67240Y243753D01*
X67378Y243614D01*
D02*
G37*
G36*
X558316Y242077D02*
X554340D01*
Y243041D01*
X558316D01*
Y242077D01*
D02*
G37*
G36*
X390596D02*
X386620D01*
Y243041D01*
X390596D01*
Y242077D01*
D02*
G37*
G36*
X411816D02*
X407840D01*
Y243041D01*
X411816D01*
Y242077D01*
D02*
G37*
G36*
X537096D02*
X533120D01*
Y243041D01*
X537096D01*
Y242077D01*
D02*
G37*
G36*
X533216Y245253D02*
X533351Y245116D01*
X533351Y244923D01*
X533216Y244785D01*
X533120Y244783D01*
X533120Y244783D01*
X533024Y244785D01*
X532889Y244922D01*
X532888Y245115D01*
X533023Y245253D01*
X533119Y245255D01*
X533119Y245255D01*
X533216Y245253D01*
D02*
G37*
G36*
X383531Y248925D02*
X382586D01*
Y248925D01*
X382586Y248827D01*
X382448Y248689D01*
X382252Y248688D01*
X382114Y248827D01*
X382114Y248925D01*
X382113Y249023D01*
X382252Y249161D01*
X382350Y249161D01*
Y252075D01*
X383531D01*
Y248925D01*
D02*
G37*
G36*
X388650D02*
X387469D01*
Y252075D01*
X388650D01*
Y248925D01*
D02*
G37*
G36*
X386716Y245253D02*
X386851Y245116D01*
X386851Y244923D01*
X386716Y244785D01*
X386620Y244783D01*
X386620Y244783D01*
X386524Y244785D01*
X386389Y244922D01*
X386388Y245115D01*
X386523Y245253D01*
X386619Y245255D01*
X386619Y245255D01*
X386716Y245253D01*
D02*
G37*
G36*
X24260Y243583D02*
X21740D01*
Y246103D01*
X24260D01*
Y243583D01*
D02*
G37*
G36*
X83216Y244694D02*
X83351Y244557D01*
X83351Y244364D01*
X83216Y244226D01*
X83120Y244224D01*
X83120Y244224D01*
X83024Y244226D01*
X82889Y244363D01*
X82888Y244556D01*
X83023Y244694D01*
X83120Y244696D01*
X83119Y244696D01*
X83216Y244694D01*
D02*
G37*
G36*
X239716Y245194D02*
X239851Y245057D01*
X239851Y244864D01*
X239716Y244726D01*
X239620Y244724D01*
X239620Y244724D01*
X239524Y244726D01*
X239389Y244863D01*
X239388Y245056D01*
X239523Y245194D01*
X239619Y245196D01*
X239619Y245196D01*
X239716Y245194D01*
D02*
G37*
G36*
X252977Y291106D02*
X250458D01*
Y293626D01*
X252977D01*
Y291106D01*
D02*
G37*
G36*
X262977D02*
X260458D01*
Y293626D01*
X262977D01*
Y291106D01*
D02*
G37*
G36*
X390477D02*
X387958D01*
Y293626D01*
X390477D01*
Y291106D01*
D02*
G37*
G36*
X242977D02*
X240458D01*
Y293626D01*
X242977D01*
Y291106D01*
D02*
G37*
G36*
X86760Y290740D02*
X84240D01*
Y293260D01*
X86760D01*
Y290740D01*
D02*
G37*
G36*
X96760D02*
X94240D01*
Y293260D01*
X96760D01*
Y290740D01*
D02*
G37*
G36*
X106760D02*
X104240D01*
Y293260D01*
X106760D01*
Y290740D01*
D02*
G37*
G36*
X557327Y291205D02*
X554807D01*
Y293724D01*
X557327D01*
Y291205D01*
D02*
G37*
G36*
X352078Y292488D02*
X341645D01*
Y295244D01*
X352078D01*
Y292488D01*
D02*
G37*
G36*
X370791D02*
X360358D01*
Y295244D01*
X370791D01*
Y292488D01*
D02*
G37*
G36*
X547327Y291205D02*
X544807D01*
Y293724D01*
X547327D01*
Y291205D01*
D02*
G37*
G36*
X400477Y291106D02*
X397958D01*
Y293626D01*
X400477D01*
Y291106D01*
D02*
G37*
G36*
X410477D02*
X407958D01*
Y293626D01*
X410477D01*
Y291106D01*
D02*
G37*
G36*
X537327Y291205D02*
X534807D01*
Y293724D01*
X537327D01*
Y291205D01*
D02*
G37*
G36*
X582441Y287149D02*
X579291D01*
Y290889D01*
X582441D01*
Y287149D01*
D02*
G37*
G36*
X131607Y287689D02*
X131611Y287594D01*
X131611D01*
X131607Y287499D01*
X131470Y287367D01*
X131280Y287367D01*
X131142Y287499D01*
X131139Y287594D01*
X131142Y287689D01*
X131279Y287821D01*
X131470Y287821D01*
X131607Y287689D01*
D02*
G37*
G36*
X131611Y287594D02*
Y287594D01*
D01*
Y287594D01*
D02*
G37*
G36*
X435591Y287051D02*
X432442D01*
Y290791D01*
X435591D01*
Y287051D01*
D02*
G37*
G36*
X210578Y286988D02*
X200145D01*
Y289744D01*
X210578D01*
Y286988D01*
D02*
G37*
G36*
X229291D02*
X218858D01*
Y289744D01*
X229291D01*
Y286988D01*
D02*
G37*
G36*
X288091Y287051D02*
X284942D01*
Y290791D01*
X288091D01*
Y287051D01*
D02*
G37*
G36*
X500927Y290087D02*
X490494D01*
Y292843D01*
X500927D01*
Y290087D01*
D02*
G37*
G36*
X519640D02*
X509207D01*
Y292843D01*
X519640D01*
Y290087D01*
D02*
G37*
G36*
X119366Y290547D02*
X116413D01*
Y296453D01*
X119366D01*
Y290547D01*
D02*
G37*
G36*
X570433Y289512D02*
X567480D01*
Y295417D01*
X570433D01*
Y289512D01*
D02*
G37*
G36*
X131374Y288185D02*
X128224D01*
Y291925D01*
X131374D01*
Y288185D01*
D02*
G37*
G36*
X276084Y289413D02*
X273131D01*
Y295319D01*
X276084D01*
Y289413D01*
D02*
G37*
G36*
X423584D02*
X420631D01*
Y295319D01*
X423584D01*
Y289413D01*
D02*
G37*
G36*
X87096Y236400D02*
X83120D01*
Y237364D01*
X87096D01*
Y236400D01*
D02*
G37*
G36*
X108316D02*
X104340D01*
Y237364D01*
X108316D01*
Y236400D01*
D02*
G37*
G36*
X214898Y236952D02*
X214898D01*
X214996Y236952D01*
X215134Y236814D01*
X215134Y236618D01*
X214996Y236480D01*
X214898Y236480D01*
X214800Y236480D01*
X214662Y236618D01*
X214662Y236716D01*
X211748D01*
Y237897D01*
X214898D01*
Y236952D01*
D02*
G37*
G36*
X522292Y235775D02*
X519143D01*
Y236957D01*
X522292D01*
Y235775D01*
D02*
G37*
G36*
X558316Y234399D02*
X554340D01*
Y235364D01*
X558316D01*
Y234399D01*
D02*
G37*
G36*
X508398Y236011D02*
X508398D01*
X508496Y236011D01*
X508634Y235873D01*
X508634Y235677D01*
X508496Y235539D01*
X508398Y235539D01*
X508300Y235539D01*
X508162Y235677D01*
X508162Y235775D01*
X505248D01*
Y236957D01*
X508398D01*
Y236011D01*
D02*
G37*
G36*
X499792Y235775D02*
X496643D01*
Y236957D01*
X499792D01*
Y235775D01*
D02*
G37*
G36*
X374792Y236716D02*
X371643D01*
Y237897D01*
X374792D01*
Y236716D01*
D02*
G37*
G36*
X243596Y236899D02*
X239620D01*
Y237864D01*
X243596D01*
Y236899D01*
D02*
G37*
G36*
X264816D02*
X260840D01*
Y237864D01*
X264816D01*
Y236899D01*
D02*
G37*
G36*
X352292Y236716D02*
X349143D01*
Y237897D01*
X352292D01*
Y236716D01*
D02*
G37*
G36*
X360898Y236952D02*
X360898D01*
X360996Y236952D01*
X361134Y236814D01*
X361134Y236618D01*
X360996Y236480D01*
X360898Y236480D01*
X360800Y236480D01*
X360662Y236618D01*
X360662Y236716D01*
X357748D01*
Y237897D01*
X360898D01*
Y236952D01*
D02*
G37*
G36*
X206292Y236716D02*
X203143D01*
Y237897D01*
X206292D01*
Y236716D01*
D02*
G37*
G36*
X228792D02*
X225643D01*
Y237897D01*
X228792D01*
Y236716D01*
D02*
G37*
G36*
X537096Y231840D02*
X533120D01*
Y232805D01*
X537096D01*
Y231840D01*
D02*
G37*
G36*
X558316D02*
X554340D01*
Y232805D01*
X558316D01*
Y231840D01*
D02*
G37*
G36*
X24260Y233740D02*
X21740D01*
Y236260D01*
X24260D01*
Y233740D01*
D02*
G37*
G36*
X411816Y231840D02*
X407840D01*
Y232805D01*
X411816D01*
Y231840D01*
D02*
G37*
G36*
X243596Y231781D02*
X239620D01*
Y232746D01*
X243596D01*
Y231781D01*
D02*
G37*
G36*
X264816D02*
X260840D01*
Y232746D01*
X264816D01*
Y231781D01*
D02*
G37*
G36*
X390596Y231840D02*
X386620D01*
Y232805D01*
X390596D01*
Y231840D01*
D02*
G37*
G36*
Y234399D02*
X386620D01*
Y235364D01*
X390596D01*
Y234399D01*
D02*
G37*
G36*
X411816D02*
X407840D01*
Y235364D01*
X411816D01*
Y234399D01*
D02*
G37*
G36*
X537096D02*
X533120D01*
Y235364D01*
X537096D01*
Y234399D01*
D02*
G37*
G36*
X264816Y234340D02*
X260840D01*
Y235305D01*
X264816D01*
Y234340D01*
D02*
G37*
G36*
X87096Y233840D02*
X83120D01*
Y234805D01*
X87096D01*
Y233840D01*
D02*
G37*
G36*
X108316D02*
X104340D01*
Y234805D01*
X108316D01*
Y233840D01*
D02*
G37*
G36*
X243596Y234340D02*
X239620D01*
Y235305D01*
X243596D01*
Y234340D01*
D02*
G37*
G36*
X87096Y241518D02*
X83120D01*
Y242482D01*
X87096D01*
Y241518D01*
D02*
G37*
G36*
X108316D02*
X104340D01*
Y242482D01*
X108316D01*
Y241518D01*
D02*
G37*
G36*
X203379Y243114D02*
X203379Y243016D01*
X206292D01*
Y241834D01*
X203143D01*
Y242780D01*
X203142D01*
X203045Y242780D01*
X202906Y242918D01*
X202906Y243114D01*
X203044Y243252D01*
X203142Y243252D01*
X203240Y243253D01*
X203379Y243114D01*
D02*
G37*
G36*
X519379Y242173D02*
X519379Y242075D01*
X522292D01*
Y240894D01*
X519143D01*
Y241839D01*
X519142D01*
X519045Y241839D01*
X518906Y241977D01*
X518906Y242173D01*
X519044Y242311D01*
X519142Y242312D01*
X519240Y242312D01*
X519379Y242173D01*
D02*
G37*
G36*
X558316Y239517D02*
X554340D01*
Y240482D01*
X558316D01*
Y239517D01*
D02*
G37*
G36*
X496878Y242173D02*
X496879Y242075D01*
X499792D01*
Y240894D01*
X496643D01*
Y241839D01*
X496642D01*
X496545Y241839D01*
X496406Y241977D01*
X496406Y242173D01*
X496544Y242311D01*
X496642Y242312D01*
X496740Y242312D01*
X496878Y242173D01*
D02*
G37*
G36*
X508398Y240894D02*
X505248D01*
Y242075D01*
X508398D01*
Y240894D01*
D02*
G37*
G36*
X371879Y243114D02*
X371879Y243016D01*
X374792D01*
Y241834D01*
X371643D01*
Y242780D01*
X371642D01*
X371545Y242780D01*
X371406Y242918D01*
X371406Y243114D01*
X371544Y243252D01*
X371642Y243252D01*
X371740Y243253D01*
X371879Y243114D01*
D02*
G37*
G36*
X243596Y242018D02*
X239620D01*
Y242982D01*
X243596D01*
Y242018D01*
D02*
G37*
G36*
X264816D02*
X260840D01*
Y242982D01*
X264816D01*
Y242018D01*
D02*
G37*
G36*
X360898Y241834D02*
X357748D01*
Y243016D01*
X360898D01*
Y241834D01*
D02*
G37*
G36*
X214898D02*
X211748D01*
Y243016D01*
X214898D01*
Y241834D01*
D02*
G37*
G36*
X225879Y243114D02*
X225879Y243016D01*
X228792D01*
Y241834D01*
X225643D01*
Y242780D01*
X225642D01*
X225545Y242780D01*
X225406Y242918D01*
X225406Y243114D01*
X225544Y243252D01*
X225642Y243252D01*
X225740Y243253D01*
X225879Y243114D01*
D02*
G37*
G36*
X349378D02*
X349379Y243016D01*
X352292D01*
Y241834D01*
X349143D01*
Y242780D01*
X349143D01*
X349045Y242780D01*
X348906Y242918D01*
X348906Y243114D01*
X349044Y243252D01*
X349142Y243252D01*
X349240Y243253D01*
X349378Y243114D01*
D02*
G37*
G36*
X56398Y237452D02*
X56398D01*
X56496Y237452D01*
X56634Y237314D01*
X56634Y237118D01*
X56495Y236980D01*
X56398Y236980D01*
X56300Y236980D01*
X56162Y237118D01*
X56162Y237216D01*
X53248D01*
Y238398D01*
X56398D01*
Y237452D01*
D02*
G37*
G36*
X47792Y237216D02*
X44643D01*
Y238398D01*
X47792D01*
Y237216D01*
D02*
G37*
G36*
X70292D02*
X67143D01*
Y238398D01*
X70292D01*
Y237216D01*
D02*
G37*
G36*
X558316Y236959D02*
X554340D01*
Y237923D01*
X558316D01*
Y236959D01*
D02*
G37*
G36*
X390596D02*
X386620D01*
Y237923D01*
X390596D01*
Y236959D01*
D02*
G37*
G36*
X411816D02*
X407840D01*
Y237923D01*
X411816D01*
Y236959D01*
D02*
G37*
G36*
X537096D02*
X533120D01*
Y237923D01*
X537096D01*
Y236959D01*
D02*
G37*
G36*
X390596Y239517D02*
X386620D01*
Y240482D01*
X390596D01*
Y239517D01*
D02*
G37*
G36*
X411816D02*
X407840D01*
Y240482D01*
X411816D01*
Y239517D01*
D02*
G37*
G36*
X537096D02*
X533120D01*
Y240482D01*
X537096D01*
Y239517D01*
D02*
G37*
G36*
X264816Y239458D02*
X260840D01*
Y240423D01*
X264816D01*
Y239458D01*
D02*
G37*
G36*
X87096Y238959D02*
X83120D01*
Y239923D01*
X87096D01*
Y238959D01*
D02*
G37*
G36*
X108316D02*
X104340D01*
Y239923D01*
X108316D01*
Y238959D01*
D02*
G37*
G36*
X243596Y239458D02*
X239620D01*
Y240423D01*
X243596D01*
Y239458D01*
D02*
G37*
D150*
X306551Y53236D02*
Y82764D01*
X329780D01*
Y53236D02*
Y82764D01*
X306551Y53236D02*
X329780D01*
X12720Y292972D02*
X35949D01*
X12720D02*
Y342185D01*
X35949D01*
Y292972D02*
Y342185D01*
X-8819Y48488D02*
X58898D01*
X-8819D02*
Y109512D01*
X58898D01*
Y48488D02*
Y109512D01*
X496925Y343150D02*
X500075D01*
Y336850D02*
Y343150D01*
X496925Y336850D02*
X500075D01*
X496925D02*
Y343150D01*
X203143Y243016D02*
X206292D01*
Y236716D02*
Y243016D01*
X203143Y236716D02*
X206292D01*
X203143D02*
Y243016D01*
X198400Y228102D02*
X204600D01*
Y215898D02*
Y228102D01*
X198400Y215898D02*
X204600D01*
X198400D02*
Y228102D01*
X351643Y347516D02*
X354792D01*
Y341216D02*
Y347516D01*
X351643Y341216D02*
X354792D01*
X351643D02*
Y347516D01*
X203643Y346016D02*
X206792D01*
Y339716D02*
Y346016D01*
X203643Y339716D02*
X206792D01*
X203643D02*
Y346016D01*
X357350Y106425D02*
X363650D01*
Y109575D01*
X357350D02*
X363650D01*
X357350Y106425D02*
Y109575D01*
X46925Y342650D02*
X50075D01*
Y336350D02*
Y342650D01*
X46925Y336350D02*
X50075D01*
X46925D02*
Y342650D01*
X495579Y130500D02*
Y140500D01*
Y130500D02*
X505421D01*
Y140500D01*
X495579D02*
X505421D01*
X367500Y30343D02*
X407500D01*
X367500Y10657D02*
Y30343D01*
Y10657D02*
X407500D01*
Y30343D01*
X72150Y43425D02*
Y46575D01*
X65850Y43425D02*
X72150D01*
X65850D02*
Y46575D01*
X72150D01*
X340684Y24802D02*
Y27952D01*
X334384Y24802D02*
X340684D01*
X334384D02*
Y27952D01*
X340684D01*
X527650Y70425D02*
Y73575D01*
X521350Y70425D02*
X527650D01*
X521350D02*
Y73575D01*
X527650D01*
X536349D02*
X542648D01*
X536349Y70425D02*
Y73575D01*
Y70425D02*
X542648D01*
Y73575D01*
X516150Y26425D02*
Y29575D01*
X509850Y26425D02*
X516150D01*
X509850D02*
Y29575D01*
X516150D01*
X525349Y29948D02*
X531648D01*
X525349Y26798D02*
Y29948D01*
Y26798D02*
X531648D01*
Y29948D01*
X349849Y28325D02*
X356148D01*
X349849Y25175D02*
Y28325D01*
Y25175D02*
X356148D01*
Y28325D01*
X228349Y28575D02*
X234648D01*
X228349Y25425D02*
Y28575D01*
Y25425D02*
X234648D01*
Y28575D01*
X219150Y25052D02*
Y28202D01*
X212850Y25052D02*
X219150D01*
X212850D02*
Y28202D01*
X219150D01*
X163563Y36008D02*
X184351D01*
X189548Y41205D01*
Y56795D01*
X184351Y61992D02*
X189548Y56795D01*
X163563Y61992D02*
X184351D01*
X163563Y36008D02*
Y61992D01*
X126850Y38925D02*
Y42075D01*
X133150D01*
Y38925D02*
Y42075D01*
X126850Y38925D02*
X133150D01*
X174743Y14880D02*
X182617D01*
Y19899D01*
X174743D02*
X182617D01*
X174743Y14880D02*
Y19899D01*
X174680Y26429D02*
X182554D01*
Y31350D01*
X174680D02*
X182554D01*
X174680Y26429D02*
Y31350D01*
X118850Y73425D02*
Y76575D01*
X125150D01*
Y73425D02*
Y76575D01*
X118850Y73425D02*
X125150D01*
X118256Y24850D02*
Y31150D01*
X130854D01*
Y24850D02*
Y31150D01*
X118256Y24850D02*
X130854D01*
X64850Y35799D02*
X71150D01*
Y23201D02*
Y35799D01*
X64850Y23201D02*
X71150D01*
X64850D02*
Y35799D01*
X91150Y43655D02*
Y46805D01*
X84850Y43655D02*
X91150D01*
X84850D02*
Y46805D01*
X91150D01*
X328004Y121295D02*
X341784D01*
X328004Y95705D02*
Y121295D01*
Y95705D02*
X341784D01*
Y121295D01*
X320567Y125067D02*
Y145933D01*
X336315D01*
X341433Y140815D01*
Y130185D02*
Y140815D01*
X336315Y125067D02*
X341433Y130185D01*
X320567Y125067D02*
X336315D01*
X251862Y18815D02*
Y58185D01*
X297138D01*
Y18815D02*
Y58185D01*
X251862Y18815D02*
X297138D01*
X260516Y63032D02*
Y66969D01*
Y63032D02*
X262484D01*
Y66969D01*
X260516D02*
X262484D01*
X266850Y80925D02*
Y84075D01*
X273150D01*
Y80925D02*
Y84075D01*
X266850Y80925D02*
X273150D01*
X262531Y74484D02*
X266469D01*
X262531Y72516D02*
Y74484D01*
Y72516D02*
X266469D01*
Y74484D01*
X241484Y65031D02*
Y68968D01*
X239516D02*
X241484D01*
X239516Y65031D02*
Y68968D01*
Y65031D02*
X241484D01*
X250138Y66866D02*
X254862D01*
Y75134D01*
X250138D02*
X254862D01*
X250138Y66866D02*
Y75134D01*
X72425Y305850D02*
X75575D01*
X72425D02*
Y312150D01*
X75575D01*
Y305850D02*
Y312150D01*
X45508Y275008D02*
X66295D01*
X71492Y280205D01*
Y295795D01*
X66295Y300992D02*
X71492Y295795D01*
X45508Y300992D02*
X66295D01*
X45508Y275008D02*
Y300992D01*
X42400Y326102D02*
X48600D01*
Y313898D02*
Y326102D01*
X42400Y313898D02*
X48600D01*
X42400D02*
Y326102D01*
X56898Y321900D02*
Y328100D01*
X69102D01*
Y321900D02*
Y328100D01*
X56898Y321900D02*
X69102D01*
X66925Y342650D02*
X70075D01*
Y336350D02*
Y342650D01*
X66925Y336350D02*
X70075D01*
X66925D02*
Y342650D01*
X116610Y287595D02*
Y299406D01*
Y287595D02*
X131374D01*
Y299406D01*
X116610D02*
X131374D01*
X110500Y287079D02*
Y296921D01*
X80500Y287079D02*
X110500D01*
X80500D02*
Y296921D01*
X110500D01*
X591500Y74079D02*
X601500D01*
Y83921D01*
X591500D02*
X601500D01*
X591500Y74079D02*
Y83921D01*
X591579Y88000D02*
Y98000D01*
Y88000D02*
X601421D01*
Y98000D01*
X591579D02*
X601421D01*
X417984Y134531D02*
Y138469D01*
X416016D02*
X417984D01*
X416016Y134531D02*
Y138469D01*
Y134531D02*
X417984D01*
X398532Y50516D02*
X402468D01*
Y52484D01*
X398532D02*
X402468D01*
X398532Y50516D02*
Y52484D01*
Y44984D02*
X402468D01*
X398532Y43016D02*
Y44984D01*
Y43016D02*
X402468D01*
Y44984D01*
X467425Y133850D02*
X470575D01*
X467425D02*
Y140150D01*
X470575D01*
Y133850D02*
Y140150D01*
X461984Y134531D02*
Y138469D01*
X460016D02*
X461984D01*
X460016Y134531D02*
Y138469D01*
Y134531D02*
X461984D01*
X442531Y26484D02*
X446468D01*
X442531Y24516D02*
Y26484D01*
Y24516D02*
X446468D01*
Y26484D01*
X462032D02*
X465969D01*
X462032Y24516D02*
Y26484D01*
Y24516D02*
X465969D01*
Y26484D01*
X488516Y24032D02*
Y27968D01*
Y24032D02*
X490484D01*
Y27968D01*
X488516D02*
X490484D01*
X480925Y21998D02*
X484075D01*
X480925D02*
Y28298D01*
X484075D01*
Y21998D02*
Y28298D01*
X473925Y21850D02*
X477075D01*
X473925D02*
Y28150D01*
X477075D01*
Y21850D02*
Y28150D01*
X515516Y113031D02*
Y116969D01*
Y113031D02*
X517484D01*
Y116969D01*
X515516D02*
X517484D01*
X509016Y113031D02*
Y116969D01*
Y113031D02*
X510984D01*
Y116969D01*
X509016D02*
X510984D01*
X534574Y111350D02*
Y117650D01*
X531425Y111350D02*
X534574D01*
X531425D02*
Y117650D01*
X534574D01*
X540425D02*
X543575D01*
Y111350D02*
Y117650D01*
X540425Y111350D02*
X543575D01*
X540425D02*
Y117650D01*
X507925Y85850D02*
X511075D01*
X507925D02*
Y92150D01*
X511075D01*
Y85850D02*
Y92150D01*
X509531Y100516D02*
X513469D01*
Y102484D01*
X509531D02*
X513469D01*
X509531Y100516D02*
Y102484D01*
X513984Y75032D02*
Y78969D01*
X512016D02*
X513984D01*
X512016Y75032D02*
Y78969D01*
Y75032D02*
X513984D01*
X525574Y111350D02*
Y117650D01*
X522425Y111350D02*
X525574D01*
X522425D02*
Y117650D01*
X525574D01*
X95692Y106508D02*
X119708D01*
Y132492D01*
X95692D02*
X119708D01*
X95692Y106508D02*
Y132492D01*
X151638Y72697D02*
Y122303D01*
X205968D01*
Y72697D02*
Y122303D01*
X151638Y72697D02*
X205968D01*
X129925Y61850D02*
X133075D01*
X129925D02*
Y68150D01*
X133075D01*
Y61850D02*
Y68150D01*
X89276Y99646D02*
X112110D01*
Y80354D02*
Y99646D01*
X89276Y80354D02*
X112110D01*
X89276D02*
Y99646D01*
X274567Y118933D02*
X295433D01*
Y103185D02*
Y118933D01*
X290315Y98067D02*
X295433Y103185D01*
X279685Y98067D02*
X290315D01*
X274567Y103185D02*
X279685Y98067D01*
X274567Y103185D02*
Y118933D01*
X226850Y55701D02*
X233150D01*
X226850D02*
Y68299D01*
X233150D01*
Y55701D02*
Y68299D01*
X350850Y133925D02*
Y137075D01*
X357150D01*
Y133925D02*
Y137075D01*
X350850Y133925D02*
X357150D01*
X280850Y80925D02*
Y84075D01*
X287150D01*
Y80925D02*
Y84075D01*
X280850Y80925D02*
X287150D01*
X87339Y308405D02*
Y346595D01*
Y308405D02*
X104662D01*
Y346595D01*
X87339D02*
X104662D01*
X69850Y350925D02*
Y354075D01*
X76150D01*
Y350925D02*
Y354075D01*
X69850Y350925D02*
X76150D01*
X55531Y336350D02*
X58680D01*
X55531D02*
Y342650D01*
X58680D01*
Y336350D02*
Y342650D01*
X117350Y316925D02*
Y320075D01*
X123650D01*
Y316925D02*
Y320075D01*
X117350Y316925D02*
X123650D01*
X118350Y302925D02*
Y306075D01*
X124650D01*
Y302925D02*
Y306075D01*
X118350Y302925D02*
X124650D01*
X509016Y52031D02*
Y55968D01*
Y52031D02*
X510984D01*
Y55968D01*
X509016D02*
X510984D01*
X395031Y94484D02*
X398969D01*
X395031Y92516D02*
Y94484D01*
Y92516D02*
X398969D01*
Y94484D01*
X560650Y56925D02*
Y60075D01*
X554350Y56925D02*
X560650D01*
X554350D02*
Y60075D01*
X560650D01*
X542823Y41791D02*
Y53209D01*
Y41791D02*
X558177D01*
Y53209D01*
X542823D02*
X558177D01*
X546650Y56509D02*
Y59659D01*
X540350Y56509D02*
X546650D01*
X540350D02*
Y59659D01*
X546650D01*
X523201Y83079D02*
X535799D01*
Y92922D01*
X523201D02*
X535799D01*
X523201Y83079D02*
Y92922D01*
X515016Y86532D02*
Y90469D01*
Y86532D02*
X516984D01*
Y90469D01*
X515016D02*
X516984D01*
X543032Y92984D02*
X546969D01*
X543032Y91016D02*
Y92984D01*
Y91016D02*
X546969D01*
Y92984D01*
X235850Y349925D02*
Y353075D01*
X242150D01*
Y349925D02*
Y353075D01*
X235850Y349925D02*
X242150D01*
X226143Y346016D02*
X229292D01*
Y339716D02*
Y346016D01*
X226143Y339716D02*
X229292D01*
X226143D02*
Y346016D01*
X231425Y306850D02*
X234575D01*
X231425D02*
Y313150D01*
X234575D01*
Y306850D02*
Y313150D01*
X212248Y339716D02*
X215398D01*
X212248D02*
Y346016D01*
X215398D01*
Y339716D02*
Y346016D01*
X274068Y315791D02*
Y318941D01*
X280367D01*
Y315791D02*
Y318941D01*
X274068Y315791D02*
X280367D01*
X273328Y286460D02*
Y298271D01*
Y286460D02*
X288091D01*
Y298271D01*
X273328D02*
X288091D01*
X201900Y330102D02*
X208100D01*
Y317898D02*
Y330102D01*
X201900Y317898D02*
X208100D01*
X201900D02*
Y330102D01*
X217115Y326766D02*
Y332966D01*
X229320D01*
Y326766D02*
Y332966D01*
X217115Y326766D02*
X229320D01*
X266718Y287445D02*
Y297287D01*
X236718Y287445D02*
X266718D01*
X236718D02*
Y297287D01*
X266718D01*
X280650Y304425D02*
Y307575D01*
X274350Y304425D02*
X280650D01*
X274350D02*
Y307575D01*
X280650D01*
X201726Y275374D02*
X222513D01*
X227710Y280571D01*
Y296162D01*
X222513Y301358D02*
X227710Y296162D01*
X201726Y301358D02*
X222513D01*
X201726Y275374D02*
Y301358D01*
X383350Y352925D02*
Y356075D01*
X389650D01*
Y352925D02*
Y356075D01*
X383350Y352925D02*
X389650D01*
X360248Y341216D02*
X363398D01*
X360248D02*
Y347516D01*
X363398D01*
Y341216D02*
Y347516D01*
X377791Y306633D02*
X380941D01*
X377791D02*
Y312932D01*
X380941D01*
Y306633D02*
Y312932D01*
X421568Y315791D02*
Y318941D01*
X427867D01*
Y315791D02*
Y318941D01*
X421568Y315791D02*
X427867D01*
X420828Y286460D02*
Y298271D01*
Y286460D02*
X435592D01*
Y298271D01*
X420828D02*
X435592D01*
X348400Y333602D02*
X354600D01*
Y321398D02*
Y333602D01*
X348400Y321398D02*
X354600D01*
X348400D02*
Y333602D01*
X365115Y329266D02*
Y335466D01*
X377320D01*
Y329266D02*
Y335466D01*
X365115Y329266D02*
X377320D01*
X414218Y287445D02*
Y297287D01*
X384218Y287445D02*
X414218D01*
X384218D02*
Y297287D01*
X414218D01*
X427650Y306425D02*
Y309575D01*
X421350Y306425D02*
X427650D01*
X421350D02*
Y309575D01*
X427650D01*
X343226Y280874D02*
X364013D01*
X369210Y286071D01*
Y301661D01*
X364013Y306858D02*
X369210Y301661D01*
X343226Y306858D02*
X364013D01*
X343226Y280874D02*
Y306858D01*
X374143Y347516D02*
X377292D01*
Y341216D02*
Y347516D01*
X374143Y341216D02*
X377292D01*
X374143D02*
Y347516D01*
X568417Y315890D02*
Y319039D01*
X574717D01*
Y315890D02*
Y319039D01*
X568417Y315890D02*
X574717D01*
X505598Y336815D02*
X508747D01*
X505598D02*
Y343114D01*
X508747D01*
Y336815D02*
Y343114D01*
X529850Y350425D02*
Y353575D01*
X536150D01*
Y350425D02*
Y353575D01*
X529850Y350425D02*
X536150D01*
X567677Y286559D02*
Y298370D01*
Y286559D02*
X582441D01*
Y298370D01*
X567677D02*
X582441D01*
X490900Y329102D02*
X497100D01*
Y316898D02*
Y329102D01*
X490900Y316898D02*
X497100D01*
X490900D02*
Y329102D01*
X507465Y324864D02*
Y331065D01*
X519669D01*
Y324864D02*
Y331065D01*
X507465Y324864D02*
X519669D01*
X561067Y287543D02*
Y297386D01*
X531067Y287543D02*
X561067D01*
X531067D02*
Y297386D01*
X561067D01*
X575150Y304925D02*
Y308075D01*
X568850Y304925D02*
X575150D01*
X568850D02*
Y308075D01*
X575150D01*
X492075Y278473D02*
X512862D01*
X518059Y283669D01*
Y299260D01*
X512862Y304457D02*
X518059Y299260D01*
X492075Y304457D02*
X512862D01*
X492075Y278473D02*
Y304457D01*
X519492Y343114D02*
X522642D01*
Y336815D02*
Y343114D01*
X519492Y336815D02*
X522642D01*
X519492D02*
Y343114D01*
X77850Y249425D02*
Y252575D01*
X84150D01*
Y249425D02*
Y252575D01*
X77850Y249425D02*
X84150D01*
X53248Y237216D02*
X56398D01*
X53248D02*
Y243516D01*
X56398D01*
Y237216D02*
Y243516D01*
X117068Y214791D02*
Y217941D01*
X123367D01*
Y214791D02*
Y217941D01*
X117068Y214791D02*
X123367D01*
X116328Y185460D02*
Y197272D01*
Y185460D02*
X131091D01*
Y197272D01*
X116328D02*
X131091D01*
X40400Y227602D02*
X46600D01*
Y215398D02*
Y227602D01*
X40400Y215398D02*
X46600D01*
X40400D02*
Y227602D01*
X56898Y223400D02*
Y229600D01*
X69102D01*
Y223400D02*
Y229600D01*
X56898Y223400D02*
X69102D01*
X109718Y186445D02*
Y196287D01*
X79717Y186445D02*
X109718D01*
X79717D02*
Y196287D01*
X109718D01*
X123150Y201925D02*
Y205075D01*
X116850Y201925D02*
X123150D01*
X116850D02*
Y205075D01*
X123150D01*
X38226Y177374D02*
X59013D01*
X64210Y182571D01*
Y198161D01*
X59013Y203358D02*
X64210Y198161D01*
X38226Y203358D02*
X59013D01*
X38226Y177374D02*
Y203358D01*
X67143Y243516D02*
X70292D01*
Y237216D02*
Y243516D01*
X67143Y237216D02*
X70292D01*
X67143D02*
Y243516D01*
X233850Y249425D02*
Y252575D01*
X240150D01*
Y249425D02*
Y252575D01*
X233850Y249425D02*
X240150D01*
X211748Y236716D02*
X214898D01*
X211748D02*
Y243016D01*
X214898D01*
Y236716D02*
Y243016D01*
X272828Y185960D02*
Y197772D01*
Y185960D02*
X287592D01*
Y197772D01*
X272828D02*
X287592D01*
X215115Y223766D02*
Y229966D01*
X227320D01*
Y223766D02*
Y229966D01*
X215115Y223766D02*
X227320D01*
X266217Y186945D02*
Y196787D01*
X236217Y186945D02*
X266217D01*
X236217D02*
Y196787D01*
X266217D01*
X280150Y205425D02*
Y208575D01*
X273850Y205425D02*
X280150D01*
X273850D02*
Y208575D01*
X280150D01*
X198226Y175374D02*
X219013D01*
X224210Y180571D01*
Y196161D01*
X219013Y201358D02*
X224210Y196161D01*
X198226Y201358D02*
X219013D01*
X198226Y175374D02*
Y201358D01*
X225643Y243016D02*
X228792D01*
Y236716D02*
Y243016D01*
X225643Y236716D02*
X228792D01*
X225643D02*
Y243016D01*
X382350Y248925D02*
Y252075D01*
X388650D01*
Y248925D02*
Y252075D01*
X382350Y248925D02*
X388650D01*
X357748Y236716D02*
X360898D01*
X357748D02*
Y243016D01*
X360898D01*
Y236716D02*
Y243016D01*
X420568Y215291D02*
Y218441D01*
X426867D01*
Y215291D02*
Y218441D01*
X420568Y215291D02*
X426867D01*
X419828Y185960D02*
Y197772D01*
Y185960D02*
X434591D01*
Y197772D01*
X419828D02*
X434591D01*
X344400Y227602D02*
X350600D01*
Y215398D02*
Y227602D01*
X344400Y215398D02*
X350600D01*
X344400D02*
Y227602D01*
X361398Y223400D02*
Y229600D01*
X373602D01*
Y223400D02*
Y229600D01*
X361398Y223400D02*
X373602D01*
X413217Y186945D02*
Y196787D01*
X383218Y186945D02*
X413217D01*
X383218D02*
Y196787D01*
X413217D01*
X426650Y205925D02*
Y209075D01*
X420350Y205925D02*
X426650D01*
X420350D02*
Y209075D01*
X426650D01*
X343726Y178874D02*
X364513D01*
X369710Y184071D01*
Y199662D01*
X364513Y204858D02*
X369710Y199662D01*
X343726Y204858D02*
X364513D01*
X343726Y178874D02*
Y204858D01*
X371643Y243016D02*
X374792D01*
Y236716D02*
Y243016D01*
X371643Y236716D02*
X374792D01*
X371643D02*
Y243016D01*
X529350Y249425D02*
Y252575D01*
X535650D01*
Y249425D02*
Y252575D01*
X529350Y249425D02*
X535650D01*
X523350Y203633D02*
X526500D01*
X523350D02*
Y209932D01*
X526500D01*
Y203633D02*
Y209932D01*
X505248Y235775D02*
X508398D01*
X505248D02*
Y242075D01*
X508398D01*
Y235775D02*
Y242075D01*
X567068Y215350D02*
Y218500D01*
X573367D01*
Y215350D02*
Y218500D01*
X567068Y215350D02*
X573367D01*
X566328Y186020D02*
Y197830D01*
Y186020D02*
X581091D01*
Y197830D01*
X566328D02*
X581091D01*
X493400Y227102D02*
X499600D01*
Y214898D02*
Y227102D01*
X493400Y214898D02*
X499600D01*
X493400D02*
Y227102D01*
X508398Y222900D02*
Y229100D01*
X520602D01*
Y222900D02*
Y229100D01*
X508398Y222900D02*
X520602D01*
X559718Y187004D02*
Y196846D01*
X529717Y187004D02*
X559718D01*
X529717D02*
Y196846D01*
X559718D01*
X573650Y205425D02*
Y208575D01*
X567350Y205425D02*
X573650D01*
X567350D02*
Y208575D01*
X573650D01*
X490226Y172933D02*
X511013D01*
X516210Y178130D01*
Y193720D01*
X511013Y198917D02*
X516210Y193720D01*
X490226Y198917D02*
X511013D01*
X490226Y172933D02*
Y198917D01*
X519143Y242075D02*
X522292D01*
Y235775D02*
Y242075D01*
X519143Y235775D02*
X522292D01*
X519143D02*
Y242075D01*
X496643D02*
X499792D01*
Y235775D02*
Y242075D01*
X496643Y235775D02*
X499792D01*
X496643D02*
Y242075D01*
X44643Y243516D02*
X47792D01*
Y237216D02*
Y243516D01*
X44643Y237216D02*
X47792D01*
X44643D02*
Y243516D01*
X349143Y243016D02*
X352292D01*
Y236716D02*
Y243016D01*
X349143Y236716D02*
X352292D01*
X349143D02*
Y243016D01*
X145095Y16020D02*
Y30980D01*
Y16020D02*
X156905D01*
Y30980D01*
X145095D02*
X156905D01*
X102157Y43339D02*
X121843D01*
Y60661D01*
X102157D02*
X121843D01*
X102157Y43339D02*
Y60661D01*
X282201Y70350D02*
Y76650D01*
X294799D01*
Y70350D02*
Y76650D01*
X282201Y70350D02*
X294799D01*
X302425Y99350D02*
X305575D01*
X302425D02*
Y105650D01*
X305575D01*
Y99350D02*
Y105650D01*
X494370Y41130D02*
Y119870D01*
X415630D02*
X494370D01*
X415630Y41130D02*
Y119870D01*
Y41130D02*
X494370D01*
X422016Y134531D02*
Y138469D01*
Y134531D02*
X423984D01*
Y138469D01*
X422016D02*
X423984D01*
X487484Y134531D02*
Y138469D01*
X485516D02*
X487484D01*
X485516Y134531D02*
Y138469D01*
Y134531D02*
X487484D01*
X318850Y24925D02*
X325150D01*
Y28075D01*
X318850D02*
X325150D01*
X318850Y24925D02*
Y28075D01*
X273568Y215291D02*
Y218441D01*
X279867D01*
Y215291D02*
Y218441D01*
X273568Y215291D02*
X279867D01*
X74291Y208133D02*
X77441D01*
X74291D02*
Y214432D01*
X77441D01*
Y208133D02*
Y214432D01*
X441484Y135031D02*
Y138969D01*
X439516D02*
X441484D01*
X439516Y135031D02*
Y138969D01*
Y135031D02*
X441484D01*
X405484Y71531D02*
Y75468D01*
X403516D02*
X405484D01*
X403516Y71531D02*
Y75468D01*
Y71531D02*
X405484D01*
X244057Y307272D02*
Y345461D01*
Y307272D02*
X261379D01*
Y345461D01*
X244057D02*
X261379D01*
X391557Y307272D02*
Y345461D01*
Y307272D02*
X408879D01*
Y345461D01*
X391557D02*
X408879D01*
X538406Y307370D02*
Y345559D01*
Y307370D02*
X555729D01*
Y345559D01*
X538406D02*
X555729D01*
X525390Y308783D02*
X528539D01*
X525390D02*
Y315083D01*
X528539D01*
Y308783D02*
Y315083D01*
X87057Y206272D02*
Y244461D01*
Y206272D02*
X104379D01*
Y244461D01*
X87057D02*
X104379D01*
X243557Y206771D02*
Y244960D01*
Y206771D02*
X260879D01*
Y244960D01*
X243557D02*
X260879D01*
X229925Y205850D02*
X233075D01*
X229925D02*
Y212150D01*
X233075D01*
Y205850D02*
Y212150D01*
X390557Y206831D02*
Y245020D01*
Y206831D02*
X407879D01*
Y245020D01*
X390557D02*
X407879D01*
X377291Y208133D02*
X380441D01*
X377291D02*
Y214432D01*
X380441D01*
Y208133D02*
Y214432D01*
X537057Y206831D02*
Y245020D01*
Y206831D02*
X554379D01*
Y245020D01*
X537057D02*
X554379D01*
X197316Y132075D02*
X203616D01*
X197316Y128925D02*
Y132075D01*
Y128925D02*
X203616D01*
Y132075D01*
X335732Y63346D02*
X342268D01*
Y66654D01*
X335732D02*
X342268D01*
X335732Y63346D02*
Y66654D01*
X308850Y46925D02*
Y50075D01*
X315150D01*
Y46925D02*
Y50075D01*
X308850Y46925D02*
X315150D01*
X388531Y64016D02*
X392469D01*
Y65984D01*
X388531D02*
X392469D01*
X388531Y64016D02*
Y65984D01*
Y70516D02*
X392469D01*
Y72484D01*
X388531D02*
X392469D01*
X388531Y70516D02*
Y72484D01*
X351316Y50925D02*
Y54075D01*
X357616D01*
Y50925D02*
Y54075D01*
X351316Y50925D02*
X357616D01*
X335732Y72347D02*
X342268D01*
Y75653D01*
X335732D02*
X342268D01*
X335732Y72347D02*
Y75653D01*
X370177Y59354D02*
Y78646D01*
X354823D02*
X370177D01*
X354823Y59354D02*
Y78646D01*
Y59354D02*
X370177D01*
X193949Y296473D02*
Y345685D01*
X170720D02*
X193949D01*
X170720Y296473D02*
Y345685D01*
Y296473D02*
X193949D01*
X336449Y297972D02*
Y347185D01*
X313220D02*
X336449D01*
X313220Y297972D02*
Y347185D01*
Y297972D02*
X336449D01*
X474949Y293393D02*
Y342606D01*
X451720D02*
X474949D01*
X451720Y293393D02*
Y342606D01*
Y293393D02*
X474949D01*
X32449Y205472D02*
Y254685D01*
X9220D02*
X32449D01*
X9220Y205472D02*
Y254685D01*
Y205472D02*
X32449D01*
X187449Y192814D02*
Y242027D01*
X164220D02*
X187449D01*
X164220Y192814D02*
Y242027D01*
Y192814D02*
X187449D01*
X329949Y192894D02*
Y242106D01*
X306720D02*
X329949D01*
X306720Y192894D02*
Y242106D01*
Y192894D02*
X329949D01*
X481449Y193394D02*
Y242606D01*
X458220D02*
X481449D01*
X458220Y193394D02*
Y242606D01*
Y193394D02*
X481449D01*
M02*
