M48
;Layer_Color=9474304
;FILE_FORMAT=2:5
INCH,LZ
;TYPE=PLATED
T1F00S00C0.01181
T2F00S00C0.01200
T3F00S00C0.01968
T4F00S00C0.02362
T6F00S00C0.04331
T7F00S00C0.11024
T8F00S00C0.12598
%
T01
X05385Y00285
X0534584Y0058084
X05665Y0058
Y0052
Y0045
X051Y00475
X0513854Y0056146
X0513Y00705
X0508Y00715
X0510034Y0032466
X0493854Y0028146
X04895Y0015
X04825
X04755
X0466146Y0020146
X0461854
X0446646
X0442354
X0417Y00215
X0432362Y0046138
X04305Y00535
X04205Y0069673
Y00735
Y00775
Y0081484
X03985Y0076
X0398646Y0071354
X03985Y0065
X0405Y0057
X03915Y00515
Y0044
X03805Y00615
Y00765
X0363Y00265
X0324966Y0032466
X02985Y00615
Y00655
X02935
Y00615
X02925Y008
X02965
X02225Y00705
Y0067
Y00635
X02185
Y0067
Y00705
X02415Y0027013
X0051Y02235
Y02285
X00775Y02215
X0090993Y0223004
X0095717
Y0218366
X0090993Y0218279
X0100442
Y0223004
Y0227728
Y0232453
X0095717
X0090993
Y0227728
X0095717
X01175Y02325
Y0236
X0138Y0224
X01415Y0219027
X01485Y0218
X0149Y0224
X0134365Y0213365
X01295Y021
X0128Y02035
X01275Y0106
X00795Y0116
X00745
X00695
Y012125
X00745
X00795
Y01265
X00745
X00695
X02085Y02235
Y0229
X02345Y022
X0247493Y0218779
Y0223504
X0252217
Y0218866
X0256942Y0218779
Y0223504
Y0228228
Y0232953
X0252217
X0247493
Y0228228
X0252217
X0275Y0233
Y02365
X0283914Y0224586
X0285866Y0216866
Y02025
X0355Y02235
Y02285
X0324Y01235
X03175
X03085Y01205
X03035
X02985
Y0115
X03035
X03085
X031Y00975
Y0094
X03135
X0297
Y00975
X02965Y00835
X02925
X0395Y0087646
X04025Y009
X040575Y008875
X04025Y00835
X0419Y00895
X0437Y0106
X04395Y01085
X043975Y011275
X044025Y011625
X0437Y0134854
X04375Y0146
X04405Y01435
X0443Y01465
X04365Y01535
X04325Y01555
X0421Y01575
X04155Y01545
X0417Y0145
X04226Y0144834
X0402Y0145
X0406Y014
X0411646Y0134354
X0456146
X0463858Y0142
X0461Y01455
Y0152
X04655Y0155
X0465706Y0164
X04615Y0163
X0469Y0144
X04865Y0145
X04835Y0134354
X0469764Y0114264
X0463858
X0505Y01055
X0509354Y0098146
X052Y00985
X0519445Y0091445
X05165Y0122
X051
X0524
X05035Y0223
Y02285
X0432866Y0216866
Y0202134
X0424914Y0224586
X042Y0233
Y02365
X0403942Y0233012
X0399217
X0394493
Y0228287
Y0223563
X0399217
Y0218925
X0394493Y0218838
X0403942
Y0223563
Y0228287
X0399217
X0382Y02215
X03845Y01095
X0382Y01065
X0387
X03845Y0103
X0542Y00845
X05865Y00985
X059Y01035
X0594177Y01115
X0599295Y0115
X0579425Y02015
Y0216925
X0571645Y0224645
X0565Y02325
Y02365
X0550442Y0233012
X0545717
X0540993
Y0228287
Y0223563
X0545717
Y0218925
X0540993Y0218838
X0550442
Y0223563
Y0228287
X0545717
X05285Y0222
X0565Y02425
X05795Y0302
X0579464Y0317464
X05895Y03215
X05865Y03275
X0594Y03155
X05965Y03115
X05675Y03335
Y0337
X0567402Y0343098
X0551791Y0333552
X0547066
X0542343
Y0328826
Y0324102
X0547066
Y0319464
X0542343Y0319377
X0551791
Y0324102
Y0328826
X0547066
X0529626Y0322625
X0501Y0325
Y033
X04575Y03595
X042Y0343
Y0337
Y03335
X0423414Y0325086
X0433366Y0317366
X0421744Y0303256
X0404942Y0319279
Y0324004
Y0328728
Y0333453
X0400217
X0395493
Y0328728
Y0324004
X0400217
Y0319366
X0395493Y0319279
X0400217Y0328728
X0383027Y0322527
X04275Y0259
X042Y02425
X0461Y02605
X0458Y02635
X0465Y0258
X0468Y0255
X04725Y02615
X0358Y03295
Y03345
X02965Y03275
Y03175
X02865Y0315
X02715Y03125
X0257442Y0319279
Y0324004
Y0328728
X0252717
Y0324004
Y0319366
X0247993Y0319279
Y0324004
Y0328728
Y0333453
X0252717
X0257442
X02725Y03335
Y0337
Y0343
X0235527Y0322527
X0275Y02425
X02115Y0318
Y0328
Y0332
X0127221Y0328779
X012975Y03215
Y03145
Y031
X0114984Y03345
Y03385
Y0344134
X0100724Y0334587
X0095999
X0091276
Y0329862
Y0325138
X0095999
Y03205
X0091276Y0320413
X0100724
Y0325138
Y0329862
X0095999
X0076148Y0328352
X007469Y0325056
X00765Y0319
X0079Y0306
X0083
X0087
X00675Y03045
Y03095
X00745Y02975
Y02935
X0075Y0334
X00625Y0337
X01175Y0242
X00515Y0322
Y03275
X0043Y0337
T02
X0110032Y0050031
X0113969
Y0053968
X0110032
T03
X0411Y00285
X01415Y0156
X0135
X01285
Y0164
X0135
X01415
X034161Y023711
X0379Y0191866
X04905Y01535
X0525925Y0185925
X0486Y02605
X0485Y0272
X04415Y02915
X0391Y0283
X01905Y02545
T04
X0388354Y0077646
X03625Y00525
X03365Y00595
X0336553Y0079947
X02735Y0074
X0246Y00615
Y00545
X024
X0208Y0053
Y00595
Y00655
X020125
Y00595
Y0053
X01945Y00595
Y00655
X019Y00285
Y0017
X0205127Y0026627
X0155Y00365
Y004325
Y005
X0146
Y004325
Y00365
X0135Y00475
X0118285Y00185
X0096Y00215
X0089
X0082
X0077Y00325
Y0039
X007875Y00525
X00725
X0085
X0113Y00715
X0055Y00375
X00475
Y002975
X0055
Y0022
X00475
X0026134Y0190366
X00515Y0216
X003811Y023761
X0075866Y0201634
X0073366Y0190366
X0129615Y0180115
X0187134Y0188366
X0209Y02155
X019789Y023711
X008Y00985
X00725
X0065
Y009
X00725
X00805
X0232866Y0188366
X0231866Y0198634
X0293Y0207
X0286115Y0180115
X03335Y0192
X0356Y02155
X0356756Y0125
X0378866Y0200366
X0426256Y0202
X0433115Y018
X0478075Y0185925
X0505Y0215
X0490669Y0236169
X0524925Y0197575
X05835Y0207
X05795Y0181
X0542Y01225
X0527Y0291464
X0526965Y0303
X05845Y03065
X0580965Y0280035
X0498217Y0250782
X04785Y02915
X05015Y0317
X0491256Y0337244
X04985Y03515
X0438Y0308
X0434Y0281
X0379Y0294
X03795Y03015
X036Y03225
X034711Y034161
X0353218Y0355282
X0331134Y0293866
X0289Y0306
X02865Y0281
X02315Y02785
X0233Y03005
X0350717Y0251782
X0204717Y02495
X019Y02885
X019961Y034011
X0205218Y03545
X01095Y03045
X013Y0281
X0035Y0288
X0046218Y0250782
X00485Y035
T06
X05965Y0079
X04025Y00255
X03925
X03825
X03725
Y00155
X03825
X03925
X04025
X0316Y0063079
Y0072921
X0023Y0215315
Y0225159
Y0235
X0084718Y0191366
X0094718
X0104718
X0178Y0202657
Y02125
Y0222341
Y0232185
X0241217Y0191866
X0251218
X0261217
X03205Y0202736
Y0212579
Y0222421
Y0232264
X0388217Y0191866
X0398218
X0408217
X0472Y0203236
Y021308
Y0222921
Y0232765
X05005Y01355
X0534718Y0191925
X0544718
X0554717
X05965Y0093
X0556067Y0292464
X0546067
X0536067
X04655Y0303236
Y031308
Y0322921
Y0332765
X0409218Y0292366
X0399218
X0389217
X0327Y0307815
Y0317658
Y03275
Y0337344
X0261718Y0292366
X0251717
X0241718
X01845Y0306315
Y0316159
Y0326
Y0335843
X01055Y0292
X00955
X00855
X00265Y0302815
Y0312659
Y03225
Y0332344
X0023Y0244844
T07
X0051811Y0064827
Y0093173
T08
X0590551Y0019685
X0019685
X0590551Y0354331
X0019685
M30
