G04 Layer_Color=2752767*
%FSLAX25Y25*%
%MOIN*%
G70*
G01*
G75*
%ADD150C,0.00200*%
%ADD151C,0.00267*%
%ADD152C,0.00133*%
D150*
X315200Y62279D02*
Y63879D01*
X316800D01*
Y62279D01*
X315200D01*
Y72121D02*
Y73721D01*
X316800D01*
Y72121D01*
X315200D01*
X25700Y331543D02*
Y333143D01*
X27300D01*
Y331543D01*
X25700D01*
Y321700D02*
Y323300D01*
X27300D01*
Y321700D01*
X25700D01*
Y311859D02*
Y313458D01*
X27300D01*
Y311859D01*
X25700D01*
Y302015D02*
Y303615D01*
X27300D01*
Y302015D01*
X25700D01*
X51811Y64027D02*
X51011Y65627D01*
X52611D01*
X51811Y64027D01*
Y92373D02*
X51011Y93973D01*
X52611D01*
X51811Y92373D01*
X499700Y134700D02*
Y136300D01*
X501300D01*
Y134700D01*
X499700D01*
X372500Y14700D02*
X372900Y15100D01*
X373300D01*
X372900Y15500D01*
X373300Y15900D01*
X372900D01*
X372500Y16300D01*
X372100Y15900D01*
X371700D01*
X372100Y15500D01*
X371700Y15100D01*
X372100D01*
X372500Y14700D01*
Y24700D02*
X372900Y25100D01*
X373300D01*
X372900Y25500D01*
X373300Y25900D01*
X372900D01*
X372500Y26300D01*
X372100Y25900D01*
X371700D01*
X372100Y25500D01*
X371700Y25100D01*
X372100D01*
X372500Y24700D01*
X382500Y14700D02*
X382900Y15100D01*
X383300D01*
X382900Y15500D01*
X383300Y15900D01*
X382900D01*
X382500Y16300D01*
X382100Y15900D01*
X381700D01*
X382100Y15500D01*
X381700Y15100D01*
X382100D01*
X382500Y14700D01*
Y24700D02*
X382900Y25100D01*
X383300D01*
X382900Y25500D01*
X383300Y25900D01*
X382900D01*
X382500Y26300D01*
X382100Y25900D01*
X381700D01*
X382100Y25500D01*
X381700Y25100D01*
X382100D01*
X382500Y24700D01*
X392500Y14700D02*
X392900Y15100D01*
X393300D01*
X392900Y15500D01*
X393300Y15900D01*
X392900D01*
X392500Y16300D01*
X392100Y15900D01*
X391700D01*
X392100Y15500D01*
X391700Y15100D01*
X392100D01*
X392500Y14700D01*
Y24700D02*
X392900Y25100D01*
X393300D01*
X392900Y25500D01*
X393300Y25900D01*
X392900D01*
X392500Y26300D01*
X392100Y25900D01*
X391700D01*
X392100Y25500D01*
X391700Y25100D01*
X392100D01*
X392500Y24700D01*
X402500Y14700D02*
X402900Y15100D01*
X403300D01*
X402900Y15500D01*
X403300Y15900D01*
X402900D01*
X402500Y16300D01*
X402100Y15900D01*
X401700D01*
X402100Y15500D01*
X401700Y15100D01*
X402100D01*
X402500Y14700D01*
Y24700D02*
X402900Y25100D01*
X403300D01*
X402900Y25500D01*
X403300Y25900D01*
X402900D01*
X402500Y26300D01*
X402100Y25900D01*
X401700D01*
X402100Y25500D01*
X401700Y25100D01*
X402100D01*
X402500Y24700D01*
X104700Y291200D02*
Y292800D01*
X106300D01*
Y291200D01*
X104700D01*
X94700D02*
Y292800D01*
X96300D01*
Y291200D01*
X94700D01*
X84700D02*
Y292800D01*
X86300D01*
Y291200D01*
X84700D01*
X595700Y78200D02*
Y79800D01*
X597300D01*
Y78200D01*
X595700D01*
Y92200D02*
Y93800D01*
X597300D01*
Y92200D01*
X595700D01*
X260917Y291566D02*
Y293166D01*
X262517D01*
Y291566D01*
X260917D01*
X250918D02*
Y293166D01*
X252518D01*
Y291566D01*
X250918D01*
X240917D02*
Y293166D01*
X242517D01*
Y291566D01*
X240917D01*
X408418D02*
Y293166D01*
X410017D01*
Y291566D01*
X408418D01*
X398417D02*
Y293166D01*
X400017D01*
Y291566D01*
X398417D01*
X388418D02*
Y293166D01*
X390018D01*
Y291566D01*
X388418D01*
X555267Y291665D02*
Y293265D01*
X556867D01*
Y291665D01*
X555267D01*
X545267D02*
Y293265D01*
X546867D01*
Y291665D01*
X545267D01*
X535267D02*
Y293265D01*
X536867D01*
Y291665D01*
X535267D01*
X103918Y190566D02*
Y192166D01*
X105517D01*
Y190566D01*
X103918D01*
X93918D02*
Y192166D01*
X95517D01*
Y190566D01*
X93918D01*
X83917D02*
Y192166D01*
X85518D01*
Y190566D01*
X83917D01*
X260418Y191066D02*
Y192666D01*
X262017D01*
Y191066D01*
X260418D01*
X250417D02*
Y192666D01*
X252017D01*
Y191066D01*
X250417D01*
X240418D02*
Y192666D01*
X242018D01*
Y191066D01*
X240418D01*
X407417D02*
Y192666D01*
X409018D01*
Y191066D01*
X407417D01*
X397417D02*
Y192666D01*
X399018D01*
Y191066D01*
X397417D01*
X387418D02*
Y192666D01*
X389018D01*
Y191066D01*
X387418D01*
X553918Y191125D02*
Y192725D01*
X555517D01*
Y191125D01*
X553918D01*
X543918D02*
Y192725D01*
X545517D01*
Y191125D01*
X543918D01*
X533918D02*
Y192725D01*
X535518D01*
Y191125D01*
X533918D01*
X183700Y305515D02*
Y307115D01*
X185300D01*
Y305515D01*
X183700D01*
Y315358D02*
Y316958D01*
X185300D01*
Y315358D01*
X183700D01*
Y325200D02*
Y326800D01*
X185300D01*
Y325200D01*
X183700D01*
Y335044D02*
Y336644D01*
X185300D01*
Y335044D01*
X183700D01*
X326200Y307015D02*
Y308615D01*
X327800D01*
Y307015D01*
X326200D01*
Y316859D02*
Y318459D01*
X327800D01*
Y316859D01*
X326200D01*
Y326700D02*
Y328300D01*
X327800D01*
Y326700D01*
X326200D01*
Y336543D02*
Y338143D01*
X327800D01*
Y336543D01*
X326200D01*
X464700Y302436D02*
Y304036D01*
X466300D01*
Y302436D01*
X464700D01*
Y312280D02*
Y313879D01*
X466300D01*
Y312280D01*
X464700D01*
Y322121D02*
Y323721D01*
X466300D01*
Y322121D01*
X464700D01*
Y331964D02*
Y333564D01*
X466300D01*
Y331964D01*
X464700D01*
X22200Y214515D02*
Y216115D01*
X23800D01*
Y214515D01*
X22200D01*
Y224359D02*
Y225958D01*
X23800D01*
Y224359D01*
X22200D01*
Y234200D02*
Y235800D01*
X23800D01*
Y234200D01*
X22200D01*
Y244043D02*
Y245643D01*
X23800D01*
Y244043D01*
X22200D01*
X177200Y201856D02*
Y203456D01*
X178800D01*
Y201856D01*
X177200D01*
Y211700D02*
Y213300D01*
X178800D01*
Y211700D01*
X177200D01*
Y221542D02*
Y223142D01*
X178800D01*
Y221542D01*
X177200D01*
Y231385D02*
Y232985D01*
X178800D01*
Y231385D01*
X177200D01*
X319700Y201936D02*
Y203536D01*
X321300D01*
Y201936D01*
X319700D01*
Y211779D02*
Y213380D01*
X321300D01*
Y211779D01*
X319700D01*
Y221621D02*
Y223221D01*
X321300D01*
Y221621D01*
X319700D01*
Y231465D02*
Y233065D01*
X321300D01*
Y231465D01*
X319700D01*
X471200Y202436D02*
Y204036D01*
X472800D01*
Y202436D01*
X471200D01*
Y212280D02*
Y213879D01*
X472800D01*
Y212280D01*
X471200D01*
Y222121D02*
Y223721D01*
X472800D01*
Y222121D01*
X471200D01*
Y231964D02*
Y233564D01*
X472800D01*
Y231964D01*
X471200D01*
X464906Y163200D02*
X465306Y164000D01*
X464906Y164800D01*
X465706Y164400D01*
X466506Y164800D01*
X466106Y164000D01*
X466506Y163200D01*
X465706Y163600D01*
X464906Y163200D01*
X80100Y89600D02*
Y89200D01*
X80900D01*
Y89600D01*
X81300D01*
Y90400D01*
X80900D01*
Y90800D01*
X80100D01*
Y90400D01*
X79700D01*
Y89600D01*
X80100D01*
X72100D02*
Y89200D01*
X72900D01*
Y89600D01*
X73300D01*
Y90400D01*
X72900D01*
Y90800D01*
X72100D01*
Y90400D01*
X71700D01*
Y89600D01*
X72100D01*
X64600D02*
Y89200D01*
X65400D01*
Y89600D01*
X65800D01*
Y90400D01*
X65400D01*
Y90800D01*
X64600D01*
Y90400D01*
X64200D01*
Y89600D01*
X64600D01*
X79600Y98100D02*
Y97700D01*
X80400D01*
Y98100D01*
X80800D01*
Y98900D01*
X80400D01*
Y99300D01*
X79600D01*
Y98900D01*
X79200D01*
Y98100D01*
X79600D01*
X72100D02*
Y97700D01*
X72900D01*
Y98100D01*
X73300D01*
Y98900D01*
X72900D01*
Y99300D01*
X72100D01*
Y98900D01*
X71700D01*
Y98100D01*
X72100D01*
X64600D02*
Y97700D01*
X65400D01*
Y98100D01*
X65800D01*
Y98900D01*
X65400D01*
Y99300D01*
X64600D01*
Y98900D01*
X64200D01*
Y98100D01*
X64600D01*
X273100Y73600D02*
Y73200D01*
X273900D01*
Y73600D01*
X274300D01*
Y74400D01*
X273900D01*
Y74800D01*
X273100D01*
Y74400D01*
X272700D01*
Y73600D01*
X273100D01*
X207600Y52600D02*
Y52200D01*
X208400D01*
Y52600D01*
X208800D01*
Y53400D01*
X208400D01*
Y53800D01*
X207600D01*
Y53400D01*
X207200D01*
Y52600D01*
X207600D01*
X200850D02*
Y52200D01*
X201650D01*
Y52600D01*
X202050D01*
Y53400D01*
X201650D01*
Y53800D01*
X200850D01*
Y53400D01*
X200450D01*
Y52600D01*
X200850D01*
X207600Y59100D02*
Y58700D01*
X208400D01*
Y59100D01*
X208800D01*
Y59900D01*
X208400D01*
Y60300D01*
X207600D01*
Y59900D01*
X207200D01*
Y59100D01*
X207600D01*
X200850D02*
Y58700D01*
X201650D01*
Y59100D01*
X202050D01*
Y59900D01*
X201650D01*
Y60300D01*
X200850D01*
Y59900D01*
X200450D01*
Y59100D01*
X200850D01*
X194100D02*
Y58700D01*
X194900D01*
Y59100D01*
X195300D01*
Y59900D01*
X194900D01*
Y60300D01*
X194100D01*
Y59900D01*
X193700D01*
Y59100D01*
X194100D01*
X207600Y65100D02*
Y64700D01*
X208400D01*
Y65100D01*
X208800D01*
Y65900D01*
X208400D01*
Y66300D01*
X207600D01*
Y65900D01*
X207200D01*
Y65100D01*
X207600D01*
X200850D02*
Y64700D01*
X201650D01*
Y65100D01*
X202050D01*
Y65900D01*
X201650D01*
Y66300D01*
X200850D01*
Y65900D01*
X200450D01*
Y65100D01*
X200850D01*
X194100D02*
Y64700D01*
X194900D01*
Y65100D01*
X195300D01*
Y65900D01*
X194900D01*
Y66300D01*
X194100D01*
Y65900D01*
X193700D01*
Y65100D01*
X194100D01*
X189600Y16600D02*
Y16200D01*
X190400D01*
Y16600D01*
X190800D01*
Y17400D01*
X190400D01*
Y17800D01*
X189600D01*
Y17400D01*
X189200D01*
Y16600D01*
X189600D01*
Y28100D02*
Y27700D01*
X190400D01*
Y28100D01*
X190800D01*
Y28900D01*
X190400D01*
Y29300D01*
X189600D01*
Y28900D01*
X189200D01*
Y28100D01*
X189600D01*
X129600Y280600D02*
Y280200D01*
X130400D01*
Y280600D01*
X130800D01*
Y281400D01*
X130400D01*
Y281800D01*
X129600D01*
Y281400D01*
X129200D01*
Y280600D01*
X129600D01*
X302700Y114200D02*
X303100Y115000D01*
X302700Y115800D01*
X303500Y115400D01*
X304300Y115800D01*
X303900Y115000D01*
X304300Y114200D01*
X303500Y114600D01*
X302700Y114200D01*
X297700Y119700D02*
X298100Y120500D01*
X297700Y121300D01*
X298500Y120900D01*
X299300Y121300D01*
X298900Y120500D01*
X299300Y119700D01*
X298500Y120100D01*
X297700Y119700D01*
X302700D02*
X303100Y120500D01*
X302700Y121300D01*
X303500Y120900D01*
X304300Y121300D01*
X303900Y120500D01*
X304300Y119700D01*
X303500Y120100D01*
X302700Y119700D01*
X307700D02*
X308100Y120500D01*
X307700Y121300D01*
X308500Y120900D01*
X309300Y121300D01*
X308900Y120500D01*
X309300Y119700D01*
X308500Y120100D01*
X307700Y119700D01*
X116700Y241200D02*
X117100Y242000D01*
X116700Y242800D01*
X117500Y242400D01*
X118300Y242800D01*
X117900Y242000D01*
X118300Y241200D01*
X117500Y241600D01*
X116700Y241200D01*
Y235200D02*
X117100Y236000D01*
X116700Y236800D01*
X117500Y236400D01*
X118300Y236800D01*
X117900Y236000D01*
X118300Y235200D01*
X117500Y235600D01*
X116700Y235200D01*
Y231700D02*
X117100Y232500D01*
X116700Y233300D01*
X117500Y232900D01*
X118300Y233300D01*
X117900Y232500D01*
X118300Y231700D01*
X117500Y232100D01*
X116700Y231700D01*
X356356Y124600D02*
Y124200D01*
X357156D01*
Y124600D01*
X357556D01*
Y125400D01*
X357156D01*
Y125800D01*
X356356D01*
Y125400D01*
X355956D01*
Y124600D01*
X356356D01*
X296200Y93200D02*
X296600Y94000D01*
X296200Y94800D01*
X297000Y94400D01*
X297800Y94800D01*
X297400Y94000D01*
X297800Y93200D01*
X297000Y93600D01*
X296200Y93200D01*
Y96700D02*
X296600Y97500D01*
X296200Y98300D01*
X297000Y97900D01*
X297800Y98300D01*
X297400Y97500D01*
X297800Y96700D01*
X297000Y97100D01*
X296200Y96700D01*
X312700Y93200D02*
X313100Y94000D01*
X312700Y94800D01*
X313500Y94400D01*
X314300Y94800D01*
X313900Y94000D01*
X314300Y93200D01*
X313500Y93600D01*
X312700Y93200D01*
X309200D02*
X309600Y94000D01*
X309200Y94800D01*
X310000Y94400D01*
X310800Y94800D01*
X310400Y94000D01*
X310800Y93200D01*
X310000Y93600D01*
X309200Y93200D01*
Y96700D02*
X309600Y97500D01*
X309200Y98300D01*
X310000Y97900D01*
X310800Y98300D01*
X310400Y97500D01*
X310800Y96700D01*
X310000Y97100D01*
X309200Y96700D01*
X78700Y115200D02*
X79100Y116000D01*
X78700Y116800D01*
X79500Y116400D01*
X80300Y116800D01*
X79900Y116000D01*
X80300Y115200D01*
X79500Y115600D01*
X78700Y115200D01*
X73700D02*
X74100Y116000D01*
X73700Y116800D01*
X74500Y116400D01*
X75300Y116800D01*
X74900Y116000D01*
X75300Y115200D01*
X74500Y115600D01*
X73700Y115200D01*
X68700D02*
X69100Y116000D01*
X68700Y116800D01*
X69500Y116400D01*
X70300Y116800D01*
X69900Y116000D01*
X70300Y115200D01*
X69500Y115600D01*
X68700Y115200D01*
X78700Y120450D02*
X79100Y121250D01*
X78700Y122050D01*
X79500Y121650D01*
X80300Y122050D01*
X79900Y121250D01*
X80300Y120450D01*
X79500Y120850D01*
X78700Y120450D01*
X73700D02*
X74100Y121250D01*
X73700Y122050D01*
X74500Y121650D01*
X75300Y122050D01*
X74900Y121250D01*
X75300Y120450D01*
X74500Y120850D01*
X73700Y120450D01*
X68700D02*
X69100Y121250D01*
X68700Y122050D01*
X69500Y121650D01*
X70300Y122050D01*
X69900Y121250D01*
X70300Y120450D01*
X69500Y120850D01*
X68700Y120450D01*
X78700Y125700D02*
X79100Y126500D01*
X78700Y127300D01*
X79500Y126900D01*
X80300Y127300D01*
X79900Y126500D01*
X80300Y125700D01*
X79500Y126100D01*
X78700Y125700D01*
X73700D02*
X74100Y126500D01*
X73700Y127300D01*
X74500Y126900D01*
X75300Y127300D01*
X74900Y126500D01*
X75300Y125700D01*
X74500Y126100D01*
X73700Y125700D01*
X68700D02*
X69100Y126500D01*
X68700Y127300D01*
X69500Y126900D01*
X70300Y127300D01*
X69900Y126500D01*
X70300Y125700D01*
X69500Y126100D01*
X68700Y125700D01*
X204727Y26227D02*
Y25827D01*
X205527D01*
Y26227D01*
X205927D01*
Y27027D01*
X205527D01*
Y27427D01*
X204727D01*
Y27027D01*
X204327D01*
Y26227D01*
X204727D01*
X61700Y336200D02*
X62100Y337000D01*
X61700Y337800D01*
X62500Y337400D01*
X63300Y337800D01*
X62900Y337000D01*
X63300Y336200D01*
X62500Y336600D01*
X61700Y336200D01*
X42200D02*
X42600Y337000D01*
X42200Y337800D01*
X43000Y337400D01*
X43800Y337800D01*
X43400Y337000D01*
X43800Y336200D01*
X43000Y336600D01*
X42200Y336200D01*
X86200Y305200D02*
X86600Y306000D01*
X86200Y306800D01*
X87000Y306400D01*
X87800Y306800D01*
X87400Y306000D01*
X87800Y305200D01*
X87000Y305600D01*
X86200Y305200D01*
X82200D02*
X82600Y306000D01*
X82200Y306800D01*
X83000Y306400D01*
X83800Y306800D01*
X83400Y306000D01*
X83800Y305200D01*
X83000Y305600D01*
X82200Y305200D01*
X78200D02*
X78600Y306000D01*
X78200Y306800D01*
X79000Y306400D01*
X79800Y306800D01*
X79400Y306000D01*
X79800Y305200D01*
X79000Y305600D01*
X78200Y305200D01*
X66700Y303700D02*
X67100Y304500D01*
X66700Y305300D01*
X67500Y304900D01*
X68300Y305300D01*
X67900Y304500D01*
X68300Y303700D01*
X67500Y304100D01*
X66700Y303700D01*
Y308700D02*
X67100Y309500D01*
X66700Y310300D01*
X67500Y309900D01*
X68300Y310300D01*
X67900Y309500D01*
X68300Y308700D01*
X67500Y309100D01*
X66700Y308700D01*
X73700Y292700D02*
X74100Y293500D01*
X73700Y294300D01*
X74500Y293900D01*
X75300Y294300D01*
X74900Y293500D01*
X75300Y292700D01*
X74500Y293100D01*
X73700Y292700D01*
Y296700D02*
X74100Y297500D01*
X73700Y298300D01*
X74500Y297900D01*
X75300Y298300D01*
X74900Y297500D01*
X75300Y296700D01*
X74500Y297100D01*
X73700Y296700D01*
X75700Y318200D02*
X76100Y319000D01*
X75700Y319800D01*
X76500Y319400D01*
X77300Y319800D01*
X76900Y319000D01*
X77300Y318200D01*
X76500Y318600D01*
X75700Y318200D01*
X73889Y324256D02*
X74290Y325056D01*
X73889Y325856D01*
X74690Y325456D01*
X75489Y325856D01*
X75090Y325056D01*
X75489Y324256D01*
X74690Y324656D01*
X73889Y324256D01*
X126421Y327979D02*
X126821Y328779D01*
X126421Y329579D01*
X127221Y329179D01*
X128021Y329579D01*
X127621Y328779D01*
X128021Y327979D01*
X127221Y328379D01*
X126421Y327979D01*
X117885Y18100D02*
Y17700D01*
X118685D01*
Y18100D01*
X119085D01*
Y18900D01*
X118685D01*
Y19300D01*
X117885D01*
Y18900D01*
X117485D01*
Y18100D01*
X117885D01*
X566700Y332700D02*
X567100Y333500D01*
X566700Y334300D01*
X567500Y333900D01*
X568300Y334300D01*
X567900Y333500D01*
X568300Y332700D01*
X567500Y333100D01*
X566700Y332700D01*
Y336200D02*
X567100Y337000D01*
X566700Y337800D01*
X567500Y337400D01*
X568300Y337800D01*
X567900Y337000D01*
X568300Y336200D01*
X567500Y336600D01*
X566700Y336200D01*
X498100Y351100D02*
Y350700D01*
X498900D01*
Y351100D01*
X499300D01*
Y351900D01*
X498900D01*
Y352300D01*
X498100D01*
Y351900D01*
X497700D01*
Y351100D01*
X498100D01*
X478100Y291100D02*
Y290700D01*
X478900D01*
Y291100D01*
X479300D01*
Y291900D01*
X478900D01*
Y292300D01*
X478100D01*
Y291900D01*
X477700D01*
Y291100D01*
X478100D01*
X580564Y279636D02*
Y279236D01*
X581364D01*
Y279636D01*
X581765D01*
Y280435D01*
X581364D01*
Y280836D01*
X580564D01*
Y280435D01*
X580164D01*
Y279636D01*
X580564D01*
X274200Y241700D02*
X274600Y242500D01*
X274200Y243300D01*
X275000Y242900D01*
X275800Y243300D01*
X275400Y242500D01*
X275800Y241700D01*
X275000Y242100D01*
X274200Y241700D01*
X231466Y198234D02*
Y197834D01*
X232266D01*
Y198234D01*
X232666D01*
Y199034D01*
X232266D01*
Y199434D01*
X231466D01*
Y199034D01*
X231066D01*
Y198234D01*
X231466D01*
X285715Y179715D02*
Y179315D01*
X286515D01*
Y179715D01*
X286915D01*
Y180515D01*
X286515D01*
Y180915D01*
X285715D01*
Y180515D01*
X285315D01*
Y179715D01*
X285715D01*
X186734Y187966D02*
Y187566D01*
X187534D01*
Y187966D01*
X187934D01*
Y188766D01*
X187534D01*
Y189166D01*
X186734D01*
Y188766D01*
X186334D01*
Y187966D01*
X186734D01*
X204317Y249100D02*
Y248700D01*
X205118D01*
Y249100D01*
X205518D01*
Y249900D01*
X205118D01*
Y250300D01*
X204317D01*
Y249900D01*
X203918D01*
Y249100D01*
X204317D01*
X274200Y232200D02*
X274600Y233000D01*
X274200Y233800D01*
X275000Y233400D01*
X275800Y233800D01*
X275400Y233000D01*
X275800Y232200D01*
X275000Y232600D01*
X274200Y232200D01*
Y235700D02*
X274600Y236500D01*
X274200Y237300D01*
X275000Y236900D01*
X275800Y237300D01*
X275400Y236500D01*
X275800Y235700D01*
X275000Y236100D01*
X274200Y235700D01*
X419200Y332700D02*
X419600Y333500D01*
X419200Y334300D01*
X420000Y333900D01*
X420800Y334300D01*
X420400Y333500D01*
X420800Y332700D01*
X420000Y333100D01*
X419200Y332700D01*
Y336200D02*
X419600Y337000D01*
X419200Y337800D01*
X420000Y337400D01*
X420800Y337800D01*
X420400Y337000D01*
X420800Y336200D01*
X420000Y336600D01*
X419200Y336200D01*
X357200Y333700D02*
X357600Y334500D01*
X357200Y335300D01*
X358000Y334900D01*
X358800Y335300D01*
X358400Y334500D01*
X358800Y333700D01*
X358000Y334100D01*
X357200Y333700D01*
X352818Y354883D02*
Y354483D01*
X353618D01*
Y354883D01*
X354017D01*
Y355682D01*
X353618D01*
Y356083D01*
X352818D01*
Y355682D01*
X352417D01*
Y354883D01*
X352818D01*
X419200Y342200D02*
X419600Y343000D01*
X419200Y343800D01*
X420000Y343400D01*
X420800Y343800D01*
X420400Y343000D01*
X420800Y342200D01*
X420000Y342600D01*
X419200Y342200D01*
X330734Y293466D02*
Y293066D01*
X331534D01*
Y293466D01*
X331934D01*
Y294266D01*
X331534D01*
Y294666D01*
X330734D01*
Y294266D01*
X330334D01*
Y293466D01*
X330734D01*
X210700Y327200D02*
X211100Y328000D01*
X210700Y328800D01*
X211500Y328400D01*
X212300Y328800D01*
X211900Y328000D01*
X212300Y327200D01*
X211500Y327600D01*
X210700Y327200D01*
Y331200D02*
X211100Y332000D01*
X210700Y332800D01*
X211500Y332400D01*
X212300Y332800D01*
X211900Y332000D01*
X212300Y331200D01*
X211500Y331600D01*
X210700Y331200D01*
X286100Y280600D02*
Y280200D01*
X286900D01*
Y280600D01*
X287300D01*
Y281400D01*
X286900D01*
Y281800D01*
X286100D01*
Y281400D01*
X285700D01*
Y280600D01*
X286100D01*
X189600Y288100D02*
Y287700D01*
X190400D01*
Y288100D01*
X190800D01*
Y288900D01*
X190400D01*
Y289300D01*
X189600D01*
Y288900D01*
X189200D01*
Y288100D01*
X189600D01*
X271700Y332700D02*
X272100Y333500D01*
X271700Y334300D01*
X272500Y333900D01*
X273300Y334300D01*
X272900Y333500D01*
X273300Y332700D01*
X272500Y333100D01*
X271700Y332700D01*
Y336200D02*
X272100Y337000D01*
X271700Y337800D01*
X272500Y337400D01*
X273300Y337800D01*
X272900Y337000D01*
X273300Y336200D01*
X272500Y336600D01*
X271700Y336200D01*
Y342200D02*
X272100Y343000D01*
X271700Y343800D01*
X272500Y343400D01*
X273300Y343800D01*
X272900Y343000D01*
X273300Y342200D01*
X272500Y342600D01*
X271700Y342200D01*
X204818Y354100D02*
Y353700D01*
X205617D01*
Y354100D01*
X206017D01*
Y354900D01*
X205617D01*
Y355300D01*
X204818D01*
Y354900D01*
X204417D01*
Y354100D01*
X204818D01*
X48100Y349600D02*
Y349200D01*
X48900D01*
Y349600D01*
X49300D01*
Y350400D01*
X48900D01*
Y350800D01*
X48100D01*
Y350400D01*
X47700D01*
Y349600D01*
X48100D01*
X589751Y18885D02*
X590151D01*
X590551Y19285D01*
X590951Y18885D01*
X591351D01*
Y19285D01*
X590951Y19685D01*
X591351Y20085D01*
Y20485D01*
X590951D01*
X590551Y20085D01*
X590151Y20485D01*
X589751D01*
Y20085D01*
X590151Y19685D01*
X589751Y19285D01*
Y18885D01*
Y353531D02*
X590151D01*
X590551Y353931D01*
X590951Y353531D01*
X591351D01*
Y353931D01*
X590951Y354331D01*
X591351Y354731D01*
Y355131D01*
X590951D01*
X590551Y354731D01*
X590151Y355131D01*
X589751D01*
Y354731D01*
X590151Y354331D01*
X589751Y353931D01*
Y353531D01*
X18885D02*
X19285D01*
X19685Y353931D01*
X20085Y353531D01*
X20485D01*
Y353931D01*
X20085Y354331D01*
X20485Y354731D01*
Y355131D01*
X20085D01*
X19685Y354731D01*
X19285Y355131D01*
X18885D01*
Y354731D01*
X19285Y354331D01*
X18885Y353931D01*
Y353531D01*
Y18885D02*
X19285D01*
X19685Y19285D01*
X20085Y18885D01*
X20485D01*
Y19285D01*
X20085Y19685D01*
X20485Y20085D01*
Y20485D01*
X20085D01*
X19685Y20085D01*
X19285Y20485D01*
X18885D01*
Y20085D01*
X19285Y19685D01*
X18885Y19285D01*
Y18885D01*
X99924Y320413D02*
X100724Y321213D01*
X101524Y320413D01*
X100724Y319613D01*
X99924Y320413D01*
Y325138D02*
X100724Y325938D01*
X101524Y325138D01*
X100724Y324338D01*
X99924Y325138D01*
X95200Y320500D02*
X95999Y321300D01*
X96799Y320500D01*
X95999Y319700D01*
X95200Y320500D01*
Y325138D02*
X95999Y325938D01*
X96799Y325138D01*
X95999Y324338D01*
X95200Y325138D01*
X99924Y334587D02*
X100724Y335387D01*
X101524Y334587D01*
X100724Y333787D01*
X99924Y334587D01*
X95200D02*
X95999Y335387D01*
X96799Y334587D01*
X95999Y333787D01*
X95200Y334587D01*
X90475D02*
X91276Y335387D01*
X92076Y334587D01*
X91276Y333787D01*
X90475Y334587D01*
X99924Y329862D02*
X100724Y330662D01*
X101524Y329862D01*
X100724Y329062D01*
X99924Y329862D01*
X90475D02*
X91276Y330662D01*
X92076Y329862D01*
X91276Y329062D01*
X90475Y329862D01*
Y325138D02*
X91276Y325938D01*
X92076Y325138D01*
X91276Y324338D01*
X90475Y325138D01*
X95200Y329862D02*
X95999Y330662D01*
X96799Y329862D01*
X95999Y329062D01*
X95200Y329862D01*
X90475Y320413D02*
X91276Y321213D01*
X92076Y320413D01*
X91276Y319613D01*
X90475Y320413D01*
X34600Y287600D02*
Y287200D01*
X35400D01*
Y287600D01*
X35800D01*
Y288400D01*
X35400D01*
Y288800D01*
X34600D01*
Y288400D01*
X34200D01*
Y287600D01*
X34600D01*
X109100Y304100D02*
Y303700D01*
X109900D01*
Y304100D01*
X110300D01*
Y304900D01*
X109900D01*
Y305300D01*
X109100D01*
Y304900D01*
X108700D01*
Y304100D01*
X109100D01*
X50700Y321200D02*
X51100Y322000D01*
X50700Y322800D01*
X51500Y322400D01*
X52300Y322800D01*
X51900Y322000D01*
X52300Y321200D01*
X51500Y321600D01*
X50700Y321200D01*
Y326700D02*
X51100Y327500D01*
X50700Y328300D01*
X51500Y327900D01*
X52300Y328300D01*
X51900Y327500D01*
X52300Y326700D01*
X51500Y327100D01*
X50700Y326700D01*
X114184Y343334D02*
X114584Y344134D01*
X114184Y344934D01*
X114984Y344534D01*
X115784Y344934D01*
X115384Y344134D01*
X115784Y343334D01*
X114984Y343734D01*
X114184Y343334D01*
Y333700D02*
X114584Y334500D01*
X114184Y335300D01*
X114984Y334900D01*
X115784Y335300D01*
X115384Y334500D01*
X115784Y333700D01*
X114984Y334100D01*
X114184Y333700D01*
Y337700D02*
X114584Y338500D01*
X114184Y339300D01*
X114984Y338900D01*
X115784Y339300D01*
X115384Y338500D01*
X115784Y337700D01*
X114984Y338100D01*
X114184Y337700D01*
X500200Y329200D02*
X500600Y330000D01*
X500200Y330800D01*
X501000Y330400D01*
X501800Y330800D01*
X501400Y330000D01*
X501800Y329200D01*
X501000Y329600D01*
X500200Y329200D01*
Y324200D02*
X500600Y325000D01*
X500200Y325800D01*
X501000Y325400D01*
X501800Y325800D01*
X501400Y325000D01*
X501800Y324200D01*
X501000Y324600D01*
X500200Y324200D01*
X502700Y227700D02*
X503100Y228500D01*
X502700Y229300D01*
X503500Y228900D01*
X504300Y229300D01*
X503900Y228500D01*
X504300Y227700D01*
X503500Y228100D01*
X502700Y227700D01*
Y222200D02*
X503100Y223000D01*
X502700Y223800D01*
X503500Y223400D01*
X504300Y223800D01*
X503900Y223000D01*
X504300Y222200D01*
X503500Y222600D01*
X502700Y222200D01*
X564200Y235700D02*
X564600Y236500D01*
X564200Y237300D01*
X565000Y236900D01*
X565800Y237300D01*
X565400Y236500D01*
X565800Y235700D01*
X565000Y236100D01*
X564200Y235700D01*
Y231700D02*
X564600Y232500D01*
X564200Y233300D01*
X565000Y232900D01*
X565800Y233300D01*
X565400Y232500D01*
X565800Y231700D01*
X565000Y232100D01*
X564200Y231700D01*
Y241700D02*
X564600Y242500D01*
X564200Y243300D01*
X565000Y242900D01*
X565800Y243300D01*
X565400Y242500D01*
X565800Y241700D01*
X565000Y242100D01*
X564200Y241700D01*
X477675Y185525D02*
Y185125D01*
X478475D01*
Y185525D01*
X478875D01*
Y186325D01*
X478475D01*
Y186725D01*
X477675D01*
Y186325D01*
X477275D01*
Y185525D01*
X477675D01*
X524525Y197175D02*
Y196775D01*
X525325D01*
Y197175D01*
X525725D01*
Y197975D01*
X525325D01*
Y198375D01*
X524525D01*
Y197975D01*
X524125D01*
Y197175D01*
X524525D01*
X579100Y180600D02*
Y180200D01*
X579900D01*
Y180600D01*
X580300D01*
Y181400D01*
X579900D01*
Y181800D01*
X579100D01*
Y181400D01*
X578700D01*
Y180600D01*
X579100D01*
X75466Y201234D02*
Y200834D01*
X76266D01*
Y201234D01*
X76666D01*
Y202034D01*
X76266D01*
Y202434D01*
X75466D01*
Y202034D01*
X75066D01*
Y201234D01*
X75466D01*
X129215Y179715D02*
Y179315D01*
X130015D01*
Y179715D01*
X130415D01*
Y180515D01*
X130015D01*
Y180915D01*
X129215D01*
Y180515D01*
X128815D01*
Y179715D01*
X129215D01*
X25734Y189966D02*
Y189566D01*
X26534D01*
Y189966D01*
X26934D01*
Y190766D01*
X26534D01*
Y191166D01*
X25734D01*
Y190766D01*
X25334D01*
Y189966D01*
X25734D01*
X45818Y250382D02*
Y249983D01*
X46617D01*
Y250382D01*
X47017D01*
Y251183D01*
X46617D01*
Y251583D01*
X45818D01*
Y251183D01*
X45417D01*
Y250382D01*
X45818D01*
X50200Y227700D02*
X50600Y228500D01*
X50200Y229300D01*
X51000Y228900D01*
X51800Y229300D01*
X51400Y228500D01*
X51800Y227700D01*
X51000Y228100D01*
X50200Y227700D01*
Y222700D02*
X50600Y223500D01*
X50200Y224300D01*
X51000Y223900D01*
X51800Y224300D01*
X51400Y223500D01*
X51800Y222700D01*
X51000Y223100D01*
X50200Y222700D01*
X354200Y227700D02*
X354600Y228500D01*
X354200Y229300D01*
X355000Y228900D01*
X355800Y229300D01*
X355400Y228500D01*
X355800Y227700D01*
X355000Y228100D01*
X354200Y227700D01*
Y222700D02*
X354600Y223500D01*
X354200Y224300D01*
X355000Y223900D01*
X355800Y224300D01*
X355400Y223500D01*
X355800Y222700D01*
X355000Y223100D01*
X354200Y222700D01*
X419200Y235700D02*
X419600Y236500D01*
X419200Y237300D01*
X420000Y236900D01*
X420800Y237300D01*
X420400Y236500D01*
X420800Y235700D01*
X420000Y236100D01*
X419200Y235700D01*
Y232200D02*
X419600Y233000D01*
X419200Y233800D01*
X420000Y233400D01*
X420800Y233800D01*
X420400Y233000D01*
X420800Y232200D01*
X420000Y232600D01*
X419200Y232200D01*
Y241700D02*
X419600Y242500D01*
X419200Y243300D01*
X420000Y242900D01*
X420800Y243300D01*
X420400Y242500D01*
X420800Y241700D01*
X420000Y242100D01*
X419200Y241700D01*
X378466Y199966D02*
Y199566D01*
X379266D01*
Y199966D01*
X379666D01*
Y200766D01*
X379266D01*
Y201166D01*
X378466D01*
Y200766D01*
X378066D01*
Y199966D01*
X378466D01*
X432715Y179600D02*
Y179200D01*
X433515D01*
Y179600D01*
X433915D01*
Y180400D01*
X433515D01*
Y180800D01*
X432715D01*
Y180400D01*
X432315D01*
Y179600D01*
X432715D01*
X350318Y251382D02*
Y250982D01*
X351117D01*
Y251382D01*
X351518D01*
Y252183D01*
X351117D01*
Y252583D01*
X350318D01*
Y252183D01*
X349918D01*
Y251382D01*
X350318D01*
X145600Y49600D02*
Y49200D01*
X146400D01*
Y49600D01*
X146800D01*
Y50400D01*
X146400D01*
Y50800D01*
X145600D01*
Y50400D01*
X145200D01*
Y49600D01*
X145600D01*
X154600D02*
Y49200D01*
X155400D01*
Y49600D01*
X155800D01*
Y50400D01*
X155400D01*
Y50800D01*
X154600D01*
Y50400D01*
X154200D01*
Y49600D01*
X154600D01*
X145600Y42850D02*
Y42450D01*
X146400D01*
Y42850D01*
X146800D01*
Y43650D01*
X146400D01*
Y44050D01*
X145600D01*
Y43650D01*
X145200D01*
Y42850D01*
X145600D01*
X154600D02*
Y42450D01*
X155400D01*
Y42850D01*
X155800D01*
Y43650D01*
X155400D01*
Y44050D01*
X154600D01*
Y43650D01*
X154200D01*
Y42850D01*
X154600D01*
Y36100D02*
Y35700D01*
X155400D01*
Y36100D01*
X155800D01*
Y36900D01*
X155400D01*
Y37300D01*
X154600D01*
Y36900D01*
X154200D01*
Y36100D01*
X154600D01*
X145600D02*
Y35700D01*
X146400D01*
Y36100D01*
X146800D01*
Y36900D01*
X146400D01*
Y37300D01*
X145600D01*
Y36900D01*
X145200D01*
Y36100D01*
X145600D01*
X113169Y49231D02*
Y50831D01*
X114769D01*
Y49231D01*
X113169D01*
X113569Y49631D02*
Y50431D01*
X114369D01*
Y49631D01*
X113569D01*
X109232Y49231D02*
Y50831D01*
X110832D01*
Y49231D01*
X109232D01*
X109632Y49631D02*
Y50431D01*
X110432D01*
Y49631D01*
X109632D01*
X113169Y53168D02*
Y54768D01*
X114769D01*
Y53168D01*
X113169D01*
X113569Y53568D02*
Y54368D01*
X114369D01*
Y53568D01*
X113569D01*
X109232Y53168D02*
Y54768D01*
X110832D01*
Y53168D01*
X109232D01*
X109632Y53568D02*
Y54368D01*
X110432D01*
Y53568D01*
X109632D01*
X239600Y54100D02*
Y53700D01*
X240400D01*
Y54100D01*
X240800D01*
Y54900D01*
X240400D01*
Y55300D01*
X239600D01*
Y54900D01*
X239200D01*
Y54100D01*
X239600D01*
X245600Y61100D02*
Y60700D01*
X246400D01*
Y61100D01*
X246800D01*
Y61900D01*
X246400D01*
Y62300D01*
X245600D01*
Y61900D01*
X245200D01*
Y61100D01*
X245600D01*
X72100Y52100D02*
Y51700D01*
X72900D01*
Y52100D01*
X73300D01*
Y52900D01*
X72900D01*
Y53300D01*
X72100D01*
Y52900D01*
X71700D01*
Y52100D01*
X72100D01*
X84600D02*
Y51700D01*
X85400D01*
Y52100D01*
X85800D01*
Y52900D01*
X85400D01*
Y53300D01*
X84600D01*
Y52900D01*
X84200D01*
Y52100D01*
X84600D01*
X76600Y38600D02*
Y38200D01*
X77400D01*
Y38600D01*
X77800D01*
Y39400D01*
X77400D01*
Y39800D01*
X76600D01*
Y39400D01*
X76200D01*
Y38600D01*
X76600D01*
Y32100D02*
Y31700D01*
X77400D01*
Y32100D01*
X77800D01*
Y32900D01*
X77400D01*
Y33300D01*
X76600D01*
Y32900D01*
X76200D01*
Y32100D01*
X76600D01*
X78350Y52100D02*
Y51700D01*
X79150D01*
Y52100D01*
X79550D01*
Y52900D01*
X79150D01*
Y53300D01*
X78350D01*
Y52900D01*
X77950D01*
Y52100D01*
X78350D01*
X245600Y54100D02*
Y53700D01*
X246400D01*
Y54100D01*
X246800D01*
Y54900D01*
X246400D01*
Y55300D01*
X245600D01*
Y54900D01*
X245200D01*
Y54100D01*
X245600D01*
X537700Y27700D02*
X538100Y28500D01*
X537700Y29300D01*
X538500Y28900D01*
X539300Y29300D01*
X538900Y28500D01*
X539300Y27700D01*
X538500Y28100D01*
X537700Y27700D01*
X362200Y25700D02*
X362600Y26500D01*
X362200Y27300D01*
X363000Y26900D01*
X363800Y27300D01*
X363400Y26500D01*
X363800Y25700D01*
X363000Y26100D01*
X362200Y25700D01*
X240700Y26213D02*
X241100Y27013D01*
X240700Y27813D01*
X241500Y27413D01*
X242300Y27813D01*
X241900Y27013D01*
X242300Y26213D01*
X241500Y26613D01*
X240700Y26213D01*
X297700Y114200D02*
X298100Y115000D01*
X297700Y115800D01*
X298500Y115400D01*
X299300Y115800D01*
X298900Y115000D01*
X299300Y114200D01*
X298500Y114600D01*
X297700Y114200D01*
X307700D02*
X308100Y115000D01*
X307700Y115800D01*
X308500Y115400D01*
X309300Y115800D01*
X308900Y115000D01*
X309300Y114200D01*
X308500Y114600D01*
X307700Y114200D01*
X316700Y122700D02*
X317100Y123500D01*
X316700Y124300D01*
X317500Y123900D01*
X318300Y124300D01*
X317900Y123500D01*
X318300Y122700D01*
X317500Y123100D01*
X316700Y122700D01*
X323200D02*
X323600Y123500D01*
X323200Y124300D01*
X324000Y123900D01*
X324800Y124300D01*
X324400Y123500D01*
X324800Y122700D01*
X324000Y123100D01*
X323200Y122700D01*
X390700Y43200D02*
X391100Y44000D01*
X390700Y44800D01*
X391500Y44400D01*
X392300Y44800D01*
X391900Y44000D01*
X392300Y43200D01*
X391500Y43600D01*
X390700Y43200D01*
Y50700D02*
X391100Y51500D01*
X390700Y52300D01*
X391500Y51900D01*
X392300Y52300D01*
X391900Y51500D01*
X392300Y50700D01*
X391500Y51100D01*
X390700Y50700D01*
X394200Y86846D02*
X394600Y87646D01*
X394200Y88446D01*
X395000Y88046D01*
X395800Y88446D01*
X395400Y87646D01*
X395800Y86846D01*
X395000Y87246D01*
X394200Y86846D01*
X416200Y144200D02*
X416600Y145000D01*
X416200Y145800D01*
X417000Y145400D01*
X417800Y145800D01*
X417400Y145000D01*
X417800Y144200D01*
X417000Y144600D01*
X416200Y144200D01*
X485700D02*
X486100Y145000D01*
X485700Y145800D01*
X486500Y145400D01*
X487300Y145800D01*
X486900Y145000D01*
X487300Y144200D01*
X486500Y144600D01*
X485700Y144200D01*
X474700Y14200D02*
X475100Y15000D01*
X474700Y15800D01*
X475500Y15400D01*
X476300Y15800D01*
X475900Y15000D01*
X476300Y14200D01*
X475500Y14600D01*
X474700Y14200D01*
X488700D02*
X489100Y15000D01*
X488700Y15800D01*
X489500Y15400D01*
X490300Y15800D01*
X489900Y15000D01*
X490300Y14200D01*
X489500Y14600D01*
X488700Y14200D01*
X509200Y121200D02*
X509600Y122000D01*
X509200Y122800D01*
X510000Y122400D01*
X510800Y122800D01*
X510400Y122000D01*
X510800Y121200D01*
X510000Y121600D01*
X509200Y121200D01*
X515700D02*
X516100Y122000D01*
X515700Y122800D01*
X516500Y122400D01*
X517300Y122800D01*
X516900Y122000D01*
X517300Y121200D01*
X516500Y121600D01*
X515700Y121200D01*
X541600Y122100D02*
Y121700D01*
X542400D01*
Y122100D01*
X542800D01*
Y122900D01*
X542400D01*
Y123300D01*
X541600D01*
Y122900D01*
X541200D01*
Y122100D01*
X541600D01*
X509200Y46700D02*
X509600Y47500D01*
X509200Y48300D01*
X510000Y47900D01*
X510800Y48300D01*
X510400Y47500D01*
X510800Y46700D01*
X510000Y47100D01*
X509200Y46700D01*
X565700Y51200D02*
X566100Y52000D01*
X565700Y52800D01*
X566500Y52400D01*
X567300Y52800D01*
X566900Y52000D01*
X567300Y51200D01*
X566500Y51600D01*
X565700Y51200D01*
Y44200D02*
X566100Y45000D01*
X565700Y45800D01*
X566500Y45400D01*
X567300Y45800D01*
X566900Y45000D01*
X567300Y44200D01*
X566500Y44600D01*
X565700Y44200D01*
Y57200D02*
X566100Y58000D01*
X565700Y58800D01*
X566500Y58400D01*
X567300Y58800D01*
X566900Y58000D01*
X567300Y57200D01*
X566500Y57600D01*
X565700Y57200D01*
X126700Y105200D02*
X127100Y106000D01*
X126700Y106800D01*
X127500Y106400D01*
X128300Y106800D01*
X127900Y106000D01*
X128300Y105200D01*
X127500Y105600D01*
X126700Y105200D01*
X112600Y71100D02*
Y70700D01*
X113400D01*
Y71100D01*
X113800D01*
Y71900D01*
X113400D01*
Y72300D01*
X112600D01*
Y71900D01*
X112200D01*
Y71100D01*
X112600D01*
X47100Y37100D02*
Y36700D01*
X47900D01*
Y37100D01*
X48300D01*
Y37900D01*
X47900D01*
Y38300D01*
X47100D01*
Y37900D01*
X46700D01*
Y37100D01*
X47100D01*
X54600D02*
Y36700D01*
X55400D01*
Y37100D01*
X55800D01*
Y37900D01*
X55400D01*
Y38300D01*
X54600D01*
Y37900D01*
X54200D01*
Y37100D01*
X54600D01*
X47100Y29350D02*
Y28950D01*
X47900D01*
Y29350D01*
X48300D01*
Y30150D01*
X47900D01*
Y30550D01*
X47100D01*
Y30150D01*
X46700D01*
Y29350D01*
X47100D01*
X54600D02*
Y28950D01*
X55400D01*
Y29350D01*
X55800D01*
Y30150D01*
X55400D01*
Y30550D01*
X54600D01*
Y30150D01*
X54200D01*
Y29350D01*
X54600D01*
X47100Y21600D02*
Y21200D01*
X47900D01*
Y21600D01*
X48300D01*
Y22400D01*
X47900D01*
Y22800D01*
X47100D01*
Y22400D01*
X46700D01*
Y21600D01*
X47100D01*
X54600D02*
Y21200D01*
X55400D01*
Y21600D01*
X55800D01*
Y22400D01*
X55400D01*
Y22800D01*
X54600D01*
Y22400D01*
X54200D01*
Y21600D01*
X54600D01*
X81600Y21100D02*
Y20700D01*
X82400D01*
Y21100D01*
X82800D01*
Y21900D01*
X82400D01*
Y22300D01*
X81600D01*
Y21900D01*
X81200D01*
Y21100D01*
X81600D01*
X88600D02*
Y20700D01*
X89400D01*
Y21100D01*
X89800D01*
Y21900D01*
X89400D01*
Y22300D01*
X88600D01*
Y21900D01*
X88200D01*
Y21100D01*
X88600D01*
X95600D02*
Y20700D01*
X96400D01*
Y21100D01*
X96800D01*
Y21900D01*
X96400D01*
Y22300D01*
X95600D01*
Y21900D01*
X95200D01*
Y21100D01*
X95600D01*
X134600Y47100D02*
Y46700D01*
X135400D01*
Y47100D01*
X135800D01*
Y47900D01*
X135400D01*
Y48300D01*
X134600D01*
Y47900D01*
X134200D01*
Y47100D01*
X134600D01*
X217700Y69700D02*
X218100Y70500D01*
X217700Y71300D01*
X218500Y70900D01*
X219300Y71300D01*
X218900Y70500D01*
X219300Y69700D01*
X218500Y70100D01*
X217700Y69700D01*
X221700D02*
X222100Y70500D01*
X221700Y71300D01*
X222500Y70900D01*
X223300Y71300D01*
X222900Y70500D01*
X223300Y69700D01*
X222500Y70100D01*
X221700Y69700D01*
X217700Y66200D02*
X218100Y67000D01*
X217700Y67800D01*
X218500Y67400D01*
X219300Y67800D01*
X218900Y67000D01*
X219300Y66200D01*
X218500Y66600D01*
X217700Y66200D01*
Y62700D02*
X218100Y63500D01*
X217700Y64300D01*
X218500Y63900D01*
X219300Y64300D01*
X218900Y63500D01*
X219300Y62700D01*
X218500Y63100D01*
X217700Y62700D01*
X221700D02*
X222100Y63500D01*
X221700Y64300D01*
X222500Y63900D01*
X223300Y64300D01*
X222900Y63500D01*
X223300Y62700D01*
X222500Y63100D01*
X221700Y62700D01*
Y66200D02*
X222100Y67000D01*
X221700Y67800D01*
X222500Y67400D01*
X223300Y67800D01*
X222900Y67000D01*
X223300Y66200D01*
X222500Y66600D01*
X221700Y66200D01*
X291700Y82700D02*
X292100Y83500D01*
X291700Y84300D01*
X292500Y83900D01*
X293300Y84300D01*
X292900Y83500D01*
X293300Y82700D01*
X292500Y83100D01*
X291700Y82700D01*
X295700D02*
X296100Y83500D01*
X295700Y84300D01*
X296500Y83900D01*
X297300Y84300D01*
X296900Y83500D01*
X297300Y82700D01*
X296500Y83100D01*
X295700Y82700D01*
X291700Y79200D02*
X292100Y80000D01*
X291700Y80800D01*
X292500Y80400D01*
X293300Y80800D01*
X292900Y80000D01*
X293300Y79200D01*
X292500Y79600D01*
X291700Y79200D01*
X295700D02*
X296100Y80000D01*
X295700Y80800D01*
X296500Y80400D01*
X297300Y80800D01*
X296900Y80000D01*
X297300Y79200D01*
X296500Y79600D01*
X295700Y79200D01*
X292700Y64700D02*
X293100Y65500D01*
X292700Y66300D01*
X293500Y65900D01*
X294300Y66300D01*
X293900Y65500D01*
X294300Y64700D01*
X293500Y65100D01*
X292700Y64700D01*
X297700D02*
X298100Y65500D01*
X297700Y66300D01*
X298500Y65900D01*
X299300Y66300D01*
X298900Y65500D01*
X299300Y64700D01*
X298500Y65100D01*
X297700Y64700D01*
X292700Y60700D02*
X293100Y61500D01*
X292700Y62300D01*
X293500Y61900D01*
X294300Y62300D01*
X293900Y61500D01*
X294300Y60700D01*
X293500Y61100D01*
X292700Y60700D01*
X297700D02*
X298100Y61500D01*
X297700Y62300D01*
X298500Y61900D01*
X299300Y62300D01*
X298900Y61500D01*
X299300Y60700D01*
X298500Y61100D01*
X297700Y60700D01*
X324166Y31666D02*
X324566Y32466D01*
X324166Y33266D01*
X324966Y32866D01*
X325766Y33266D01*
X325366Y32466D01*
X325766Y31666D01*
X324966Y32066D01*
X324166Y31666D01*
X481700Y14200D02*
X482100Y15000D01*
X481700Y15800D01*
X482500Y15400D01*
X483300Y15800D01*
X482900Y15000D01*
X483300Y14200D01*
X482500Y14600D01*
X481700Y14200D01*
X465346Y19346D02*
X465746Y20146D01*
X465346Y20946D01*
X466146Y20546D01*
X466946Y20946D01*
X466546Y20146D01*
X466946Y19346D01*
X466146Y19746D01*
X465346Y19346D01*
X445846D02*
X446246Y20146D01*
X445846Y20946D01*
X446646Y20546D01*
X447446Y20946D01*
X447046Y20146D01*
X447446Y19346D01*
X446646Y19746D01*
X445846Y19346D01*
X504200Y104700D02*
X504600Y105500D01*
X504200Y106300D01*
X505000Y105900D01*
X505800Y106300D01*
X505400Y105500D01*
X505800Y104700D01*
X505000Y105100D01*
X504200Y104700D01*
X523200Y121200D02*
X523600Y122000D01*
X523200Y122800D01*
X524000Y122400D01*
X524800Y122800D01*
X524400Y122000D01*
X524800Y121200D01*
X524000Y121600D01*
X523200Y121200D01*
X508554Y97346D02*
X508954Y98146D01*
X508554Y98946D01*
X509354Y98546D01*
X510154Y98946D01*
X509754Y98146D01*
X510154Y97346D01*
X509354Y97746D01*
X508554Y97346D01*
X512200Y69700D02*
X512600Y70500D01*
X512200Y71300D01*
X513000Y70900D01*
X513800Y71300D01*
X513400Y70500D01*
X513800Y69700D01*
X513000Y70100D01*
X512200Y69700D01*
X513054Y55346D02*
X513454Y56146D01*
X513054Y56946D01*
X513854Y56546D01*
X514654Y56946D01*
X514254Y56146D01*
X514654Y55346D01*
X513854Y55746D01*
X513054Y55346D01*
X533784Y57284D02*
X534184Y58084D01*
X533784Y58884D01*
X534584Y58484D01*
X535384Y58884D01*
X534984Y58084D01*
X535384Y57284D01*
X534584Y57684D01*
X533784Y57284D01*
X509234Y31666D02*
X509634Y32466D01*
X509234Y33266D01*
X510034Y32866D01*
X510834Y33266D01*
X510434Y32466D01*
X510834Y31666D01*
X510034Y32066D01*
X509234Y31666D01*
X507200Y70700D02*
X507600Y71500D01*
X507200Y72300D01*
X508000Y71900D01*
X508800Y72300D01*
X508400Y71500D01*
X508800Y70700D01*
X508000Y71100D01*
X507200Y70700D01*
X410846Y133554D02*
X411246Y134354D01*
X410846Y135154D01*
X411646Y134754D01*
X412446Y135154D01*
X412046Y134354D01*
X412446Y133554D01*
X411646Y133954D01*
X410846Y133554D01*
X397846Y70554D02*
X398246Y71354D01*
X397846Y72154D01*
X398646Y71754D01*
X399446Y72154D01*
X399046Y71354D01*
X399446Y70554D01*
X398646Y70954D01*
X397846Y70554D01*
X518645Y90645D02*
X519045Y91445D01*
X518645Y92245D01*
X519445Y91845D01*
X520245Y92245D01*
X519845Y91445D01*
X520245Y90645D01*
X519445Y91045D01*
X518645Y90645D01*
X441554Y19346D02*
X441954Y20146D01*
X441554Y20946D01*
X442354Y20546D01*
X443154Y20946D01*
X442754Y20146D01*
X443154Y19346D01*
X442354Y19746D01*
X441554Y19346D01*
X461054D02*
X461454Y20146D01*
X461054Y20946D01*
X461854Y20546D01*
X462654Y20946D01*
X462254Y20146D01*
X462654Y19346D01*
X461854Y19746D01*
X461054Y19346D01*
X128950Y309200D02*
X129350Y310000D01*
X128950Y310800D01*
X129750Y310400D01*
X130550Y310800D01*
X130150Y310000D01*
X130550Y309200D01*
X129750Y309600D01*
X128950Y309200D01*
Y313700D02*
X129350Y314500D01*
X128950Y315300D01*
X129750Y314900D01*
X130550Y315300D01*
X130150Y314500D01*
X130550Y313700D01*
X129750Y314100D01*
X128950Y313700D01*
Y320700D02*
X129350Y321500D01*
X128950Y322300D01*
X129750Y321900D01*
X130550Y322300D01*
X130150Y321500D01*
X130550Y320700D01*
X129750Y321100D01*
X128950Y320700D01*
X460700Y162200D02*
X461100Y163000D01*
X460700Y163800D01*
X461500Y163400D01*
X462300Y163800D01*
X461900Y163000D01*
X462300Y162200D01*
X461500Y162600D01*
X460700Y162200D01*
X147700Y217200D02*
X148100Y218000D01*
X147700Y218800D01*
X148500Y218400D01*
X149300Y218800D01*
X148900Y218000D01*
X149300Y217200D01*
X148500Y217600D01*
X147700Y217200D01*
X421800Y144034D02*
X422200Y144834D01*
X421800Y145634D01*
X422600Y145234D01*
X423400Y145634D01*
X423000Y144834D01*
X423400Y144034D01*
X422600Y144434D01*
X421800Y144034D01*
X420200Y156700D02*
X420600Y157500D01*
X420200Y158300D01*
X421000Y157900D01*
X421800Y158300D01*
X421400Y157500D01*
X421800Y156700D01*
X421000Y157100D01*
X420200Y156700D01*
X137200Y223200D02*
X137600Y224000D01*
X137200Y224800D01*
X138000Y224400D01*
X138800Y224800D01*
X138400Y224000D01*
X138800Y223200D01*
X138000Y223600D01*
X137200Y223200D01*
X414700Y153700D02*
X415100Y154500D01*
X414700Y155300D01*
X415500Y154900D01*
X416300Y155300D01*
X415900Y154500D01*
X416300Y153700D01*
X415500Y154100D01*
X414700Y153700D01*
X128700Y209200D02*
X129100Y210000D01*
X128700Y210800D01*
X129500Y210400D01*
X130300Y210800D01*
X129900Y210000D01*
X130300Y209200D01*
X129500Y209600D01*
X128700Y209200D01*
X133565Y212565D02*
X133965Y213365D01*
X133565Y214165D01*
X134365Y213765D01*
X135165Y214165D01*
X134765Y213365D01*
X135165Y212565D01*
X134365Y212965D01*
X133565Y212565D01*
X401200Y144200D02*
X401600Y145000D01*
X401200Y145800D01*
X402000Y145400D01*
X402800Y145800D01*
X402400Y145000D01*
X402800Y144200D01*
X402000Y144600D01*
X401200Y144200D01*
X405200Y139200D02*
X405600Y140000D01*
X405200Y140800D01*
X406000Y140400D01*
X406800Y140800D01*
X406400Y140000D01*
X406800Y139200D01*
X406000Y139600D01*
X405200Y139200D01*
X468200Y143200D02*
X468600Y144000D01*
X468200Y144800D01*
X469000Y144400D01*
X469800Y144800D01*
X469400Y144000D01*
X469800Y143200D01*
X469000Y143600D01*
X468200Y143200D01*
X455346Y133554D02*
X455746Y134354D01*
X455346Y135154D01*
X456146Y134754D01*
X456946Y135154D01*
X456546Y134354D01*
X456946Y133554D01*
X456146Y133954D01*
X455346Y133554D01*
X436200Y134054D02*
X436600Y134854D01*
X436200Y135654D01*
X437000Y135254D01*
X437800Y135654D01*
X437400Y134854D01*
X437800Y134054D01*
X437000Y134454D01*
X436200Y134054D01*
X464700Y154200D02*
X465100Y155000D01*
X464700Y155800D01*
X465500Y155400D01*
X466300Y155800D01*
X465900Y155000D01*
X466300Y154200D01*
X465500Y154600D01*
X464700Y154200D01*
X460200Y144700D02*
X460600Y145500D01*
X460200Y146300D01*
X461000Y145900D01*
X461800Y146300D01*
X461400Y145500D01*
X461800Y144700D01*
X461000Y145100D01*
X460200Y144700D01*
X467200Y254200D02*
X467600Y255000D01*
X467200Y255800D01*
X468000Y255400D01*
X468800Y255800D01*
X468400Y255000D01*
X468800Y254200D01*
X468000Y254600D01*
X467200Y254200D01*
X464200Y257200D02*
X464600Y258000D01*
X464200Y258800D01*
X465000Y258400D01*
X465800Y258800D01*
X465400Y258000D01*
X465800Y257200D01*
X465000Y257600D01*
X464200Y257200D01*
X460200Y259700D02*
X460600Y260500D01*
X460200Y261300D01*
X461000Y260900D01*
X461800Y261300D01*
X461400Y260500D01*
X461800Y259700D01*
X461000Y260100D01*
X460200Y259700D01*
X457200Y262700D02*
X457600Y263500D01*
X457200Y264300D01*
X458000Y263900D01*
X458800Y264300D01*
X458400Y263500D01*
X458800Y262700D01*
X458000Y263100D01*
X457200Y262700D01*
X463058Y113464D02*
X463458Y114264D01*
X463058Y115064D01*
X463858Y114664D01*
X464658Y115064D01*
X464258Y114264D01*
X464658Y113464D01*
X463858Y113864D01*
X463058Y113464D01*
Y141200D02*
X463458Y142000D01*
X463058Y142800D01*
X463858Y142400D01*
X464658Y142800D01*
X464258Y142000D01*
X464658Y141200D01*
X463858Y141600D01*
X463058Y141200D01*
X460200Y151200D02*
X460600Y152000D01*
X460200Y152800D01*
X461000Y152400D01*
X461800Y152800D01*
X461400Y152000D01*
X461800Y151200D01*
X461000Y151600D01*
X460200Y151200D01*
X468964Y113464D02*
X469364Y114264D01*
X468964Y115064D01*
X469764Y114664D01*
X470564Y115064D01*
X470164Y114264D01*
X470564Y113464D01*
X469764Y113864D01*
X468964Y113464D01*
X442200Y145700D02*
X442600Y146500D01*
X442200Y147300D01*
X443000Y146900D01*
X443800Y147300D01*
X443400Y146500D01*
X443800Y145700D01*
X443000Y146100D01*
X442200Y145700D01*
X439700Y142700D02*
X440100Y143500D01*
X439700Y144300D01*
X440500Y143900D01*
X441300Y144300D01*
X440900Y143500D01*
X441300Y142700D01*
X440500Y143100D01*
X439700Y142700D01*
X431700Y154700D02*
X432100Y155500D01*
X431700Y156300D01*
X432500Y155900D01*
X433300Y156300D01*
X432900Y155500D01*
X433300Y154700D01*
X432500Y155100D01*
X431700Y154700D01*
X435700Y152700D02*
X436100Y153500D01*
X435700Y154300D01*
X436500Y153900D01*
X437300Y154300D01*
X436900Y153500D01*
X437300Y152700D01*
X436500Y153100D01*
X435700Y152700D01*
X436700Y145200D02*
X437100Y146000D01*
X436700Y146800D01*
X437500Y146400D01*
X438300Y146800D01*
X437900Y146000D01*
X438300Y145200D01*
X437500Y145600D01*
X436700Y145200D01*
X404950Y87950D02*
X405350Y88750D01*
X404950Y89550D01*
X405750Y89150D01*
X406550Y89550D01*
X406150Y88750D01*
X406550Y87950D01*
X405750Y88350D01*
X404950Y87950D01*
X401700Y89200D02*
X402100Y90000D01*
X401700Y90800D01*
X402500Y90400D01*
X403300Y90800D01*
X402900Y90000D01*
X403300Y89200D01*
X402500Y89600D01*
X401700Y89200D01*
Y82700D02*
X402100Y83500D01*
X401700Y84300D01*
X402500Y83900D01*
X403300Y84300D01*
X402900Y83500D01*
X403300Y82700D01*
X402500Y83100D01*
X401700Y82700D01*
X418200Y88700D02*
X418600Y89500D01*
X418200Y90300D01*
X419000Y89900D01*
X419800Y90300D01*
X419400Y89500D01*
X419800Y88700D01*
X419000Y89100D01*
X418200Y88700D01*
X438950Y111950D02*
X439350Y112750D01*
X438950Y113550D01*
X439750Y113150D01*
X440550Y113550D01*
X440150Y112750D01*
X440550Y111950D01*
X439750Y112350D01*
X438950Y111950D01*
X439450Y115450D02*
X439850Y116250D01*
X439450Y117050D01*
X440250Y116650D01*
X441050Y117050D01*
X440650Y116250D01*
X441050Y115450D01*
X440250Y115850D01*
X439450Y115450D01*
X438700Y107700D02*
X439100Y108500D01*
X438700Y109300D01*
X439500Y108900D01*
X440300Y109300D01*
X439900Y108500D01*
X440300Y107700D01*
X439500Y108100D01*
X438700Y107700D01*
X436200Y105200D02*
X436600Y106000D01*
X436200Y106800D01*
X437000Y106400D01*
X437800Y106800D01*
X437400Y106000D01*
X437800Y105200D01*
X437000Y105600D01*
X436200Y105200D01*
X419700Y80684D02*
X420100Y81484D01*
X419700Y82284D01*
X420500Y81884D01*
X421300Y82284D01*
X420900Y81484D01*
X421300Y80684D01*
X420500Y81084D01*
X419700Y80684D01*
Y76700D02*
X420100Y77500D01*
X419700Y78300D01*
X420500Y77900D01*
X421300Y78300D01*
X420900Y77500D01*
X421300Y76700D01*
X420500Y77100D01*
X419700Y76700D01*
Y72700D02*
X420100Y73500D01*
X419700Y74300D01*
X420500Y73900D01*
X421300Y74300D01*
X420900Y73500D01*
X421300Y72700D01*
X420500Y73100D01*
X419700Y72700D01*
X585700Y97700D02*
X586100Y98500D01*
X585700Y99300D01*
X586500Y98900D01*
X587300Y99300D01*
X586900Y98500D01*
X587300Y97700D01*
X586500Y98100D01*
X585700Y97700D01*
X589200Y102700D02*
X589600Y103500D01*
X589200Y104300D01*
X590000Y103900D01*
X590800Y104300D01*
X590400Y103500D01*
X590800Y102700D01*
X590000Y103100D01*
X589200Y102700D01*
X593377Y110700D02*
X593777Y111500D01*
X593377Y112300D01*
X594177Y111900D01*
X594977Y112300D01*
X594577Y111500D01*
X594977Y110700D01*
X594177Y111100D01*
X593377Y110700D01*
X598495Y114200D02*
X598895Y115000D01*
X598495Y115800D01*
X599295Y115400D01*
X600095Y115800D01*
X599695Y115000D01*
X600095Y114200D01*
X599295Y114600D01*
X598495Y114200D01*
X75348Y327552D02*
X75748Y328352D01*
X75348Y329152D01*
X76148Y328752D01*
X76948Y329152D01*
X76548Y328352D01*
X76948Y327552D01*
X76148Y327952D01*
X75348Y327552D01*
X74200Y333200D02*
X74600Y334000D01*
X74200Y334800D01*
X75000Y334400D01*
X75800Y334800D01*
X75400Y334000D01*
X75800Y333200D01*
X75000Y333600D01*
X74200Y333200D01*
X232600Y300100D02*
Y299700D01*
X233400D01*
Y300100D01*
X233800D01*
Y300900D01*
X233400D01*
Y301300D01*
X232600D01*
Y300900D01*
X232200D01*
Y300100D01*
X232600D01*
X234727Y321727D02*
X235127Y322527D01*
X234727Y323327D01*
X235527Y322927D01*
X236327Y323327D01*
X235927Y322527D01*
X236327Y321727D01*
X235527Y322127D01*
X234727Y321727D01*
X210700Y317200D02*
X211100Y318000D01*
X210700Y318800D01*
X211500Y318400D01*
X212300Y318800D01*
X211900Y318000D01*
X212300Y317200D01*
X211500Y317600D01*
X210700Y317200D01*
X251917Y333453D02*
X252717Y334253D01*
X253517Y333453D01*
X252717Y332653D01*
X251917Y333453D01*
X247193D02*
X247993Y334253D01*
X248793Y333453D01*
X247993Y332653D01*
X247193Y333453D01*
Y324004D02*
X247993Y324804D01*
X248793Y324004D01*
X247993Y323204D01*
X247193Y324004D01*
Y319279D02*
X247993Y320079D01*
X248793Y319279D01*
X247993Y318479D01*
X247193Y319279D01*
X251917Y324004D02*
X252717Y324804D01*
X253517Y324004D01*
X252717Y323204D01*
X251917Y324004D01*
Y319366D02*
X252717Y320166D01*
X253517Y319366D01*
X252717Y318566D01*
X251917Y319366D01*
Y328728D02*
X252717Y329528D01*
X253517Y328728D01*
X252717Y327928D01*
X251917Y328728D01*
X256642D02*
X257442Y329528D01*
X258242Y328728D01*
X257442Y327928D01*
X256642Y328728D01*
Y324004D02*
X257442Y324804D01*
X258242Y324004D01*
X257442Y323204D01*
X256642Y324004D01*
Y319279D02*
X257442Y320079D01*
X258242Y319279D01*
X257442Y318479D01*
X256642Y319279D01*
Y333453D02*
X257442Y334253D01*
X258242Y333453D01*
X257442Y332653D01*
X256642Y333453D01*
X247193Y328728D02*
X247993Y329528D01*
X248793Y328728D01*
X247993Y327928D01*
X247193Y328728D01*
X199210Y339710D02*
Y339310D01*
X200010D01*
Y339710D01*
X200410D01*
Y340510D01*
X200010D01*
Y340910D01*
X199210D01*
Y340510D01*
X198810D01*
Y339710D01*
X199210D01*
X379100Y301100D02*
Y300700D01*
X379900D01*
Y301100D01*
X380300D01*
Y301900D01*
X379900D01*
Y302300D01*
X379100D01*
Y301900D01*
X378700D01*
Y301100D01*
X379100D01*
X404142Y319279D02*
X404942Y320079D01*
X405742Y319279D01*
X404942Y318479D01*
X404142Y319279D01*
Y324004D02*
X404942Y324804D01*
X405742Y324004D01*
X404942Y323204D01*
X404142Y324004D01*
X399417Y319366D02*
X400217Y320166D01*
X401017Y319366D01*
X400217Y318566D01*
X399417Y319366D01*
Y324004D02*
X400217Y324804D01*
X401017Y324004D01*
X400217Y323204D01*
X399417Y324004D01*
X404142Y333453D02*
X404942Y334253D01*
X405742Y333453D01*
X404942Y332653D01*
X404142Y333453D01*
X399417D02*
X400217Y334253D01*
X401017Y333453D01*
X400217Y332653D01*
X399417Y333453D01*
X394693D02*
X395493Y334253D01*
X396293Y333453D01*
X395493Y332653D01*
X394693Y333453D01*
X404142Y328728D02*
X404942Y329528D01*
X405742Y328728D01*
X404942Y327928D01*
X404142Y328728D01*
X394693D02*
X395493Y329528D01*
X396293Y328728D01*
X395493Y327928D01*
X394693Y328728D01*
Y324004D02*
X395493Y324804D01*
X396293Y324004D01*
X395493Y323204D01*
X394693Y324004D01*
X399417Y328728D02*
X400217Y329528D01*
X401017Y328728D01*
X400217Y327928D01*
X399417Y328728D01*
X394693Y319279D02*
X395493Y320079D01*
X396293Y319279D01*
X395493Y318479D01*
X394693Y319279D01*
X382227Y321727D02*
X382627Y322527D01*
X382227Y323327D01*
X383027Y322927D01*
X383827Y323327D01*
X383427Y322527D01*
X383827Y321727D01*
X383027Y322127D01*
X382227Y321727D01*
X357200Y328700D02*
X357600Y329500D01*
X357200Y330300D01*
X358000Y329900D01*
X358800Y330300D01*
X358400Y329500D01*
X358800Y328700D01*
X358000Y329100D01*
X357200Y328700D01*
X359600Y322100D02*
Y321700D01*
X360400D01*
Y322100D01*
X360800D01*
Y322900D01*
X360400D01*
Y323300D01*
X359600D01*
Y322900D01*
X359200D01*
Y322100D01*
X359600D01*
X346710Y341210D02*
Y340810D01*
X347510D01*
Y341210D01*
X347910D01*
Y342010D01*
X347510D01*
Y342410D01*
X346710D01*
Y342010D01*
X346310D01*
Y341210D01*
X346710D01*
X378600Y293600D02*
Y293200D01*
X379400D01*
Y293600D01*
X379800D01*
Y294400D01*
X379400D01*
Y294800D01*
X378600D01*
Y294400D01*
X378200D01*
Y293600D01*
X378600D01*
X231100Y278100D02*
Y277700D01*
X231900D01*
Y278100D01*
X232300D01*
Y278900D01*
X231900D01*
Y279300D01*
X231100D01*
Y278900D01*
X230700D01*
Y278100D01*
X231100D01*
X550991Y319377D02*
X551791Y320178D01*
X552592Y319377D01*
X551791Y318578D01*
X550991Y319377D01*
Y324102D02*
X551791Y324903D01*
X552592Y324102D01*
X551791Y323303D01*
X550991Y324102D01*
X546267Y319464D02*
X547066Y320265D01*
X547866Y319464D01*
X547066Y318665D01*
X546267Y319464D01*
Y324102D02*
X547066Y324903D01*
X547866Y324102D01*
X547066Y323303D01*
X546267Y324102D01*
X550991Y333552D02*
X551791Y334351D01*
X552592Y333552D01*
X551791Y332751D01*
X550991Y333552D01*
X546267D02*
X547066Y334351D01*
X547866Y333552D01*
X547066Y332751D01*
X546267Y333552D01*
X541542D02*
X542343Y334351D01*
X543143Y333552D01*
X542343Y332751D01*
X541542Y333552D01*
X550991Y328826D02*
X551791Y329626D01*
X552592Y328826D01*
X551791Y328027D01*
X550991Y328826D01*
X541542D02*
X542343Y329626D01*
X543143Y328826D01*
X542343Y328027D01*
X541542Y328826D01*
Y324102D02*
X542343Y324903D01*
X543143Y324102D01*
X542343Y323303D01*
X541542Y324102D01*
X546267Y328826D02*
X547066Y329626D01*
X547866Y328826D01*
X547066Y328027D01*
X546267Y328826D01*
X541542Y319377D02*
X542343Y320178D01*
X543143Y319377D01*
X542343Y318578D01*
X541542Y319377D01*
X526565Y302600D02*
Y302200D01*
X527364D01*
Y302600D01*
X527765D01*
Y303400D01*
X527364D01*
Y303800D01*
X526565D01*
Y303400D01*
X526164D01*
Y302600D01*
X526565D01*
X528826Y321826D02*
X529225Y322625D01*
X528826Y323426D01*
X529626Y323025D01*
X530426Y323426D01*
X530025Y322625D01*
X530426Y321826D01*
X529626Y322225D01*
X528826Y321826D01*
X501100Y316600D02*
Y316200D01*
X501900D01*
Y316600D01*
X502300D01*
Y317400D01*
X501900D01*
Y317800D01*
X501100D01*
Y317400D01*
X500700D01*
Y316600D01*
X501100D01*
X490856Y336844D02*
Y336444D01*
X491656D01*
Y336844D01*
X492056D01*
Y337644D01*
X491656D01*
Y338044D01*
X490856D01*
Y337644D01*
X490456D01*
Y336844D01*
X490856D01*
X99642Y218279D02*
X100442Y219079D01*
X101242Y218279D01*
X100442Y217479D01*
X99642Y218279D01*
Y223004D02*
X100442Y223804D01*
X101242Y223004D01*
X100442Y222204D01*
X99642Y223004D01*
X94917Y218366D02*
X95717Y219166D01*
X96517Y218366D01*
X95717Y217566D01*
X94917Y218366D01*
Y223004D02*
X95717Y223804D01*
X96517Y223004D01*
X95717Y222204D01*
X94917Y223004D01*
X99642Y232453D02*
X100442Y233253D01*
X101242Y232453D01*
X100442Y231653D01*
X99642Y232453D01*
X94917D02*
X95717Y233253D01*
X96517Y232453D01*
X95717Y231653D01*
X94917Y232453D01*
X90193D02*
X90993Y233253D01*
X91793Y232453D01*
X90993Y231653D01*
X90193Y232453D01*
X99642Y227728D02*
X100442Y228528D01*
X101242Y227728D01*
X100442Y226928D01*
X99642Y227728D01*
X90193D02*
X90993Y228528D01*
X91793Y227728D01*
X90993Y226928D01*
X90193Y227728D01*
Y223004D02*
X90993Y223804D01*
X91793Y223004D01*
X90993Y222204D01*
X90193Y223004D01*
X94917Y227728D02*
X95717Y228528D01*
X96517Y227728D01*
X95717Y226928D01*
X94917Y227728D01*
X90193Y218279D02*
X90993Y219079D01*
X91793Y218279D01*
X90993Y217479D01*
X90193Y218279D01*
X76700Y220700D02*
X77100Y221500D01*
X76700Y222300D01*
X77500Y221900D01*
X78300Y222300D01*
X77900Y221500D01*
X78300Y220700D01*
X77500Y221100D01*
X76700Y220700D01*
X72966Y189966D02*
Y189566D01*
X73766D01*
Y189966D01*
X74166D01*
Y190766D01*
X73766D01*
Y191166D01*
X72966D01*
Y190766D01*
X72566D01*
Y189966D01*
X72966D01*
X526600Y291065D02*
Y290665D01*
X527400D01*
Y291065D01*
X527800D01*
Y291864D01*
X527400D01*
Y292265D01*
X526600D01*
Y291864D01*
X526200D01*
Y291065D01*
X526600D01*
X37710Y237210D02*
Y236810D01*
X38510D01*
Y237210D01*
X38910D01*
Y238010D01*
X38510D01*
Y238410D01*
X37710D01*
Y238010D01*
X37310D01*
Y237210D01*
X37710D01*
X51100Y215600D02*
Y215200D01*
X51900D01*
Y215600D01*
X52300D01*
Y216400D01*
X51900D01*
Y216800D01*
X51100D01*
Y216400D01*
X50700D01*
Y215600D01*
X51100D01*
X127200Y202700D02*
X127600Y203500D01*
X127200Y204300D01*
X128000Y203900D01*
X128800Y204300D01*
X128400Y203500D01*
X128800Y202700D01*
X128000Y203100D01*
X127200Y202700D01*
X256142Y223504D02*
X256942Y224304D01*
X257742Y223504D01*
X256942Y222704D01*
X256142Y223504D01*
X251417Y218866D02*
X252217Y219666D01*
X253017Y218866D01*
X252217Y218066D01*
X251417Y218866D01*
Y223504D02*
X252217Y224304D01*
X253017Y223504D01*
X252217Y222704D01*
X251417Y223504D01*
X256142Y232953D02*
X256942Y233753D01*
X257742Y232953D01*
X256942Y232153D01*
X256142Y232953D01*
X251417D02*
X252217Y233753D01*
X253017Y232953D01*
X252217Y232153D01*
X251417Y232953D01*
X246693D02*
X247493Y233753D01*
X248293Y232953D01*
X247493Y232153D01*
X246693Y232953D01*
X256142Y228228D02*
X256942Y229028D01*
X257742Y228228D01*
X256942Y227428D01*
X256142Y228228D01*
X246693D02*
X247493Y229028D01*
X248293Y228228D01*
X247493Y227428D01*
X246693Y228228D01*
Y223504D02*
X247493Y224304D01*
X248293Y223504D01*
X247493Y222704D01*
X246693Y223504D01*
X251417Y228228D02*
X252217Y229028D01*
X253017Y228228D01*
X252217Y227428D01*
X251417Y228228D01*
X256142Y218779D02*
X256942Y219579D01*
X257742Y218779D01*
X256942Y217979D01*
X256142Y218779D01*
X246693D02*
X247493Y219579D01*
X248293Y218779D01*
X247493Y217979D01*
X246693Y218779D01*
X208600Y215100D02*
Y214700D01*
X209400D01*
Y215100D01*
X209800D01*
Y215900D01*
X209400D01*
Y216300D01*
X208600D01*
Y215900D01*
X208200D01*
Y215100D01*
X208600D01*
X207700Y222700D02*
X208100Y223500D01*
X207700Y224300D01*
X208500Y223900D01*
X209300Y224300D01*
X208900Y223500D01*
X209300Y222700D01*
X208500Y223100D01*
X207700Y222700D01*
X233700Y219200D02*
X234100Y220000D01*
X233700Y220800D01*
X234500Y220400D01*
X235300Y220800D01*
X234900Y220000D01*
X235300Y219200D01*
X234500Y219600D01*
X233700Y219200D01*
X207700Y228200D02*
X208100Y229000D01*
X207700Y229800D01*
X208500Y229400D01*
X209300Y229800D01*
X208900Y229000D01*
X209300Y228200D01*
X208500Y228600D01*
X207700Y228200D01*
X197490Y236710D02*
Y236310D01*
X198290D01*
Y236710D01*
X198690D01*
Y237510D01*
X198290D01*
Y237910D01*
X197490D01*
Y237510D01*
X197090D01*
Y236710D01*
X197490D01*
X232466Y187966D02*
Y187566D01*
X233266D01*
Y187966D01*
X233666D01*
Y188766D01*
X233266D01*
Y189166D01*
X232466D01*
Y188766D01*
X232066D01*
Y187966D01*
X232466D01*
X432566Y316566D02*
X432966Y317366D01*
X432566Y318166D01*
X433366Y317766D01*
X434166Y318166D01*
X433766Y317366D01*
X434166Y316566D01*
X433366Y316966D01*
X432566Y316566D01*
X437600Y307600D02*
Y307200D01*
X438400D01*
Y307600D01*
X438800D01*
Y308400D01*
X438400D01*
Y308800D01*
X437600D01*
Y308400D01*
X437200D01*
Y307600D01*
X437600D01*
X420944Y302456D02*
X421344Y303256D01*
X420944Y304056D01*
X421744Y303656D01*
X422544Y304056D01*
X422144Y303256D01*
X422544Y302456D01*
X421744Y302856D01*
X420944Y302456D01*
X295700Y326700D02*
X296100Y327500D01*
X295700Y328300D01*
X296500Y327900D01*
X297300Y328300D01*
X296900Y327500D01*
X297300Y326700D01*
X296500Y327100D01*
X295700Y326700D01*
Y316700D02*
X296100Y317500D01*
X295700Y318300D01*
X296500Y317900D01*
X297300Y318300D01*
X296900Y317500D01*
X297300Y316700D01*
X296500Y317100D01*
X295700Y316700D01*
X270700Y311700D02*
X271100Y312500D01*
X270700Y313300D01*
X271500Y312900D01*
X272300Y313300D01*
X271900Y312500D01*
X272300Y311700D01*
X271500Y312100D01*
X270700Y311700D01*
X285700Y314200D02*
X286100Y315000D01*
X285700Y315800D01*
X286500Y315400D01*
X287300Y315800D01*
X286900Y315000D01*
X287300Y314200D01*
X286500Y314600D01*
X285700Y314200D01*
X595700Y310700D02*
X596100Y311500D01*
X595700Y312300D01*
X596500Y311900D01*
X597300Y312300D01*
X596900Y311500D01*
X597300Y310700D01*
X596500Y311100D01*
X595700Y310700D01*
X593200Y314700D02*
X593600Y315500D01*
X593200Y316300D01*
X594000Y315900D01*
X594800Y316300D01*
X594400Y315500D01*
X594800Y314700D01*
X594000Y315100D01*
X593200Y314700D01*
X588700Y320700D02*
X589100Y321500D01*
X588700Y322300D01*
X589500Y321900D01*
X590300Y322300D01*
X589900Y321500D01*
X590300Y320700D01*
X589500Y321100D01*
X588700Y320700D01*
X585700Y326700D02*
X586100Y327500D01*
X585700Y328300D01*
X586500Y327900D01*
X587300Y328300D01*
X586900Y327500D01*
X587300Y326700D01*
X586500Y327100D01*
X585700Y326700D01*
X578664Y316665D02*
X579065Y317464D01*
X578664Y318265D01*
X579464Y317864D01*
X580265Y318265D01*
X579865Y317464D01*
X580265Y316665D01*
X579464Y317064D01*
X578664Y316665D01*
X578700Y301200D02*
X579100Y302000D01*
X578700Y302800D01*
X579500Y302400D01*
X580300Y302800D01*
X579900Y302000D01*
X580300Y301200D01*
X579500Y301600D01*
X578700Y301200D01*
X288600Y305600D02*
Y305200D01*
X289400D01*
Y305600D01*
X289800D01*
Y306400D01*
X289400D01*
Y306800D01*
X288600D01*
Y306400D01*
X288200D01*
Y305600D01*
X288600D01*
X584100Y306100D02*
Y305700D01*
X584900D01*
Y306100D01*
X585300D01*
Y306900D01*
X584900D01*
Y307300D01*
X584100D01*
Y306900D01*
X583700D01*
Y306100D01*
X584100D01*
X285066Y216066D02*
X285466Y216866D01*
X285066Y217666D01*
X285866Y217266D01*
X286666Y217666D01*
X286266Y216866D01*
X286666Y216066D01*
X285866Y216466D01*
X285066Y216066D01*
Y201700D02*
X285466Y202500D01*
X285066Y203300D01*
X285866Y202900D01*
X286666Y203300D01*
X286266Y202500D01*
X286666Y201700D01*
X285866Y202100D01*
X285066Y201700D01*
X292600Y206600D02*
Y206200D01*
X293400D01*
Y206600D01*
X293800D01*
Y207400D01*
X293400D01*
Y207800D01*
X292600D01*
Y207400D01*
X292200D01*
Y206600D01*
X292600D01*
X403142Y218838D02*
X403942Y219638D01*
X404742Y218838D01*
X403942Y218038D01*
X403142Y218838D01*
Y223563D02*
X403942Y224363D01*
X404742Y223563D01*
X403942Y222763D01*
X403142Y223563D01*
X398417Y218925D02*
X399217Y219725D01*
X400017Y218925D01*
X399217Y218125D01*
X398417Y218925D01*
Y223563D02*
X399217Y224363D01*
X400017Y223563D01*
X399217Y222763D01*
X398417Y223563D01*
X403142Y233012D02*
X403942Y233812D01*
X404742Y233012D01*
X403942Y232212D01*
X403142Y233012D01*
X398417D02*
X399217Y233812D01*
X400017Y233012D01*
X399217Y232212D01*
X398417Y233012D01*
X393693D02*
X394493Y233812D01*
X395293Y233012D01*
X394493Y232212D01*
X393693Y233012D01*
X403142Y228287D02*
X403942Y229087D01*
X404742Y228287D01*
X403942Y227487D01*
X403142Y228287D01*
X393693D02*
X394493Y229087D01*
X395293Y228287D01*
X394493Y227487D01*
X393693Y228287D01*
Y223563D02*
X394493Y224363D01*
X395293Y223563D01*
X394493Y222763D01*
X393693Y223563D01*
X398417Y228287D02*
X399217Y229087D01*
X400017Y228287D01*
X399217Y227487D01*
X398417Y228287D01*
X393693Y218838D02*
X394493Y219638D01*
X395293Y218838D01*
X394493Y218038D01*
X393693Y218838D01*
X381200Y220700D02*
X381600Y221500D01*
X381200Y222300D01*
X382000Y221900D01*
X382800Y222300D01*
X382400Y221500D01*
X382800Y220700D01*
X382000Y221100D01*
X381200Y220700D01*
X355600Y215100D02*
Y214700D01*
X356400D01*
Y215100D01*
X356800D01*
Y215900D01*
X356400D01*
Y216300D01*
X355600D01*
Y215900D01*
X355200D01*
Y215100D01*
X355600D01*
X432066Y216066D02*
X432466Y216866D01*
X432066Y217666D01*
X432866Y217266D01*
X433666Y217666D01*
X433266Y216866D01*
X433666Y216066D01*
X432866Y216466D01*
X432066Y216066D01*
Y201334D02*
X432466Y202134D01*
X432066Y202934D01*
X432866Y202534D01*
X433666Y202934D01*
X433266Y202134D01*
X433666Y201334D01*
X432866Y201734D01*
X432066Y201334D01*
X425856Y201600D02*
Y201200D01*
X426656D01*
Y201600D01*
X427056D01*
Y202400D01*
X426656D01*
Y202800D01*
X425856D01*
Y202400D01*
X425456D01*
Y201600D01*
X425856D01*
X549642Y218838D02*
X550442Y219638D01*
X551242Y218838D01*
X550442Y218038D01*
X549642Y218838D01*
Y223563D02*
X550442Y224363D01*
X551242Y223563D01*
X550442Y222763D01*
X549642Y223563D01*
X544917Y218925D02*
X545717Y219725D01*
X546517Y218925D01*
X545717Y218125D01*
X544917Y218925D01*
Y223563D02*
X545717Y224363D01*
X546517Y223563D01*
X545717Y222763D01*
X544917Y223563D01*
X549642Y233012D02*
X550442Y233812D01*
X551242Y233012D01*
X550442Y232212D01*
X549642Y233012D01*
X544917D02*
X545717Y233812D01*
X546517Y233012D01*
X545717Y232212D01*
X544917Y233012D01*
X540193D02*
X540993Y233812D01*
X541793Y233012D01*
X540993Y232212D01*
X540193Y233012D01*
X549642Y228287D02*
X550442Y229087D01*
X551242Y228287D01*
X550442Y227487D01*
X549642Y228287D01*
X540193D02*
X540993Y229087D01*
X541793Y228287D01*
X540993Y227487D01*
X540193Y228287D01*
Y223563D02*
X540993Y224363D01*
X541793Y223563D01*
X540993Y222763D01*
X540193Y223563D01*
X544917Y228287D02*
X545717Y229087D01*
X546517Y228287D01*
X545717Y227487D01*
X544917Y228287D01*
X540193Y218838D02*
X540993Y219638D01*
X541793Y218838D01*
X540993Y218038D01*
X540193Y218838D01*
X527700Y221200D02*
X528100Y222000D01*
X527700Y222800D01*
X528500Y222400D01*
X529300Y222800D01*
X528900Y222000D01*
X529300Y221200D01*
X528500Y221600D01*
X527700Y221200D01*
X504600Y214600D02*
Y214200D01*
X505400D01*
Y214600D01*
X505800D01*
Y215400D01*
X505400D01*
Y215800D01*
X504600D01*
Y215400D01*
X504200D01*
Y214600D01*
X504600D01*
X490269Y235769D02*
Y235369D01*
X491069D01*
Y235769D01*
X491469D01*
Y236569D01*
X491069D01*
Y236969D01*
X490269D01*
Y236569D01*
X489869D01*
Y235769D01*
X490269D01*
X497818Y250382D02*
Y249983D01*
X498618D01*
Y250382D01*
X499017D01*
Y251183D01*
X498618D01*
Y251583D01*
X497818D01*
Y251183D01*
X497417D01*
Y250382D01*
X497818D01*
X578625Y216125D02*
X579025Y216925D01*
X578625Y217725D01*
X579425Y217325D01*
X580225Y217725D01*
X579825Y216925D01*
X580225Y216125D01*
X579425Y216525D01*
X578625Y216125D01*
Y200700D02*
X579025Y201500D01*
X578625Y202300D01*
X579425Y201900D01*
X580225Y202300D01*
X579825Y201500D01*
X580225Y200700D01*
X579425Y201100D01*
X578625Y200700D01*
X583100Y206600D02*
Y206200D01*
X583900D01*
Y206600D01*
X584300D01*
Y207400D01*
X583900D01*
Y207800D01*
X583100D01*
Y207400D01*
X582700D01*
Y206600D01*
X583100D01*
X422614Y324286D02*
X423014Y325086D01*
X422614Y325886D01*
X423414Y325486D01*
X424214Y325886D01*
X423814Y325086D01*
X424214Y324286D01*
X423414Y324686D01*
X422614Y324286D01*
X456700Y358700D02*
X457100Y359500D01*
X456700Y360300D01*
X457500Y359900D01*
X458300Y360300D01*
X457900Y359500D01*
X458300Y358700D01*
X457500Y359100D01*
X456700Y358700D01*
X148200Y223200D02*
X148600Y224000D01*
X148200Y224800D01*
X149000Y224400D01*
X149800Y224800D01*
X149400Y224000D01*
X149800Y223200D01*
X149000Y223600D01*
X148200Y223200D01*
X283114Y223786D02*
X283514Y224586D01*
X283114Y225386D01*
X283914Y224986D01*
X284714Y225386D01*
X284314Y224586D01*
X284714Y223786D01*
X283914Y224186D01*
X283114Y223786D01*
X424114D02*
X424514Y224586D01*
X424114Y225386D01*
X424914Y224986D01*
X425714Y225386D01*
X425314Y224586D01*
X425714Y223786D01*
X424914Y224186D01*
X424114Y223786D01*
X426700Y258200D02*
X427100Y259000D01*
X426700Y259800D01*
X427500Y259400D01*
X428300Y259800D01*
X427900Y259000D01*
X428300Y258200D01*
X427500Y258600D01*
X426700Y258200D01*
X570845Y223845D02*
X571245Y224645D01*
X570845Y225445D01*
X571645Y225045D01*
X572445Y225445D01*
X572045Y224645D01*
X572445Y223845D01*
X571645Y224245D01*
X570845Y223845D01*
X471700Y260700D02*
X472100Y261500D01*
X471700Y262300D01*
X472500Y261900D01*
X473300Y262300D01*
X472900Y261500D01*
X473300Y260700D01*
X472500Y261100D01*
X471700Y260700D01*
X482700Y133554D02*
X483100Y134354D01*
X482700Y135154D01*
X483500Y134754D01*
X484300Y135154D01*
X483900Y134354D01*
X484300Y133554D01*
X483500Y133954D01*
X482700Y133554D01*
X433600Y280600D02*
Y280200D01*
X434400D01*
Y280600D01*
X434800D01*
Y281400D01*
X434400D01*
Y281800D01*
X433600D01*
Y281400D01*
X433200D01*
Y280600D01*
X433600D01*
X140700Y218227D02*
X141100Y219027D01*
X140700Y219827D01*
X141500Y219427D01*
X142300Y219827D01*
X141900Y219027D01*
X142300Y218227D01*
X141500Y218627D01*
X140700Y218227D01*
X416200Y20700D02*
X416600Y21500D01*
X416200Y22300D01*
X417000Y21900D01*
X417800Y22300D01*
X417400Y21500D01*
X417800Y20700D01*
X417000Y21100D01*
X416200Y20700D01*
X404200Y56200D02*
X404600Y57000D01*
X404200Y57800D01*
X405000Y57400D01*
X405800Y57800D01*
X405400Y57000D01*
X405800Y56200D01*
X405000Y56600D01*
X404200Y56200D01*
X493054Y27346D02*
X493454Y28146D01*
X493054Y28946D01*
X493854Y28546D01*
X494654Y28946D01*
X494254Y28146D01*
X494654Y27346D01*
X493854Y27746D01*
X493054Y27346D01*
X383700Y102200D02*
X384100Y103000D01*
X383700Y103800D01*
X384500Y103400D01*
X385300Y103800D01*
X384900Y103000D01*
X385300Y102200D01*
X384500Y102600D01*
X383700Y102200D01*
Y108700D02*
X384100Y109500D01*
X383700Y110300D01*
X384500Y109900D01*
X385300Y110300D01*
X384900Y109500D01*
X385300Y108700D01*
X384500Y109100D01*
X383700Y108700D01*
X381200Y105700D02*
X381600Y106500D01*
X381200Y107300D01*
X382000Y106900D01*
X382800Y107300D01*
X382400Y106500D01*
X382800Y105700D01*
X382000Y106100D01*
X381200Y105700D01*
X386200D02*
X386600Y106500D01*
X386200Y107300D01*
X387000Y106900D01*
X387800Y107300D01*
X387400Y106500D01*
X387800Y105700D01*
X387000Y106100D01*
X386200Y105700D01*
X541200Y83700D02*
X541600Y84500D01*
X541200Y85300D01*
X542000Y84900D01*
X542800Y85300D01*
X542400Y84500D01*
X542800Y83700D01*
X542000Y84100D01*
X541200Y83700D01*
X362100Y52100D02*
Y51700D01*
X362900D01*
Y52100D01*
X363300D01*
Y52900D01*
X362900D01*
Y53300D01*
X362100D01*
Y52900D01*
X361700D01*
Y52100D01*
X362100D01*
X431562Y45338D02*
X431962Y46138D01*
X431562Y46938D01*
X432362Y46538D01*
X433162Y46938D01*
X432762Y46138D01*
X433162Y45338D01*
X432362Y45738D01*
X431562Y45338D01*
X379700Y60700D02*
X380100Y61500D01*
X379700Y62300D01*
X380500Y61900D01*
X381300Y62300D01*
X380900Y61500D01*
X381300Y60700D01*
X380500Y61100D01*
X379700Y60700D01*
X387954Y77246D02*
Y76846D01*
X388754D01*
Y77246D01*
X389154D01*
Y78046D01*
X388754D01*
Y78446D01*
X387954D01*
Y78046D01*
X387554D01*
Y77246D01*
X387954D01*
X336100Y59100D02*
Y58700D01*
X336900D01*
Y59100D01*
X337300D01*
Y59900D01*
X336900D01*
Y60300D01*
X336100D01*
Y59900D01*
X335700D01*
Y59100D01*
X336100D01*
X336153Y79547D02*
Y79147D01*
X336953D01*
Y79547D01*
X337353D01*
Y80347D01*
X336953D01*
Y80747D01*
X336153D01*
Y80347D01*
X335753D01*
Y79547D01*
X336153D01*
X379700Y75700D02*
X380100Y76500D01*
X379700Y77300D01*
X380500Y76900D01*
X381300Y77300D01*
X380900Y76500D01*
X381300Y75700D01*
X380500Y76100D01*
X379700Y75700D01*
X429700Y52700D02*
X430100Y53500D01*
X429700Y54300D01*
X430500Y53900D01*
X431300Y54300D01*
X430900Y53500D01*
X431300Y52700D01*
X430500Y53100D01*
X429700Y52700D01*
X397700Y64200D02*
X398100Y65000D01*
X397700Y65800D01*
X398500Y65400D01*
X399300Y65800D01*
X398900Y65000D01*
X399300Y64200D01*
X398500Y64600D01*
X397700Y64200D01*
Y75200D02*
X398100Y76000D01*
X397700Y76800D01*
X398500Y76400D01*
X399300Y76800D01*
X398900Y76000D01*
X399300Y75200D01*
X398500Y75600D01*
X397700Y75200D01*
X333100Y191600D02*
Y191200D01*
X333900D01*
Y191600D01*
X334300D01*
Y192400D01*
X333900D01*
Y192800D01*
X333100D01*
Y192400D01*
X332700D01*
Y191600D01*
X333100D01*
X419700Y68873D02*
X420100Y69673D01*
X419700Y70473D01*
X420500Y70073D01*
X421300Y70473D01*
X420900Y69673D01*
X421300Y68873D01*
X420500Y69273D01*
X419700Y68873D01*
X566602Y342299D02*
X567001Y343098D01*
X566602Y343899D01*
X567402Y343498D01*
X568201Y343899D01*
X567802Y343098D01*
X568201Y342299D01*
X567402Y342699D01*
X566602Y342299D01*
X519200Y97700D02*
X519600Y98500D01*
X519200Y99300D01*
X520000Y98900D01*
X520800Y99300D01*
X520400Y98500D01*
X520800Y97700D01*
X520000Y98100D01*
X519200Y97700D01*
D151*
X28989Y52425D02*
G03*
X28989Y52425I-800J0D01*
G01*
Y105575D02*
G03*
X28989Y105575I-800J0D01*
G01*
X129300Y164000D02*
G03*
X129300Y164000I-800J0D01*
G01*
X135800D02*
G03*
X135800Y164000I-800J0D01*
G01*
X142300D02*
G03*
X142300Y164000I-800J0D01*
G01*
X135800Y156000D02*
G03*
X135800Y156000I-800J0D01*
G01*
X142300D02*
G03*
X142300Y156000I-800J0D01*
G01*
X491300Y153500D02*
G03*
X491300Y153500I-800J0D01*
G01*
X486800Y260500D02*
G03*
X486800Y260500I-800J0D01*
G01*
X391800Y283000D02*
G03*
X391800Y283000I-800J0D01*
G01*
X485800Y272000D02*
G03*
X485800Y272000I-800J0D01*
G01*
X442300Y291500D02*
G03*
X442300Y291500I-800J0D01*
G01*
X191300Y254500D02*
G03*
X191300Y254500I-800J0D01*
G01*
X342410Y237110D02*
G03*
X342410Y237110I-800J0D01*
G01*
X379800Y191866D02*
G03*
X379800Y191866I-800J0D01*
G01*
X526725Y185925D02*
G03*
X526725Y185925I-800J0D01*
G01*
X411800Y28500D02*
G03*
X411800Y28500I-800J0D01*
G01*
X129300Y156000D02*
G03*
X129300Y156000I-800J0D01*
G01*
D152*
X128900Y164000D02*
G03*
X128900Y164000I-400J0D01*
G01*
X135400D02*
G03*
X135400Y164000I-400J0D01*
G01*
X141900D02*
G03*
X141900Y164000I-400J0D01*
G01*
X135400Y156000D02*
G03*
X135400Y156000I-400J0D01*
G01*
X141900D02*
G03*
X141900Y156000I-400J0D01*
G01*
X490900Y153500D02*
G03*
X490900Y153500I-400J0D01*
G01*
X486400Y260500D02*
G03*
X486400Y260500I-400J0D01*
G01*
X391400Y283000D02*
G03*
X391400Y283000I-400J0D01*
G01*
X485400Y272000D02*
G03*
X485400Y272000I-400J0D01*
G01*
X441900Y291500D02*
G03*
X441900Y291500I-400J0D01*
G01*
X190900Y254500D02*
G03*
X190900Y254500I-400J0D01*
G01*
X342010Y237110D02*
G03*
X342010Y237110I-400J0D01*
G01*
X379400Y191866D02*
G03*
X379400Y191866I-400J0D01*
G01*
X526325Y185925D02*
G03*
X526325Y185925I-400J0D01*
G01*
X411400Y28500D02*
G03*
X411400Y28500I-400J0D01*
G01*
X128900Y156000D02*
G03*
X128900Y156000I-400J0D01*
G01*
M02*
