<?xml version="1.0" encoding="UTF-8"?>
<!DOCTYPE svg PUBLIC "-//W3C//DTD SVG 1.1//EN" "http://www.w3.org/Graphics/SVG/1.1/DTD/svg11.dtd">

<svg xmlns="http://www.w3.org/2000/svg" xmlns:xlink="http://www.w3.org/1999/xlink" xmlns:xs="http://www.w3.org/2001/XMLSchema" xmlns:wb="http://www.ti.com/webench" version="1.1" width="100%" height="100%" viewBox="0 0 1350.0 690.0" preserveAspectRatio="xMidYMid meet">
  <defs>
    <g id="WB_CONTINUATION">
      <circle xmlns="" opacity="0.01" fill="#ffffff" stroke="#000000" stroke-width="0" cx="0" cy="0" r="14" />
      <line fill="none" stroke="#CC0000" stroke-width="2" x1="0" y1="10" x2="0" y2="-10" />
      <line fill="none" stroke="#CC0000" stroke-width="2" x1="-10" y1="-10" x2="10" y2="-10" />
    </g>
    <g id="WB_CAPACITOR">
      <circle xmlns="" opacity="0.01" fill="#ffffff" stroke="#000000" stroke-width="0" cx="0" cy="0" r="14" />
      <line y1="0" x2="20" stroke="#115566" x1="30" fill="none" stroke-width="2" y2="0" />
      <line y1="0" x2="-20" stroke="#115566" x1="-30" fill="none" stroke-width="2" y2="0" />
      <polyline stroke="#115566" points="3,12 3,-12  " stroke-linejoin="round" fill="none" stroke-width="2" stroke-linecap="round" />
      <polyline stroke="#115566" points="-20,0 -3,0  " stroke-linejoin="round" fill="none" stroke-width="2" stroke-linecap="round" />
      <polyline stroke="#115566" points="3,0 20,0  " stroke-linejoin="round" fill="none" stroke-width="2" stroke-linecap="round" />
      <polyline stroke="#115566" points="-3,12 -3,-12  " stroke-linejoin="round" fill="none" stroke-width="2" stroke-linecap="round" />
    </g>
    <g id="WB_GND">
      <circle xmlns="" opacity="0.01" fill="#ffffff" stroke="#000000" stroke-width="0" cx="0" cy="0" r="14" />
      <line fill="none" stroke="black" stroke-width="2" x1="0" y1="-10" x2="0" y2="0" />
      <line fill="none" stroke="black" stroke-width="2" x1="-13" y1="0" x2="13" y2="0" />
      <line fill="none" stroke="black" stroke-width="2" x1="-9" y1="4" x2="9" y2="4" />
      <line fill="none" stroke="black" stroke-width="2" x1="-3" y1="8" x2="3" y2="8" />
    </g>
    <g id="WB_CURRENT_PROBE">
      <circle xmlns="" opacity="0.01" fill="#ffffff" stroke="#000000" stroke-width="0" cx="0" cy="0" r="14" />
      <line stroke="#CC0000" stroke-width="2" stroke-linecap="square" stroke-linejoin="round" x1="-16" y1="0" x2="-10" y2="0" />
      <polyline stroke="#CC0000" stroke-width="2" stroke-linecap="square" stroke-linejoin="round" points="6,0 3,-3.5 3,3.5 6,0 -6,0 " />
      <line stroke="#CC0000" stroke-width="2" stroke-linecap="square" stroke-linejoin="round" x1="10" y1="0" x2="16" y2="0" />
      <rect stroke-width="1" x="-9.5" y="-7" fill="none" stroke="#CC0000" width="19" height="14" />
    </g>
    <g id="WB_INDUCTOR">
      <circle xmlns="" opacity="0.01" fill="#ffffff" stroke="#000000" stroke-width="0" cx="0" cy="0" r="14" />
      <path fill="none" stroke="#115566" stroke-width="2" stroke-linecap="round" stroke-linejoin="round" d="M-10,0c0-0.6-0.2-1.8-0.6-3.3c-0.5-2.4-2-3.7-4.4-4c-2.4,0.3-3.8,1.6-4.3,4c-0.6,2.3-0.8,3.6-0.7,3M-20,0H-30" />
      <path fill="none" stroke="#115566" stroke-width="2" stroke-linecap="round" stroke-linejoin="round" d="M0,0c0-0.6-0.2-1.8-0.6-3.3c-0.5-2.4-2-3.7-4.4-4c-2.4,0.3-3.8,1.6-4.3,4c-0.6,2.3-0.8,3.6-0.7,4" />
      <path fill="none" stroke="#115566" stroke-width="2" stroke-linecap="round" stroke-linejoin="round" d="M10,0c0-0.6-0.2-1.8-0.6-3.3c-0.5-2.4-2-3.7-4.4-4c-2.4,0.3-3.8,1.6-4.3,4c-0.6,2.3-0.8,3.6-0.7,4" />
      <path fill="none" stroke="#115566" stroke-width="2" stroke-linecap="round" stroke-linejoin="round" d="M30,0H20c0-0.6-0.2-1.8-0.6-3.3c-0.5-2.4-2-3.7-4.4-4c-2.4,0.3-3.8,1.6-4.3,4c-0.6,2.3-0.8,3.6-0.7,4" />
      <path fill="none" stroke="#115566" stroke-width="2" stroke-linecap="round" stroke-linejoin="round" d=" M10,0 c0.1,0.4,0.1,0.6,0,0.7" />
      <path fill="none" stroke="#115566" stroke-width="2" stroke-linecap="round" stroke-linejoin="round" d=" M0,0  c0.1,0.4,0.1,0.6,0,0.7" />
      <path fill="none" stroke="#115566" stroke-width="2" stroke-linecap="round" stroke-linejoin="round" d=" M-10,0c0.1,0.4,0.1,0.6,0,0.7" />
    </g>
    <g id="WB_N_MOSFET">
      <circle xmlns="" opacity="0.01" fill="#ffffff" stroke="#000000" stroke-width="0" cx="0" cy="0" r="14" />
      <line y1="0" x2="-5" stroke="#115566" x1="-15" fill="none" stroke-width="2" y2="0" />
      <line y1="-30" x2="15" stroke="#115566" x1="15" fill="none" stroke-width="2" y2="-20" />
      <line y1="30" x2="15" stroke="#115566" x1="15" fill="none" stroke-width="2" y2="20" />
      <polyline stroke="#115566" points="4,-10 4,10  " stroke-linejoin="round" fill="none" stroke-width="2" stroke-linecap="round" />
      <polyline stroke="#115566" points="15,-10 15,-8  " stroke-linejoin="round" fill="none" stroke-width="2" stroke-linecap="round" />
      <polyline stroke="#115566" points="15,-8 5,-8  " stroke-linejoin="round" fill="none" stroke-width="2" stroke-linecap="round" />
      <polyline stroke="#115566" points="11,0 15,0  " stroke-linejoin="round" fill="none" stroke-width="2" stroke-linecap="round" />
      <polyline stroke="#115566" points="15,0 15,10  " stroke-linejoin="round" fill="none" stroke-width="2" stroke-linecap="round" />
      <polyline stroke="#115566" points="5,8 14,8  " stroke-linejoin="round" fill="none" stroke-width="2" stroke-linecap="round" />
      <polyline stroke="#115566" points="15,-10 15,-8  " stroke-linejoin="round" fill="none" stroke-width="2" stroke-linecap="round" />
      <polyline stroke="#115566" points="15,-8 4,-8  " stroke-linejoin="round" fill="none" stroke-width="2" stroke-linecap="round" />
      <polyline stroke="#115566" points="4,-10 4,10  " stroke-linejoin="round" fill="none" stroke-width="2" stroke-linecap="round" />
      <polyline stroke="#115566" points="4,8 15,8  " stroke-linejoin="round" fill="none" stroke-width="2" stroke-linecap="round" />
      <polyline stroke="#115566" points="4,0 9,-5  " stroke-linejoin="round" fill="none" stroke-width="2" stroke-linecap="round" />
      <polyline stroke="#115566" points="9,-5 9,5  " stroke-linejoin="round" fill="none" stroke-width="2" stroke-linecap="round" />
      <polyline stroke="#115566" points="9,5 4,0  " stroke-linejoin="round" fill="none" stroke-width="2" stroke-linecap="round" />
      <polyline stroke="#115566" points="9,0 15,0  " stroke-linejoin="round" fill="none" stroke-width="2" stroke-linecap="round" />
      <polyline stroke="#115566" points="15,0 15,10  " stroke-linejoin="round" fill="none" stroke-width="2" stroke-linecap="round" />
      <polyline stroke="#115566" points="-5,0 0,0  " stroke-linejoin="round" fill="none" stroke-width="2" stroke-linecap="round" />
      <polyline stroke="#115566" points="0,10 0,-10  " stroke-linejoin="round" fill="none" stroke-width="2" stroke-linecap="round" />
      <polyline stroke="#115566" points="15,-20 15,-10  " stroke-linejoin="round" fill="none" stroke-width="2" stroke-linecap="round" />
      <polyline stroke="#115566" points="15,10 15,20  " stroke-linejoin="round" fill="none" stroke-width="2" stroke-linecap="round" />
    </g>
    <g id="WB_BLOCK_IO">
      <circle xmlns="" opacity="0.01" fill="#ffffff" stroke="#000000" stroke-width="0" cx="0" cy="0" r="14" />
      <line stroke="#CC0000" fill="none" stroke-width="2" x1="-5" y1="0" x2="5" y2="0" />
    </g>
    <g id="WB_RESISTOR">
      <circle xmlns="" opacity="0.01" fill="#ffffff" stroke="#000000" stroke-width="0" cx="0" cy="0" r="14" />
      <polyline fill="none" stroke="#115566" stroke-width="2" stroke-linecap="round" stroke-linejoin="round" points="30,0 20,0 15,-6 7.5,6 0,-6 -7.5,6 -15,-6 -20,0 -30,0" />
    </g>
    <g id="WB_LM3150">
      <circle xmlns="" opacity="0.01" fill="#ffffff" stroke="#000000" stroke-width="0" cx="0" cy="0" r="14" />
      <rect width="180" height="320" x="-90" y="-160" stroke="#000000" stroke-width="4" fill="#F2F2F2" stroke-linecap="round" stroke-linejoin="round" />
      <text id="partNumber_label" x="0" y="-24" style="font-family:arial;font-weight:bold;font-size:16;text-anchor:middle;">LM3150</text>
      <line fill="none" stroke="#000000" stroke-width="2" stroke-linecap="round" stroke-linejoin="round" x1="100" y1="-90" x2="90" y2="-90" />
      <text id="1" x="84" y="-86" style="font-family:arial;font-weight:normal;font-size:11;text-anchor:end;">Vcc</text>
      <line fill="none" stroke="#000000" stroke-width="2" stroke-linecap="round" stroke-linejoin="round" x1="-100" y1="-150" x2="-90" y2="-150" />
      <text id="2" x="-84" y="-146" style="font-family:arial;font-weight:normal;font-size:11;text-anchor:start;">Vin</text>
      <line fill="none" stroke="#000000" stroke-width="2" stroke-linecap="round" stroke-linejoin="round" x1="-100" y1="30" x2="-90" y2="30" />
      <text id="3" x="-84" y="34" style="font-family:arial;font-weight:normal;font-size:11;text-anchor:start;">EN</text>
      <line fill="none" stroke="#000000" stroke-width="2" stroke-linecap="round" stroke-linejoin="round" x1="30" y1="170" x2="30" y2="160" />
      <text id="4" x="30" y="155" style="font-family:arial;font-weight:normal;font-size:11;text-anchor:middle;">FB</text>
      <line fill="none" stroke="#000000" stroke-width="2" stroke-linecap="round" stroke-linejoin="round" x1="-100" y1="90" x2="-90" y2="90" />
      <text id="5" x="-84" y="94" style="font-family:arial;font-weight:normal;font-size:11;text-anchor:start;">SGND</text>
      <line fill="none" stroke="#000000" stroke-width="2" stroke-linecap="round" stroke-linejoin="round" x1="-100" y1="-30" x2="-90" y2="-30" />
      <text id="6" x="-84" y="-26" style="font-family:arial;font-weight:normal;font-size:11;text-anchor:start;">SS</text>
      <line fill="none" stroke="#000000" stroke-width="2" stroke-linecap="round" stroke-linejoin="round" x1="-100" y1="-90" x2="-90" y2="-90" />
      <text id="7" x="-84" y="-86" style="font-family:arial;font-weight:normal;font-size:11;text-anchor:start;">Ron</text>
      <line fill="none" stroke="#000000" stroke-width="2" stroke-linecap="round" stroke-linejoin="round" x1="100" y1="90" x2="90" y2="90" />
      <text id="8" x="84" y="94" style="font-family:arial;font-weight:normal;font-size:11;text-anchor:end;">Ilim</text>
      <line fill="none" stroke="#000000" stroke-width="2" stroke-linecap="round" stroke-linejoin="round" x1="-100" y1="150" x2="-90" y2="150" />
      <text id="9" x="-84" y="154" style="font-family:arial;font-weight:normal;font-size:11;text-anchor:start;">SGND</text>
      <line fill="none" stroke="#000000" stroke-width="2" stroke-linecap="round" stroke-linejoin="round" x1="100" y1="30" x2="90" y2="30" />
      <text id="10" x="84" y="34" style="font-family:arial;font-weight:normal;font-size:11;text-anchor:end;">SW</text>
      <line fill="none" stroke="#000000" stroke-width="2" stroke-linecap="round" stroke-linejoin="round" x1="100" y1="-150" x2="90" y2="-150" />
      <text id="11" x="84" y="-146" style="font-family:arial;font-weight:normal;font-size:11;text-anchor:end;">HG</text>
      <line fill="none" stroke="#000000" stroke-width="2" stroke-linecap="round" stroke-linejoin="round" x1="100" y1="-30" x2="90" y2="-30" />
      <text id="12" x="84" y="-26" style="font-family:arial;font-weight:normal;font-size:11;text-anchor:end;">BST</text>
      <line fill="none" stroke="#000000" stroke-width="2" stroke-linecap="round" stroke-linejoin="round" x1="100" y1="150" x2="90" y2="150" />
      <text id="13" x="84" y="154" style="font-family:arial;font-weight:normal;font-size:11;text-anchor:end;">LG</text>
      <line fill="none" stroke="#000000" stroke-width="2" stroke-linecap="round" stroke-linejoin="round" x1="-30" y1="170" x2="-30" y2="160" />
      <text id="14" x="-30" y="155" style="font-family:arial;font-weight:normal;font-size:11;text-anchor:middle;">PGND</text>
    </g>
    <g id="WB_VOLTAGE_PROBE">
      <circle xmlns="" opacity="0.01" fill="#ffffff" stroke="#000000" stroke-width="0" cx="0" cy="0" r="14" />
      <rect stroke-width="1" width="20" stroke="#CC0000" x="-10" height="19.5" y="-30" fill="#CC0000" fill-opacity="0.01" />
      <polyline stroke="#CC0000" points="7,-27 4,-22 3,-26 0,-18 -1,-22 -5,-14  " stroke-linejoin="round" fill="none" stroke-width="2" stroke-linecap="round" />
      <line y1="0" x2="0" stroke="#CC0000" x1="0" fill="none" stroke-width="2" y2="-10" />
    </g>
    <g id="WB_CAP_POLARIZED">
      <circle xmlns="" opacity="0.01" fill="#ffffff" stroke="#000000" stroke-width="0" cx="0" cy="0" r="14" />
      <path fill="none" stroke="#115566" stroke-width="2" stroke-linecap="round" stroke-linejoin="round" d="M-6.5,12c0.2,0,1.1 -1,2.5 -3c1.5 -2,2.3 -5,2.5 -9c-0.2 -4 -1 -7 -2.5 -9c-1.4 -2 -2.3 -3 -2.5 -3" />
      <line fill="none" stroke="#115566" stroke-width="2" x1="4" y1="13" x2="4" y2="-13" />
      <line fill="none" stroke="#115566" stroke-width="2" x1="-30" y1="0" x2="-2" y2="0" />
      <line fill="none" stroke="#115566" stroke-width="2" x1="4" y1="0" x2="30" y2="0" />
      <line fill="none" stroke="#115566" stroke-width="2" x1="14" y1="10" x2="14" y2="6" />
      <line fill="none" stroke="#115566" stroke-width="2" x1="12" y1="8" x2="16" y2="8" />
    </g>
    <g id="WB_PWL_VOLTAGE_SOURCE">
      <circle xmlns="" opacity="0.01" fill="#ffffff" stroke="#000000" stroke-width="0" cx="0" cy="0" r="14" />
      <circle fill-opacity="0.01" fill="#CC0000" stroke="#CC0000" stroke-width="2" cx="0" cy="0" r="14" />
      <line y1="0" x2="-20" stroke="#CC0000" x1="-30" fill="none" stroke-width="2" y2="0" />
      <line y1="0" x2="20" stroke="#CC0000" x1="30" fill="none" stroke-width="2" y2="0" />
      <polyline stroke="#CC0000" points="-7,6 4,8  " stroke-linejoin="round" fill="none" stroke-width="2" stroke-linecap="round" />
      <polyline stroke="#CC0000" points="-7,-6 4,-8  " stroke-linejoin="round" fill="none" stroke-width="2" stroke-linecap="round" />
      <polyline stroke="#CC0000" points="-20,0 -15,0  " stroke-linejoin="round" fill="none" stroke-width="2" stroke-linecap="round" />
      <polyline stroke="#CC0000" points="20,0 15,0  " stroke-linejoin="round" fill="none" stroke-width="2" stroke-linecap="round" />
      <polyline stroke="#CC0000" points="-7,-6 -7,6  " stroke-linejoin="round" fill="none" stroke-width="2" stroke-linecap="round" />
      <polyline stroke="#CC0000" points="4,-8 4,-11  " stroke-linejoin="round" fill="none" stroke-width="2" stroke-linecap="round" />
      <polyline stroke="#CC0000" points="4,8 4,11  " stroke-linejoin="round" fill="none" stroke-width="2" stroke-linecap="round" />
      <line x1="23" y1="-13" x2="23" y2="-7" stroke="#CC0000" fill="none" stroke-width="2" stroke-linecap="round" />
      <line x1="-23" y1="-13" x2="-23" y2="-7" stroke="#CC0000" fill="none" stroke-width="2" stroke-linecap="round" />
      <line x1="-26" y1="-10" x2="-20" y2="-10" stroke="#CC0000" fill="none" stroke-width="2" stroke-linecap="round" />
    </g>
    <g id="WB_SOURCE_RESISTOR">
      <circle xmlns="" opacity="0.01" fill="#ffffff" stroke="#000000" stroke-width="0" cx="0" cy="0" r="14" />
      <polyline fill="none" stroke="#CC0000" stroke-width="2" stroke-linecap="round" stroke-linejoin="round" points="30,0 20,0 15,-6 7.5,6 0,-6 -7.5,6 -15,-6 -20,0 -30,0" />
    </g>
    <g id="WB_PRIM_PWL_VOLTAGE_SOURCE">
      <circle xmlns="" opacity="0.01" fill="#ffffff" stroke="#000000" stroke-width="0" cx="0" cy="0" r="14" />
      <circle fill-opacity="0.01" fill="#CC0000" stroke="#CC0000" stroke-width="2" cx="0" cy="0" r="14" />
      <line x1="-30" y1="0" x2="-15" y2="0" stroke="#CC0000" fill="none" stroke-width="2" />
      <line x1="30" y1="0" x2="15" y2="0" stroke="#CC0000" fill="none" stroke-width="2" />
      <polyline stroke="#CC0000" points="0,13 0,8 -7,6 -7,0 7,-4 0,-8 0,-13" stroke-linejoin="round" fill="none" stroke-width="2" stroke-linecap="round" />
      <line x1="23" y1="-13" x2="23" y2="-7" stroke="#CC0000" fill="none" stroke-width="2" stroke-linecap="round" />
      <line x1="-23" y1="-13" x2="-23" y2="-7" stroke="#CC0000" fill="none" stroke-width="2" stroke-linecap="round" />
      <line x1="-26" y1="-10" x2="-20" y2="-10" stroke="#CC0000" fill="none" stroke-width="2" stroke-linecap="round" />
    </g>
    <g id="WB_LOAD_RESISTOR">
      <circle xmlns="" opacity="0.01" fill="#ffffff" stroke="#000000" stroke-width="0" cx="0" cy="0" r="14" />
      <polyline fill="none" stroke="#CC0000" stroke-width="2" stroke-linecap="round" stroke-linejoin="round" points="30,0 20,0 15,-6 7.5,6 0,-6 -7.5,6 -15,-6 -20,0 -30,0" />
    </g>
    <g id="WB_PRIM_STARTUP_VOLTAGE_SOURCE">
      <circle xmlns="" opacity="0.01" fill="#ffffff" stroke="#000000" stroke-width="0" cx="0" cy="0" r="14" />
      <circle fill-opacity="0.01" fill="#CC0000" stroke="#CC0000" stroke-width="2" cx="0" cy="0" r="14" />
      <polyline fill="none" stroke="#CC0000" stroke-width="2" points="-6,-11 -6,7 5,9 5,12 " />
      <line fill="none" stroke="#CC0000" stroke-width="2" x1="16" y1="-12" x2="16" y2="-18" />
      <line fill="none" stroke="#CC0000" stroke-width="2" x1="-17" y1="-12" x2="-17" y2="-18" />
      <line fill="none" stroke="#CC0000" stroke-width="2" x1="-14" y1="-15" x2="-20" y2="-15" />
      <line fill="none" stroke="#CC0000" stroke-width="2" x1="-15" y1="0" x2="-30" y2="0" />
      <line fill="none" stroke="#CC0000" stroke-width="2" x1="30" y1="0" x2="15" y2="0" />
    </g>
    <g id="WB_STARTUP_VOLTAGE_SOURCE">
      <circle xmlns="" opacity="0.01" fill="#ffffff" stroke="#000000" stroke-width="0" cx="0" cy="0" r="14" />
      <circle fill-opacity="0.01" fill="#CC0000" stroke="#CC0000" stroke-width="2" cx="0" cy="0" r="14" />
      <polyline fill="none" stroke="#CC0000" stroke-width="2" points="-6,-11 -6,7 5,9 5,12 " />
      <line fill="none" stroke="#CC0000" stroke-width="2" x1="16" y1="-12" x2="16" y2="-18" />
      <line fill="none" stroke="#CC0000" stroke-width="2" x1="-17" y1="-12" x2="-17" y2="-18" />
      <line fill="none" stroke="#CC0000" stroke-width="2" x1="-14" y1="-15" x2="-20" y2="-15" />
      <line fill="none" stroke="#CC0000" stroke-width="2" x1="-15" y1="0" x2="-30" y2="0" />
      <line fill="none" stroke="#CC0000" stroke-width="2" x1="30" y1="0" x2="15" y2="0" />
    </g>
    <g id="WB_PWL_CURRENT_LOAD">
      <circle xmlns="" opacity="0.01" fill="#ffffff" stroke="#000000" stroke-width="0" cx="0" cy="0" r="14" />
      <circle fill-opacity="0.01" fill="#CC0000" stroke="#CC0000" stroke-width="2" cx="0" cy="0" r="14" />
      <line y1="0" x2="-20" stroke="#CC0000" x1="-30" fill="none" stroke-width="2" y2="0" />
      <line y1="0" x2="20" stroke="#CC0000" x1="30" fill="none" stroke-width="2" y2="0" />
      <polyline stroke="#CC0000" points="-7,6 4,8  " stroke-linejoin="round" fill="none" stroke-width="2" stroke-linecap="round" />
      <polyline stroke="#CC0000" points="-7,-6 4,-8  " stroke-linejoin="round" fill="none" stroke-width="2" stroke-linecap="round" />
      <polyline stroke="#CC0000" points="-20,0 -15,0  " stroke-linejoin="round" fill="none" stroke-width="2" stroke-linecap="round" />
      <polyline stroke="#CC0000" points="20,0 15,0  " stroke-linejoin="round" fill="none" stroke-width="2" stroke-linecap="round" />
      <polyline stroke="#CC0000" points="-7,-6 -7,6  " stroke-linejoin="round" fill="none" stroke-width="2" stroke-linecap="round" />
      <polyline stroke="#CC0000" points="4,-8 4,-11  " stroke-linejoin="round" fill="none" stroke-width="2" stroke-linecap="round" />
      <polyline stroke="#CC0000" points="4,8 4,11  " stroke-linejoin="round" fill="none" stroke-width="2" stroke-linecap="round" />
      <line x1="23" y1="-13" x2="23" y2="-7" stroke="#CC0000" fill="none" stroke-width="2" stroke-linecap="round" />
      <line x1="-23" y1="-13" x2="-23" y2="-7" stroke="#CC0000" fill="none" stroke-width="2" stroke-linecap="round" />
      <line x1="-26" y1="-10" x2="-20" y2="-10" stroke="#CC0000" fill="none" stroke-width="2" stroke-linecap="round" />
    </g>
    <g id="WB_PRIMITIVE_BATTERY">
      <circle xmlns="" opacity="0.01" fill="#ffffff" stroke="#000000" stroke-width="0" cx="0" cy="0" r="14" />
      <line fill="none" stroke="#CC0000" stroke-width="2" x1="-8" y1="0" x2="-30" y2="0" />
      <line fill="none" stroke="#CC0000" stroke-width="2" x1="-7" y1="12" x2="-7" y2="-12" />
      <line fill="none" stroke="#CC0000" stroke-width="2" x1="4" y1="12" x2="4" y2="-12" />
      <line fill="none" stroke="#CC0000" stroke-width="2" x1="30" y1="0" x2="11" y2="0" />
      <line fill="none" stroke="#CC0000" stroke-width="2" x1="-2" y1="5" x2="-2" y2="-5" />
      <line fill="none" stroke="#CC0000" stroke-width="2" x1="-1" y1="5" x2="-1" y2="-5" />
      <line fill="none" stroke="#CC0000" stroke-width="2" x1="-14" y1="-9" x2="-14" y2="-15" />
      <line fill="none" stroke="#CC0000" stroke-width="2" x1="-11" y1="-12" x2="-17" y2="-12" />
      <line fill="none" stroke="#CC0000" stroke-width="2" x1="13" y1="-10" x2="13" y2="-15" />
      <line fill="none" stroke="#CC0000" stroke-width="2" x1="10" y1="5" x2="10" y2="-5" />
      <line fill="none" stroke="#CC0000" stroke-width="2" x1="9" y1="5" x2="9" y2="-5" />
    </g>
    <g id="WB_CURRENT_LOAD">
      <circle xmlns="" opacity="0.01" fill="#ffffff" stroke="#000000" stroke-width="0" cx="0" cy="0" r="14" />
      <path fill="none" stroke="#CC0000" stroke-width="2" stroke-linecap="round" stroke-linejoin="round" d="M-15,0c 0.1, 4.2, 1.6, 7.7, 4.4, 10.6c 2.8, 2.8, 6.4, 4.3, 10.6, 4.4c 4.3-0.1, 7.8-1.6, 10.6 -4.4c 2.9-2.9, 4.3-6.4, 4.4-10.6" />
      <path fill="none" stroke="#CC0000" stroke-width="2" stroke-linecap="round" stroke-linejoin="round" d="M15,0c -0.1,-4.2,-1.6,-7.7,-4.4,-10.6c-2.8,-2.8,-6.4,-4.3,-10.6,-4.4c-4.3,0.1 -7.8,1.6 -10.6,4.4c-2.9,2.9 -4.3,6.4 -4.4,10.6" />
      <line fill="none" stroke="#CC0000" stroke-width="2" x1="30" y1="0" x2="15" y2="0" />
      <line fill="none" stroke="#CC0000" stroke-width="2" x1="-15" y1="0" x2="-30" y2="0" />
      <line fill="none" stroke="#CC0000" stroke-width="2" stroke-linecap="round" stroke-linejoin="round" x1="3" y1="7" x2="12" y2="0" />
      <line fill="none" stroke="#CC0000" stroke-width="2" stroke-linecap="round" stroke-linejoin="round" x1="3" y1="-7" x2="12" y2="0" />
      <line fill="none" stroke="#CC0000" stroke-width="2" stroke-linecap="round" stroke-linejoin="round" x1="12" y1="0" x2="-12" y2="0" />
    </g>
    <g id="WB_BATTERY">
      <circle xmlns="" opacity="0.01" fill="#ffffff" stroke="#000000" stroke-width="0" cx="0" cy="0" r="14" />
      <line fill="none" stroke="#CC0000" stroke-width="2" x1="-8" y1="0" x2="-30" y2="0" />
      <line fill="none" stroke="#CC0000" stroke-width="2" x1="-7" y1="12" x2="-7" y2="-12" />
      <line fill="none" stroke="#CC0000" stroke-width="2" x1="4" y1="12" x2="4" y2="-12" />
      <line fill="none" stroke="#CC0000" stroke-width="2" x1="30" y1="0" x2="11" y2="0" />
      <line fill="none" stroke="#CC0000" stroke-width="2" x1="-2" y1="5" x2="-2" y2="-5" />
      <line fill="none" stroke="#CC0000" stroke-width="2" x1="-1" y1="5" x2="-1" y2="-5" />
      <line fill="none" stroke="#CC0000" stroke-width="2" x1="-14" y1="-9" x2="-14" y2="-15" />
      <line fill="none" stroke="#CC0000" stroke-width="2" x1="-11" y1="-12" x2="-17" y2="-12" />
      <line fill="none" stroke="#CC0000" stroke-width="2" x1="13" y1="-10" x2="13" y2="-15" />
      <line fill="none" stroke="#CC0000" stroke-width="2" x1="10" y1="5" x2="10" y2="-5" />
      <line fill="none" stroke="#CC0000" stroke-width="2" x1="9" y1="5" x2="9" y2="-5" />
    </g>
  </defs>
  <use id="Cbst" class="comp" xlink:href="#WB_CAPACITOR" x="700.0" y="350.0" transform="rotate(-90, 700.0, 350.0)" cap="470nF" partNo="ECPU1C474MA5" thermalId="1206" esr="0Ohm" manufacturer="Panasonic" />
  <text for="Cbst" x="715.0" y="350.0" style="font-family:arial;font-size:13px;stroke-width:0.5;stroke:#115566;fill:#115566;">Cbst</text>
  <text for="Cbst" x="715.0" y="360.0" style="font-family:arial;font-size:10px;stroke-width:0.1;stroke:#CC0000;fill:#CC0000;">470nF</text>
  <text for="Cbst" x="715.0" y="370.0" style="font-family:arial;font-size:10px;stroke-width:0.1;stroke:#CC0000;fill:#CC0000;">0Ohm</text>
  <use id="Cin" class="comp" xlink:href="#WB_CAPACITOR" x="185.0" y="230.0" transform="rotate(-90, 185.0, 230.0)" cap="4.7uF" partNo="GRM31CR71H475KA12L" thermalId="1206" esr="3mOhm" manufacturer="MuRata" />
  <text for="Cin" x="200.0" y="230.0" style="font-family:arial;font-size:13px;stroke-width:0.5;stroke:#115566;fill:#115566;">Cin</text>
  <text for="Cin" x="200.0" y="240.0" style="font-family:arial;font-size:10px;stroke-width:0.1;stroke:#CC0000;fill:#CC0000;">4.7uF</text>
  <text for="Cin" x="200.0" y="250.0" style="font-family:arial;font-size:10px;stroke-width:0.1;stroke:#CC0000;fill:#CC0000;">3mOhm</text>
  <text for="Cin" x="200.0" y="260.0" style="font-family:arial;font-size:10px;stroke-width:0.1;stroke:#CC0000;fill:#CC0000;">Qty=3</text>
  <use id="Css" class="comp" xlink:href="#WB_CAPACITOR" x="360.0" y="350.0" transform="rotate(-90, 360.0, 350.0)" cap="15nF" partNo="C2012C0G1H153J085AA" thermalId="0805" esr="0Ohm" manufacturer="TDK" />
  <text for="Css" x="375.0" y="350.0" style="font-family:arial;font-size:13px;stroke-width:0.5;stroke:#115566;fill:#115566;">Css</text>
  <text for="Css" x="375.0" y="360.0" style="font-family:arial;font-size:10px;stroke-width:0.1;stroke:#CC0000;fill:#CC0000;">15nF</text>
  <text for="Css" x="375.0" y="370.0" style="font-family:arial;font-size:10px;stroke-width:0.1;stroke:#CC0000;fill:#CC0000;">0Ohm</text>
  <use id="GND1" class="other" xlink:href="#WB_GND" x="185.0" y="340.0" />
  <use id="GND2" class="other" xlink:href="#WB_GND" x="360.0" y="390.0" />
  <use id="GND5" class="other" xlink:href="#WB_GND" x="770.0" y="330.0" />
  <use id="GND8" class="other" xlink:href="#WB_GND" x="1170.0" y="550.0" />
  <use id="L1" class="comp" xlink:href="#WB_INDUCTOR" x="920.0" y="320.0" partNo="SRP1270-3R3M" thermalId="SRP1270" l="3.3uH" dcr="6.6mOhm" manufacturer="Bourns" />
  <text for="L1" x="900.0" y="305.0" style="font-family:arial;font-size:13px;stroke-width:0.5;stroke:#115566;fill:#115566;">L1</text>
  <text for="L1" x="900.0" y="340.0" style="font-family:arial;font-size:10px;stroke-width:0.1;stroke:#CC0000;fill:#CC0000;">3.3uH</text>
  <text for="L1" x="900.0" y="350.0" style="font-family:arial;font-size:10px;stroke-width:0.1;stroke:#CC0000;fill:#CC0000;">6.6mOhm</text>
  <use id="M1" class="comp" xlink:href="#WB_N_MOSFET" x="845.0" y="200.0" partNo="CSD17302Q5A" thermalId="TRANS_NexFET_Q5A" vdsmax="30V" idsmax="87Amps" manufacturer="Texas Instruments" />
  <text for="M1" x="825.0" y="185.0" style="font-family:arial;font-size:13px;stroke-width:0.5;stroke:#115566;fill:#115566;">M1</text>
  <text for="M1" x="825.0" y="220.0" style="font-family:arial;font-size:10px;stroke-width:0.1;stroke:#CC0000;fill:#CC0000;">30V</text>
  <text for="M1" x="825.0" y="230.0" style="font-family:arial;font-size:10px;stroke-width:0.1;stroke:#CC0000;fill:#CC0000;">87Amps</text>
  <use id="Rfb1" class="comp" xlink:href="#WB_RESISTOR" x="1090.0" y="490.0" transform="rotate(-90, 1090.0, 490.0)" partNo="ERJ-6ENF1002V" thermalId="0805" resistance="10kOhm" manufacturer="Panasonic" />
  <text for="Rfb1" x="1105.0" y="490.0" style="font-family:arial;font-size:13px;stroke-width:0.5;stroke:#115566;fill:#115566;">Rfb1</text>
  <text for="Rfb1" x="1105.0" y="500.0" style="font-family:arial;font-size:10px;stroke-width:0.1;stroke:#CC0000;fill:#CC0000;">10kOhm</text>
  <use id="Rfb2" class="comp" xlink:href="#WB_RESISTOR" x="1090.0" y="370.0" transform="rotate(-90, 1090.0, 370.0)" partNo="ERJ-6ENF1403V" thermalId="0805" resistance="140kOhm" manufacturer="Panasonic" />
  <text for="Rfb2" x="1105.0" y="370.0" style="font-family:arial;font-size:13px;stroke-width:0.5;stroke:#115566;fill:#115566;">Rfb2</text>
  <text for="Rfb2" x="1105.0" y="380.0" style="font-family:arial;font-size:10px;stroke-width:0.1;stroke:#CC0000;fill:#CC0000;">140kOhm</text>
  <use id="Rilim" class="comp" xlink:href="#WB_RESISTOR" x="700.0" y="440.0" partNo="ERJ-6ENF2151V" thermalId="0805" resistance="2.15kOhm" manufacturer="Panasonic" />
  <text for="Rilim" x="680.0" y="425.0" style="font-family:arial;font-size:13px;stroke-width:0.5;stroke:#115566;fill:#115566;">Rilim</text>
  <text for="Rilim" x="680.0" y="460.0" style="font-family:arial;font-size:10px;stroke-width:0.1;stroke:#CC0000;fill:#CC0000;">2.15kOhm</text>
  <use id="U1" class="comp" xlink:href="#WB_LM3150" x="530.0" y="350.0" />
  <text for="U1" x="510.0" y="350.0" style="font-family:arial;font-size:13px;stroke-width:0.5;stroke:#115566;fill:#115566;">U1</text>
  <use id="Cout" class="comp" xlink:href="#WB_CAP_POLARIZED" x="1170.0" y="430.0" transform="rotate(-90, 1170.0, 430.0)" cap="180uF" partNo="16SVPE180M" thermalId="CAPSMT_62_C10" esr="11mOhm" manufacturer="Panasonic" />
  <text for="Cout" x="1185.0" y="430.0" style="font-family:arial;font-size:13px;stroke-width:0.5;stroke:#115566;fill:#115566;">Cout</text>
  <text for="Cout" x="1185.0" y="440.0" style="font-family:arial;font-size:10px;stroke-width:0.1;stroke:#CC0000;fill:#CC0000;">180uF</text>
  <text for="Cout" x="1185.0" y="450.0" style="font-family:arial;font-size:10px;stroke-width:0.1;stroke:#CC0000;fill:#CC0000;">11mOhm</text>
  <use id="Cff" class="comp" xlink:href="#WB_CAPACITOR" x="1010.0" y="380.0" transform="rotate(-90, 1010.0, 380.0)" cap="82pF" partNo="CC0805JRNPO9BN820" thermalId="0805" esr="0Ohm" manufacturer="Yageo" />
  <text for="Cff" x="1025.0" y="380.0" style="font-family:arial;font-size:13px;stroke-width:0.5;stroke:#115566;fill:#115566;">Cff</text>
  <text for="Cff" x="1025.0" y="390.0" style="font-family:arial;font-size:10px;stroke-width:0.1;stroke:#CC0000;fill:#CC0000;">82pF</text>
  <text for="Cff" x="1025.0" y="400.0" style="font-family:arial;font-size:10px;stroke-width:0.1;stroke:#CC0000;fill:#CC0000;">0Ohm</text>
  <use id="Cbyp" class="comp" xlink:href="#WB_CAPACITOR" x="270.0" y="230.0" transform="rotate(-90, 270.0, 230.0)" cap="100nF" partNo="C0805C104M5RACTU" thermalId="0805" esr="64mOhm" manufacturer="Kemet" />
  <text for="Cbyp" x="285.0" y="230.0" style="font-family:arial;font-size:13px;stroke-width:0.5;stroke:#115566;fill:#115566;">Cbyp</text>
  <text for="Cbyp" x="285.0" y="240.0" style="font-family:arial;font-size:10px;stroke-width:0.1;stroke:#CC0000;fill:#CC0000;">100nF</text>
  <text for="Cbyp" x="285.0" y="250.0" style="font-family:arial;font-size:10px;stroke-width:0.1;stroke:#CC0000;fill:#CC0000;">64mOhm</text>
  <use id="Cvcc" class="comp" xlink:href="#WB_CAPACITOR" x="770.0" y="290.0" transform="rotate(-90, 770.0, 290.0)" cap="2.2uF" partNo="GRM21BR71A225KA01L" thermalId="0805" esr="4.22mOhm" manufacturer="MuRata" />
  <text for="Cvcc" x="785.0" y="290.0" style="font-family:arial;font-size:13px;stroke-width:0.5;stroke:#115566;fill:#115566;">Cvcc</text>
  <text for="Cvcc" x="785.0" y="300.0" style="font-family:arial;font-size:10px;stroke-width:0.1;stroke:#CC0000;fill:#CC0000;">2.2uF</text>
  <text for="Cvcc" x="785.0" y="310.0" style="font-family:arial;font-size:10px;stroke-width:0.1;stroke:#CC0000;fill:#CC0000;">4.22mOhm</text>
  <use id="GND4" class="other" xlink:href="#WB_GND" x="460.0" y="590.0" />
  <use id="GND6" class="other" xlink:href="#WB_GND" x="860.0" y="550.0" />
  <use id="M2" class="comp" xlink:href="#WB_N_MOSFET" x="845.0" y="500.0" partNo="CSD18533Q5A" thermalId="DQJ0008A" vdsmax="60V" idsmax="100Amps" manufacturer="Texas Instruments" />
  <text for="M2" x="825.0" y="485.0" style="font-family:arial;font-size:13px;stroke-width:0.5;stroke:#115566;fill:#115566;">M2</text>
  <text for="M2" x="825.0" y="520.0" style="font-family:arial;font-size:10px;stroke-width:0.1;stroke:#CC0000;fill:#CC0000;">60V</text>
  <text for="M2" x="825.0" y="530.0" style="font-family:arial;font-size:10px;stroke-width:0.1;stroke:#CC0000;fill:#CC0000;">100Amps</text>
  <use id="Ron" class="comp" xlink:href="#WB_RESISTOR" x="360.0" y="220.0" transform="rotate(-90, 360.0, 220.0)" partNo="ERJ-6ENF1473V" thermalId="0805" resistance="147kOhm" manufacturer="Panasonic" />
  <text for="Ron" x="375.0" y="220.0" style="font-family:arial;font-size:13px;stroke-width:0.5;stroke:#115566;fill:#115566;">Ron</text>
  <text for="Ron" x="375.0" y="230.0" style="font-family:arial;font-size:10px;stroke-width:0.1;stroke:#CC0000;fill:#CC0000;">147kOhm</text>
  <use id="Vin" class="other" xlink:href="#WB_BATTERY" x="100.0" y="190.0" transform="rotate(-270, 100.0, 190.0)" />
  <text for="Vin" x="115.0" y="190.0" style="font-family:arial;font-size:13px;stroke-width:0.5;stroke:#CC0000;fill:#CC0000;">Vin</text>
  <use id="Iout" class="other" xlink:href="#WB_CURRENT_LOAD" x="1250.0" y="460.0" transform="rotate(-270, 1250.0, 460.0)" />
  <text for="Iout" x="1265.0" y="460.0" style="font-family:arial;font-size:13px;stroke-width:0.5;stroke:#CC0000;fill:#CC0000;">Iout</text>
  <line x1="1010.0" y1="350.0" x2="1010.0" y2="320.0" stroke="#000000" stroke-width="2" fill="none" />
  <line x1="185.0" y1="200.0" x2="185.0" y2="110.0" stroke="#000000" stroke-width="2" fill="none" />
  <line x1="270.0" y1="260.0" x2="270.0" y2="330.0" stroke="#000000" stroke-width="2" fill="none" />
  <line x1="360.0" y1="260.0" x2="360.0" y2="250.0" stroke="#000000" stroke-width="2" fill="none" />
  <line x1="360.0" y1="260.0" x2="430.0" y2="260.0" stroke="#000000" stroke-width="2" fill="none" />
  <line x1="420.0" y1="580.0" x2="420.0" y2="440.0" stroke="#000000" stroke-width="2" fill="none" />
  <line x1="430.0" y1="440.0" x2="420.0" y2="440.0" stroke="#000000" stroke-width="2" fill="none" />
  <line x1="430.0" y1="200.0" x2="430.0" y2="110.0" stroke="#000000" stroke-width="2" fill="none" />
  <line x1="500.0" y1="580.0" x2="420.0" y2="580.0" stroke="#000000" stroke-width="2" fill="none" />
  <line x1="560.0" y1="580.0" x2="1010.0" y2="580.0" stroke="#000000" stroke-width="2" fill="none" />
  <line x1="630.0" y1="500.0" x2="830.0" y2="500.0" stroke="#000000" stroke-width="2" fill="none" />
  <line x1="630.0" y1="320.0" x2="700.0" y2="320.0" stroke="#000000" stroke-width="2" fill="none" />
  <line x1="630.0" y1="200.0" x2="830.0" y2="200.0" stroke="#000000" stroke-width="2" fill="none" />
  <line x1="670.0" y1="440.0" x2="630.0" y2="440.0" stroke="#000000" stroke-width="2" fill="none" />
  <line x1="860.0" y1="170.0" x2="860.0" y2="110.0" stroke="#000000" stroke-width="2" fill="none" />
  <line x1="1010.0" y1="420.0" x2="1090.0" y2="420.0" stroke="#000000" stroke-width="2" fill="none" />
  <line x1="1090.0" y1="460.0" x2="1090.0" y2="400.0" stroke="#000000" stroke-width="2" fill="none" />
  <line x1="1170.0" y1="460.0" x2="1170.0" y2="540.0" stroke="#000000" stroke-width="2" fill="none" />
  <line x1="270.0" y1="200.0" x2="270.0" y2="110.0" stroke="#000000" stroke-width="2" fill="none" />
  <line x1="420.0" y1="500.0" x2="430.0" y2="500.0" stroke="#000000" stroke-width="2" fill="none" />
  <line x1="430.0" y1="320.0" x2="360.0" y2="320.0" stroke="#000000" stroke-width="2" fill="none" />
  <line x1="500.0" y1="520.0" x2="500.0" y2="580.0" stroke="#000000" stroke-width="2" fill="none" />
  <line x1="560.0" y1="520.0" x2="560.0" y2="580.0" stroke="#000000" stroke-width="2" fill="none" />
  <line x1="630.0" y1="260.0" x2="770.0" y2="260.0" stroke="#000000" stroke-width="2" fill="none" />
  <line x1="770.0" y1="440.0" x2="730.0" y2="440.0" stroke="#000000" stroke-width="2" fill="none" />
  <line x1="860.0" y1="530.0" x2="860.0" y2="540.0" stroke="#000000" stroke-width="2" fill="none" />
  <line x1="1010.0" y1="580.0" x2="1010.0" y2="410.0" stroke="#000000" stroke-width="2" fill="none" />
  <line x1="1090.0" y1="540.0" x2="1090.0" y2="520.0" stroke="#000000" stroke-width="2" fill="none" />
  <line x1="185.0" y1="330.0" x2="185.0" y2="260.0" stroke="#000000" stroke-width="2" fill="none" />
  <line x1="770.0" y1="440.0" x2="770.0" y2="380.0" stroke="#000000" stroke-width="2" fill="none" />
  <line x1="860.0" y1="320.0" x2="890.0" y2="320.0" stroke="#000000" stroke-width="2" fill="none" />
  <line x1="360.0" y1="190.0" x2="360.0" y2="110.0" stroke="#000000" stroke-width="2" fill="none" />
  <line x1="630.0" y1="380.0" x2="860.0" y2="380.0" stroke="#000000" stroke-width="2" fill="none" />
  <line x1="1090.0" y1="340.0" x2="1090.0" y2="320.0" stroke="#000000" stroke-width="2" fill="none" />
  <line x1="100.0" y1="110.0" x2="860.0" y2="110.0" stroke="#000000" stroke-width="2" fill="none" />
  <line x1="1090.0" y1="540.0" x2="1250.0" y2="540.0" stroke="#000000" stroke-width="2" fill="none" />
  <line x1="1170.0" y1="400.0" x2="1170.0" y2="320.0" stroke="#000000" stroke-width="2" fill="none" />
  <line x1="860.0" y1="470.0" x2="860.0" y2="230.0" stroke="#000000" stroke-width="2" fill="none" />
  <line x1="950.0" y1="320.0" x2="1250.0" y2="320.0" stroke="#000000" stroke-width="2" fill="none" />
  <line x1="100.0" y1="330.0" x2="270.0" y2="330.0" stroke="#000000" stroke-width="2" fill="none" />
  <line x1="100.0" y1="160.0" x2="100.0" y2="110.0" stroke="#000000" stroke-width="2" fill="none" />
  <line x1="100.0" y1="330.0" x2="100.0" y2="220.0" stroke="#000000" stroke-width="2" fill="none" />
  <line x1="1250.0" y1="430.0" x2="1250.0" y2="320.0" stroke="#000000" stroke-width="2" fill="none" />
  <line x1="1250.0" y1="540.0" x2="1250.0" y2="490.0" stroke="#000000" stroke-width="2" fill="none" />
  <line x1="360.0" y1="380.0" x2="360.0" y2="380.0" stroke="#000000" stroke-width="2" fill="none" />
  <line x1="770.0" y1="320.0" x2="770.0" y2="320.0" stroke="#000000" stroke-width="2" fill="none" />
  <circle cx="420.0" cy="500.0" r="5" stroke="#000000" stroke-width="0" fill="#000000" />
  <circle cx="1090.0" cy="420.0" r="5" stroke="#000000" stroke-width="0" fill="#000000" />
  <circle cx="1010.0" cy="420.0" r="5" stroke="#000000" stroke-width="0" fill="#000000" />
  <circle cx="770.0" cy="380.0" r="5" stroke="#000000" stroke-width="0" fill="#000000" />
  <circle cx="185.0" cy="110.0" r="5" stroke="#000000" stroke-width="0" fill="#000000" />
  <circle cx="430.0" cy="110.0" r="5" stroke="#000000" stroke-width="0" fill="#000000" />
  <circle cx="270.0" cy="110.0" r="5" stroke="#000000" stroke-width="0" fill="#000000" />
  <circle cx="360.0" cy="110.0" r="5" stroke="#000000" stroke-width="0" fill="#000000" />
  <circle cx="1170.0" cy="540.0" r="5" stroke="#000000" stroke-width="0" fill="#000000" />
  <circle cx="860.0" cy="320.0" r="5" stroke="#000000" stroke-width="0" fill="#000000" />
  <circle cx="860.0" cy="380.0" r="5" stroke="#000000" stroke-width="0" fill="#000000" />
  <circle cx="1010.0" cy="320.0" r="5" stroke="#000000" stroke-width="0" fill="#000000" />
  <circle cx="1090.0" cy="320.0" r="5" stroke="#000000" stroke-width="0" fill="#000000" />
  <circle cx="1170.0" cy="320.0" r="5" stroke="#000000" stroke-width="0" fill="#000000" />
  <circle cx="185.0" cy="330.0" r="5" stroke="#000000" stroke-width="0" fill="#000000" />
  <circle cx="460.0" cy="580.0" r="5" stroke="#000000" stroke-width="0" fill="#000000" />
  <circle cx="700.0" cy="380.0" r="5" stroke="#000000" stroke-width="0" fill="#000000" />
  <circle cx="1170.0" cy="540.0" r="5" stroke="#000000" stroke-width="0" fill="#000000" />
  <circle cx="185.0" cy="330.0" r="5" stroke="#000000" stroke-width="0" fill="#000000" />
</svg>

